%TF.GenerationSoftware,KiCad,Pcbnew,(5.99.0-9830-g9acf5e365a)*%
%TF.CreationDate,2021-04-09T09:54:32+02:00*%
%TF.ProjectId,Power Supply Control Board SG3525,506f7765-7220-4537-9570-706c7920436f,V 2.0*%
%TF.SameCoordinates,Original*%
%TF.FileFunction,Legend,Top*%
%TF.FilePolarity,Positive*%
%FSLAX46Y46*%
G04 Gerber Fmt 4.6, Leading zero omitted, Abs format (unit mm)*
G04 Created by KiCad (PCBNEW (5.99.0-9830-g9acf5e365a)) date 2021-04-09 09:54:32*
%MOMM*%
%LPD*%
G01*
G04 APERTURE LIST*
%ADD10C,0.150000*%
%ADD11C,0.120000*%
G04 APERTURE END LIST*
D10*
X112903000Y-100965000D02*
X115316000Y-101346000D01*
X112903000Y-99314000D02*
X112903000Y-100965000D01*
X111252000Y-101092000D02*
X106807000Y-101092000D01*
X111252000Y-99314000D02*
X111252000Y-101092000D01*
X110236000Y-111506000D02*
X110236000Y-114427000D01*
X106553000Y-111506000D02*
X110236000Y-111506000D01*
X114935000Y-107188000D02*
X114681000Y-109347000D01*
X117348000Y-107188000D02*
X114935000Y-107188000D01*
X138295666Y-100231380D02*
X138295666Y-99231380D01*
X138676619Y-99231380D01*
X138771857Y-99279000D01*
X138819476Y-99326619D01*
X138867095Y-99421857D01*
X138867095Y-99564714D01*
X138819476Y-99659952D01*
X138771857Y-99707571D01*
X138676619Y-99755190D01*
X138295666Y-99755190D01*
X139438523Y-100231380D02*
X139343285Y-100183761D01*
X139295666Y-100136142D01*
X139248047Y-100040904D01*
X139248047Y-99755190D01*
X139295666Y-99659952D01*
X139343285Y-99612333D01*
X139438523Y-99564714D01*
X139581380Y-99564714D01*
X139676619Y-99612333D01*
X139724238Y-99659952D01*
X139771857Y-99755190D01*
X139771857Y-100040904D01*
X139724238Y-100136142D01*
X139676619Y-100183761D01*
X139581380Y-100231380D01*
X139438523Y-100231380D01*
X140105190Y-99564714D02*
X140295666Y-100231380D01*
X140486142Y-99755190D01*
X140676619Y-100231380D01*
X140867095Y-99564714D01*
X141629000Y-100183761D02*
X141533761Y-100231380D01*
X141343285Y-100231380D01*
X141248047Y-100183761D01*
X141200428Y-100088523D01*
X141200428Y-99707571D01*
X141248047Y-99612333D01*
X141343285Y-99564714D01*
X141533761Y-99564714D01*
X141629000Y-99612333D01*
X141676619Y-99707571D01*
X141676619Y-99802809D01*
X141200428Y-99898047D01*
X142105190Y-100231380D02*
X142105190Y-99564714D01*
X142105190Y-99755190D02*
X142152809Y-99659952D01*
X142200428Y-99612333D01*
X142295666Y-99564714D01*
X142390904Y-99564714D01*
X143438523Y-100183761D02*
X143581380Y-100231380D01*
X143819476Y-100231380D01*
X143914714Y-100183761D01*
X143962333Y-100136142D01*
X144009952Y-100040904D01*
X144009952Y-99945666D01*
X143962333Y-99850428D01*
X143914714Y-99802809D01*
X143819476Y-99755190D01*
X143629000Y-99707571D01*
X143533761Y-99659952D01*
X143486142Y-99612333D01*
X143438523Y-99517095D01*
X143438523Y-99421857D01*
X143486142Y-99326619D01*
X143533761Y-99279000D01*
X143629000Y-99231380D01*
X143867095Y-99231380D01*
X144009952Y-99279000D01*
X144867095Y-99564714D02*
X144867095Y-100231380D01*
X144438523Y-99564714D02*
X144438523Y-100088523D01*
X144486142Y-100183761D01*
X144581380Y-100231380D01*
X144724238Y-100231380D01*
X144819476Y-100183761D01*
X144867095Y-100136142D01*
X145343285Y-99564714D02*
X145343285Y-100564714D01*
X145343285Y-99612333D02*
X145438523Y-99564714D01*
X145629000Y-99564714D01*
X145724238Y-99612333D01*
X145771857Y-99659952D01*
X145819476Y-99755190D01*
X145819476Y-100040904D01*
X145771857Y-100136142D01*
X145724238Y-100183761D01*
X145629000Y-100231380D01*
X145438523Y-100231380D01*
X145343285Y-100183761D01*
X146248047Y-99564714D02*
X146248047Y-100564714D01*
X146248047Y-99612333D02*
X146343285Y-99564714D01*
X146533761Y-99564714D01*
X146629000Y-99612333D01*
X146676619Y-99659952D01*
X146724238Y-99755190D01*
X146724238Y-100040904D01*
X146676619Y-100136142D01*
X146629000Y-100183761D01*
X146533761Y-100231380D01*
X146343285Y-100231380D01*
X146248047Y-100183761D01*
X147295666Y-100231380D02*
X147200428Y-100183761D01*
X147152809Y-100088523D01*
X147152809Y-99231380D01*
X147581380Y-99564714D02*
X147819476Y-100231380D01*
X148057571Y-99564714D02*
X147819476Y-100231380D01*
X147724238Y-100469476D01*
X147676619Y-100517095D01*
X147581380Y-100564714D01*
X138676619Y-101746142D02*
X138629000Y-101793761D01*
X138486142Y-101841380D01*
X138390904Y-101841380D01*
X138248047Y-101793761D01*
X138152809Y-101698523D01*
X138105190Y-101603285D01*
X138057571Y-101412809D01*
X138057571Y-101269952D01*
X138105190Y-101079476D01*
X138152809Y-100984238D01*
X138248047Y-100889000D01*
X138390904Y-100841380D01*
X138486142Y-100841380D01*
X138629000Y-100889000D01*
X138676619Y-100936619D01*
X139248047Y-101841380D02*
X139152809Y-101793761D01*
X139105190Y-101746142D01*
X139057571Y-101650904D01*
X139057571Y-101365190D01*
X139105190Y-101269952D01*
X139152809Y-101222333D01*
X139248047Y-101174714D01*
X139390904Y-101174714D01*
X139486142Y-101222333D01*
X139533761Y-101269952D01*
X139581380Y-101365190D01*
X139581380Y-101650904D01*
X139533761Y-101746142D01*
X139486142Y-101793761D01*
X139390904Y-101841380D01*
X139248047Y-101841380D01*
X140009952Y-101174714D02*
X140009952Y-101841380D01*
X140009952Y-101269952D02*
X140057571Y-101222333D01*
X140152809Y-101174714D01*
X140295666Y-101174714D01*
X140390904Y-101222333D01*
X140438523Y-101317571D01*
X140438523Y-101841380D01*
X140771857Y-101174714D02*
X141152809Y-101174714D01*
X140914714Y-100841380D02*
X140914714Y-101698523D01*
X140962333Y-101793761D01*
X141057571Y-101841380D01*
X141152809Y-101841380D01*
X141486142Y-101841380D02*
X141486142Y-101174714D01*
X141486142Y-101365190D02*
X141533761Y-101269952D01*
X141581380Y-101222333D01*
X141676619Y-101174714D01*
X141771857Y-101174714D01*
X142248047Y-101841380D02*
X142152809Y-101793761D01*
X142105190Y-101746142D01*
X142057571Y-101650904D01*
X142057571Y-101365190D01*
X142105190Y-101269952D01*
X142152809Y-101222333D01*
X142248047Y-101174714D01*
X142390904Y-101174714D01*
X142486142Y-101222333D01*
X142533761Y-101269952D01*
X142581380Y-101365190D01*
X142581380Y-101650904D01*
X142533761Y-101746142D01*
X142486142Y-101793761D01*
X142390904Y-101841380D01*
X142248047Y-101841380D01*
X143152809Y-101841380D02*
X143057571Y-101793761D01*
X143009952Y-101698523D01*
X143009952Y-100841380D01*
X144629000Y-101317571D02*
X144771857Y-101365190D01*
X144819476Y-101412809D01*
X144867095Y-101508047D01*
X144867095Y-101650904D01*
X144819476Y-101746142D01*
X144771857Y-101793761D01*
X144676619Y-101841380D01*
X144295666Y-101841380D01*
X144295666Y-100841380D01*
X144629000Y-100841380D01*
X144724238Y-100889000D01*
X144771857Y-100936619D01*
X144819476Y-101031857D01*
X144819476Y-101127095D01*
X144771857Y-101222333D01*
X144724238Y-101269952D01*
X144629000Y-101317571D01*
X144295666Y-101317571D01*
X145438523Y-101841380D02*
X145343285Y-101793761D01*
X145295666Y-101746142D01*
X145248047Y-101650904D01*
X145248047Y-101365190D01*
X145295666Y-101269952D01*
X145343285Y-101222333D01*
X145438523Y-101174714D01*
X145581380Y-101174714D01*
X145676619Y-101222333D01*
X145724238Y-101269952D01*
X145771857Y-101365190D01*
X145771857Y-101650904D01*
X145724238Y-101746142D01*
X145676619Y-101793761D01*
X145581380Y-101841380D01*
X145438523Y-101841380D01*
X146629000Y-101841380D02*
X146629000Y-101317571D01*
X146581380Y-101222333D01*
X146486142Y-101174714D01*
X146295666Y-101174714D01*
X146200428Y-101222333D01*
X146629000Y-101793761D02*
X146533761Y-101841380D01*
X146295666Y-101841380D01*
X146200428Y-101793761D01*
X146152809Y-101698523D01*
X146152809Y-101603285D01*
X146200428Y-101508047D01*
X146295666Y-101460428D01*
X146533761Y-101460428D01*
X146629000Y-101412809D01*
X147105190Y-101841380D02*
X147105190Y-101174714D01*
X147105190Y-101365190D02*
X147152809Y-101269952D01*
X147200428Y-101222333D01*
X147295666Y-101174714D01*
X147390904Y-101174714D01*
X148152809Y-101841380D02*
X148152809Y-100841380D01*
X148152809Y-101793761D02*
X148057571Y-101841380D01*
X147867095Y-101841380D01*
X147771857Y-101793761D01*
X147724238Y-101746142D01*
X147676619Y-101650904D01*
X147676619Y-101365190D01*
X147724238Y-101269952D01*
X147771857Y-101222333D01*
X147867095Y-101174714D01*
X148057571Y-101174714D01*
X148152809Y-101222333D01*
%TO.C,C14*%
X109069142Y-107449857D02*
X109116761Y-107497476D01*
X109164380Y-107640333D01*
X109164380Y-107735571D01*
X109116761Y-107878428D01*
X109021523Y-107973666D01*
X108926285Y-108021285D01*
X108735809Y-108068904D01*
X108592952Y-108068904D01*
X108402476Y-108021285D01*
X108307238Y-107973666D01*
X108212000Y-107878428D01*
X108164380Y-107735571D01*
X108164380Y-107640333D01*
X108212000Y-107497476D01*
X108259619Y-107449857D01*
X109164380Y-106497476D02*
X109164380Y-107068904D01*
X109164380Y-106783190D02*
X108164380Y-106783190D01*
X108307238Y-106878428D01*
X108402476Y-106973666D01*
X108450095Y-107068904D01*
X108497714Y-105640333D02*
X109164380Y-105640333D01*
X108116761Y-105878428D02*
X108831047Y-106116523D01*
X108831047Y-105497476D01*
%TO.C,D4*%
X107052380Y-117138095D02*
X106052380Y-117138095D01*
X106052380Y-116900000D01*
X106100000Y-116757142D01*
X106195238Y-116661904D01*
X106290476Y-116614285D01*
X106480952Y-116566666D01*
X106623809Y-116566666D01*
X106814285Y-116614285D01*
X106909523Y-116661904D01*
X107004761Y-116757142D01*
X107052380Y-116900000D01*
X107052380Y-117138095D01*
X106385714Y-115709523D02*
X107052380Y-115709523D01*
X106004761Y-115947619D02*
X106719047Y-116185714D01*
X106719047Y-115566666D01*
%TO.C,C1*%
X112607142Y-100166666D02*
X112654761Y-100214285D01*
X112702380Y-100357142D01*
X112702380Y-100452380D01*
X112654761Y-100595238D01*
X112559523Y-100690476D01*
X112464285Y-100738095D01*
X112273809Y-100785714D01*
X112130952Y-100785714D01*
X111940476Y-100738095D01*
X111845238Y-100690476D01*
X111750000Y-100595238D01*
X111702380Y-100452380D01*
X111702380Y-100357142D01*
X111750000Y-100214285D01*
X111797619Y-100166666D01*
X112702380Y-99214285D02*
X112702380Y-99785714D01*
X112702380Y-99500000D02*
X111702380Y-99500000D01*
X111845238Y-99595238D01*
X111940476Y-99690476D01*
X111988095Y-99785714D01*
%TO.C,C3*%
X110857142Y-100166666D02*
X110904761Y-100214285D01*
X110952380Y-100357142D01*
X110952380Y-100452380D01*
X110904761Y-100595238D01*
X110809523Y-100690476D01*
X110714285Y-100738095D01*
X110523809Y-100785714D01*
X110380952Y-100785714D01*
X110190476Y-100738095D01*
X110095238Y-100690476D01*
X110000000Y-100595238D01*
X109952380Y-100452380D01*
X109952380Y-100357142D01*
X110000000Y-100214285D01*
X110047619Y-100166666D01*
X109952380Y-99833333D02*
X109952380Y-99214285D01*
X110333333Y-99547619D01*
X110333333Y-99404761D01*
X110380952Y-99309523D01*
X110428571Y-99261904D01*
X110523809Y-99214285D01*
X110761904Y-99214285D01*
X110857142Y-99261904D01*
X110904761Y-99309523D01*
X110952380Y-99404761D01*
X110952380Y-99690476D01*
X110904761Y-99785714D01*
X110857142Y-99833333D01*
%TO.C,C4*%
X103327142Y-103666666D02*
X103374761Y-103714285D01*
X103422380Y-103857142D01*
X103422380Y-103952380D01*
X103374761Y-104095238D01*
X103279523Y-104190476D01*
X103184285Y-104238095D01*
X102993809Y-104285714D01*
X102850952Y-104285714D01*
X102660476Y-104238095D01*
X102565238Y-104190476D01*
X102470000Y-104095238D01*
X102422380Y-103952380D01*
X102422380Y-103857142D01*
X102470000Y-103714285D01*
X102517619Y-103666666D01*
X102755714Y-102809523D02*
X103422380Y-102809523D01*
X102374761Y-103047619D02*
X103089047Y-103285714D01*
X103089047Y-102666666D01*
%TO.C,C7*%
X140357142Y-108116666D02*
X140404761Y-108164285D01*
X140452380Y-108307142D01*
X140452380Y-108402380D01*
X140404761Y-108545238D01*
X140309523Y-108640476D01*
X140214285Y-108688095D01*
X140023809Y-108735714D01*
X139880952Y-108735714D01*
X139690476Y-108688095D01*
X139595238Y-108640476D01*
X139500000Y-108545238D01*
X139452380Y-108402380D01*
X139452380Y-108307142D01*
X139500000Y-108164285D01*
X139547619Y-108116666D01*
X139452380Y-107783333D02*
X139452380Y-107116666D01*
X140452380Y-107545238D01*
%TO.C,C8*%
X139333333Y-117857142D02*
X139285714Y-117904761D01*
X139142857Y-117952380D01*
X139047619Y-117952380D01*
X138904761Y-117904761D01*
X138809523Y-117809523D01*
X138761904Y-117714285D01*
X138714285Y-117523809D01*
X138714285Y-117380952D01*
X138761904Y-117190476D01*
X138809523Y-117095238D01*
X138904761Y-117000000D01*
X139047619Y-116952380D01*
X139142857Y-116952380D01*
X139285714Y-117000000D01*
X139333333Y-117047619D01*
X139904761Y-117380952D02*
X139809523Y-117333333D01*
X139761904Y-117285714D01*
X139714285Y-117190476D01*
X139714285Y-117142857D01*
X139761904Y-117047619D01*
X139809523Y-117000000D01*
X139904761Y-116952380D01*
X140095238Y-116952380D01*
X140190476Y-117000000D01*
X140238095Y-117047619D01*
X140285714Y-117142857D01*
X140285714Y-117190476D01*
X140238095Y-117285714D01*
X140190476Y-117333333D01*
X140095238Y-117380952D01*
X139904761Y-117380952D01*
X139809523Y-117428571D01*
X139761904Y-117476190D01*
X139714285Y-117571428D01*
X139714285Y-117761904D01*
X139761904Y-117857142D01*
X139809523Y-117904761D01*
X139904761Y-117952380D01*
X140095238Y-117952380D01*
X140190476Y-117904761D01*
X140238095Y-117857142D01*
X140285714Y-117761904D01*
X140285714Y-117571428D01*
X140238095Y-117476190D01*
X140190476Y-117428571D01*
X140095238Y-117380952D01*
%TO.C,C9*%
X142107142Y-108116666D02*
X142154761Y-108164285D01*
X142202380Y-108307142D01*
X142202380Y-108402380D01*
X142154761Y-108545238D01*
X142059523Y-108640476D01*
X141964285Y-108688095D01*
X141773809Y-108735714D01*
X141630952Y-108735714D01*
X141440476Y-108688095D01*
X141345238Y-108640476D01*
X141250000Y-108545238D01*
X141202380Y-108402380D01*
X141202380Y-108307142D01*
X141250000Y-108164285D01*
X141297619Y-108116666D01*
X142202380Y-107640476D02*
X142202380Y-107450000D01*
X142154761Y-107354761D01*
X142107142Y-107307142D01*
X141964285Y-107211904D01*
X141773809Y-107164285D01*
X141392857Y-107164285D01*
X141297619Y-107211904D01*
X141250000Y-107259523D01*
X141202380Y-107354761D01*
X141202380Y-107545238D01*
X141250000Y-107640476D01*
X141297619Y-107688095D01*
X141392857Y-107735714D01*
X141630952Y-107735714D01*
X141726190Y-107688095D01*
X141773809Y-107640476D01*
X141821428Y-107545238D01*
X141821428Y-107354761D01*
X141773809Y-107259523D01*
X141726190Y-107211904D01*
X141630952Y-107164285D01*
%TO.C,C10*%
X139607142Y-119857142D02*
X139559523Y-119904761D01*
X139416666Y-119952380D01*
X139321428Y-119952380D01*
X139178571Y-119904761D01*
X139083333Y-119809523D01*
X139035714Y-119714285D01*
X138988095Y-119523809D01*
X138988095Y-119380952D01*
X139035714Y-119190476D01*
X139083333Y-119095238D01*
X139178571Y-119000000D01*
X139321428Y-118952380D01*
X139416666Y-118952380D01*
X139559523Y-119000000D01*
X139607142Y-119047619D01*
X140559523Y-119952380D02*
X139988095Y-119952380D01*
X140273809Y-119952380D02*
X140273809Y-118952380D01*
X140178571Y-119095238D01*
X140083333Y-119190476D01*
X139988095Y-119238095D01*
X141178571Y-118952380D02*
X141273809Y-118952380D01*
X141369047Y-119000000D01*
X141416666Y-119047619D01*
X141464285Y-119142857D01*
X141511904Y-119333333D01*
X141511904Y-119571428D01*
X141464285Y-119761904D01*
X141416666Y-119857142D01*
X141369047Y-119904761D01*
X141273809Y-119952380D01*
X141178571Y-119952380D01*
X141083333Y-119904761D01*
X141035714Y-119857142D01*
X140988095Y-119761904D01*
X140940476Y-119571428D01*
X140940476Y-119333333D01*
X140988095Y-119142857D01*
X141035714Y-119047619D01*
X141083333Y-119000000D01*
X141178571Y-118952380D01*
%TO.C,D1*%
X143952380Y-113488095D02*
X142952380Y-113488095D01*
X142952380Y-113250000D01*
X143000000Y-113107142D01*
X143095238Y-113011904D01*
X143190476Y-112964285D01*
X143380952Y-112916666D01*
X143523809Y-112916666D01*
X143714285Y-112964285D01*
X143809523Y-113011904D01*
X143904761Y-113107142D01*
X143952380Y-113250000D01*
X143952380Y-113488095D01*
X143952380Y-111964285D02*
X143952380Y-112535714D01*
X143952380Y-112250000D02*
X142952380Y-112250000D01*
X143095238Y-112345238D01*
X143190476Y-112440476D01*
X143238095Y-112535714D01*
%TO.C,D2*%
X107052380Y-122738095D02*
X106052380Y-122738095D01*
X106052380Y-122500000D01*
X106100000Y-122357142D01*
X106195238Y-122261904D01*
X106290476Y-122214285D01*
X106480952Y-122166666D01*
X106623809Y-122166666D01*
X106814285Y-122214285D01*
X106909523Y-122261904D01*
X107004761Y-122357142D01*
X107052380Y-122500000D01*
X107052380Y-122738095D01*
X106147619Y-121785714D02*
X106100000Y-121738095D01*
X106052380Y-121642857D01*
X106052380Y-121404761D01*
X106100000Y-121309523D01*
X106147619Y-121261904D01*
X106242857Y-121214285D01*
X106338095Y-121214285D01*
X106480952Y-121261904D01*
X107052380Y-121833333D01*
X107052380Y-121214285D01*
%TO.C,D3*%
X104252380Y-117238095D02*
X103252380Y-117238095D01*
X103252380Y-117000000D01*
X103300000Y-116857142D01*
X103395238Y-116761904D01*
X103490476Y-116714285D01*
X103680952Y-116666666D01*
X103823809Y-116666666D01*
X104014285Y-116714285D01*
X104109523Y-116761904D01*
X104204761Y-116857142D01*
X104252380Y-117000000D01*
X104252380Y-117238095D01*
X103252380Y-116333333D02*
X103252380Y-115714285D01*
X103633333Y-116047619D01*
X103633333Y-115904761D01*
X103680952Y-115809523D01*
X103728571Y-115761904D01*
X103823809Y-115714285D01*
X104061904Y-115714285D01*
X104157142Y-115761904D01*
X104204761Y-115809523D01*
X104252380Y-115904761D01*
X104252380Y-116190476D01*
X104204761Y-116285714D01*
X104157142Y-116333333D01*
%TO.C,D5*%
X104252380Y-122538095D02*
X103252380Y-122538095D01*
X103252380Y-122300000D01*
X103300000Y-122157142D01*
X103395238Y-122061904D01*
X103490476Y-122014285D01*
X103680952Y-121966666D01*
X103823809Y-121966666D01*
X104014285Y-122014285D01*
X104109523Y-122061904D01*
X104204761Y-122157142D01*
X104252380Y-122300000D01*
X104252380Y-122538095D01*
X103252380Y-121061904D02*
X103252380Y-121538095D01*
X103728571Y-121585714D01*
X103680952Y-121538095D01*
X103633333Y-121442857D01*
X103633333Y-121204761D01*
X103680952Y-121109523D01*
X103728571Y-121061904D01*
X103823809Y-121014285D01*
X104061904Y-121014285D01*
X104157142Y-121061904D01*
X104204761Y-121109523D01*
X104252380Y-121204761D01*
X104252380Y-121442857D01*
X104204761Y-121538095D01*
X104157142Y-121585714D01*
%TO.C,Q1*%
X116154761Y-105547619D02*
X116059523Y-105500000D01*
X115964285Y-105404761D01*
X115821428Y-105261904D01*
X115726190Y-105214285D01*
X115630952Y-105214285D01*
X115678571Y-105452380D02*
X115583333Y-105404761D01*
X115488095Y-105309523D01*
X115440476Y-105119047D01*
X115440476Y-104785714D01*
X115488095Y-104595238D01*
X115583333Y-104500000D01*
X115678571Y-104452380D01*
X115869047Y-104452380D01*
X115964285Y-104500000D01*
X116059523Y-104595238D01*
X116107142Y-104785714D01*
X116107142Y-105119047D01*
X116059523Y-105309523D01*
X115964285Y-105404761D01*
X115869047Y-105452380D01*
X115678571Y-105452380D01*
X117059523Y-105452380D02*
X116488095Y-105452380D01*
X116773809Y-105452380D02*
X116773809Y-104452380D01*
X116678571Y-104595238D01*
X116583333Y-104690476D01*
X116488095Y-104738095D01*
%TO.C,Q2*%
X115093761Y-111037619D02*
X114998523Y-110990000D01*
X114903285Y-110894761D01*
X114760428Y-110751904D01*
X114665190Y-110704285D01*
X114569952Y-110704285D01*
X114617571Y-110942380D02*
X114522333Y-110894761D01*
X114427095Y-110799523D01*
X114379476Y-110609047D01*
X114379476Y-110275714D01*
X114427095Y-110085238D01*
X114522333Y-109990000D01*
X114617571Y-109942380D01*
X114808047Y-109942380D01*
X114903285Y-109990000D01*
X114998523Y-110085238D01*
X115046142Y-110275714D01*
X115046142Y-110609047D01*
X114998523Y-110799523D01*
X114903285Y-110894761D01*
X114808047Y-110942380D01*
X114617571Y-110942380D01*
X115427095Y-110037619D02*
X115474714Y-109990000D01*
X115569952Y-109942380D01*
X115808047Y-109942380D01*
X115903285Y-109990000D01*
X115950904Y-110037619D01*
X115998523Y-110132857D01*
X115998523Y-110228095D01*
X115950904Y-110370952D01*
X115379476Y-110942380D01*
X115998523Y-110942380D01*
%TO.C,R1*%
X146952380Y-121666666D02*
X146476190Y-122000000D01*
X146952380Y-122238095D02*
X145952380Y-122238095D01*
X145952380Y-121857142D01*
X146000000Y-121761904D01*
X146047619Y-121714285D01*
X146142857Y-121666666D01*
X146285714Y-121666666D01*
X146380952Y-121714285D01*
X146428571Y-121761904D01*
X146476190Y-121857142D01*
X146476190Y-122238095D01*
X146952380Y-120714285D02*
X146952380Y-121285714D01*
X146952380Y-121000000D02*
X145952380Y-121000000D01*
X146095238Y-121095238D01*
X146190476Y-121190476D01*
X146238095Y-121285714D01*
%TO.C,R2*%
X149702380Y-121916666D02*
X149226190Y-122250000D01*
X149702380Y-122488095D02*
X148702380Y-122488095D01*
X148702380Y-122107142D01*
X148750000Y-122011904D01*
X148797619Y-121964285D01*
X148892857Y-121916666D01*
X149035714Y-121916666D01*
X149130952Y-121964285D01*
X149178571Y-122011904D01*
X149226190Y-122107142D01*
X149226190Y-122488095D01*
X148797619Y-121535714D02*
X148750000Y-121488095D01*
X148702380Y-121392857D01*
X148702380Y-121154761D01*
X148750000Y-121059523D01*
X148797619Y-121011904D01*
X148892857Y-120964285D01*
X148988095Y-120964285D01*
X149130952Y-121011904D01*
X149702380Y-121583333D01*
X149702380Y-120964285D01*
%TO.C,R3*%
X149702380Y-109416666D02*
X149226190Y-109750000D01*
X149702380Y-109988095D02*
X148702380Y-109988095D01*
X148702380Y-109607142D01*
X148750000Y-109511904D01*
X148797619Y-109464285D01*
X148892857Y-109416666D01*
X149035714Y-109416666D01*
X149130952Y-109464285D01*
X149178571Y-109511904D01*
X149226190Y-109607142D01*
X149226190Y-109988095D01*
X148702380Y-109083333D02*
X148702380Y-108464285D01*
X149083333Y-108797619D01*
X149083333Y-108654761D01*
X149130952Y-108559523D01*
X149178571Y-108511904D01*
X149273809Y-108464285D01*
X149511904Y-108464285D01*
X149607142Y-108511904D01*
X149654761Y-108559523D01*
X149702380Y-108654761D01*
X149702380Y-108940476D01*
X149654761Y-109035714D01*
X149607142Y-109083333D01*
%TO.C,R4*%
X145702380Y-109416666D02*
X145226190Y-109750000D01*
X145702380Y-109988095D02*
X144702380Y-109988095D01*
X144702380Y-109607142D01*
X144750000Y-109511904D01*
X144797619Y-109464285D01*
X144892857Y-109416666D01*
X145035714Y-109416666D01*
X145130952Y-109464285D01*
X145178571Y-109511904D01*
X145226190Y-109607142D01*
X145226190Y-109988095D01*
X145035714Y-108559523D02*
X145702380Y-108559523D01*
X144654761Y-108797619D02*
X145369047Y-109035714D01*
X145369047Y-108416666D01*
%TO.C,R5*%
X124452380Y-121416666D02*
X123976190Y-121750000D01*
X124452380Y-121988095D02*
X123452380Y-121988095D01*
X123452380Y-121607142D01*
X123500000Y-121511904D01*
X123547619Y-121464285D01*
X123642857Y-121416666D01*
X123785714Y-121416666D01*
X123880952Y-121464285D01*
X123928571Y-121511904D01*
X123976190Y-121607142D01*
X123976190Y-121988095D01*
X123452380Y-120511904D02*
X123452380Y-120988095D01*
X123928571Y-121035714D01*
X123880952Y-120988095D01*
X123833333Y-120892857D01*
X123833333Y-120654761D01*
X123880952Y-120559523D01*
X123928571Y-120511904D01*
X124023809Y-120464285D01*
X124261904Y-120464285D01*
X124357142Y-120511904D01*
X124404761Y-120559523D01*
X124452380Y-120654761D01*
X124452380Y-120892857D01*
X124404761Y-120988095D01*
X124357142Y-121035714D01*
%TO.C,R6*%
X128452380Y-118666666D02*
X127976190Y-119000000D01*
X128452380Y-119238095D02*
X127452380Y-119238095D01*
X127452380Y-118857142D01*
X127500000Y-118761904D01*
X127547619Y-118714285D01*
X127642857Y-118666666D01*
X127785714Y-118666666D01*
X127880952Y-118714285D01*
X127928571Y-118761904D01*
X127976190Y-118857142D01*
X127976190Y-119238095D01*
X127452380Y-117809523D02*
X127452380Y-118000000D01*
X127500000Y-118095238D01*
X127547619Y-118142857D01*
X127690476Y-118238095D01*
X127880952Y-118285714D01*
X128261904Y-118285714D01*
X128357142Y-118238095D01*
X128404761Y-118190476D01*
X128452380Y-118095238D01*
X128452380Y-117904761D01*
X128404761Y-117809523D01*
X128357142Y-117761904D01*
X128261904Y-117714285D01*
X128023809Y-117714285D01*
X127928571Y-117761904D01*
X127880952Y-117809523D01*
X127833333Y-117904761D01*
X127833333Y-118095238D01*
X127880952Y-118190476D01*
X127928571Y-118238095D01*
X128023809Y-118285714D01*
%TO.C,R7*%
X126702380Y-111916666D02*
X126226190Y-112250000D01*
X126702380Y-112488095D02*
X125702380Y-112488095D01*
X125702380Y-112107142D01*
X125750000Y-112011904D01*
X125797619Y-111964285D01*
X125892857Y-111916666D01*
X126035714Y-111916666D01*
X126130952Y-111964285D01*
X126178571Y-112011904D01*
X126226190Y-112107142D01*
X126226190Y-112488095D01*
X125702380Y-111583333D02*
X125702380Y-110916666D01*
X126702380Y-111345238D01*
%TO.C,R8*%
X124702380Y-111916666D02*
X124226190Y-112250000D01*
X124702380Y-112488095D02*
X123702380Y-112488095D01*
X123702380Y-112107142D01*
X123750000Y-112011904D01*
X123797619Y-111964285D01*
X123892857Y-111916666D01*
X124035714Y-111916666D01*
X124130952Y-111964285D01*
X124178571Y-112011904D01*
X124226190Y-112107142D01*
X124226190Y-112488095D01*
X124130952Y-111345238D02*
X124083333Y-111440476D01*
X124035714Y-111488095D01*
X123940476Y-111535714D01*
X123892857Y-111535714D01*
X123797619Y-111488095D01*
X123750000Y-111440476D01*
X123702380Y-111345238D01*
X123702380Y-111154761D01*
X123750000Y-111059523D01*
X123797619Y-111011904D01*
X123892857Y-110964285D01*
X123940476Y-110964285D01*
X124035714Y-111011904D01*
X124083333Y-111059523D01*
X124130952Y-111154761D01*
X124130952Y-111345238D01*
X124178571Y-111440476D01*
X124226190Y-111488095D01*
X124321428Y-111535714D01*
X124511904Y-111535714D01*
X124607142Y-111488095D01*
X124654761Y-111440476D01*
X124702380Y-111345238D01*
X124702380Y-111154761D01*
X124654761Y-111059523D01*
X124607142Y-111011904D01*
X124511904Y-110964285D01*
X124321428Y-110964285D01*
X124226190Y-111011904D01*
X124178571Y-111059523D01*
X124130952Y-111154761D01*
%TO.C,R9*%
X115833333Y-93702380D02*
X115500000Y-93226190D01*
X115261904Y-93702380D02*
X115261904Y-92702380D01*
X115642857Y-92702380D01*
X115738095Y-92750000D01*
X115785714Y-92797619D01*
X115833333Y-92892857D01*
X115833333Y-93035714D01*
X115785714Y-93130952D01*
X115738095Y-93178571D01*
X115642857Y-93226190D01*
X115261904Y-93226190D01*
X116309523Y-93702380D02*
X116500000Y-93702380D01*
X116595238Y-93654761D01*
X116642857Y-93607142D01*
X116738095Y-93464285D01*
X116785714Y-93273809D01*
X116785714Y-92892857D01*
X116738095Y-92797619D01*
X116690476Y-92750000D01*
X116595238Y-92702380D01*
X116404761Y-92702380D01*
X116309523Y-92750000D01*
X116261904Y-92797619D01*
X116214285Y-92892857D01*
X116214285Y-93130952D01*
X116261904Y-93226190D01*
X116309523Y-93273809D01*
X116404761Y-93321428D01*
X116595238Y-93321428D01*
X116690476Y-93273809D01*
X116738095Y-93226190D01*
X116785714Y-93130952D01*
%TO.C,R10*%
X118357142Y-93702380D02*
X118023809Y-93226190D01*
X117785714Y-93702380D02*
X117785714Y-92702380D01*
X118166666Y-92702380D01*
X118261904Y-92750000D01*
X118309523Y-92797619D01*
X118357142Y-92892857D01*
X118357142Y-93035714D01*
X118309523Y-93130952D01*
X118261904Y-93178571D01*
X118166666Y-93226190D01*
X117785714Y-93226190D01*
X119309523Y-93702380D02*
X118738095Y-93702380D01*
X119023809Y-93702380D02*
X119023809Y-92702380D01*
X118928571Y-92845238D01*
X118833333Y-92940476D01*
X118738095Y-92988095D01*
X119928571Y-92702380D02*
X120023809Y-92702380D01*
X120119047Y-92750000D01*
X120166666Y-92797619D01*
X120214285Y-92892857D01*
X120261904Y-93083333D01*
X120261904Y-93321428D01*
X120214285Y-93511904D01*
X120166666Y-93607142D01*
X120119047Y-93654761D01*
X120023809Y-93702380D01*
X119928571Y-93702380D01*
X119833333Y-93654761D01*
X119785714Y-93607142D01*
X119738095Y-93511904D01*
X119690476Y-93321428D01*
X119690476Y-93083333D01*
X119738095Y-92892857D01*
X119785714Y-92797619D01*
X119833333Y-92750000D01*
X119928571Y-92702380D01*
%TO.C,R11*%
X103702380Y-94642857D02*
X103226190Y-94976190D01*
X103702380Y-95214285D02*
X102702380Y-95214285D01*
X102702380Y-94833333D01*
X102750000Y-94738095D01*
X102797619Y-94690476D01*
X102892857Y-94642857D01*
X103035714Y-94642857D01*
X103130952Y-94690476D01*
X103178571Y-94738095D01*
X103226190Y-94833333D01*
X103226190Y-95214285D01*
X103702380Y-93690476D02*
X103702380Y-94261904D01*
X103702380Y-93976190D02*
X102702380Y-93976190D01*
X102845238Y-94071428D01*
X102940476Y-94166666D01*
X102988095Y-94261904D01*
X103702380Y-92738095D02*
X103702380Y-93309523D01*
X103702380Y-93023809D02*
X102702380Y-93023809D01*
X102845238Y-93119047D01*
X102940476Y-93214285D01*
X102988095Y-93309523D01*
%TO.C,R12*%
X107132380Y-107449857D02*
X106656190Y-107783190D01*
X107132380Y-108021285D02*
X106132380Y-108021285D01*
X106132380Y-107640333D01*
X106180000Y-107545095D01*
X106227619Y-107497476D01*
X106322857Y-107449857D01*
X106465714Y-107449857D01*
X106560952Y-107497476D01*
X106608571Y-107545095D01*
X106656190Y-107640333D01*
X106656190Y-108021285D01*
X107132380Y-106497476D02*
X107132380Y-107068904D01*
X107132380Y-106783190D02*
X106132380Y-106783190D01*
X106275238Y-106878428D01*
X106370476Y-106973666D01*
X106418095Y-107068904D01*
X106227619Y-106116523D02*
X106180000Y-106068904D01*
X106132380Y-105973666D01*
X106132380Y-105735571D01*
X106180000Y-105640333D01*
X106227619Y-105592714D01*
X106322857Y-105545095D01*
X106418095Y-105545095D01*
X106560952Y-105592714D01*
X107132380Y-106164142D01*
X107132380Y-105545095D01*
%TO.C,R14*%
X120452380Y-98642857D02*
X119976190Y-98976190D01*
X120452380Y-99214285D02*
X119452380Y-99214285D01*
X119452380Y-98833333D01*
X119500000Y-98738095D01*
X119547619Y-98690476D01*
X119642857Y-98642857D01*
X119785714Y-98642857D01*
X119880952Y-98690476D01*
X119928571Y-98738095D01*
X119976190Y-98833333D01*
X119976190Y-99214285D01*
X120452380Y-97690476D02*
X120452380Y-98261904D01*
X120452380Y-97976190D02*
X119452380Y-97976190D01*
X119595238Y-98071428D01*
X119690476Y-98166666D01*
X119738095Y-98261904D01*
X119785714Y-96833333D02*
X120452380Y-96833333D01*
X119404761Y-97071428D02*
X120119047Y-97309523D01*
X120119047Y-96690476D01*
%TO.C,R15*%
X103452380Y-100642857D02*
X102976190Y-100976190D01*
X103452380Y-101214285D02*
X102452380Y-101214285D01*
X102452380Y-100833333D01*
X102500000Y-100738095D01*
X102547619Y-100690476D01*
X102642857Y-100642857D01*
X102785714Y-100642857D01*
X102880952Y-100690476D01*
X102928571Y-100738095D01*
X102976190Y-100833333D01*
X102976190Y-101214285D01*
X103452380Y-99690476D02*
X103452380Y-100261904D01*
X103452380Y-99976190D02*
X102452380Y-99976190D01*
X102595238Y-100071428D01*
X102690476Y-100166666D01*
X102738095Y-100261904D01*
X102452380Y-98785714D02*
X102452380Y-99261904D01*
X102928571Y-99309523D01*
X102880952Y-99261904D01*
X102833333Y-99166666D01*
X102833333Y-98928571D01*
X102880952Y-98833333D01*
X102928571Y-98785714D01*
X103023809Y-98738095D01*
X103261904Y-98738095D01*
X103357142Y-98785714D01*
X103404761Y-98833333D01*
X103452380Y-98928571D01*
X103452380Y-99166666D01*
X103404761Y-99261904D01*
X103357142Y-99309523D01*
%TO.C,R16*%
X127436142Y-99309380D02*
X127102809Y-98833190D01*
X126864714Y-99309380D02*
X126864714Y-98309380D01*
X127245666Y-98309380D01*
X127340904Y-98357000D01*
X127388523Y-98404619D01*
X127436142Y-98499857D01*
X127436142Y-98642714D01*
X127388523Y-98737952D01*
X127340904Y-98785571D01*
X127245666Y-98833190D01*
X126864714Y-98833190D01*
X128388523Y-99309380D02*
X127817095Y-99309380D01*
X128102809Y-99309380D02*
X128102809Y-98309380D01*
X128007571Y-98452238D01*
X127912333Y-98547476D01*
X127817095Y-98595095D01*
X129245666Y-98309380D02*
X129055190Y-98309380D01*
X128959952Y-98357000D01*
X128912333Y-98404619D01*
X128817095Y-98547476D01*
X128769476Y-98737952D01*
X128769476Y-99118904D01*
X128817095Y-99214142D01*
X128864714Y-99261761D01*
X128959952Y-99309380D01*
X129150428Y-99309380D01*
X129245666Y-99261761D01*
X129293285Y-99214142D01*
X129340904Y-99118904D01*
X129340904Y-98880809D01*
X129293285Y-98785571D01*
X129245666Y-98737952D01*
X129150428Y-98690333D01*
X128959952Y-98690333D01*
X128864714Y-98737952D01*
X128817095Y-98785571D01*
X128769476Y-98880809D01*
%TO.C,R18*%
X124202380Y-109142857D02*
X123726190Y-109476190D01*
X124202380Y-109714285D02*
X123202380Y-109714285D01*
X123202380Y-109333333D01*
X123250000Y-109238095D01*
X123297619Y-109190476D01*
X123392857Y-109142857D01*
X123535714Y-109142857D01*
X123630952Y-109190476D01*
X123678571Y-109238095D01*
X123726190Y-109333333D01*
X123726190Y-109714285D01*
X124202380Y-108190476D02*
X124202380Y-108761904D01*
X124202380Y-108476190D02*
X123202380Y-108476190D01*
X123345238Y-108571428D01*
X123440476Y-108666666D01*
X123488095Y-108761904D01*
X123630952Y-107619047D02*
X123583333Y-107714285D01*
X123535714Y-107761904D01*
X123440476Y-107809523D01*
X123392857Y-107809523D01*
X123297619Y-107761904D01*
X123250000Y-107714285D01*
X123202380Y-107619047D01*
X123202380Y-107428571D01*
X123250000Y-107333333D01*
X123297619Y-107285714D01*
X123392857Y-107238095D01*
X123440476Y-107238095D01*
X123535714Y-107285714D01*
X123583333Y-107333333D01*
X123630952Y-107428571D01*
X123630952Y-107619047D01*
X123678571Y-107714285D01*
X123726190Y-107761904D01*
X123821428Y-107809523D01*
X124011904Y-107809523D01*
X124107142Y-107761904D01*
X124154761Y-107714285D01*
X124202380Y-107619047D01*
X124202380Y-107428571D01*
X124154761Y-107333333D01*
X124107142Y-107285714D01*
X124011904Y-107238095D01*
X123821428Y-107238095D01*
X123726190Y-107285714D01*
X123678571Y-107333333D01*
X123630952Y-107428571D01*
%TO.C,R19*%
X118357142Y-106952380D02*
X118023809Y-106476190D01*
X117785714Y-106952380D02*
X117785714Y-105952380D01*
X118166666Y-105952380D01*
X118261904Y-106000000D01*
X118309523Y-106047619D01*
X118357142Y-106142857D01*
X118357142Y-106285714D01*
X118309523Y-106380952D01*
X118261904Y-106428571D01*
X118166666Y-106476190D01*
X117785714Y-106476190D01*
X119309523Y-106952380D02*
X118738095Y-106952380D01*
X119023809Y-106952380D02*
X119023809Y-105952380D01*
X118928571Y-106095238D01*
X118833333Y-106190476D01*
X118738095Y-106238095D01*
X119785714Y-106952380D02*
X119976190Y-106952380D01*
X120071428Y-106904761D01*
X120119047Y-106857142D01*
X120214285Y-106714285D01*
X120261904Y-106523809D01*
X120261904Y-106142857D01*
X120214285Y-106047619D01*
X120166666Y-106000000D01*
X120071428Y-105952380D01*
X119880952Y-105952380D01*
X119785714Y-106000000D01*
X119738095Y-106047619D01*
X119690476Y-106142857D01*
X119690476Y-106380952D01*
X119738095Y-106476190D01*
X119785714Y-106523809D01*
X119880952Y-106571428D01*
X120071428Y-106571428D01*
X120166666Y-106523809D01*
X120214285Y-106476190D01*
X120261904Y-106380952D01*
%TO.C,R20*%
X112107142Y-120702380D02*
X111773809Y-120226190D01*
X111535714Y-120702380D02*
X111535714Y-119702380D01*
X111916666Y-119702380D01*
X112011904Y-119750000D01*
X112059523Y-119797619D01*
X112107142Y-119892857D01*
X112107142Y-120035714D01*
X112059523Y-120130952D01*
X112011904Y-120178571D01*
X111916666Y-120226190D01*
X111535714Y-120226190D01*
X112488095Y-119797619D02*
X112535714Y-119750000D01*
X112630952Y-119702380D01*
X112869047Y-119702380D01*
X112964285Y-119750000D01*
X113011904Y-119797619D01*
X113059523Y-119892857D01*
X113059523Y-119988095D01*
X113011904Y-120130952D01*
X112440476Y-120702380D01*
X113059523Y-120702380D01*
X113678571Y-119702380D02*
X113773809Y-119702380D01*
X113869047Y-119750000D01*
X113916666Y-119797619D01*
X113964285Y-119892857D01*
X114011904Y-120083333D01*
X114011904Y-120321428D01*
X113964285Y-120511904D01*
X113916666Y-120607142D01*
X113869047Y-120654761D01*
X113773809Y-120702380D01*
X113678571Y-120702380D01*
X113583333Y-120654761D01*
X113535714Y-120607142D01*
X113488095Y-120511904D01*
X113440476Y-120321428D01*
X113440476Y-120083333D01*
X113488095Y-119892857D01*
X113535714Y-119797619D01*
X113583333Y-119750000D01*
X113678571Y-119702380D01*
%TO.C,R21*%
X117857142Y-115452380D02*
X117523809Y-114976190D01*
X117285714Y-115452380D02*
X117285714Y-114452380D01*
X117666666Y-114452380D01*
X117761904Y-114500000D01*
X117809523Y-114547619D01*
X117857142Y-114642857D01*
X117857142Y-114785714D01*
X117809523Y-114880952D01*
X117761904Y-114928571D01*
X117666666Y-114976190D01*
X117285714Y-114976190D01*
X118238095Y-114547619D02*
X118285714Y-114500000D01*
X118380952Y-114452380D01*
X118619047Y-114452380D01*
X118714285Y-114500000D01*
X118761904Y-114547619D01*
X118809523Y-114642857D01*
X118809523Y-114738095D01*
X118761904Y-114880952D01*
X118190476Y-115452380D01*
X118809523Y-115452380D01*
X119761904Y-115452380D02*
X119190476Y-115452380D01*
X119476190Y-115452380D02*
X119476190Y-114452380D01*
X119380952Y-114595238D01*
X119285714Y-114690476D01*
X119190476Y-114738095D01*
%TO.C,R22*%
X115435142Y-106878380D02*
X115101809Y-106402190D01*
X114863714Y-106878380D02*
X114863714Y-105878380D01*
X115244666Y-105878380D01*
X115339904Y-105926000D01*
X115387523Y-105973619D01*
X115435142Y-106068857D01*
X115435142Y-106211714D01*
X115387523Y-106306952D01*
X115339904Y-106354571D01*
X115244666Y-106402190D01*
X114863714Y-106402190D01*
X115816095Y-105973619D02*
X115863714Y-105926000D01*
X115958952Y-105878380D01*
X116197047Y-105878380D01*
X116292285Y-105926000D01*
X116339904Y-105973619D01*
X116387523Y-106068857D01*
X116387523Y-106164095D01*
X116339904Y-106306952D01*
X115768476Y-106878380D01*
X116387523Y-106878380D01*
X116768476Y-105973619D02*
X116816095Y-105926000D01*
X116911333Y-105878380D01*
X117149428Y-105878380D01*
X117244666Y-105926000D01*
X117292285Y-105973619D01*
X117339904Y-106068857D01*
X117339904Y-106164095D01*
X117292285Y-106306952D01*
X116720857Y-106878380D01*
X117339904Y-106878380D01*
%TO.C,R23*%
X108952380Y-110642857D02*
X108476190Y-110976190D01*
X108952380Y-111214285D02*
X107952380Y-111214285D01*
X107952380Y-110833333D01*
X108000000Y-110738095D01*
X108047619Y-110690476D01*
X108142857Y-110642857D01*
X108285714Y-110642857D01*
X108380952Y-110690476D01*
X108428571Y-110738095D01*
X108476190Y-110833333D01*
X108476190Y-111214285D01*
X108047619Y-110261904D02*
X108000000Y-110214285D01*
X107952380Y-110119047D01*
X107952380Y-109880952D01*
X108000000Y-109785714D01*
X108047619Y-109738095D01*
X108142857Y-109690476D01*
X108238095Y-109690476D01*
X108380952Y-109738095D01*
X108952380Y-110309523D01*
X108952380Y-109690476D01*
X107952380Y-109357142D02*
X107952380Y-108738095D01*
X108333333Y-109071428D01*
X108333333Y-108928571D01*
X108380952Y-108833333D01*
X108428571Y-108785714D01*
X108523809Y-108738095D01*
X108761904Y-108738095D01*
X108857142Y-108785714D01*
X108904761Y-108833333D01*
X108952380Y-108928571D01*
X108952380Y-109214285D01*
X108904761Y-109309523D01*
X108857142Y-109357142D01*
%TO.C,R24*%
X118229142Y-122202380D02*
X117895809Y-121726190D01*
X117657714Y-122202380D02*
X117657714Y-121202380D01*
X118038666Y-121202380D01*
X118133904Y-121250000D01*
X118181523Y-121297619D01*
X118229142Y-121392857D01*
X118229142Y-121535714D01*
X118181523Y-121630952D01*
X118133904Y-121678571D01*
X118038666Y-121726190D01*
X117657714Y-121726190D01*
X118610095Y-121297619D02*
X118657714Y-121250000D01*
X118752952Y-121202380D01*
X118991047Y-121202380D01*
X119086285Y-121250000D01*
X119133904Y-121297619D01*
X119181523Y-121392857D01*
X119181523Y-121488095D01*
X119133904Y-121630952D01*
X118562476Y-122202380D01*
X119181523Y-122202380D01*
X120038666Y-121535714D02*
X120038666Y-122202380D01*
X119800571Y-121154761D02*
X119562476Y-121869047D01*
X120181523Y-121869047D01*
%TO.C,R26*%
X108757142Y-119952380D02*
X108423809Y-119476190D01*
X108185714Y-119952380D02*
X108185714Y-118952380D01*
X108566666Y-118952380D01*
X108661904Y-119000000D01*
X108709523Y-119047619D01*
X108757142Y-119142857D01*
X108757142Y-119285714D01*
X108709523Y-119380952D01*
X108661904Y-119428571D01*
X108566666Y-119476190D01*
X108185714Y-119476190D01*
X109138095Y-119047619D02*
X109185714Y-119000000D01*
X109280952Y-118952380D01*
X109519047Y-118952380D01*
X109614285Y-119000000D01*
X109661904Y-119047619D01*
X109709523Y-119142857D01*
X109709523Y-119238095D01*
X109661904Y-119380952D01*
X109090476Y-119952380D01*
X109709523Y-119952380D01*
X110566666Y-118952380D02*
X110376190Y-118952380D01*
X110280952Y-119000000D01*
X110233333Y-119047619D01*
X110138095Y-119190476D01*
X110090476Y-119380952D01*
X110090476Y-119761904D01*
X110138095Y-119857142D01*
X110185714Y-119904761D01*
X110280952Y-119952380D01*
X110471428Y-119952380D01*
X110566666Y-119904761D01*
X110614285Y-119857142D01*
X110661904Y-119761904D01*
X110661904Y-119523809D01*
X110614285Y-119428571D01*
X110566666Y-119380952D01*
X110471428Y-119333333D01*
X110280952Y-119333333D01*
X110185714Y-119380952D01*
X110138095Y-119428571D01*
X110090476Y-119523809D01*
%TO.C,U2*%
X110638095Y-93552380D02*
X110638095Y-94361904D01*
X110685714Y-94457142D01*
X110733333Y-94504761D01*
X110828571Y-94552380D01*
X111019047Y-94552380D01*
X111114285Y-94504761D01*
X111161904Y-94457142D01*
X111209523Y-94361904D01*
X111209523Y-93552380D01*
X111638095Y-93647619D02*
X111685714Y-93600000D01*
X111780952Y-93552380D01*
X112019047Y-93552380D01*
X112114285Y-93600000D01*
X112161904Y-93647619D01*
X112209523Y-93742857D01*
X112209523Y-93838095D01*
X112161904Y-93980952D01*
X111590476Y-94552380D01*
X112209523Y-94552380D01*
%TO.C,U3*%
X126836380Y-111128904D02*
X127645904Y-111128904D01*
X127741142Y-111081285D01*
X127788761Y-111033666D01*
X127836380Y-110938428D01*
X127836380Y-110747952D01*
X127788761Y-110652714D01*
X127741142Y-110605095D01*
X127645904Y-110557476D01*
X126836380Y-110557476D01*
X126836380Y-110176523D02*
X126836380Y-109557476D01*
X127217333Y-109890809D01*
X127217333Y-109747952D01*
X127264952Y-109652714D01*
X127312571Y-109605095D01*
X127407809Y-109557476D01*
X127645904Y-109557476D01*
X127741142Y-109605095D01*
X127788761Y-109652714D01*
X127836380Y-109747952D01*
X127836380Y-110033666D01*
X127788761Y-110128904D01*
X127741142Y-110176523D01*
%TO.C,C5*%
X137583333Y-117857142D02*
X137535714Y-117904761D01*
X137392857Y-117952380D01*
X137297619Y-117952380D01*
X137154761Y-117904761D01*
X137059523Y-117809523D01*
X137011904Y-117714285D01*
X136964285Y-117523809D01*
X136964285Y-117380952D01*
X137011904Y-117190476D01*
X137059523Y-117095238D01*
X137154761Y-117000000D01*
X137297619Y-116952380D01*
X137392857Y-116952380D01*
X137535714Y-117000000D01*
X137583333Y-117047619D01*
X138488095Y-116952380D02*
X138011904Y-116952380D01*
X137964285Y-117428571D01*
X138011904Y-117380952D01*
X138107142Y-117333333D01*
X138345238Y-117333333D01*
X138440476Y-117380952D01*
X138488095Y-117428571D01*
X138535714Y-117523809D01*
X138535714Y-117761904D01*
X138488095Y-117857142D01*
X138440476Y-117904761D01*
X138345238Y-117952380D01*
X138107142Y-117952380D01*
X138011904Y-117904761D01*
X137964285Y-117857142D01*
%TO.C,C6*%
X137583333Y-119857142D02*
X137535714Y-119904761D01*
X137392857Y-119952380D01*
X137297619Y-119952380D01*
X137154761Y-119904761D01*
X137059523Y-119809523D01*
X137011904Y-119714285D01*
X136964285Y-119523809D01*
X136964285Y-119380952D01*
X137011904Y-119190476D01*
X137059523Y-119095238D01*
X137154761Y-119000000D01*
X137297619Y-118952380D01*
X137392857Y-118952380D01*
X137535714Y-119000000D01*
X137583333Y-119047619D01*
X138440476Y-118952380D02*
X138250000Y-118952380D01*
X138154761Y-119000000D01*
X138107142Y-119047619D01*
X138011904Y-119190476D01*
X137964285Y-119380952D01*
X137964285Y-119761904D01*
X138011904Y-119857142D01*
X138059523Y-119904761D01*
X138154761Y-119952380D01*
X138345238Y-119952380D01*
X138440476Y-119904761D01*
X138488095Y-119857142D01*
X138535714Y-119761904D01*
X138535714Y-119523809D01*
X138488095Y-119428571D01*
X138440476Y-119380952D01*
X138345238Y-119333333D01*
X138154761Y-119333333D01*
X138059523Y-119380952D01*
X138011904Y-119428571D01*
X137964285Y-119523809D01*
%TO.C,U1*%
X117738095Y-110552380D02*
X117738095Y-111361904D01*
X117785714Y-111457142D01*
X117833333Y-111504761D01*
X117928571Y-111552380D01*
X118119047Y-111552380D01*
X118214285Y-111504761D01*
X118261904Y-111457142D01*
X118309523Y-111361904D01*
X118309523Y-110552380D01*
X119309523Y-111552380D02*
X118738095Y-111552380D01*
X119023809Y-111552380D02*
X119023809Y-110552380D01*
X118928571Y-110695238D01*
X118833333Y-110790476D01*
X118738095Y-110838095D01*
%TO.C,C13*%
X120107142Y-120857142D02*
X120059523Y-120904761D01*
X119916666Y-120952380D01*
X119821428Y-120952380D01*
X119678571Y-120904761D01*
X119583333Y-120809523D01*
X119535714Y-120714285D01*
X119488095Y-120523809D01*
X119488095Y-120380952D01*
X119535714Y-120190476D01*
X119583333Y-120095238D01*
X119678571Y-120000000D01*
X119821428Y-119952380D01*
X119916666Y-119952380D01*
X120059523Y-120000000D01*
X120107142Y-120047619D01*
X121059523Y-120952380D02*
X120488095Y-120952380D01*
X120773809Y-120952380D02*
X120773809Y-119952380D01*
X120678571Y-120095238D01*
X120583333Y-120190476D01*
X120488095Y-120238095D01*
X121392857Y-119952380D02*
X122011904Y-119952380D01*
X121678571Y-120333333D01*
X121821428Y-120333333D01*
X121916666Y-120380952D01*
X121964285Y-120428571D01*
X122011904Y-120523809D01*
X122011904Y-120761904D01*
X121964285Y-120857142D01*
X121916666Y-120904761D01*
X121821428Y-120952380D01*
X121535714Y-120952380D01*
X121440476Y-120904761D01*
X121392857Y-120857142D01*
%TO.C,R25*%
X104202380Y-109392857D02*
X103726190Y-109726190D01*
X104202380Y-109964285D02*
X103202380Y-109964285D01*
X103202380Y-109583333D01*
X103250000Y-109488095D01*
X103297619Y-109440476D01*
X103392857Y-109392857D01*
X103535714Y-109392857D01*
X103630952Y-109440476D01*
X103678571Y-109488095D01*
X103726190Y-109583333D01*
X103726190Y-109964285D01*
X103297619Y-109011904D02*
X103250000Y-108964285D01*
X103202380Y-108869047D01*
X103202380Y-108630952D01*
X103250000Y-108535714D01*
X103297619Y-108488095D01*
X103392857Y-108440476D01*
X103488095Y-108440476D01*
X103630952Y-108488095D01*
X104202380Y-109059523D01*
X104202380Y-108440476D01*
X103202380Y-107535714D02*
X103202380Y-108011904D01*
X103678571Y-108059523D01*
X103630952Y-108011904D01*
X103583333Y-107916666D01*
X103583333Y-107678571D01*
X103630952Y-107583333D01*
X103678571Y-107535714D01*
X103773809Y-107488095D01*
X104011904Y-107488095D01*
X104107142Y-107535714D01*
X104154761Y-107583333D01*
X104202380Y-107678571D01*
X104202380Y-107916666D01*
X104154761Y-108011904D01*
X104107142Y-108059523D01*
%TO.C,J1*%
X145756380Y-125555333D02*
X146470666Y-125555333D01*
X146613523Y-125602952D01*
X146708761Y-125698190D01*
X146756380Y-125841047D01*
X146756380Y-125936285D01*
X146756380Y-124555333D02*
X146756380Y-125126761D01*
X146756380Y-124841047D02*
X145756380Y-124841047D01*
X145899238Y-124936285D01*
X145994476Y-125031523D01*
X146042095Y-125126761D01*
%TO.C,C11*%
X107357142Y-110642857D02*
X107404761Y-110690476D01*
X107452380Y-110833333D01*
X107452380Y-110928571D01*
X107404761Y-111071428D01*
X107309523Y-111166666D01*
X107214285Y-111214285D01*
X107023809Y-111261904D01*
X106880952Y-111261904D01*
X106690476Y-111214285D01*
X106595238Y-111166666D01*
X106500000Y-111071428D01*
X106452380Y-110928571D01*
X106452380Y-110833333D01*
X106500000Y-110690476D01*
X106547619Y-110642857D01*
X107452380Y-109690476D02*
X107452380Y-110261904D01*
X107452380Y-109976190D02*
X106452380Y-109976190D01*
X106595238Y-110071428D01*
X106690476Y-110166666D01*
X106738095Y-110261904D01*
X107452380Y-108738095D02*
X107452380Y-109309523D01*
X107452380Y-109023809D02*
X106452380Y-109023809D01*
X106595238Y-109119047D01*
X106690476Y-109214285D01*
X106738095Y-109309523D01*
%TO.C,R28*%
X130607142Y-102452380D02*
X130273809Y-101976190D01*
X130035714Y-102452380D02*
X130035714Y-101452380D01*
X130416666Y-101452380D01*
X130511904Y-101500000D01*
X130559523Y-101547619D01*
X130607142Y-101642857D01*
X130607142Y-101785714D01*
X130559523Y-101880952D01*
X130511904Y-101928571D01*
X130416666Y-101976190D01*
X130035714Y-101976190D01*
X130988095Y-101547619D02*
X131035714Y-101500000D01*
X131130952Y-101452380D01*
X131369047Y-101452380D01*
X131464285Y-101500000D01*
X131511904Y-101547619D01*
X131559523Y-101642857D01*
X131559523Y-101738095D01*
X131511904Y-101880952D01*
X130940476Y-102452380D01*
X131559523Y-102452380D01*
X132130952Y-101880952D02*
X132035714Y-101833333D01*
X131988095Y-101785714D01*
X131940476Y-101690476D01*
X131940476Y-101642857D01*
X131988095Y-101547619D01*
X132035714Y-101500000D01*
X132130952Y-101452380D01*
X132321428Y-101452380D01*
X132416666Y-101500000D01*
X132464285Y-101547619D01*
X132511904Y-101642857D01*
X132511904Y-101690476D01*
X132464285Y-101785714D01*
X132416666Y-101833333D01*
X132321428Y-101880952D01*
X132130952Y-101880952D01*
X132035714Y-101928571D01*
X131988095Y-101976190D01*
X131940476Y-102071428D01*
X131940476Y-102261904D01*
X131988095Y-102357142D01*
X132035714Y-102404761D01*
X132130952Y-102452380D01*
X132321428Y-102452380D01*
X132416666Y-102404761D01*
X132464285Y-102357142D01*
X132511904Y-102261904D01*
X132511904Y-102071428D01*
X132464285Y-101976190D01*
X132416666Y-101928571D01*
X132321428Y-101880952D01*
%TO.C,C2*%
X107107142Y-93916666D02*
X107154761Y-93964285D01*
X107202380Y-94107142D01*
X107202380Y-94202380D01*
X107154761Y-94345238D01*
X107059523Y-94440476D01*
X106964285Y-94488095D01*
X106773809Y-94535714D01*
X106630952Y-94535714D01*
X106440476Y-94488095D01*
X106345238Y-94440476D01*
X106250000Y-94345238D01*
X106202380Y-94202380D01*
X106202380Y-94107142D01*
X106250000Y-93964285D01*
X106297619Y-93916666D01*
X106297619Y-93535714D02*
X106250000Y-93488095D01*
X106202380Y-93392857D01*
X106202380Y-93154761D01*
X106250000Y-93059523D01*
X106297619Y-93011904D01*
X106392857Y-92964285D01*
X106488095Y-92964285D01*
X106630952Y-93011904D01*
X107202380Y-93583333D01*
X107202380Y-92964285D01*
%TO.C,Q4*%
X127797619Y-108345238D02*
X127750000Y-108440476D01*
X127654761Y-108535714D01*
X127511904Y-108678571D01*
X127464285Y-108773809D01*
X127464285Y-108869047D01*
X127702380Y-108821428D02*
X127654761Y-108916666D01*
X127559523Y-109011904D01*
X127369047Y-109059523D01*
X127035714Y-109059523D01*
X126845238Y-109011904D01*
X126750000Y-108916666D01*
X126702380Y-108821428D01*
X126702380Y-108630952D01*
X126750000Y-108535714D01*
X126845238Y-108440476D01*
X127035714Y-108392857D01*
X127369047Y-108392857D01*
X127559523Y-108440476D01*
X127654761Y-108535714D01*
X127702380Y-108630952D01*
X127702380Y-108821428D01*
X127035714Y-107535714D02*
X127702380Y-107535714D01*
X126654761Y-107773809D02*
X127369047Y-108011904D01*
X127369047Y-107392857D01*
%TO.C,C12*%
X117857142Y-116607142D02*
X117809523Y-116654761D01*
X117666666Y-116702380D01*
X117571428Y-116702380D01*
X117428571Y-116654761D01*
X117333333Y-116559523D01*
X117285714Y-116464285D01*
X117238095Y-116273809D01*
X117238095Y-116130952D01*
X117285714Y-115940476D01*
X117333333Y-115845238D01*
X117428571Y-115750000D01*
X117571428Y-115702380D01*
X117666666Y-115702380D01*
X117809523Y-115750000D01*
X117857142Y-115797619D01*
X118809523Y-116702380D02*
X118238095Y-116702380D01*
X118523809Y-116702380D02*
X118523809Y-115702380D01*
X118428571Y-115845238D01*
X118333333Y-115940476D01*
X118238095Y-115988095D01*
X119190476Y-115797619D02*
X119238095Y-115750000D01*
X119333333Y-115702380D01*
X119571428Y-115702380D01*
X119666666Y-115750000D01*
X119714285Y-115797619D01*
X119761904Y-115892857D01*
X119761904Y-115988095D01*
X119714285Y-116130952D01*
X119142857Y-116702380D01*
X119761904Y-116702380D01*
%TO.C,R13*%
X110452380Y-110642857D02*
X109976190Y-110976190D01*
X110452380Y-111214285D02*
X109452380Y-111214285D01*
X109452380Y-110833333D01*
X109500000Y-110738095D01*
X109547619Y-110690476D01*
X109642857Y-110642857D01*
X109785714Y-110642857D01*
X109880952Y-110690476D01*
X109928571Y-110738095D01*
X109976190Y-110833333D01*
X109976190Y-111214285D01*
X110452380Y-109690476D02*
X110452380Y-110261904D01*
X110452380Y-109976190D02*
X109452380Y-109976190D01*
X109595238Y-110071428D01*
X109690476Y-110166666D01*
X109738095Y-110261904D01*
X109452380Y-109357142D02*
X109452380Y-108738095D01*
X109833333Y-109071428D01*
X109833333Y-108928571D01*
X109880952Y-108833333D01*
X109928571Y-108785714D01*
X110023809Y-108738095D01*
X110261904Y-108738095D01*
X110357142Y-108785714D01*
X110404761Y-108833333D01*
X110452380Y-108928571D01*
X110452380Y-109214285D01*
X110404761Y-109309523D01*
X110357142Y-109357142D01*
%TO.C,Q3*%
X123983761Y-99404619D02*
X123888523Y-99357000D01*
X123793285Y-99261761D01*
X123650428Y-99118904D01*
X123555190Y-99071285D01*
X123459952Y-99071285D01*
X123507571Y-99309380D02*
X123412333Y-99261761D01*
X123317095Y-99166523D01*
X123269476Y-98976047D01*
X123269476Y-98642714D01*
X123317095Y-98452238D01*
X123412333Y-98357000D01*
X123507571Y-98309380D01*
X123698047Y-98309380D01*
X123793285Y-98357000D01*
X123888523Y-98452238D01*
X123936142Y-98642714D01*
X123936142Y-98976047D01*
X123888523Y-99166523D01*
X123793285Y-99261761D01*
X123698047Y-99309380D01*
X123507571Y-99309380D01*
X124269476Y-98309380D02*
X124888523Y-98309380D01*
X124555190Y-98690333D01*
X124698047Y-98690333D01*
X124793285Y-98737952D01*
X124840904Y-98785571D01*
X124888523Y-98880809D01*
X124888523Y-99118904D01*
X124840904Y-99214142D01*
X124793285Y-99261761D01*
X124698047Y-99309380D01*
X124412333Y-99309380D01*
X124317095Y-99261761D01*
X124269476Y-99214142D01*
%TO.C,R27*%
X122452380Y-98642857D02*
X121976190Y-98976190D01*
X122452380Y-99214285D02*
X121452380Y-99214285D01*
X121452380Y-98833333D01*
X121500000Y-98738095D01*
X121547619Y-98690476D01*
X121642857Y-98642857D01*
X121785714Y-98642857D01*
X121880952Y-98690476D01*
X121928571Y-98738095D01*
X121976190Y-98833333D01*
X121976190Y-99214285D01*
X121547619Y-98261904D02*
X121500000Y-98214285D01*
X121452380Y-98119047D01*
X121452380Y-97880952D01*
X121500000Y-97785714D01*
X121547619Y-97738095D01*
X121642857Y-97690476D01*
X121738095Y-97690476D01*
X121880952Y-97738095D01*
X122452380Y-98309523D01*
X122452380Y-97690476D01*
X121452380Y-97357142D02*
X121452380Y-96690476D01*
X122452380Y-97119047D01*
%TO.C,R17*%
X121186142Y-106359380D02*
X120852809Y-105883190D01*
X120614714Y-106359380D02*
X120614714Y-105359380D01*
X120995666Y-105359380D01*
X121090904Y-105407000D01*
X121138523Y-105454619D01*
X121186142Y-105549857D01*
X121186142Y-105692714D01*
X121138523Y-105787952D01*
X121090904Y-105835571D01*
X120995666Y-105883190D01*
X120614714Y-105883190D01*
X122138523Y-106359380D02*
X121567095Y-106359380D01*
X121852809Y-106359380D02*
X121852809Y-105359380D01*
X121757571Y-105502238D01*
X121662333Y-105597476D01*
X121567095Y-105645095D01*
X122471857Y-105359380D02*
X123138523Y-105359380D01*
X122709952Y-106359380D01*
D11*
%TO.C,C14*%
X114601000Y-105424000D02*
X110391000Y-105424000D01*
X114601000Y-108444000D02*
X114601000Y-105424000D01*
X110391000Y-108444000D02*
X114601000Y-108444000D01*
%TO.C,REF\u002A\u002A*%
G36*
X145478919Y-95770963D02*
G01*
X145720603Y-95613183D01*
X145928875Y-95520606D01*
X146083869Y-95488800D01*
X146243746Y-95508532D01*
X146296380Y-95521787D01*
X146550762Y-95589685D01*
X146550762Y-95145246D01*
X146558215Y-94891725D01*
X146584397Y-94742483D01*
X146635043Y-94670833D01*
X146654848Y-94660864D01*
X146750316Y-94626990D01*
X146822197Y-94618586D01*
X146873838Y-94650723D01*
X146908587Y-94738467D01*
X146929788Y-94896886D01*
X146940790Y-95141050D01*
X146944939Y-95486025D01*
X146945580Y-95946881D01*
X146945580Y-97318850D01*
X146748171Y-97318850D01*
X146609547Y-97300915D01*
X146550776Y-97257704D01*
X146550762Y-97256949D01*
X146501319Y-97240332D01*
X146381158Y-97283644D01*
X146369803Y-97289446D01*
X146096814Y-97369706D01*
X145800622Y-97361970D01*
X145662420Y-97321875D01*
X145441969Y-97167992D01*
X145262575Y-96925057D01*
X145160863Y-96657670D01*
X145150379Y-96331392D01*
X145163608Y-96294929D01*
X145581717Y-96294929D01*
X145607955Y-96588172D01*
X145707994Y-96856600D01*
X145870287Y-97052108D01*
X146042419Y-97161218D01*
X146197374Y-97176171D01*
X146383158Y-97110878D01*
X146464566Y-97066348D01*
X146514185Y-97003954D01*
X146539858Y-96893913D01*
X146549428Y-96706445D01*
X146550762Y-96474480D01*
X146543806Y-96169044D01*
X146519955Y-95966648D01*
X146474728Y-95839309D01*
X146441858Y-95794109D01*
X146275421Y-95697234D01*
X146060445Y-95678420D01*
X145853873Y-95737028D01*
X145764795Y-95801708D01*
X145632818Y-96018799D01*
X145581717Y-96294929D01*
X145163608Y-96294929D01*
X145260168Y-96028788D01*
X145478919Y-95770963D01*
G37*
G36*
X148064233Y-97318850D02*
G01*
X147669414Y-97318850D01*
X147669414Y-96430508D01*
X147672849Y-96105698D01*
X147682263Y-95834011D01*
X147696325Y-95639455D01*
X147713703Y-95546036D01*
X147718767Y-95541268D01*
X147815800Y-95525028D01*
X147916176Y-95500691D01*
X148064233Y-95461014D01*
X148064233Y-97318850D01*
G37*
G36*
X141019159Y-95556159D02*
G01*
X141164751Y-95287242D01*
X141282968Y-95084921D01*
X141362276Y-94969321D01*
X141385938Y-94949938D01*
X141448288Y-95010186D01*
X141559518Y-95188868D01*
X141717995Y-95482889D01*
X141922088Y-95889155D01*
X142170167Y-96404572D01*
X142313895Y-96710171D01*
X142598265Y-97318850D01*
X142383817Y-97318850D01*
X142258469Y-97307260D01*
X142167721Y-97253746D01*
X142081121Y-97130190D01*
X141991868Y-96956933D01*
X141814368Y-96595016D01*
X140721701Y-96595016D01*
X140544200Y-96956933D01*
X140423756Y-97167633D01*
X140315328Y-97293694D01*
X140260239Y-97318850D01*
X140185290Y-97279885D01*
X140193721Y-97214764D01*
X140209274Y-97111685D01*
X140222696Y-96906044D01*
X140232621Y-96626883D01*
X140237684Y-96303244D01*
X140237834Y-96277069D01*
X140241700Y-95934262D01*
X140250206Y-95710062D01*
X140264815Y-95591507D01*
X140286990Y-95565637D01*
X140313374Y-95607969D01*
X140348970Y-95753024D01*
X140376617Y-95982908D01*
X140390904Y-96250868D01*
X140391457Y-96282815D01*
X140398171Y-96793153D01*
X140595409Y-96397607D01*
X140823997Y-96397607D01*
X141252664Y-96397607D01*
X141470779Y-96392735D01*
X141625146Y-96379988D01*
X141681332Y-96362829D01*
X141654309Y-96285735D01*
X141585578Y-96138452D01*
X141493640Y-95956345D01*
X141396999Y-95774781D01*
X141314157Y-95629127D01*
X141263618Y-95554749D01*
X141257102Y-95551958D01*
X141219402Y-95618046D01*
X141140002Y-95769869D01*
X141035703Y-95975270D01*
X141030152Y-95986337D01*
X140823997Y-96397607D01*
X140595409Y-96397607D01*
X140857727Y-95871546D01*
X141019159Y-95556159D01*
G37*
G36*
X147917411Y-94662111D02*
G01*
X148012450Y-94778096D01*
X148031332Y-94858405D01*
X147979242Y-94960417D01*
X147860019Y-95007621D01*
X147729227Y-94992798D01*
X147642501Y-94908914D01*
X147643019Y-94770368D01*
X147726919Y-94667384D01*
X147852223Y-94637651D01*
X147917411Y-94662111D01*
G37*
G36*
X143326409Y-96222900D02*
G01*
X143329777Y-96541123D01*
X143342623Y-96754858D01*
X143369065Y-96891114D01*
X143413217Y-96976899D01*
X143446746Y-97012538D01*
X143643022Y-97108637D01*
X143871389Y-97097358D01*
X144035602Y-97019005D01*
X144101416Y-96963056D01*
X144143899Y-96887937D01*
X144168098Y-96766403D01*
X144179059Y-96571206D01*
X144181828Y-96275098D01*
X144181850Y-96229368D01*
X144181850Y-95542166D01*
X144576668Y-95542166D01*
X144576668Y-97318850D01*
X144379259Y-97318850D01*
X144225949Y-97291777D01*
X144181850Y-97214779D01*
X144165584Y-97157767D01*
X144097846Y-97169393D01*
X143960223Y-97247680D01*
X143669690Y-97366820D01*
X143395777Y-97359623D01*
X143149585Y-97226386D01*
X143149120Y-97225987D01*
X143069828Y-97152341D01*
X143016377Y-97075276D01*
X142982670Y-96967630D01*
X142962611Y-96802236D01*
X142950105Y-96551932D01*
X142942379Y-96304743D01*
X142920265Y-95542166D01*
X143326409Y-95542166D01*
X143326409Y-96222900D01*
G37*
G36*
X138278991Y-94393215D02*
G01*
X138701525Y-94522206D01*
X139104088Y-94751843D01*
X139450562Y-95056152D01*
X139704831Y-95409156D01*
X139712814Y-95424389D01*
X139807640Y-95621437D01*
X139838195Y-95750022D01*
X139789285Y-95824708D01*
X139645715Y-95860056D01*
X139392292Y-95870627D01*
X139246616Y-95871182D01*
X138654389Y-95871182D01*
X138654389Y-95410560D01*
X138651969Y-95169910D01*
X138637884Y-95032182D01*
X138601891Y-94968696D01*
X138533747Y-94950777D01*
X138489881Y-94949938D01*
X138325373Y-94949938D01*
X138325373Y-97384653D01*
X138489881Y-97384653D01*
X138567756Y-97379938D01*
X138616108Y-97348907D01*
X138641974Y-97266236D01*
X138652386Y-97106599D01*
X138654381Y-96844672D01*
X138654389Y-96792425D01*
X138654389Y-96200197D01*
X139922767Y-96200197D01*
X139879659Y-96566985D01*
X139777176Y-97010726D01*
X139573026Y-97390100D01*
X139334446Y-97661069D01*
X138955898Y-97943266D01*
X138521023Y-98128030D01*
X138060925Y-98207008D01*
X137606708Y-98171849D01*
X137515911Y-98149442D01*
X137107340Y-97975581D01*
X136748756Y-97708245D01*
X136455068Y-97370154D01*
X136241183Y-96984027D01*
X136122011Y-96572587D01*
X136112460Y-96158552D01*
X136132386Y-96040949D01*
X136190682Y-95772477D01*
X136514066Y-96581703D01*
X136647129Y-96910346D01*
X136744805Y-97134926D01*
X136818739Y-97274297D01*
X136880570Y-97347313D01*
X136941943Y-97372827D01*
X137001673Y-97371341D01*
X137075822Y-97349445D01*
X137144229Y-97289829D01*
X137218776Y-97172620D01*
X137311348Y-96977946D01*
X137433827Y-96685933D01*
X137480554Y-96570482D01*
X137632114Y-96193985D01*
X137739227Y-95922659D01*
X137805900Y-95739315D01*
X137836143Y-95626762D01*
X137833962Y-95567812D01*
X137803368Y-95545275D01*
X137748369Y-95541960D01*
X137720353Y-95542166D01*
X137647696Y-95555921D01*
X137582491Y-95611054D01*
X137512289Y-95728368D01*
X137424647Y-95928666D01*
X137307118Y-96232748D01*
X137306986Y-96233099D01*
X137200083Y-96508743D01*
X137107467Y-96732148D01*
X137039805Y-96878552D01*
X137009311Y-96924032D01*
X136972599Y-96866331D01*
X136901500Y-96709738D01*
X136806682Y-96479013D01*
X136711635Y-96233099D01*
X136600684Y-95956867D01*
X136497578Y-95733174D01*
X136414702Y-95586955D01*
X136368506Y-95542166D01*
X136298974Y-95519592D01*
X136304549Y-95441148D01*
X136390083Y-95290754D01*
X136485591Y-95154056D01*
X136785684Y-94840091D01*
X137164648Y-94595715D01*
X137587757Y-94435661D01*
X138020286Y-94374659D01*
X138278991Y-94393215D01*
G37*
G36*
X148839665Y-95865891D02*
G01*
X149061042Y-95656568D01*
X149333740Y-95529197D01*
X149648787Y-95499100D01*
X149968990Y-95558701D01*
X150257155Y-95700428D01*
X150476086Y-95916706D01*
X150496947Y-95948959D01*
X150616797Y-96250348D01*
X150622448Y-96544953D01*
X150531013Y-96817201D01*
X150359606Y-97051520D01*
X150125341Y-97232338D01*
X149845330Y-97344081D01*
X149536688Y-97371178D01*
X149216528Y-97298055D01*
X149084181Y-97234522D01*
X148816530Y-97020100D01*
X148657927Y-96753770D01*
X148608697Y-96457789D01*
X148644425Y-96278541D01*
X149069824Y-96278541D01*
X149088437Y-96623530D01*
X149190727Y-96912408D01*
X149365569Y-97118850D01*
X149446098Y-97168908D01*
X149595892Y-97235598D01*
X149703969Y-97241587D01*
X149844470Y-97188603D01*
X149866275Y-97178708D01*
X150042655Y-97028004D01*
X150141215Y-96774822D01*
X150160219Y-96424066D01*
X150155835Y-96360100D01*
X150085199Y-96030852D01*
X149939201Y-95801861D01*
X149722829Y-95679238D01*
X149584086Y-95659539D01*
X149347473Y-95705007D01*
X149183148Y-95858225D01*
X149089525Y-96121100D01*
X149069824Y-96278541D01*
X148644425Y-96278541D01*
X148669167Y-96154411D01*
X148839665Y-95865891D01*
G37*
G36*
X138304354Y-93935116D02*
G01*
X138525310Y-93951944D01*
X138706001Y-93992096D01*
X138892048Y-94064677D01*
X139059732Y-94144487D01*
X139316641Y-94290839D01*
X139558700Y-94462014D01*
X139721338Y-94608776D01*
X139858546Y-94777567D01*
X139917975Y-94915385D01*
X139920992Y-95077805D01*
X139916812Y-95117222D01*
X139886616Y-95375878D01*
X139783510Y-95212260D01*
X139525826Y-94893654D01*
X139190957Y-94607100D01*
X138829950Y-94394489D01*
X138742842Y-94358268D01*
X138254129Y-94240090D01*
X137765262Y-94244709D01*
X137295046Y-94364687D01*
X136862285Y-94592588D01*
X136485785Y-94920975D01*
X136184351Y-95342409D01*
X136165242Y-95377658D01*
X136077948Y-95559835D01*
X136025323Y-95731040D01*
X135999019Y-95935262D01*
X135990692Y-96216492D01*
X135990440Y-96298902D01*
X136013682Y-96728325D01*
X136094251Y-97074551D01*
X136248085Y-97379309D01*
X136491122Y-97684331D01*
X136539215Y-97735805D01*
X136914249Y-98043694D01*
X137340459Y-98247685D01*
X137796321Y-98349297D01*
X138260312Y-98350050D01*
X138710910Y-98251463D01*
X139126590Y-98055055D01*
X139485830Y-97762348D01*
X139683789Y-97513779D01*
X139791811Y-97372212D01*
X139873566Y-97304026D01*
X139898918Y-97308251D01*
X139990894Y-97373670D01*
X140052524Y-97393492D01*
X140104640Y-97421730D01*
X140094510Y-97488418D01*
X140013286Y-97616922D01*
X139920918Y-97741070D01*
X139553049Y-98125446D01*
X139116414Y-98418425D01*
X138634048Y-98612172D01*
X138128988Y-98698850D01*
X137624269Y-98670622D01*
X137371228Y-98608450D01*
X136837658Y-98375326D01*
X136389436Y-98042185D01*
X136028691Y-97610890D01*
X135835410Y-97264572D01*
X135699311Y-96842548D01*
X135646303Y-96366202D01*
X135676387Y-95883271D01*
X135789564Y-95441493D01*
X135835410Y-95333232D01*
X136124042Y-94861486D01*
X136506673Y-94457426D01*
X136956062Y-94149597D01*
X136973999Y-94140227D01*
X137176602Y-94041860D01*
X137349155Y-93980818D01*
X137535725Y-93948159D01*
X137780380Y-93934938D01*
X137997513Y-93932507D01*
X138304354Y-93935116D01*
G37*
%TO.C,D4*%
X105500000Y-118750000D02*
X105500000Y-114850000D01*
X107500000Y-118750000D02*
X107500000Y-114850000D01*
X105500000Y-118750000D02*
X107500000Y-118750000D01*
%TO.C,C1*%
X115665000Y-99738748D02*
X115665000Y-100261252D01*
X117135000Y-99738748D02*
X117135000Y-100261252D01*
%TO.C,C3*%
X106540000Y-100107836D02*
X106540000Y-99892164D01*
X107260000Y-100107836D02*
X107260000Y-99892164D01*
%TO.C,C4*%
X103915000Y-103761252D02*
X103915000Y-103238748D01*
X105385000Y-103761252D02*
X105385000Y-103238748D01*
%TO.C,C7*%
X139265000Y-105036252D02*
X139265000Y-104513748D01*
X140735000Y-105036252D02*
X140735000Y-104513748D01*
%TO.C,C8*%
X135011252Y-118235000D02*
X134488748Y-118235000D01*
X135011252Y-116765000D02*
X134488748Y-116765000D01*
%TO.C,C9*%
X141390000Y-105607836D02*
X141390000Y-105392164D01*
X142110000Y-105607836D02*
X142110000Y-105392164D01*
%TO.C,C10*%
X135011252Y-119015000D02*
X134488748Y-119015000D01*
X135011252Y-120485000D02*
X134488748Y-120485000D01*
%TO.C,D1*%
X142650000Y-116150000D02*
X142650000Y-110750000D01*
X139350000Y-116150000D02*
X139350000Y-110750000D01*
X139350000Y-116150000D02*
X142650000Y-116150000D01*
%TO.C,D2*%
X107680000Y-119670000D02*
X105680000Y-119670000D01*
X107680000Y-119670000D02*
X107680000Y-123570000D01*
X105680000Y-119670000D02*
X105680000Y-123570000D01*
%TO.C,D3*%
X102759000Y-118750000D02*
X102759000Y-114850000D01*
X102759000Y-118750000D02*
X104759000Y-118750000D01*
X104759000Y-118750000D02*
X104759000Y-114850000D01*
%TO.C,D5*%
X104759000Y-119670000D02*
X102759000Y-119670000D01*
X104759000Y-119670000D02*
X104759000Y-123570000D01*
X102759000Y-119670000D02*
X102759000Y-123570000D01*
%TO.C,Q1*%
X117650000Y-102190000D02*
X117000000Y-102190000D01*
X117650000Y-105310000D02*
X119325000Y-105310000D01*
X117650000Y-102190000D02*
X118300000Y-102190000D01*
X117650000Y-105310000D02*
X117000000Y-105310000D01*
%TO.C,Q2*%
X118310000Y-109250000D02*
X118310000Y-107575000D01*
X115190000Y-109250000D02*
X115190000Y-109900000D01*
X115190000Y-109250000D02*
X115190000Y-108600000D01*
X118310000Y-109250000D02*
X118310000Y-109900000D01*
%TO.C,R1*%
X146452000Y-118710064D02*
X146452000Y-117255936D01*
X144632000Y-118710064D02*
X144632000Y-117255936D01*
%TO.C,R2*%
X147840000Y-118727064D02*
X147840000Y-117272936D01*
X149660000Y-118727064D02*
X149660000Y-117272936D01*
%TO.C,R3*%
X147840000Y-112977064D02*
X147840000Y-111522936D01*
X149660000Y-112977064D02*
X149660000Y-111522936D01*
%TO.C,R4*%
X144765000Y-111522936D02*
X144765000Y-111977064D01*
X146235000Y-111522936D02*
X146235000Y-111977064D01*
%TO.C,R5*%
X123265000Y-118564564D02*
X123265000Y-118110436D01*
X124735000Y-118564564D02*
X124735000Y-118110436D01*
%TO.C,R6*%
X126985000Y-118564564D02*
X126985000Y-118110436D01*
X125515000Y-118564564D02*
X125515000Y-118110436D01*
%TO.C,R7*%
X125515000Y-114360436D02*
X125515000Y-114814564D01*
X126985000Y-114360436D02*
X126985000Y-114814564D01*
%TO.C,R8*%
X124735000Y-114814564D02*
X124735000Y-114360436D01*
X123265000Y-114814564D02*
X123265000Y-114360436D01*
%TO.C,R9*%
X115665000Y-96477064D02*
X115665000Y-96022936D01*
X117135000Y-96477064D02*
X117135000Y-96022936D01*
%TO.C,R10*%
X119135000Y-96477064D02*
X119135000Y-96022936D01*
X117665000Y-96477064D02*
X117665000Y-96022936D01*
%TO.C,R11*%
X105385000Y-96272936D02*
X105385000Y-96727064D01*
X103915000Y-96272936D02*
X103915000Y-96727064D01*
%TO.C,R12*%
X107385000Y-103727064D02*
X107385000Y-103272936D01*
X105915000Y-103727064D02*
X105915000Y-103272936D01*
%TO.C,R14*%
X117915000Y-99772936D02*
X117915000Y-100227064D01*
X119385000Y-99772936D02*
X119385000Y-100227064D01*
%TO.C,R15*%
X105385000Y-100227064D02*
X105385000Y-99772936D01*
X103915000Y-100227064D02*
X103915000Y-99772936D01*
%TO.C,R16*%
X127851936Y-99772000D02*
X128306064Y-99772000D01*
X127851936Y-101242000D02*
X128306064Y-101242000D01*
%TO.C,R18*%
X122735000Y-109227064D02*
X122735000Y-108772936D01*
X121265000Y-109227064D02*
X121265000Y-108772936D01*
%TO.C,R19*%
X119015000Y-108685436D02*
X119015000Y-109139564D01*
X120485000Y-108685436D02*
X120485000Y-109139564D01*
%TO.C,R20*%
X112977064Y-119235000D02*
X112522936Y-119235000D01*
X112977064Y-117765000D02*
X112522936Y-117765000D01*
%TO.C,R21*%
X112977064Y-116985000D02*
X112522936Y-116985000D01*
X112977064Y-115515000D02*
X112522936Y-115515000D01*
%TO.C,R22*%
X112477064Y-110735000D02*
X112022936Y-110735000D01*
X112477064Y-109265000D02*
X112022936Y-109265000D01*
%TO.C,R23*%
X111985000Y-113022936D02*
X111985000Y-113477064D01*
X110515000Y-113022936D02*
X110515000Y-113477064D01*
%TO.C,R24*%
X116022936Y-120985000D02*
X116477064Y-120985000D01*
X116022936Y-119515000D02*
X116477064Y-119515000D01*
%TO.C,R26*%
X109910000Y-117227064D02*
X109910000Y-115772936D01*
X108090000Y-117227064D02*
X108090000Y-115772936D01*
%TO.C,U2*%
X111400000Y-105060000D02*
X109450000Y-105060000D01*
X111400000Y-94940000D02*
X107950000Y-94940000D01*
X111400000Y-105060000D02*
X113350000Y-105060000D01*
X111400000Y-94940000D02*
X113350000Y-94940000D01*
%TO.C,U3*%
X138744000Y-114227000D02*
X138489000Y-114227000D01*
X138744000Y-110367000D02*
X138744000Y-114227000D01*
X138744000Y-106507000D02*
X138489000Y-106507000D01*
X128224000Y-110367000D02*
X128224000Y-106507000D01*
X128224000Y-106507000D02*
X128479000Y-106507000D01*
X138744000Y-110367000D02*
X138744000Y-106507000D01*
X128224000Y-114227000D02*
X128479000Y-114227000D01*
X128224000Y-110367000D02*
X128224000Y-114227000D01*
X128479000Y-114227000D02*
X128479000Y-116042000D01*
%TO.C,C5*%
X131011252Y-118235000D02*
X130488748Y-118235000D01*
X131011252Y-116765000D02*
X130488748Y-116765000D01*
%TO.C,C6*%
X130857836Y-119610000D02*
X130642164Y-119610000D01*
X130857836Y-118890000D02*
X130642164Y-118890000D01*
%TO.C,U1*%
X118500000Y-111940000D02*
X120450000Y-111940000D01*
X118500000Y-111940000D02*
X115050000Y-111940000D01*
X118500000Y-117060000D02*
X120450000Y-117060000D01*
X118500000Y-117060000D02*
X116550000Y-117060000D01*
%TO.C,C13*%
X120238748Y-118015000D02*
X120761252Y-118015000D01*
X120238748Y-119485000D02*
X120761252Y-119485000D01*
%TO.C,R25*%
X103015000Y-112227064D02*
X103015000Y-111772936D01*
X104485000Y-112227064D02*
X104485000Y-111772936D01*
%TO.C,J1*%
X142876000Y-124300000D02*
X142876000Y-124630000D01*
X128396000Y-127290000D02*
X128396000Y-133290000D01*
X143336000Y-127290000D02*
X143336000Y-133290000D01*
X135256000Y-124232929D02*
X135256000Y-124630000D01*
X131826000Y-124630000D02*
X131826000Y-127290000D01*
X120016000Y-124232929D02*
X120016000Y-124630000D01*
X143576000Y-127290000D02*
X143576000Y-133290000D01*
X110616000Y-127290000D02*
X110616000Y-133290000D01*
X123316000Y-124232929D02*
X123316000Y-124630000D01*
X115696000Y-133290000D02*
X114936000Y-133290000D01*
X110616000Y-133290000D02*
X109856000Y-133290000D01*
X114046000Y-124630000D02*
X114046000Y-127290000D01*
X128396000Y-124232929D02*
X128396000Y-124630000D01*
X136016000Y-124232929D02*
X136016000Y-124630000D01*
X140336000Y-124232929D02*
X140336000Y-124630000D01*
X113156000Y-124232929D02*
X113156000Y-124630000D01*
X130936000Y-133290000D02*
X130176000Y-133290000D01*
X123316000Y-133290000D02*
X122556000Y-133290000D01*
X134366000Y-124630000D02*
X134366000Y-127290000D01*
X133476000Y-124232929D02*
X133476000Y-124630000D01*
X141096000Y-127290000D02*
X141096000Y-133290000D01*
X115696000Y-127290000D02*
X115696000Y-133290000D01*
X120776000Y-127290000D02*
X120776000Y-133290000D01*
X132716000Y-124232929D02*
X132716000Y-124630000D01*
X130176000Y-133290000D02*
X130176000Y-127290000D01*
X138556000Y-133290000D02*
X137796000Y-133290000D01*
X144586000Y-127290000D02*
X144586000Y-124630000D01*
X143096000Y-127290000D02*
X143096000Y-133290000D01*
X130176000Y-124232929D02*
X130176000Y-124630000D01*
X111506000Y-124630000D02*
X111506000Y-127290000D01*
X120016000Y-133290000D02*
X120016000Y-127290000D01*
X124206000Y-124630000D02*
X124206000Y-127290000D01*
X114936000Y-124232929D02*
X114936000Y-124630000D01*
X128396000Y-133290000D02*
X127636000Y-133290000D01*
X143256000Y-121920000D02*
X144526000Y-121920000D01*
X125096000Y-124232929D02*
X125096000Y-124630000D01*
X117476000Y-133290000D02*
X117476000Y-127290000D01*
X129286000Y-124630000D02*
X129286000Y-127290000D01*
X120776000Y-133290000D02*
X120016000Y-133290000D01*
X113156000Y-133290000D02*
X112396000Y-133290000D01*
X141096000Y-124232929D02*
X141096000Y-124630000D01*
X123316000Y-127290000D02*
X123316000Y-133290000D01*
X138556000Y-127290000D02*
X138556000Y-133290000D01*
X114936000Y-133290000D02*
X114936000Y-127290000D01*
X130936000Y-127290000D02*
X130936000Y-133290000D01*
X120776000Y-124232929D02*
X120776000Y-124630000D01*
X136016000Y-133290000D02*
X135256000Y-133290000D01*
X109856000Y-124232929D02*
X109856000Y-124630000D01*
X133476000Y-127290000D02*
X133476000Y-133290000D01*
X126746000Y-124630000D02*
X126746000Y-127290000D01*
X135256000Y-133290000D02*
X135256000Y-127290000D01*
X125856000Y-127290000D02*
X125856000Y-133290000D01*
X136906000Y-124630000D02*
X136906000Y-127290000D01*
X143456000Y-127290000D02*
X143456000Y-133290000D01*
X130936000Y-124232929D02*
X130936000Y-124630000D01*
X143636000Y-127290000D02*
X143636000Y-133290000D01*
X143636000Y-133290000D02*
X142876000Y-133290000D01*
X141986000Y-124630000D02*
X141986000Y-127290000D01*
X144586000Y-124630000D02*
X108906000Y-124630000D01*
X117476000Y-124232929D02*
X117476000Y-124630000D01*
X140336000Y-133290000D02*
X140336000Y-127290000D01*
X112396000Y-124232929D02*
X112396000Y-124630000D01*
X137796000Y-124232929D02*
X137796000Y-124630000D01*
X125096000Y-133290000D02*
X125096000Y-127290000D01*
X125856000Y-124232929D02*
X125856000Y-124630000D01*
X109856000Y-133290000D02*
X109856000Y-127290000D01*
X143636000Y-124300000D02*
X143636000Y-124630000D01*
X116586000Y-124630000D02*
X116586000Y-127290000D01*
X119126000Y-124630000D02*
X119126000Y-127290000D01*
X144526000Y-121920000D02*
X144526000Y-123190000D01*
X121666000Y-124630000D02*
X121666000Y-127290000D01*
X127636000Y-133290000D02*
X127636000Y-127290000D01*
X143216000Y-127290000D02*
X143216000Y-133290000D01*
X141096000Y-133290000D02*
X140336000Y-133290000D01*
X139446000Y-124630000D02*
X139446000Y-127290000D01*
X110616000Y-124232929D02*
X110616000Y-124630000D01*
X127636000Y-124232929D02*
X127636000Y-124630000D01*
X122556000Y-133290000D02*
X122556000Y-127290000D01*
X122556000Y-124232929D02*
X122556000Y-124630000D01*
X108906000Y-124630000D02*
X108906000Y-127290000D01*
X137796000Y-133290000D02*
X137796000Y-127290000D01*
X112396000Y-133290000D02*
X112396000Y-127290000D01*
X118236000Y-127290000D02*
X118236000Y-133290000D01*
X108906000Y-127290000D02*
X144586000Y-127290000D01*
X113156000Y-127290000D02*
X113156000Y-133290000D01*
X142876000Y-133290000D02*
X142876000Y-127290000D01*
X138556000Y-124232929D02*
X138556000Y-124630000D01*
X136016000Y-127290000D02*
X136016000Y-133290000D01*
X125856000Y-133290000D02*
X125096000Y-133290000D01*
X118236000Y-133290000D02*
X117476000Y-133290000D01*
X132716000Y-133290000D02*
X132716000Y-127290000D01*
X133476000Y-133290000D02*
X132716000Y-133290000D01*
X142976000Y-127290000D02*
X142976000Y-133290000D01*
X118236000Y-124232929D02*
X118236000Y-124630000D01*
X115696000Y-124232929D02*
X115696000Y-124630000D01*
%TO.C,C11*%
X109860000Y-112642164D02*
X109860000Y-112857836D01*
X109140000Y-112642164D02*
X109140000Y-112857836D01*
%TO.C,R28*%
X128306064Y-103242000D02*
X127851936Y-103242000D01*
X128306064Y-101772000D02*
X127851936Y-101772000D01*
%TO.C,C2*%
X105915000Y-96761252D02*
X105915000Y-96238748D01*
X107385000Y-96761252D02*
X107385000Y-96238748D01*
%TO.C,Q4*%
X127639000Y-106507000D02*
X127639000Y-107157000D01*
X127639000Y-106507000D02*
X127639000Y-104832000D01*
X124519000Y-106507000D02*
X124519000Y-107157000D01*
X124519000Y-106507000D02*
X124519000Y-105857000D01*
%TO.C,C12*%
X115662164Y-118140000D02*
X115877836Y-118140000D01*
X115662164Y-118860000D02*
X115877836Y-118860000D01*
%TO.C,R13*%
X114235000Y-113477064D02*
X114235000Y-113022936D01*
X112765000Y-113477064D02*
X112765000Y-113022936D01*
%TO.C,Q3*%
X124079000Y-99697000D02*
X124729000Y-99697000D01*
X124079000Y-99697000D02*
X122404000Y-99697000D01*
X124079000Y-102817000D02*
X124729000Y-102817000D01*
X124079000Y-102817000D02*
X123429000Y-102817000D01*
%TO.C,R27*%
X120094000Y-101029936D02*
X120094000Y-101484064D01*
X121564000Y-101029936D02*
X121564000Y-101484064D01*
%TO.C,R17*%
X122056064Y-104992000D02*
X121601936Y-104992000D01*
X122056064Y-103522000D02*
X121601936Y-103522000D01*
%TD*%
M02*
