M48
; DRILL file {KiCad (5.99.0-9830-g9acf5e365a)} date Friday, April 09, 2021 at 09:54:36 AM
; FORMAT={-:-/ absolute / metric / decimal}
; #@! TF.CreationDate,2021-04-09T09:54:36+02:00
; #@! TF.GenerationSoftware,Kicad,Pcbnew,(5.99.0-9830-g9acf5e365a)
; #@! TF.FileFunction,Plated,1,2,PTH
FMAT,2
METRIC
; #@! TA.AperFunction,ViaDrill
T1C0.356
; #@! TA.AperFunction,ComponentDrill,Plated,PTH
T2C1.000
%
G90
G05
T1
; via hole
X104.5Y-93.5
X105.75Y-113.5
X106.045Y-99.441
X108.0Y-113.25
X109.5Y-93.25
X111.854Y-97.17
X114.3Y-109.982
X116.459Y-102.616
X117.602Y-117.856
X118.0Y-112.5
X119.75Y-111.25
X120.75Y-94.5
X120.75Y-97.0
X122.0Y-93.75
X122.0Y-95.25
X124.25Y-110.0
X125.5Y-103.25
X125.75Y-110.0
X126.25Y-120.75
X128.25Y-116.75
X129.54Y-120.396
X131.0Y-103.0
X131.5Y-113.0
X132.5Y-108.5
X133.25Y-111.25
X136.5Y-108.5
T2
; plated pad hole
X110.236Y-123.19
X112.776Y-123.19
X115.316Y-123.19
X117.856Y-123.19
X120.396Y-123.19
X122.936Y-123.19
X125.476Y-123.19
X128.016Y-123.19
X130.556Y-123.19
X133.096Y-123.19
X135.636Y-123.19
X138.176Y-123.19
X140.716Y-123.19
X143.256Y-123.19
T0
M30
