%TF.GenerationSoftware,KiCad,Pcbnew,(5.99.0-9830-g9acf5e365a)*%
%TF.CreationDate,2021-04-09T09:54:32+02:00*%
%TF.ProjectId,Power Supply Control Board SG3525,506f7765-7220-4537-9570-706c7920436f,V 2.0*%
%TF.SameCoordinates,Original*%
%TF.FileFunction,Soldermask,Top*%
%TF.FilePolarity,Negative*%
%FSLAX46Y46*%
G04 Gerber Fmt 4.6, Leading zero omitted, Abs format (unit mm)*
G04 Created by KiCad (PCBNEW (5.99.0-9830-g9acf5e365a)) date 2021-04-09 09:54:32*
%MOMM*%
%LPD*%
G01*
G04 APERTURE LIST*
G04 Aperture macros list*
%AMRoundRect*
0 Rectangle with rounded corners*
0 $1 Rounding radius*
0 $2 $3 $4 $5 $6 $7 $8 $9 X,Y pos of 4 corners*
0 Add a 4 corners polygon primitive as box body*
4,1,4,$2,$3,$4,$5,$6,$7,$8,$9,$2,$3,0*
0 Add four circle primitives for the rounded corners*
1,1,$1+$1,$2,$3*
1,1,$1+$1,$4,$5*
1,1,$1+$1,$6,$7*
1,1,$1+$1,$8,$9*
0 Add four rect primitives between the rounded corners*
20,1,$1+$1,$2,$3,$4,$5,0*
20,1,$1+$1,$4,$5,$6,$7,0*
20,1,$1+$1,$6,$7,$8,$9,0*
20,1,$1+$1,$8,$9,$2,$3,0*%
G04 Aperture macros list end*
%ADD10RoundRect,0.268868X0.443632X0.956132X-0.443632X0.956132X-0.443632X-0.956132X0.443632X-0.956132X0*%
%ADD11RoundRect,0.050000X0.600000X-0.450000X0.600000X0.450000X-0.600000X0.450000X-0.600000X-0.450000X0*%
%ADD12RoundRect,0.275000X-0.500000X0.275000X-0.500000X-0.275000X0.500000X-0.275000X0.500000X0.275000X0*%
%ADD13RoundRect,0.165000X0.195000X-0.165000X0.195000X0.165000X-0.195000X0.165000X-0.195000X-0.165000X0*%
%ADD14RoundRect,0.275000X0.500000X-0.275000X0.500000X0.275000X-0.500000X0.275000X-0.500000X-0.275000X0*%
%ADD15RoundRect,0.275000X0.275000X0.500000X-0.275000X0.500000X-0.275000X-0.500000X0.275000X-0.500000X0*%
%ADD16RoundRect,0.050000X0.900000X-1.250000X0.900000X1.250000X-0.900000X1.250000X-0.900000X-1.250000X0*%
%ADD17RoundRect,0.050000X-0.600000X0.450000X-0.600000X-0.450000X0.600000X-0.450000X0.600000X0.450000X0*%
%ADD18RoundRect,0.175000X0.612500X0.175000X-0.612500X0.175000X-0.612500X-0.175000X0.612500X-0.175000X0*%
%ADD19RoundRect,0.175000X-0.175000X0.612500X-0.175000X-0.612500X0.175000X-0.612500X0.175000X0.612500X0*%
%ADD20RoundRect,0.272222X0.652778X-0.340278X0.652778X0.340278X-0.652778X0.340278X-0.652778X-0.340278X0*%
%ADD21RoundRect,0.274390X-0.475610X0.288110X-0.475610X-0.288110X0.475610X-0.288110X0.475610X0.288110X0*%
%ADD22RoundRect,0.274390X0.475610X-0.288110X0.475610X0.288110X-0.475610X0.288110X-0.475610X-0.288110X0*%
%ADD23RoundRect,0.274390X-0.288110X-0.475610X0.288110X-0.475610X0.288110X0.475610X-0.288110X0.475610X0*%
%ADD24RoundRect,0.274390X0.288110X0.475610X-0.288110X0.475610X-0.288110X-0.475610X0.288110X-0.475610X0*%
%ADD25RoundRect,0.175000X-0.750000X-0.175000X0.750000X-0.175000X0.750000X0.175000X-0.750000X0.175000X0*%
%ADD26RoundRect,0.175000X0.175000X-0.900000X0.175000X0.900000X-0.175000X0.900000X-0.175000X-0.900000X0*%
%ADD27RoundRect,0.165000X0.165000X0.195000X-0.165000X0.195000X-0.165000X-0.195000X0.165000X-0.195000X0*%
%ADD28RoundRect,0.175000X-0.850000X-0.175000X0.850000X-0.175000X0.850000X0.175000X-0.850000X0.175000X0*%
%ADD29RoundRect,0.275000X-0.275000X-0.500000X0.275000X-0.500000X0.275000X0.500000X-0.275000X0.500000X0*%
%ADD30RoundRect,0.050000X-0.850000X0.850000X-0.850000X-0.850000X0.850000X-0.850000X0.850000X0.850000X0*%
%ADD31O,1.800000X1.800000*%
%ADD32RoundRect,0.165000X-0.195000X0.165000X-0.195000X-0.165000X0.195000X-0.165000X0.195000X0.165000X0*%
%ADD33RoundRect,0.165000X-0.165000X-0.195000X0.165000X-0.195000X0.165000X0.195000X-0.165000X0.195000X0*%
%ADD34RoundRect,0.175000X-0.612500X-0.175000X0.612500X-0.175000X0.612500X0.175000X-0.612500X0.175000X0*%
G04 APERTURE END LIST*
D10*
%TO.C,C14*%
X110603500Y-106934000D03*
X113678500Y-106934000D03*
%TD*%
D11*
%TO.C,D4*%
X106500000Y-118150000D03*
X106500000Y-114850000D03*
%TD*%
D12*
%TO.C,C1*%
X116400000Y-99050000D03*
X116400000Y-100950000D03*
%TD*%
D13*
%TO.C,C3*%
X106900000Y-100480000D03*
X106900000Y-99520000D03*
%TD*%
D14*
%TO.C,C4*%
X104650000Y-104450000D03*
X104650000Y-102550000D03*
%TD*%
%TO.C,C7*%
X140000000Y-105725000D03*
X140000000Y-103825000D03*
%TD*%
D15*
%TO.C,C8*%
X135700000Y-117500000D03*
X133800000Y-117500000D03*
%TD*%
D13*
%TO.C,C9*%
X141750000Y-105980000D03*
X141750000Y-105020000D03*
%TD*%
D15*
%TO.C,C10*%
X135700000Y-119750000D03*
X133800000Y-119750000D03*
%TD*%
D16*
%TO.C,D1*%
X141000000Y-114750000D03*
X141000000Y-110750000D03*
%TD*%
D17*
%TO.C,D2*%
X106680000Y-120270000D03*
X106680000Y-123570000D03*
%TD*%
D11*
%TO.C,D3*%
X103759000Y-118150000D03*
X103759000Y-114850000D03*
%TD*%
D17*
%TO.C,D5*%
X103759000Y-120270000D03*
X103759000Y-123570000D03*
%TD*%
D18*
%TO.C,Q1*%
X118587500Y-104700000D03*
X118587500Y-102800000D03*
X116712500Y-103750000D03*
%TD*%
D19*
%TO.C,Q2*%
X117700000Y-108312500D03*
X115800000Y-108312500D03*
X116750000Y-110187500D03*
%TD*%
D20*
%TO.C,R1*%
X145542000Y-119445500D03*
X145542000Y-116520500D03*
%TD*%
%TO.C,R2*%
X148750000Y-119462500D03*
X148750000Y-116537500D03*
%TD*%
%TO.C,R3*%
X148750000Y-113712500D03*
X148750000Y-110787500D03*
%TD*%
D21*
%TO.C,R4*%
X145500000Y-110837500D03*
X145500000Y-112662500D03*
%TD*%
D22*
%TO.C,R5*%
X124000000Y-119250000D03*
X124000000Y-117425000D03*
%TD*%
%TO.C,R6*%
X126250000Y-119250000D03*
X126250000Y-117425000D03*
%TD*%
D21*
%TO.C,R7*%
X126250000Y-113675000D03*
X126250000Y-115500000D03*
%TD*%
D22*
%TO.C,R8*%
X124000000Y-115500000D03*
X124000000Y-113675000D03*
%TD*%
%TO.C,R9*%
X116400000Y-97162500D03*
X116400000Y-95337500D03*
%TD*%
%TO.C,R10*%
X118400000Y-97162500D03*
X118400000Y-95337500D03*
%TD*%
D21*
%TO.C,R11*%
X104650000Y-95587500D03*
X104650000Y-97412500D03*
%TD*%
D22*
%TO.C,R12*%
X106650000Y-104412500D03*
X106650000Y-102587500D03*
%TD*%
D21*
%TO.C,R14*%
X118650000Y-99087500D03*
X118650000Y-100912500D03*
%TD*%
D22*
%TO.C,R15*%
X104650000Y-100912500D03*
X104650000Y-99087500D03*
%TD*%
D23*
%TO.C,R16*%
X127166500Y-100507000D03*
X128991500Y-100507000D03*
%TD*%
D22*
%TO.C,R18*%
X122000000Y-109912500D03*
X122000000Y-108087500D03*
%TD*%
D21*
%TO.C,R19*%
X119750000Y-108000000D03*
X119750000Y-109825000D03*
%TD*%
D24*
%TO.C,R20*%
X113662500Y-118500000D03*
X111837500Y-118500000D03*
%TD*%
%TO.C,R21*%
X113662500Y-116250000D03*
X111837500Y-116250000D03*
%TD*%
%TO.C,R22*%
X113162500Y-110000000D03*
X111337500Y-110000000D03*
%TD*%
D21*
%TO.C,R23*%
X111250000Y-112337500D03*
X111250000Y-114162500D03*
%TD*%
D23*
%TO.C,R24*%
X115337500Y-120250000D03*
X117162500Y-120250000D03*
%TD*%
D20*
%TO.C,R26*%
X109000000Y-117962500D03*
X109000000Y-115037500D03*
%TD*%
D25*
%TO.C,U2*%
X108825000Y-95555000D03*
X108825000Y-96825000D03*
X108825000Y-98095000D03*
X108825000Y-99365000D03*
X108825000Y-100635000D03*
X108825000Y-101905000D03*
X108825000Y-103175000D03*
X108825000Y-104445000D03*
X113975000Y-104445000D03*
X113975000Y-103175000D03*
X113975000Y-101905000D03*
X113975000Y-100635000D03*
X113975000Y-99365000D03*
X113975000Y-98095000D03*
X113975000Y-96825000D03*
X113975000Y-95555000D03*
%TD*%
D26*
%TO.C,U3*%
X129039000Y-115017000D03*
X130309000Y-115017000D03*
X131579000Y-115017000D03*
X132849000Y-115017000D03*
X134119000Y-115017000D03*
X135389000Y-115017000D03*
X136659000Y-115017000D03*
X137929000Y-115017000D03*
X137929000Y-105717000D03*
X136659000Y-105717000D03*
X135389000Y-105717000D03*
X134119000Y-105717000D03*
X132849000Y-105717000D03*
X131579000Y-105717000D03*
X130309000Y-105717000D03*
X129039000Y-105717000D03*
%TD*%
D15*
%TO.C,C5*%
X131700000Y-117500000D03*
X129800000Y-117500000D03*
%TD*%
D27*
%TO.C,C6*%
X131230000Y-119250000D03*
X130270000Y-119250000D03*
%TD*%
D28*
%TO.C,U1*%
X116025000Y-112595000D03*
X116025000Y-113865000D03*
X116025000Y-115135000D03*
X116025000Y-116405000D03*
X120975000Y-116405000D03*
X120975000Y-115135000D03*
X120975000Y-113865000D03*
X120975000Y-112595000D03*
%TD*%
D29*
%TO.C,C13*%
X119550000Y-118750000D03*
X121450000Y-118750000D03*
%TD*%
D22*
%TO.C,R25*%
X103750000Y-112912500D03*
X103750000Y-111087500D03*
%TD*%
D30*
%TO.C,J1*%
X143256000Y-123190000D03*
D31*
X140716000Y-123190000D03*
X138176000Y-123190000D03*
X135636000Y-123190000D03*
X133096000Y-123190000D03*
X130556000Y-123190000D03*
X128016000Y-123190000D03*
X125476000Y-123190000D03*
X122936000Y-123190000D03*
X120396000Y-123190000D03*
X117856000Y-123190000D03*
X115316000Y-123190000D03*
X112776000Y-123190000D03*
X110236000Y-123190000D03*
%TD*%
D32*
%TO.C,C11*%
X109500000Y-112270000D03*
X109500000Y-113230000D03*
%TD*%
D24*
%TO.C,R28*%
X128991500Y-102507000D03*
X127166500Y-102507000D03*
%TD*%
D14*
%TO.C,C2*%
X106650000Y-97450000D03*
X106650000Y-95550000D03*
%TD*%
D19*
%TO.C,Q4*%
X127029000Y-105569500D03*
X125129000Y-105569500D03*
X126079000Y-107444500D03*
%TD*%
D33*
%TO.C,C12*%
X115290000Y-118500000D03*
X116250000Y-118500000D03*
%TD*%
D22*
%TO.C,R13*%
X113500000Y-114162500D03*
X113500000Y-112337500D03*
%TD*%
D34*
%TO.C,Q3*%
X123141500Y-100307000D03*
X123141500Y-102207000D03*
X125016500Y-101257000D03*
%TD*%
D21*
%TO.C,R27*%
X120829000Y-100344500D03*
X120829000Y-102169500D03*
%TD*%
D24*
%TO.C,R17*%
X122741500Y-104257000D03*
X120916500Y-104257000D03*
%TD*%
M02*
