%TF.GenerationSoftware,KiCad,Pcbnew,(5.99.0-9830-g9acf5e365a)*%
%TF.CreationDate,2021-04-09T09:54:32+02:00*%
%TF.ProjectId,Power Supply Control Board SG3525,506f7765-7220-4537-9570-706c7920436f,V 2.0*%
%TF.SameCoordinates,Original*%
%TF.FileFunction,Copper,L2,Bot*%
%TF.FilePolarity,Positive*%
%FSLAX46Y46*%
G04 Gerber Fmt 4.6, Leading zero omitted, Abs format (unit mm)*
G04 Created by KiCad (PCBNEW (5.99.0-9830-g9acf5e365a)) date 2021-04-09 09:54:32*
%MOMM*%
%LPD*%
G01*
G04 APERTURE LIST*
%TA.AperFunction,ComponentPad*%
%ADD10R,1.700000X1.700000*%
%TD*%
%TA.AperFunction,ComponentPad*%
%ADD11O,1.700000X1.700000*%
%TD*%
%TA.AperFunction,ViaPad*%
%ADD12C,0.762000*%
%TD*%
%TA.AperFunction,Conductor*%
%ADD13C,0.254000*%
%TD*%
G04 APERTURE END LIST*
D10*
%TO.P,J1,1,Pin_1*%
%TO.N,VB+*%
X143256000Y-123190000D03*
D11*
%TO.P,J1,2,Pin_2*%
%TO.N,unconnected-(J1-Pad2)*%
X140716000Y-123190000D03*
%TO.P,J1,3,Pin_3*%
%TO.N,HO*%
X138176000Y-123190000D03*
%TO.P,J1,4,Pin_4*%
%TO.N,Vs*%
X135636000Y-123190000D03*
%TO.P,J1,5,Pin_5*%
%TO.N,unconnected-(J1-Pad5)*%
X133096000Y-123190000D03*
%TO.P,J1,6,Pin_6*%
%TO.N,LO*%
X130556000Y-123190000D03*
%TO.P,J1,7,Pin_7*%
%TO.N,+16V*%
X128016000Y-123190000D03*
%TO.P,J1,8,Pin_8*%
%TO.N,FBK+*%
X125476000Y-123190000D03*
%TO.P,J1,9,Pin_9*%
%TO.N,FBK-*%
X122936000Y-123190000D03*
%TO.P,J1,10,Pin_10*%
%TO.N,ShutDown*%
X120396000Y-123190000D03*
%TO.P,J1,11,Pin_11*%
%TO.N,CS+*%
X117856000Y-123190000D03*
%TO.P,J1,12,Pin_12*%
%TO.N,CS-*%
X115316000Y-123190000D03*
%TO.P,J1,13,Pin_13*%
%TO.N,~ShutDown*%
X112776000Y-123190000D03*
%TO.P,J1,14,Pin_14*%
%TO.N,GND*%
X110236000Y-123190000D03*
%TD*%
D12*
%TO.N,GND*%
X106045000Y-99441000D03*
X116459000Y-102616000D03*
X117602000Y-117856000D03*
X129540000Y-120396000D03*
X109500000Y-93250000D03*
X104500000Y-93500000D03*
X136500000Y-108500000D03*
X132500000Y-108500000D03*
X125750000Y-110000000D03*
X124250000Y-110000000D03*
X131000000Y-103000000D03*
%TO.N,Net-(U2-Pad11)*%
X122000000Y-95250000D03*
X122000000Y-93750000D03*
%TO.N,+16V*%
X120750000Y-97000000D03*
X120750000Y-94500000D03*
%TO.N,GND*%
X125500000Y-103250000D03*
X111853597Y-97169635D03*
%TO.N,+Vref*%
X126250000Y-120750000D03*
%TO.N,GND*%
X108000000Y-113250000D03*
X105750000Y-113500000D03*
%TO.N,+16V*%
X133250000Y-111250000D03*
X131500000Y-113000000D03*
%TO.N,ShutDown*%
X119750000Y-111250000D03*
%TO.N,LO*%
X128250000Y-116750000D03*
%TO.N,+Vref*%
X114300000Y-109982000D03*
%TO.N,~ShutDown*%
X118000000Y-112500000D03*
%TD*%
D13*
%TO.N,+Vref*%
X120142000Y-109982000D02*
X114300000Y-109982000D01*
X126250000Y-116090000D02*
X120142000Y-109982000D01*
X126250000Y-120750000D02*
X126250000Y-116090000D01*
%TO.N,Net-(U2-Pad11)*%
X122000000Y-93750000D02*
X122000000Y-95250000D01*
%TO.N,+16V*%
X120750000Y-97000000D02*
X120750000Y-94500000D01*
X131500000Y-113000000D02*
X133250000Y-111250000D01*
%TO.N,ShutDown*%
X119750000Y-111250000D02*
X120396000Y-111896000D01*
X120396000Y-111896000D02*
X120396000Y-123190000D01*
%TO.N,LO*%
X128250000Y-120884000D02*
X130556000Y-123190000D01*
X128250000Y-116750000D02*
X128250000Y-120884000D01*
%TO.N,~ShutDown*%
X112776000Y-117724000D02*
X118000000Y-112500000D01*
X112776000Y-123190000D02*
X112776000Y-117724000D01*
%TD*%
%TA.AperFunction,Conductor*%
%TO.N,GND*%
G36*
X121532226Y-92778002D02*
G01*
X121578719Y-92831658D01*
X121588823Y-92901932D01*
X121559329Y-92966512D01*
X121538166Y-92985936D01*
X121401463Y-93085257D01*
X121276334Y-93224226D01*
X121273034Y-93229942D01*
X121273031Y-93229946D01*
X121186138Y-93380451D01*
X121182834Y-93386174D01*
X121180792Y-93392459D01*
X121127822Y-93555484D01*
X121087749Y-93614090D01*
X121022352Y-93641727D01*
X120981793Y-93639795D01*
X120946587Y-93632312D01*
X120849958Y-93611772D01*
X120849953Y-93611772D01*
X120843501Y-93610400D01*
X120656499Y-93610400D01*
X120650047Y-93611772D01*
X120650042Y-93611772D01*
X120565041Y-93629840D01*
X120473584Y-93649280D01*
X120467554Y-93651965D01*
X120467553Y-93651965D01*
X120308780Y-93722655D01*
X120308778Y-93722656D01*
X120302750Y-93725340D01*
X120297409Y-93729220D01*
X120297408Y-93729221D01*
X120174553Y-93818481D01*
X120151463Y-93835257D01*
X120026334Y-93974226D01*
X120023034Y-93979942D01*
X120023031Y-93979946D01*
X119942432Y-94119549D01*
X119932834Y-94136174D01*
X119875047Y-94314023D01*
X119874357Y-94320586D01*
X119874357Y-94320587D01*
X119863692Y-94422059D01*
X119855500Y-94500000D01*
X119856190Y-94506565D01*
X119868776Y-94626308D01*
X119875047Y-94685977D01*
X119932834Y-94863826D01*
X119936137Y-94869548D01*
X119936138Y-94869549D01*
X120023031Y-95020054D01*
X120023034Y-95020058D01*
X120026334Y-95025774D01*
X120030752Y-95030681D01*
X120030753Y-95030682D01*
X120082136Y-95087748D01*
X120112853Y-95151756D01*
X120114500Y-95172059D01*
X120114500Y-96327941D01*
X120094498Y-96396062D01*
X120082137Y-96412250D01*
X120026334Y-96474226D01*
X120023034Y-96479942D01*
X120023031Y-96479946D01*
X119936138Y-96630451D01*
X119932834Y-96636174D01*
X119875047Y-96814023D01*
X119855500Y-97000000D01*
X119875047Y-97185977D01*
X119932834Y-97363826D01*
X119936137Y-97369548D01*
X119936138Y-97369549D01*
X120023031Y-97520054D01*
X120023034Y-97520058D01*
X120026334Y-97525774D01*
X120151463Y-97664743D01*
X120302750Y-97774660D01*
X120308778Y-97777344D01*
X120308780Y-97777345D01*
X120467553Y-97848035D01*
X120473584Y-97850720D01*
X120565041Y-97870160D01*
X120650042Y-97888228D01*
X120650047Y-97888228D01*
X120656499Y-97889600D01*
X120843501Y-97889600D01*
X120849953Y-97888228D01*
X120849958Y-97888228D01*
X120934959Y-97870160D01*
X121026416Y-97850720D01*
X121032447Y-97848035D01*
X121191220Y-97777345D01*
X121191222Y-97777344D01*
X121197250Y-97774660D01*
X121348537Y-97664743D01*
X121473666Y-97525774D01*
X121476966Y-97520058D01*
X121476969Y-97520054D01*
X121563862Y-97369549D01*
X121563863Y-97369548D01*
X121567166Y-97363826D01*
X121624953Y-97185977D01*
X121644500Y-97000000D01*
X121624953Y-96814023D01*
X121567166Y-96636174D01*
X121563862Y-96630451D01*
X121476969Y-96479946D01*
X121476966Y-96479942D01*
X121473666Y-96474226D01*
X121417864Y-96412252D01*
X121387147Y-96348244D01*
X121385500Y-96327941D01*
X121385500Y-96144219D01*
X121405502Y-96076098D01*
X121459158Y-96029605D01*
X121529432Y-96019501D01*
X121562749Y-96029112D01*
X121668282Y-96076098D01*
X121723584Y-96100720D01*
X121815042Y-96120160D01*
X121900042Y-96138228D01*
X121900047Y-96138228D01*
X121906499Y-96139600D01*
X122093501Y-96139600D01*
X122099953Y-96138228D01*
X122099958Y-96138228D01*
X122184958Y-96120160D01*
X122276416Y-96100720D01*
X122282447Y-96098035D01*
X122441220Y-96027345D01*
X122441222Y-96027344D01*
X122447250Y-96024660D01*
X122598537Y-95914743D01*
X122614501Y-95897014D01*
X122719247Y-95780682D01*
X122719248Y-95780681D01*
X122723666Y-95775774D01*
X122726966Y-95770058D01*
X122726969Y-95770054D01*
X122813862Y-95619549D01*
X122813863Y-95619548D01*
X122817166Y-95613826D01*
X122874953Y-95435977D01*
X122894500Y-95250000D01*
X122884174Y-95151756D01*
X122875643Y-95070587D01*
X122875643Y-95070586D01*
X122874953Y-95064023D01*
X122817166Y-94886174D01*
X122807568Y-94869549D01*
X122726969Y-94729946D01*
X122726966Y-94729942D01*
X122723666Y-94724226D01*
X122667864Y-94662252D01*
X122637147Y-94598244D01*
X122635500Y-94577941D01*
X122635500Y-94422059D01*
X122655502Y-94353938D01*
X122667864Y-94337748D01*
X122719247Y-94280682D01*
X122719248Y-94280681D01*
X122723666Y-94275774D01*
X122726966Y-94270058D01*
X122726969Y-94270054D01*
X122813862Y-94119549D01*
X122813863Y-94119548D01*
X122817166Y-94113826D01*
X122874953Y-93935977D01*
X122894500Y-93750000D01*
X122879972Y-93611772D01*
X122875643Y-93570587D01*
X122875643Y-93570586D01*
X122874953Y-93564023D01*
X122872179Y-93555484D01*
X122819208Y-93392459D01*
X122817166Y-93386174D01*
X122813862Y-93380451D01*
X122726969Y-93229946D01*
X122726966Y-93229942D01*
X122723666Y-93224226D01*
X122598537Y-93085257D01*
X122461834Y-92985936D01*
X122418480Y-92929714D01*
X122412405Y-92858977D01*
X122445537Y-92796186D01*
X122507357Y-92761274D01*
X122535895Y-92758000D01*
X151258000Y-92758000D01*
X151326121Y-92778002D01*
X151372614Y-92831658D01*
X151384000Y-92884000D01*
X151384000Y-126366000D01*
X151363998Y-126434121D01*
X151310342Y-126480614D01*
X151258000Y-126492000D01*
X102742000Y-126492000D01*
X102673879Y-126471998D01*
X102627386Y-126418342D01*
X102616000Y-126366000D01*
X102616000Y-123462423D01*
X108904255Y-123462423D01*
X108912638Y-123514471D01*
X108915212Y-123524793D01*
X108986230Y-123732810D01*
X108990497Y-123742533D01*
X109095556Y-123935625D01*
X109101402Y-123944491D01*
X109237486Y-124117113D01*
X109244750Y-124124875D01*
X109407967Y-124272094D01*
X109416444Y-124278528D01*
X109602122Y-124396136D01*
X109611567Y-124401053D01*
X109814406Y-124485694D01*
X109824545Y-124488950D01*
X109964345Y-124521096D01*
X109978422Y-124520257D01*
X109982000Y-124510999D01*
X109982000Y-123462115D01*
X109977525Y-123446876D01*
X109976135Y-123445671D01*
X109968452Y-123444000D01*
X108919403Y-123444000D01*
X108906222Y-123447870D01*
X108904255Y-123462423D01*
X102616000Y-123462423D01*
X102616000Y-122918174D01*
X108905008Y-122918174D01*
X108906427Y-122931414D01*
X108921062Y-122936000D01*
X109963885Y-122936000D01*
X109979124Y-122931525D01*
X109980329Y-122930135D01*
X109982000Y-122922452D01*
X109982000Y-121873717D01*
X109981328Y-121871430D01*
X110490000Y-121871430D01*
X110490000Y-124509941D01*
X110494151Y-124524079D01*
X110504798Y-124525774D01*
X110508192Y-124525096D01*
X110719333Y-124463954D01*
X110729259Y-124460143D01*
X110927065Y-124364307D01*
X110936212Y-124358876D01*
X111115041Y-124231083D01*
X111123149Y-124224182D01*
X111277893Y-124068082D01*
X111284706Y-124059934D01*
X111403368Y-123890781D01*
X111458864Y-123846501D01*
X111529489Y-123839254D01*
X111592822Y-123871340D01*
X111617196Y-123902923D01*
X111637685Y-123940580D01*
X111780424Y-124121644D01*
X111784389Y-124125220D01*
X111947659Y-124272489D01*
X111947665Y-124272494D01*
X111951629Y-124276069D01*
X112146406Y-124399439D01*
X112359184Y-124488228D01*
X112364387Y-124489425D01*
X112364392Y-124489426D01*
X112578678Y-124538701D01*
X112578683Y-124538702D01*
X112583881Y-124539897D01*
X112589209Y-124540200D01*
X112589212Y-124540200D01*
X112745293Y-124549063D01*
X112814071Y-124552968D01*
X112819378Y-124552368D01*
X112819380Y-124552368D01*
X112940272Y-124538701D01*
X113043173Y-124527068D01*
X113048288Y-124525587D01*
X113048292Y-124525586D01*
X113173161Y-124489426D01*
X113264635Y-124462937D01*
X113472125Y-124362409D01*
X113476463Y-124359309D01*
X113476468Y-124359306D01*
X113655370Y-124231459D01*
X113659711Y-124228357D01*
X113769990Y-124117113D01*
X113818277Y-124068403D01*
X113818278Y-124068402D01*
X113822030Y-124064617D01*
X113825090Y-124060255D01*
X113825095Y-124060249D01*
X113943634Y-123891271D01*
X113999130Y-123846990D01*
X114069755Y-123839743D01*
X114133088Y-123871829D01*
X114157461Y-123903410D01*
X114177685Y-123940580D01*
X114320424Y-124121644D01*
X114324389Y-124125220D01*
X114487659Y-124272489D01*
X114487665Y-124272494D01*
X114491629Y-124276069D01*
X114686406Y-124399439D01*
X114899184Y-124488228D01*
X114904387Y-124489425D01*
X114904392Y-124489426D01*
X115118678Y-124538701D01*
X115118683Y-124538702D01*
X115123881Y-124539897D01*
X115129209Y-124540200D01*
X115129212Y-124540200D01*
X115285293Y-124549063D01*
X115354071Y-124552968D01*
X115359378Y-124552368D01*
X115359380Y-124552368D01*
X115480272Y-124538701D01*
X115583173Y-124527068D01*
X115588288Y-124525587D01*
X115588292Y-124525586D01*
X115713161Y-124489426D01*
X115804635Y-124462937D01*
X116012125Y-124362409D01*
X116016463Y-124359309D01*
X116016468Y-124359306D01*
X116195370Y-124231459D01*
X116199711Y-124228357D01*
X116309990Y-124117113D01*
X116358277Y-124068403D01*
X116358278Y-124068402D01*
X116362030Y-124064617D01*
X116365090Y-124060255D01*
X116365095Y-124060249D01*
X116483634Y-123891271D01*
X116539130Y-123846990D01*
X116609755Y-123839743D01*
X116673088Y-123871829D01*
X116697461Y-123903410D01*
X116717685Y-123940580D01*
X116860424Y-124121644D01*
X116864389Y-124125220D01*
X117027659Y-124272489D01*
X117027665Y-124272494D01*
X117031629Y-124276069D01*
X117226406Y-124399439D01*
X117439184Y-124488228D01*
X117444387Y-124489425D01*
X117444392Y-124489426D01*
X117658678Y-124538701D01*
X117658683Y-124538702D01*
X117663881Y-124539897D01*
X117669209Y-124540200D01*
X117669212Y-124540200D01*
X117825293Y-124549063D01*
X117894071Y-124552968D01*
X117899378Y-124552368D01*
X117899380Y-124552368D01*
X118020272Y-124538701D01*
X118123173Y-124527068D01*
X118128288Y-124525587D01*
X118128292Y-124525586D01*
X118253161Y-124489426D01*
X118344635Y-124462937D01*
X118552125Y-124362409D01*
X118556463Y-124359309D01*
X118556468Y-124359306D01*
X118735370Y-124231459D01*
X118739711Y-124228357D01*
X118849990Y-124117113D01*
X118898277Y-124068403D01*
X118898278Y-124068402D01*
X118902030Y-124064617D01*
X118905090Y-124060255D01*
X118905095Y-124060249D01*
X119023634Y-123891271D01*
X119079130Y-123846990D01*
X119149755Y-123839743D01*
X119213088Y-123871829D01*
X119237461Y-123903410D01*
X119257685Y-123940580D01*
X119400424Y-124121644D01*
X119404389Y-124125220D01*
X119567659Y-124272489D01*
X119567665Y-124272494D01*
X119571629Y-124276069D01*
X119766406Y-124399439D01*
X119979184Y-124488228D01*
X119984387Y-124489425D01*
X119984392Y-124489426D01*
X120198678Y-124538701D01*
X120198683Y-124538702D01*
X120203881Y-124539897D01*
X120209209Y-124540200D01*
X120209212Y-124540200D01*
X120365293Y-124549063D01*
X120434071Y-124552968D01*
X120439378Y-124552368D01*
X120439380Y-124552368D01*
X120560272Y-124538701D01*
X120663173Y-124527068D01*
X120668288Y-124525587D01*
X120668292Y-124525586D01*
X120793161Y-124489426D01*
X120884635Y-124462937D01*
X121092125Y-124362409D01*
X121096463Y-124359309D01*
X121096468Y-124359306D01*
X121275370Y-124231459D01*
X121279711Y-124228357D01*
X121389990Y-124117113D01*
X121438277Y-124068403D01*
X121438278Y-124068402D01*
X121442030Y-124064617D01*
X121445090Y-124060255D01*
X121445095Y-124060249D01*
X121563634Y-123891271D01*
X121619130Y-123846990D01*
X121689755Y-123839743D01*
X121753088Y-123871829D01*
X121777461Y-123903410D01*
X121797685Y-123940580D01*
X121940424Y-124121644D01*
X121944389Y-124125220D01*
X122107659Y-124272489D01*
X122107665Y-124272494D01*
X122111629Y-124276069D01*
X122306406Y-124399439D01*
X122519184Y-124488228D01*
X122524387Y-124489425D01*
X122524392Y-124489426D01*
X122738678Y-124538701D01*
X122738683Y-124538702D01*
X122743881Y-124539897D01*
X122749209Y-124540200D01*
X122749212Y-124540200D01*
X122905293Y-124549063D01*
X122974071Y-124552968D01*
X122979378Y-124552368D01*
X122979380Y-124552368D01*
X123100272Y-124538701D01*
X123203173Y-124527068D01*
X123208288Y-124525587D01*
X123208292Y-124525586D01*
X123333161Y-124489426D01*
X123424635Y-124462937D01*
X123632125Y-124362409D01*
X123636463Y-124359309D01*
X123636468Y-124359306D01*
X123815370Y-124231459D01*
X123819711Y-124228357D01*
X123929990Y-124117113D01*
X123978277Y-124068403D01*
X123978278Y-124068402D01*
X123982030Y-124064617D01*
X123985090Y-124060255D01*
X123985095Y-124060249D01*
X124103634Y-123891271D01*
X124159130Y-123846990D01*
X124229755Y-123839743D01*
X124293088Y-123871829D01*
X124317461Y-123903410D01*
X124337685Y-123940580D01*
X124480424Y-124121644D01*
X124484389Y-124125220D01*
X124647659Y-124272489D01*
X124647665Y-124272494D01*
X124651629Y-124276069D01*
X124846406Y-124399439D01*
X125059184Y-124488228D01*
X125064387Y-124489425D01*
X125064392Y-124489426D01*
X125278678Y-124538701D01*
X125278683Y-124538702D01*
X125283881Y-124539897D01*
X125289209Y-124540200D01*
X125289212Y-124540200D01*
X125445293Y-124549063D01*
X125514071Y-124552968D01*
X125519378Y-124552368D01*
X125519380Y-124552368D01*
X125640272Y-124538701D01*
X125743173Y-124527068D01*
X125748288Y-124525587D01*
X125748292Y-124525586D01*
X125873161Y-124489426D01*
X125964635Y-124462937D01*
X126172125Y-124362409D01*
X126176463Y-124359309D01*
X126176468Y-124359306D01*
X126355370Y-124231459D01*
X126359711Y-124228357D01*
X126469990Y-124117113D01*
X126518277Y-124068403D01*
X126518278Y-124068402D01*
X126522030Y-124064617D01*
X126525090Y-124060255D01*
X126525095Y-124060249D01*
X126643634Y-123891271D01*
X126699130Y-123846990D01*
X126769755Y-123839743D01*
X126833088Y-123871829D01*
X126857461Y-123903410D01*
X126877685Y-123940580D01*
X127020424Y-124121644D01*
X127024389Y-124125220D01*
X127187659Y-124272489D01*
X127187665Y-124272494D01*
X127191629Y-124276069D01*
X127386406Y-124399439D01*
X127599184Y-124488228D01*
X127604387Y-124489425D01*
X127604392Y-124489426D01*
X127818678Y-124538701D01*
X127818683Y-124538702D01*
X127823881Y-124539897D01*
X127829209Y-124540200D01*
X127829212Y-124540200D01*
X127985293Y-124549063D01*
X128054071Y-124552968D01*
X128059378Y-124552368D01*
X128059380Y-124552368D01*
X128180272Y-124538701D01*
X128283173Y-124527068D01*
X128288288Y-124525587D01*
X128288292Y-124525586D01*
X128413161Y-124489426D01*
X128504635Y-124462937D01*
X128712125Y-124362409D01*
X128716463Y-124359309D01*
X128716468Y-124359306D01*
X128895370Y-124231459D01*
X128899711Y-124228357D01*
X129009990Y-124117113D01*
X129058277Y-124068403D01*
X129058278Y-124068402D01*
X129062030Y-124064617D01*
X129065090Y-124060255D01*
X129065095Y-124060249D01*
X129183634Y-123891271D01*
X129239130Y-123846990D01*
X129309755Y-123839743D01*
X129373088Y-123871829D01*
X129397461Y-123903410D01*
X129417685Y-123940580D01*
X129560424Y-124121644D01*
X129564389Y-124125220D01*
X129727659Y-124272489D01*
X129727665Y-124272494D01*
X129731629Y-124276069D01*
X129926406Y-124399439D01*
X130139184Y-124488228D01*
X130144387Y-124489425D01*
X130144392Y-124489426D01*
X130358678Y-124538701D01*
X130358683Y-124538702D01*
X130363881Y-124539897D01*
X130369209Y-124540200D01*
X130369212Y-124540200D01*
X130525293Y-124549063D01*
X130594071Y-124552968D01*
X130599378Y-124552368D01*
X130599380Y-124552368D01*
X130720272Y-124538701D01*
X130823173Y-124527068D01*
X130828288Y-124525587D01*
X130828292Y-124525586D01*
X130953161Y-124489426D01*
X131044635Y-124462937D01*
X131252125Y-124362409D01*
X131256463Y-124359309D01*
X131256468Y-124359306D01*
X131435370Y-124231459D01*
X131439711Y-124228357D01*
X131549990Y-124117113D01*
X131598277Y-124068403D01*
X131598278Y-124068402D01*
X131602030Y-124064617D01*
X131605090Y-124060255D01*
X131605095Y-124060249D01*
X131723634Y-123891271D01*
X131779130Y-123846990D01*
X131849755Y-123839743D01*
X131913088Y-123871829D01*
X131937461Y-123903410D01*
X131957685Y-123940580D01*
X132100424Y-124121644D01*
X132104389Y-124125220D01*
X132267659Y-124272489D01*
X132267665Y-124272494D01*
X132271629Y-124276069D01*
X132466406Y-124399439D01*
X132679184Y-124488228D01*
X132684387Y-124489425D01*
X132684392Y-124489426D01*
X132898678Y-124538701D01*
X132898683Y-124538702D01*
X132903881Y-124539897D01*
X132909209Y-124540200D01*
X132909212Y-124540200D01*
X133065293Y-124549063D01*
X133134071Y-124552968D01*
X133139378Y-124552368D01*
X133139380Y-124552368D01*
X133260272Y-124538701D01*
X133363173Y-124527068D01*
X133368288Y-124525587D01*
X133368292Y-124525586D01*
X133493161Y-124489426D01*
X133584635Y-124462937D01*
X133792125Y-124362409D01*
X133796463Y-124359309D01*
X133796468Y-124359306D01*
X133975370Y-124231459D01*
X133979711Y-124228357D01*
X134089990Y-124117113D01*
X134138277Y-124068403D01*
X134138278Y-124068402D01*
X134142030Y-124064617D01*
X134145090Y-124060255D01*
X134145095Y-124060249D01*
X134263634Y-123891271D01*
X134319130Y-123846990D01*
X134389755Y-123839743D01*
X134453088Y-123871829D01*
X134477461Y-123903410D01*
X134497685Y-123940580D01*
X134640424Y-124121644D01*
X134644389Y-124125220D01*
X134807659Y-124272489D01*
X134807665Y-124272494D01*
X134811629Y-124276069D01*
X135006406Y-124399439D01*
X135219184Y-124488228D01*
X135224387Y-124489425D01*
X135224392Y-124489426D01*
X135438678Y-124538701D01*
X135438683Y-124538702D01*
X135443881Y-124539897D01*
X135449209Y-124540200D01*
X135449212Y-124540200D01*
X135605293Y-124549063D01*
X135674071Y-124552968D01*
X135679378Y-124552368D01*
X135679380Y-124552368D01*
X135800272Y-124538701D01*
X135903173Y-124527068D01*
X135908288Y-124525587D01*
X135908292Y-124525586D01*
X136033161Y-124489426D01*
X136124635Y-124462937D01*
X136332125Y-124362409D01*
X136336463Y-124359309D01*
X136336468Y-124359306D01*
X136515370Y-124231459D01*
X136519711Y-124228357D01*
X136629990Y-124117113D01*
X136678277Y-124068403D01*
X136678278Y-124068402D01*
X136682030Y-124064617D01*
X136685090Y-124060255D01*
X136685095Y-124060249D01*
X136803634Y-123891271D01*
X136859130Y-123846990D01*
X136929755Y-123839743D01*
X136993088Y-123871829D01*
X137017461Y-123903410D01*
X137037685Y-123940580D01*
X137180424Y-124121644D01*
X137184389Y-124125220D01*
X137347659Y-124272489D01*
X137347665Y-124272494D01*
X137351629Y-124276069D01*
X137546406Y-124399439D01*
X137759184Y-124488228D01*
X137764387Y-124489425D01*
X137764392Y-124489426D01*
X137978678Y-124538701D01*
X137978683Y-124538702D01*
X137983881Y-124539897D01*
X137989209Y-124540200D01*
X137989212Y-124540200D01*
X138145293Y-124549063D01*
X138214071Y-124552968D01*
X138219378Y-124552368D01*
X138219380Y-124552368D01*
X138340272Y-124538701D01*
X138443173Y-124527068D01*
X138448288Y-124525587D01*
X138448292Y-124525586D01*
X138573161Y-124489426D01*
X138664635Y-124462937D01*
X138872125Y-124362409D01*
X138876463Y-124359309D01*
X138876468Y-124359306D01*
X139055370Y-124231459D01*
X139059711Y-124228357D01*
X139169990Y-124117113D01*
X139218277Y-124068403D01*
X139218278Y-124068402D01*
X139222030Y-124064617D01*
X139225090Y-124060255D01*
X139225095Y-124060249D01*
X139343634Y-123891271D01*
X139399130Y-123846990D01*
X139469755Y-123839743D01*
X139533088Y-123871829D01*
X139557461Y-123903410D01*
X139577685Y-123940580D01*
X139720424Y-124121644D01*
X139724389Y-124125220D01*
X139887659Y-124272489D01*
X139887665Y-124272494D01*
X139891629Y-124276069D01*
X140086406Y-124399439D01*
X140299184Y-124488228D01*
X140304387Y-124489425D01*
X140304392Y-124489426D01*
X140518678Y-124538701D01*
X140518683Y-124538702D01*
X140523881Y-124539897D01*
X140529209Y-124540200D01*
X140529212Y-124540200D01*
X140685293Y-124549063D01*
X140754071Y-124552968D01*
X140759378Y-124552368D01*
X140759380Y-124552368D01*
X140880272Y-124538701D01*
X140983173Y-124527068D01*
X140988288Y-124525587D01*
X140988292Y-124525586D01*
X141113161Y-124489426D01*
X141204635Y-124462937D01*
X141412125Y-124362409D01*
X141416463Y-124359309D01*
X141416468Y-124359306D01*
X141595370Y-124231459D01*
X141599711Y-124228357D01*
X141603531Y-124224503D01*
X141603566Y-124224484D01*
X141607533Y-124221108D01*
X141608220Y-124221916D01*
X141665691Y-124190203D01*
X141736529Y-124194955D01*
X141793552Y-124237249D01*
X141807026Y-124259555D01*
X141865208Y-124383197D01*
X141967548Y-124506904D01*
X141973962Y-124511564D01*
X142062293Y-124575740D01*
X142097437Y-124601274D01*
X142104804Y-124604191D01*
X142104806Y-124604192D01*
X142157988Y-124625248D01*
X142246714Y-124660378D01*
X142254571Y-124661371D01*
X142254573Y-124661371D01*
X142402072Y-124680004D01*
X142402075Y-124680004D01*
X142406000Y-124680500D01*
X144106000Y-124680500D01*
X144120271Y-124680051D01*
X144141268Y-124679392D01*
X144141274Y-124679391D01*
X144146217Y-124679236D01*
X144151079Y-124678309D01*
X144151084Y-124678308D01*
X144222566Y-124664672D01*
X144303925Y-124649152D01*
X144449197Y-124580792D01*
X144572904Y-124478452D01*
X144629138Y-124401053D01*
X144662615Y-124354976D01*
X144662616Y-124354974D01*
X144667274Y-124348563D01*
X144726378Y-124199286D01*
X144727371Y-124191427D01*
X144746004Y-124043928D01*
X144746004Y-124043925D01*
X144746500Y-124040000D01*
X144746500Y-122340000D01*
X144745236Y-122299783D01*
X144715152Y-122142075D01*
X144646792Y-121996803D01*
X144544452Y-121873096D01*
X144496784Y-121838463D01*
X144420976Y-121783385D01*
X144420974Y-121783384D01*
X144414563Y-121778726D01*
X144407196Y-121775809D01*
X144407194Y-121775808D01*
X144339955Y-121749186D01*
X144265286Y-121719622D01*
X144257429Y-121718629D01*
X144257427Y-121718629D01*
X144109928Y-121699996D01*
X144109925Y-121699996D01*
X144106000Y-121699500D01*
X142406000Y-121699500D01*
X142391729Y-121699949D01*
X142370732Y-121700608D01*
X142370726Y-121700609D01*
X142365783Y-121700764D01*
X142360921Y-121701691D01*
X142360916Y-121701692D01*
X142289434Y-121715328D01*
X142208075Y-121730848D01*
X142062803Y-121799208D01*
X141939096Y-121901548D01*
X141934436Y-121907962D01*
X141879456Y-121983636D01*
X141844726Y-122031437D01*
X141820666Y-122092206D01*
X141811960Y-122114194D01*
X141768285Y-122170168D01*
X141701282Y-122193644D01*
X141632224Y-122177168D01*
X141619855Y-122168298D01*
X141619482Y-122168799D01*
X141573923Y-122134902D01*
X141434504Y-122031171D01*
X141429753Y-122028755D01*
X141429749Y-122028753D01*
X141233740Y-121929097D01*
X141233739Y-121929097D01*
X141228982Y-121926678D01*
X141105646Y-121888381D01*
X141013895Y-121859891D01*
X141013889Y-121859890D01*
X141008792Y-121858307D01*
X140903798Y-121844391D01*
X140785515Y-121828714D01*
X140785510Y-121828714D01*
X140780230Y-121828014D01*
X140774900Y-121828214D01*
X140774899Y-121828214D01*
X140665030Y-121832339D01*
X140549831Y-121836663D01*
X140467368Y-121853966D01*
X140329411Y-121882912D01*
X140329408Y-121882913D01*
X140324184Y-121884009D01*
X140109740Y-121968697D01*
X139912631Y-122088306D01*
X139908601Y-122091803D01*
X139791239Y-122193644D01*
X139738492Y-122239415D01*
X139735109Y-122243541D01*
X139735105Y-122243545D01*
X139637315Y-122362809D01*
X139592304Y-122417705D01*
X139589667Y-122422338D01*
X139589666Y-122422339D01*
X139556116Y-122481278D01*
X139505033Y-122530584D01*
X139435402Y-122544445D01*
X139369332Y-122518461D01*
X139342094Y-122489312D01*
X139336686Y-122481278D01*
X139238627Y-122335626D01*
X139204435Y-122299783D01*
X139090848Y-122180714D01*
X139079482Y-122168799D01*
X138894504Y-122031171D01*
X138889753Y-122028755D01*
X138889749Y-122028753D01*
X138693740Y-121929097D01*
X138693739Y-121929097D01*
X138688982Y-121926678D01*
X138565646Y-121888381D01*
X138473895Y-121859891D01*
X138473889Y-121859890D01*
X138468792Y-121858307D01*
X138363798Y-121844391D01*
X138245515Y-121828714D01*
X138245510Y-121828714D01*
X138240230Y-121828014D01*
X138234900Y-121828214D01*
X138234899Y-121828214D01*
X138125030Y-121832339D01*
X138009831Y-121836663D01*
X137927368Y-121853966D01*
X137789411Y-121882912D01*
X137789408Y-121882913D01*
X137784184Y-121884009D01*
X137569740Y-121968697D01*
X137372631Y-122088306D01*
X137368601Y-122091803D01*
X137251239Y-122193644D01*
X137198492Y-122239415D01*
X137195109Y-122243541D01*
X137195105Y-122243545D01*
X137097315Y-122362809D01*
X137052304Y-122417705D01*
X137049667Y-122422338D01*
X137049666Y-122422339D01*
X137016116Y-122481278D01*
X136965033Y-122530584D01*
X136895402Y-122544445D01*
X136829332Y-122518461D01*
X136802094Y-122489312D01*
X136796686Y-122481278D01*
X136698627Y-122335626D01*
X136664435Y-122299783D01*
X136550848Y-122180714D01*
X136539482Y-122168799D01*
X136354504Y-122031171D01*
X136349753Y-122028755D01*
X136349749Y-122028753D01*
X136153740Y-121929097D01*
X136153739Y-121929097D01*
X136148982Y-121926678D01*
X136025646Y-121888381D01*
X135933895Y-121859891D01*
X135933889Y-121859890D01*
X135928792Y-121858307D01*
X135823798Y-121844391D01*
X135705515Y-121828714D01*
X135705510Y-121828714D01*
X135700230Y-121828014D01*
X135694900Y-121828214D01*
X135694899Y-121828214D01*
X135585030Y-121832339D01*
X135469831Y-121836663D01*
X135387368Y-121853966D01*
X135249411Y-121882912D01*
X135249408Y-121882913D01*
X135244184Y-121884009D01*
X135029740Y-121968697D01*
X134832631Y-122088306D01*
X134828601Y-122091803D01*
X134711239Y-122193644D01*
X134658492Y-122239415D01*
X134655109Y-122243541D01*
X134655105Y-122243545D01*
X134557315Y-122362809D01*
X134512304Y-122417705D01*
X134509667Y-122422338D01*
X134509666Y-122422339D01*
X134476116Y-122481278D01*
X134425033Y-122530584D01*
X134355402Y-122544445D01*
X134289332Y-122518461D01*
X134262094Y-122489312D01*
X134256686Y-122481278D01*
X134158627Y-122335626D01*
X134124435Y-122299783D01*
X134010848Y-122180714D01*
X133999482Y-122168799D01*
X133814504Y-122031171D01*
X133809753Y-122028755D01*
X133809749Y-122028753D01*
X133613740Y-121929097D01*
X133613739Y-121929097D01*
X133608982Y-121926678D01*
X133485646Y-121888381D01*
X133393895Y-121859891D01*
X133393889Y-121859890D01*
X133388792Y-121858307D01*
X133283798Y-121844391D01*
X133165515Y-121828714D01*
X133165510Y-121828714D01*
X133160230Y-121828014D01*
X133154900Y-121828214D01*
X133154899Y-121828214D01*
X133045030Y-121832339D01*
X132929831Y-121836663D01*
X132847368Y-121853966D01*
X132709411Y-121882912D01*
X132709408Y-121882913D01*
X132704184Y-121884009D01*
X132489740Y-121968697D01*
X132292631Y-122088306D01*
X132288601Y-122091803D01*
X132171239Y-122193644D01*
X132118492Y-122239415D01*
X132115109Y-122243541D01*
X132115105Y-122243545D01*
X132017315Y-122362809D01*
X131972304Y-122417705D01*
X131969667Y-122422338D01*
X131969666Y-122422339D01*
X131936116Y-122481278D01*
X131885033Y-122530584D01*
X131815402Y-122544445D01*
X131749332Y-122518461D01*
X131722094Y-122489312D01*
X131716686Y-122481278D01*
X131618627Y-122335626D01*
X131584435Y-122299783D01*
X131470848Y-122180714D01*
X131459482Y-122168799D01*
X131274504Y-122031171D01*
X131269753Y-122028755D01*
X131269749Y-122028753D01*
X131073740Y-121929097D01*
X131073739Y-121929097D01*
X131068982Y-121926678D01*
X130945646Y-121888381D01*
X130853895Y-121859891D01*
X130853889Y-121859890D01*
X130848792Y-121858307D01*
X130743798Y-121844391D01*
X130625515Y-121828714D01*
X130625510Y-121828714D01*
X130620230Y-121828014D01*
X130614900Y-121828214D01*
X130614899Y-121828214D01*
X130505030Y-121832339D01*
X130389831Y-121836663D01*
X130218163Y-121872683D01*
X130147388Y-121867096D01*
X130103195Y-121838463D01*
X128922405Y-120657672D01*
X128888379Y-120595360D01*
X128885500Y-120568577D01*
X128885500Y-117422059D01*
X128905502Y-117353938D01*
X128917864Y-117337748D01*
X128969247Y-117280682D01*
X128969248Y-117280681D01*
X128973666Y-117275774D01*
X128976966Y-117270058D01*
X128976969Y-117270054D01*
X129063862Y-117119549D01*
X129063863Y-117119548D01*
X129067166Y-117113826D01*
X129124953Y-116935977D01*
X129144500Y-116750000D01*
X129124953Y-116564023D01*
X129067166Y-116386174D01*
X129026840Y-116316327D01*
X128976969Y-116229946D01*
X128976966Y-116229942D01*
X128973666Y-116224226D01*
X128969247Y-116219318D01*
X128852952Y-116090160D01*
X128852950Y-116090159D01*
X128848537Y-116085257D01*
X128778181Y-116034140D01*
X128702592Y-115979221D01*
X128702591Y-115979220D01*
X128697250Y-115975340D01*
X128691222Y-115972656D01*
X128691220Y-115972655D01*
X128532447Y-115901965D01*
X128532446Y-115901965D01*
X128526416Y-115899280D01*
X128427351Y-115878223D01*
X128349958Y-115861772D01*
X128349953Y-115861772D01*
X128343501Y-115860400D01*
X128156499Y-115860400D01*
X128150047Y-115861772D01*
X128150042Y-115861772D01*
X128072649Y-115878223D01*
X127973584Y-115899280D01*
X127967554Y-115901965D01*
X127967553Y-115901965D01*
X127808780Y-115972655D01*
X127808778Y-115972656D01*
X127802750Y-115975340D01*
X127797409Y-115979220D01*
X127797408Y-115979221D01*
X127721819Y-116034140D01*
X127651463Y-116085257D01*
X127647050Y-116090159D01*
X127647048Y-116090160D01*
X127530753Y-116219318D01*
X127526334Y-116224226D01*
X127523034Y-116229942D01*
X127523031Y-116229946D01*
X127473160Y-116316327D01*
X127432834Y-116386174D01*
X127375047Y-116564023D01*
X127355500Y-116750000D01*
X127375047Y-116935977D01*
X127432834Y-117113826D01*
X127436137Y-117119548D01*
X127436138Y-117119549D01*
X127523031Y-117270054D01*
X127523034Y-117270058D01*
X127526334Y-117275774D01*
X127530752Y-117280681D01*
X127530753Y-117280682D01*
X127582136Y-117337748D01*
X127612853Y-117401756D01*
X127614500Y-117422059D01*
X127614500Y-120805512D01*
X127613989Y-120816355D01*
X127612342Y-120823723D01*
X127612591Y-120831648D01*
X127612591Y-120831649D01*
X127614438Y-120890405D01*
X127614500Y-120894364D01*
X127614500Y-120923580D01*
X127615060Y-120928009D01*
X127615993Y-120939851D01*
X127617386Y-120984196D01*
X127623066Y-121003746D01*
X127627069Y-121023079D01*
X127629622Y-121043286D01*
X127632541Y-121050658D01*
X127632542Y-121050663D01*
X127645955Y-121084541D01*
X127649799Y-121095768D01*
X127653220Y-121107541D01*
X127662178Y-121138373D01*
X127666213Y-121145196D01*
X127666214Y-121145198D01*
X127672539Y-121155893D01*
X127681234Y-121173640D01*
X127688726Y-121192563D01*
X127693387Y-121198979D01*
X127693388Y-121198980D01*
X127714799Y-121228449D01*
X127721318Y-121238373D01*
X127740878Y-121271449D01*
X127740885Y-121271458D01*
X127743906Y-121276567D01*
X127744443Y-121277176D01*
X127758485Y-121291218D01*
X127771325Y-121306251D01*
X127783096Y-121322452D01*
X127816867Y-121350390D01*
X127825646Y-121358379D01*
X128083326Y-121616059D01*
X128117352Y-121678371D01*
X128112287Y-121749186D01*
X128069740Y-121806022D01*
X127998958Y-121831065D01*
X127849831Y-121836663D01*
X127767368Y-121853966D01*
X127629411Y-121882912D01*
X127629408Y-121882913D01*
X127624184Y-121884009D01*
X127409740Y-121968697D01*
X127212631Y-122088306D01*
X127208601Y-122091803D01*
X127091239Y-122193644D01*
X127038492Y-122239415D01*
X127035109Y-122243541D01*
X127035105Y-122243545D01*
X126937315Y-122362809D01*
X126892304Y-122417705D01*
X126889667Y-122422338D01*
X126889666Y-122422339D01*
X126856116Y-122481278D01*
X126805033Y-122530584D01*
X126735402Y-122544445D01*
X126669332Y-122518461D01*
X126642094Y-122489312D01*
X126636686Y-122481278D01*
X126538627Y-122335626D01*
X126504435Y-122299783D01*
X126390848Y-122180714D01*
X126379482Y-122168799D01*
X126194504Y-122031171D01*
X126189753Y-122028755D01*
X126189749Y-122028753D01*
X125993740Y-121929097D01*
X125993739Y-121929097D01*
X125988982Y-121926678D01*
X125865646Y-121888381D01*
X125773895Y-121859891D01*
X125773889Y-121859890D01*
X125768792Y-121858307D01*
X125663798Y-121844391D01*
X125545515Y-121828714D01*
X125545510Y-121828714D01*
X125540230Y-121828014D01*
X125534900Y-121828214D01*
X125534899Y-121828214D01*
X125425030Y-121832339D01*
X125309831Y-121836663D01*
X125227368Y-121853966D01*
X125089411Y-121882912D01*
X125089408Y-121882913D01*
X125084184Y-121884009D01*
X124869740Y-121968697D01*
X124672631Y-122088306D01*
X124668601Y-122091803D01*
X124551239Y-122193644D01*
X124498492Y-122239415D01*
X124495109Y-122243541D01*
X124495105Y-122243545D01*
X124397315Y-122362809D01*
X124352304Y-122417705D01*
X124349667Y-122422338D01*
X124349666Y-122422339D01*
X124316116Y-122481278D01*
X124265033Y-122530584D01*
X124195402Y-122544445D01*
X124129332Y-122518461D01*
X124102094Y-122489312D01*
X124096686Y-122481278D01*
X123998627Y-122335626D01*
X123964435Y-122299783D01*
X123850848Y-122180714D01*
X123839482Y-122168799D01*
X123654504Y-122031171D01*
X123649753Y-122028755D01*
X123649749Y-122028753D01*
X123453740Y-121929097D01*
X123453739Y-121929097D01*
X123448982Y-121926678D01*
X123325646Y-121888381D01*
X123233895Y-121859891D01*
X123233889Y-121859890D01*
X123228792Y-121858307D01*
X123123798Y-121844391D01*
X123005515Y-121828714D01*
X123005510Y-121828714D01*
X123000230Y-121828014D01*
X122994900Y-121828214D01*
X122994899Y-121828214D01*
X122885030Y-121832339D01*
X122769831Y-121836663D01*
X122687368Y-121853966D01*
X122549411Y-121882912D01*
X122549408Y-121882913D01*
X122544184Y-121884009D01*
X122329740Y-121968697D01*
X122132631Y-122088306D01*
X122128601Y-122091803D01*
X122011239Y-122193644D01*
X121958492Y-122239415D01*
X121955109Y-122243541D01*
X121955105Y-122243545D01*
X121857315Y-122362809D01*
X121812304Y-122417705D01*
X121809667Y-122422338D01*
X121809666Y-122422339D01*
X121776116Y-122481278D01*
X121725033Y-122530584D01*
X121655402Y-122544445D01*
X121589332Y-122518461D01*
X121562094Y-122489312D01*
X121556686Y-122481278D01*
X121458627Y-122335626D01*
X121424435Y-122299783D01*
X121310848Y-122180714D01*
X121299482Y-122168799D01*
X121124766Y-122038806D01*
X121118792Y-122034361D01*
X121118786Y-122034357D01*
X121114504Y-122031171D01*
X121100396Y-122023998D01*
X121048739Y-121975298D01*
X121031500Y-121911682D01*
X121031500Y-112074423D01*
X121051502Y-112006302D01*
X121105158Y-111959809D01*
X121175432Y-111949705D01*
X121240012Y-111979199D01*
X121246595Y-111985328D01*
X125577595Y-116316327D01*
X125611621Y-116378639D01*
X125614500Y-116405422D01*
X125614500Y-120077941D01*
X125594498Y-120146062D01*
X125582137Y-120162250D01*
X125526334Y-120224226D01*
X125523034Y-120229942D01*
X125523031Y-120229946D01*
X125436138Y-120380451D01*
X125432834Y-120386174D01*
X125375047Y-120564023D01*
X125355500Y-120750000D01*
X125356190Y-120756565D01*
X125374210Y-120928009D01*
X125375047Y-120935977D01*
X125432834Y-121113826D01*
X125436137Y-121119548D01*
X125436138Y-121119549D01*
X125523031Y-121270054D01*
X125523034Y-121270058D01*
X125526334Y-121275774D01*
X125530752Y-121280681D01*
X125530753Y-121280682D01*
X125553777Y-121306252D01*
X125651463Y-121414743D01*
X125802750Y-121524660D01*
X125808778Y-121527344D01*
X125808780Y-121527345D01*
X125967553Y-121598035D01*
X125973584Y-121600720D01*
X126045748Y-121616059D01*
X126150042Y-121638228D01*
X126150047Y-121638228D01*
X126156499Y-121639600D01*
X126343501Y-121639600D01*
X126349953Y-121638228D01*
X126349958Y-121638228D01*
X126454252Y-121616059D01*
X126526416Y-121600720D01*
X126532447Y-121598035D01*
X126691220Y-121527345D01*
X126691222Y-121527344D01*
X126697250Y-121524660D01*
X126848537Y-121414743D01*
X126946224Y-121306252D01*
X126969247Y-121280682D01*
X126969248Y-121280681D01*
X126973666Y-121275774D01*
X126976966Y-121270058D01*
X126976969Y-121270054D01*
X127063862Y-121119549D01*
X127063863Y-121119548D01*
X127067166Y-121113826D01*
X127124953Y-120935977D01*
X127125791Y-120928009D01*
X127143810Y-120756565D01*
X127144500Y-120750000D01*
X127124953Y-120564023D01*
X127067166Y-120386174D01*
X127063862Y-120380451D01*
X126976969Y-120229946D01*
X126976966Y-120229942D01*
X126973666Y-120224226D01*
X126917864Y-120162252D01*
X126887147Y-120098244D01*
X126885500Y-120077941D01*
X126885500Y-116168483D01*
X126886011Y-116157639D01*
X126887657Y-116150276D01*
X126885562Y-116083623D01*
X126885500Y-116079667D01*
X126885500Y-116050420D01*
X126884939Y-116045982D01*
X126884006Y-116034140D01*
X126882862Y-115997728D01*
X126882613Y-115989803D01*
X126876939Y-115970273D01*
X126872929Y-115950910D01*
X126871371Y-115938574D01*
X126871371Y-115938573D01*
X126870378Y-115930714D01*
X126867462Y-115923349D01*
X126867461Y-115923345D01*
X126854042Y-115889452D01*
X126850197Y-115878223D01*
X126837822Y-115835627D01*
X126827461Y-115818107D01*
X126818766Y-115800360D01*
X126811274Y-115781437D01*
X126785200Y-115745549D01*
X126778682Y-115735627D01*
X126759136Y-115702576D01*
X126759134Y-115702573D01*
X126756094Y-115697433D01*
X126755556Y-115696824D01*
X126741518Y-115682786D01*
X126728677Y-115667752D01*
X126721564Y-115657961D01*
X126721561Y-115657958D01*
X126716904Y-115651548D01*
X126683122Y-115623601D01*
X126674343Y-115615611D01*
X124058732Y-113000000D01*
X130605500Y-113000000D01*
X130625047Y-113185977D01*
X130682834Y-113363826D01*
X130686137Y-113369548D01*
X130686138Y-113369549D01*
X130773031Y-113520054D01*
X130773034Y-113520058D01*
X130776334Y-113525774D01*
X130901463Y-113664743D01*
X131052750Y-113774660D01*
X131058778Y-113777344D01*
X131058780Y-113777345D01*
X131217553Y-113848035D01*
X131223584Y-113850720D01*
X131315041Y-113870160D01*
X131400042Y-113888228D01*
X131400047Y-113888228D01*
X131406499Y-113889600D01*
X131593501Y-113889600D01*
X131599953Y-113888228D01*
X131599958Y-113888228D01*
X131684959Y-113870160D01*
X131776416Y-113850720D01*
X131782447Y-113848035D01*
X131941220Y-113777345D01*
X131941222Y-113777344D01*
X131947250Y-113774660D01*
X132098537Y-113664743D01*
X132223666Y-113525774D01*
X132226966Y-113520058D01*
X132226969Y-113520054D01*
X132313862Y-113369549D01*
X132313863Y-113369548D01*
X132317166Y-113363826D01*
X132374953Y-113185977D01*
X132389339Y-113049102D01*
X132416352Y-112983447D01*
X132425554Y-112973179D01*
X133222228Y-112176505D01*
X133284540Y-112142479D01*
X133311323Y-112139600D01*
X133343501Y-112139600D01*
X133349953Y-112138228D01*
X133349958Y-112138228D01*
X133434959Y-112120160D01*
X133526416Y-112100720D01*
X133532447Y-112098035D01*
X133691220Y-112027345D01*
X133691222Y-112027344D01*
X133697250Y-112024660D01*
X133722518Y-112006302D01*
X133843198Y-111918622D01*
X133848537Y-111914743D01*
X133910358Y-111846085D01*
X133969247Y-111780682D01*
X133969248Y-111780681D01*
X133973666Y-111775774D01*
X133976966Y-111770058D01*
X133976969Y-111770054D01*
X134063862Y-111619549D01*
X134063863Y-111619548D01*
X134067166Y-111613826D01*
X134124953Y-111435977D01*
X134144500Y-111250000D01*
X134124953Y-111064023D01*
X134067166Y-110886174D01*
X134036305Y-110832720D01*
X133976969Y-110729946D01*
X133976966Y-110729942D01*
X133973666Y-110724226D01*
X133943891Y-110691158D01*
X133852952Y-110590160D01*
X133852950Y-110590159D01*
X133848537Y-110585257D01*
X133748647Y-110512682D01*
X133702592Y-110479221D01*
X133702591Y-110479220D01*
X133697250Y-110475340D01*
X133691222Y-110472656D01*
X133691220Y-110472655D01*
X133532447Y-110401965D01*
X133532446Y-110401965D01*
X133526416Y-110399280D01*
X133434958Y-110379840D01*
X133349958Y-110361772D01*
X133349953Y-110361772D01*
X133343501Y-110360400D01*
X133156499Y-110360400D01*
X133150047Y-110361772D01*
X133150042Y-110361772D01*
X133065042Y-110379840D01*
X132973584Y-110399280D01*
X132967554Y-110401965D01*
X132967553Y-110401965D01*
X132808780Y-110472655D01*
X132808778Y-110472656D01*
X132802750Y-110475340D01*
X132797409Y-110479220D01*
X132797408Y-110479221D01*
X132751353Y-110512682D01*
X132651463Y-110585257D01*
X132647050Y-110590159D01*
X132647048Y-110590160D01*
X132556109Y-110691158D01*
X132526334Y-110724226D01*
X132523034Y-110729942D01*
X132523031Y-110729946D01*
X132463695Y-110832720D01*
X132432834Y-110886174D01*
X132375047Y-111064023D01*
X132374357Y-111070586D01*
X132374357Y-111070587D01*
X132360661Y-111200897D01*
X132333648Y-111266553D01*
X132324446Y-111276821D01*
X131527772Y-112073495D01*
X131465460Y-112107521D01*
X131438677Y-112110400D01*
X131406499Y-112110400D01*
X131400047Y-112111772D01*
X131400042Y-112111772D01*
X131315042Y-112129840D01*
X131223584Y-112149280D01*
X131217554Y-112151965D01*
X131217553Y-112151965D01*
X131058780Y-112222655D01*
X131058778Y-112222656D01*
X131052750Y-112225340D01*
X130901463Y-112335257D01*
X130897050Y-112340159D01*
X130897048Y-112340160D01*
X130780753Y-112469318D01*
X130776334Y-112474226D01*
X130773034Y-112479942D01*
X130773031Y-112479946D01*
X130745968Y-112526821D01*
X130682834Y-112636174D01*
X130625047Y-112814023D01*
X130605500Y-113000000D01*
X124058732Y-113000000D01*
X120646870Y-109588137D01*
X120639559Y-109580104D01*
X120635514Y-109573730D01*
X120586880Y-109528060D01*
X120584039Y-109525306D01*
X120563379Y-109504646D01*
X120560253Y-109502221D01*
X120560246Y-109502215D01*
X120559844Y-109501904D01*
X120550815Y-109494193D01*
X120524252Y-109469249D01*
X120518476Y-109463825D01*
X120500646Y-109454023D01*
X120484123Y-109443169D01*
X120468041Y-109430694D01*
X120427315Y-109413070D01*
X120416668Y-109407854D01*
X120377784Y-109386478D01*
X120358079Y-109381419D01*
X120339370Y-109375014D01*
X120327967Y-109370079D01*
X120327964Y-109370078D01*
X120320694Y-109366932D01*
X120312869Y-109365693D01*
X120312867Y-109365692D01*
X120276872Y-109359991D01*
X120265251Y-109357584D01*
X120235371Y-109349913D01*
X120222276Y-109346551D01*
X120221465Y-109346500D01*
X120201604Y-109346500D01*
X120181894Y-109344949D01*
X120169948Y-109343057D01*
X120162119Y-109341817D01*
X120128983Y-109344949D01*
X120118488Y-109345941D01*
X120106631Y-109346500D01*
X114978350Y-109346500D01*
X114910229Y-109326498D01*
X114899439Y-109318259D01*
X114898537Y-109317257D01*
X114747250Y-109207340D01*
X114741222Y-109204656D01*
X114741220Y-109204655D01*
X114582447Y-109133965D01*
X114582446Y-109133965D01*
X114576416Y-109131280D01*
X114484959Y-109111840D01*
X114399958Y-109093772D01*
X114399953Y-109093772D01*
X114393501Y-109092400D01*
X114206499Y-109092400D01*
X114200047Y-109093772D01*
X114200042Y-109093772D01*
X114115041Y-109111840D01*
X114023584Y-109131280D01*
X114017554Y-109133965D01*
X114017553Y-109133965D01*
X113858780Y-109204655D01*
X113858778Y-109204656D01*
X113852750Y-109207340D01*
X113701463Y-109317257D01*
X113697050Y-109322159D01*
X113697048Y-109322160D01*
X113582617Y-109449248D01*
X113576334Y-109456226D01*
X113573034Y-109461942D01*
X113573031Y-109461946D01*
X113500176Y-109588137D01*
X113482834Y-109618174D01*
X113425047Y-109796023D01*
X113405500Y-109982000D01*
X113425047Y-110167977D01*
X113482834Y-110345826D01*
X113486137Y-110351548D01*
X113486138Y-110351549D01*
X113573031Y-110502054D01*
X113573034Y-110502058D01*
X113576334Y-110507774D01*
X113580752Y-110512681D01*
X113580753Y-110512682D01*
X113642608Y-110581378D01*
X113701463Y-110646743D01*
X113706802Y-110650622D01*
X113815982Y-110729946D01*
X113852750Y-110756660D01*
X113858778Y-110759344D01*
X113858780Y-110759345D01*
X114017553Y-110830035D01*
X114023584Y-110832720D01*
X114115042Y-110852160D01*
X114200042Y-110870228D01*
X114200047Y-110870228D01*
X114206499Y-110871600D01*
X114393501Y-110871600D01*
X114399953Y-110870228D01*
X114399958Y-110870228D01*
X114484959Y-110852160D01*
X114576416Y-110832720D01*
X114582447Y-110830035D01*
X114741220Y-110759345D01*
X114741222Y-110759344D01*
X114747250Y-110756660D01*
X114784019Y-110729946D01*
X114893198Y-110650622D01*
X114898537Y-110646743D01*
X114899055Y-110647457D01*
X114958049Y-110619146D01*
X114978350Y-110617500D01*
X118869714Y-110617500D01*
X118937835Y-110637502D01*
X118984328Y-110691158D01*
X118994432Y-110761432D01*
X118978834Y-110806499D01*
X118932834Y-110886174D01*
X118875047Y-111064023D01*
X118855500Y-111250000D01*
X118875047Y-111435977D01*
X118932834Y-111613826D01*
X118936137Y-111619548D01*
X118936138Y-111619549D01*
X119023031Y-111770054D01*
X119023034Y-111770058D01*
X119026334Y-111775774D01*
X119030752Y-111780681D01*
X119030753Y-111780682D01*
X119089643Y-111846085D01*
X119151463Y-111914743D01*
X119156802Y-111918622D01*
X119277483Y-112006302D01*
X119302750Y-112024660D01*
X119308778Y-112027344D01*
X119308780Y-112027345D01*
X119467553Y-112098035D01*
X119473584Y-112100720D01*
X119613457Y-112130451D01*
X119656499Y-112139600D01*
X119656106Y-112141451D01*
X119713322Y-112164987D01*
X119753955Y-112223206D01*
X119760500Y-112263288D01*
X119760500Y-121915515D01*
X119740498Y-121983636D01*
X119699866Y-122023234D01*
X119592631Y-122088306D01*
X119588601Y-122091803D01*
X119471239Y-122193644D01*
X119418492Y-122239415D01*
X119415109Y-122243541D01*
X119415105Y-122243545D01*
X119317315Y-122362809D01*
X119272304Y-122417705D01*
X119269667Y-122422338D01*
X119269666Y-122422339D01*
X119236116Y-122481278D01*
X119185033Y-122530584D01*
X119115402Y-122544445D01*
X119049332Y-122518461D01*
X119022094Y-122489312D01*
X119016686Y-122481278D01*
X118918627Y-122335626D01*
X118884435Y-122299783D01*
X118770848Y-122180714D01*
X118759482Y-122168799D01*
X118574504Y-122031171D01*
X118569753Y-122028755D01*
X118569749Y-122028753D01*
X118373740Y-121929097D01*
X118373739Y-121929097D01*
X118368982Y-121926678D01*
X118245646Y-121888381D01*
X118153895Y-121859891D01*
X118153889Y-121859890D01*
X118148792Y-121858307D01*
X118043798Y-121844391D01*
X117925515Y-121828714D01*
X117925510Y-121828714D01*
X117920230Y-121828014D01*
X117914900Y-121828214D01*
X117914899Y-121828214D01*
X117805030Y-121832339D01*
X117689831Y-121836663D01*
X117607368Y-121853966D01*
X117469411Y-121882912D01*
X117469408Y-121882913D01*
X117464184Y-121884009D01*
X117249740Y-121968697D01*
X117052631Y-122088306D01*
X117048601Y-122091803D01*
X116931239Y-122193644D01*
X116878492Y-122239415D01*
X116875109Y-122243541D01*
X116875105Y-122243545D01*
X116777315Y-122362809D01*
X116732304Y-122417705D01*
X116729667Y-122422338D01*
X116729666Y-122422339D01*
X116696116Y-122481278D01*
X116645033Y-122530584D01*
X116575402Y-122544445D01*
X116509332Y-122518461D01*
X116482094Y-122489312D01*
X116476686Y-122481278D01*
X116378627Y-122335626D01*
X116344435Y-122299783D01*
X116230848Y-122180714D01*
X116219482Y-122168799D01*
X116034504Y-122031171D01*
X116029753Y-122028755D01*
X116029749Y-122028753D01*
X115833740Y-121929097D01*
X115833739Y-121929097D01*
X115828982Y-121926678D01*
X115705646Y-121888381D01*
X115613895Y-121859891D01*
X115613889Y-121859890D01*
X115608792Y-121858307D01*
X115503798Y-121844391D01*
X115385515Y-121828714D01*
X115385510Y-121828714D01*
X115380230Y-121828014D01*
X115374900Y-121828214D01*
X115374899Y-121828214D01*
X115265030Y-121832339D01*
X115149831Y-121836663D01*
X115067368Y-121853966D01*
X114929411Y-121882912D01*
X114929408Y-121882913D01*
X114924184Y-121884009D01*
X114709740Y-121968697D01*
X114512631Y-122088306D01*
X114508601Y-122091803D01*
X114391239Y-122193644D01*
X114338492Y-122239415D01*
X114335109Y-122243541D01*
X114335105Y-122243545D01*
X114237315Y-122362809D01*
X114192304Y-122417705D01*
X114189667Y-122422338D01*
X114189666Y-122422339D01*
X114156116Y-122481278D01*
X114105033Y-122530584D01*
X114035402Y-122544445D01*
X113969332Y-122518461D01*
X113942094Y-122489312D01*
X113936686Y-122481278D01*
X113838627Y-122335626D01*
X113804435Y-122299783D01*
X113690848Y-122180714D01*
X113679482Y-122168799D01*
X113504766Y-122038806D01*
X113498792Y-122034361D01*
X113498786Y-122034357D01*
X113494504Y-122031171D01*
X113480396Y-122023998D01*
X113428739Y-121975298D01*
X113411500Y-121911682D01*
X113411500Y-118039423D01*
X113431502Y-117971302D01*
X113448405Y-117950328D01*
X117972228Y-113426505D01*
X118034540Y-113392479D01*
X118061323Y-113389600D01*
X118093501Y-113389600D01*
X118099953Y-113388228D01*
X118099958Y-113388228D01*
X118214757Y-113363826D01*
X118276416Y-113350720D01*
X118282447Y-113348035D01*
X118441220Y-113277345D01*
X118441222Y-113277344D01*
X118447250Y-113274660D01*
X118598537Y-113164743D01*
X118702661Y-113049103D01*
X118719247Y-113030682D01*
X118719248Y-113030681D01*
X118723666Y-113025774D01*
X118726966Y-113020058D01*
X118726969Y-113020054D01*
X118813862Y-112869549D01*
X118813863Y-112869548D01*
X118817166Y-112863826D01*
X118874953Y-112685977D01*
X118894500Y-112500000D01*
X118874953Y-112314023D01*
X118817166Y-112136174D01*
X118803078Y-112111772D01*
X118726969Y-111979946D01*
X118726966Y-111979942D01*
X118723666Y-111974226D01*
X118645686Y-111887621D01*
X118602952Y-111840160D01*
X118602950Y-111840159D01*
X118598537Y-111835257D01*
X118447250Y-111725340D01*
X118441222Y-111722656D01*
X118441220Y-111722655D01*
X118282447Y-111651965D01*
X118282446Y-111651965D01*
X118276416Y-111649280D01*
X118184958Y-111629840D01*
X118099958Y-111611772D01*
X118099953Y-111611772D01*
X118093501Y-111610400D01*
X117906499Y-111610400D01*
X117900047Y-111611772D01*
X117900042Y-111611772D01*
X117815041Y-111629840D01*
X117723584Y-111649280D01*
X117717554Y-111651965D01*
X117717553Y-111651965D01*
X117558780Y-111722655D01*
X117558778Y-111722656D01*
X117552750Y-111725340D01*
X117401463Y-111835257D01*
X117397050Y-111840159D01*
X117397048Y-111840160D01*
X117354314Y-111887621D01*
X117276334Y-111974226D01*
X117273034Y-111979942D01*
X117273031Y-111979946D01*
X117196922Y-112111772D01*
X117182834Y-112136174D01*
X117125047Y-112314023D01*
X117124357Y-112320586D01*
X117124357Y-112320587D01*
X117110661Y-112450897D01*
X117083648Y-112516553D01*
X117074446Y-112526821D01*
X112382137Y-117219130D01*
X112374104Y-117226441D01*
X112367730Y-117230486D01*
X112325202Y-117275774D01*
X112322061Y-117279119D01*
X112319306Y-117281961D01*
X112298646Y-117302621D01*
X112296221Y-117305747D01*
X112296215Y-117305754D01*
X112295904Y-117306156D01*
X112288194Y-117315183D01*
X112257825Y-117347524D01*
X112248023Y-117365354D01*
X112237170Y-117381876D01*
X112224694Y-117397959D01*
X112221547Y-117405232D01*
X112207071Y-117438683D01*
X112201854Y-117449332D01*
X112180478Y-117488216D01*
X112178507Y-117495894D01*
X112175419Y-117507921D01*
X112169014Y-117526630D01*
X112160932Y-117545306D01*
X112159693Y-117553131D01*
X112159692Y-117553133D01*
X112153991Y-117589128D01*
X112151584Y-117600749D01*
X112143913Y-117630629D01*
X112140551Y-117643724D01*
X112140500Y-117644535D01*
X112140500Y-117664396D01*
X112138949Y-117684106D01*
X112135817Y-117703881D01*
X112136563Y-117711773D01*
X112139941Y-117747512D01*
X112140500Y-117759369D01*
X112140500Y-121915515D01*
X112120498Y-121983636D01*
X112079866Y-122023234D01*
X111972631Y-122088306D01*
X111968601Y-122091803D01*
X111851239Y-122193644D01*
X111798492Y-122239415D01*
X111795109Y-122243541D01*
X111795105Y-122243545D01*
X111697315Y-122362809D01*
X111652304Y-122417705D01*
X111616116Y-122481278D01*
X111615842Y-122481760D01*
X111564760Y-122531066D01*
X111495130Y-122544928D01*
X111429059Y-122518945D01*
X111401820Y-122489795D01*
X111301218Y-122340366D01*
X111294557Y-122332080D01*
X111142830Y-122173030D01*
X111134873Y-122165990D01*
X110958523Y-122034782D01*
X110949486Y-122029178D01*
X110753550Y-121929559D01*
X110743699Y-121925559D01*
X110533778Y-121860378D01*
X110523396Y-121858095D01*
X110507959Y-121856049D01*
X110493792Y-121858246D01*
X110490000Y-121871430D01*
X109981328Y-121871430D01*
X109978027Y-121860186D01*
X109967420Y-121858661D01*
X109849554Y-121883391D01*
X109839358Y-121886451D01*
X109634932Y-121967182D01*
X109625396Y-121971916D01*
X109437486Y-122085942D01*
X109428896Y-122092206D01*
X109262884Y-122236264D01*
X109255464Y-122243895D01*
X109116100Y-122413860D01*
X109110075Y-122422627D01*
X109001342Y-122613644D01*
X108996877Y-122623308D01*
X108921882Y-122829916D01*
X108919111Y-122840184D01*
X108905008Y-122918174D01*
X102616000Y-122918174D01*
X102616000Y-92884000D01*
X102636002Y-92815879D01*
X102689658Y-92769386D01*
X102742000Y-92758000D01*
X121464105Y-92758000D01*
X121532226Y-92778002D01*
G37*
%TD.AperFunction*%
%TD*%
M02*
