M48
; DRILL file {KiCad (5.99.0-9830-g9acf5e365a)} date Friday, April 09, 2021 at 03:36:31 PM
; FORMAT={-:-/ absolute / metric / decimal}
; #@! TF.CreationDate,2021-04-09T15:36:31+02:00
; #@! TF.GenerationSoftware,Kicad,Pcbnew,(5.99.0-9830-g9acf5e365a)
; #@! TF.FileFunction,Plated,1,2,PTH
FMAT,2
METRIC
; #@! TA.AperFunction,ViaDrill
T1C0.356
; #@! TA.AperFunction,ComponentDrill,Plated,PTH
T2C0.500
; #@! TA.AperFunction,ViaDrill
T3C0.600
; #@! TA.AperFunction,ComponentDrill,Plated,PTH
T4C0.700
; #@! TA.AperFunction,ComponentDrill,Plated,PTH
T5C0.750
; #@! TA.AperFunction,ComponentDrill,Plated,PTH
T6C0.762
; #@! TA.AperFunction,ComponentDrill,Plated,PTH
T7C0.800
; #@! TA.AperFunction,ComponentDrill,Plated,PTH
T8C0.900
; #@! TA.AperFunction,ComponentDrill,Plated,PTH
T9C0.950
; #@! TA.AperFunction,ComponentDrill,Plated,PTH
T10C1.000
; #@! TA.AperFunction,ComponentDrill,Plated,PTH
T11C1.100
; #@! TA.AperFunction,ComponentDrill,Plated,PTH
T12C1.200
; #@! TA.AperFunction,ComponentDrill,Plated,PTH
T13C1.300
; #@! TA.AperFunction,ComponentDrill,Plated,PTH
T14C1.500
; #@! TA.AperFunction,ComponentDrill,Plated,PTH
T15C1.600
; #@! TA.AperFunction,ComponentDrill,Plated,PTH
T16C1.600
; #@! TA.AperFunction,ComponentDrill,Plated,PTH
T17C2.000
; #@! TA.AperFunction,ComponentDrill,Plated,PTH
T18C2.413
; #@! TA.AperFunction,ComponentDrill,Plated,PTH
T19C3.500
%
G90
G05
T1
; via hole
X155.648Y-187.748
X273.95Y-222.915
X291.871Y-187.906
X301.063Y-219.244
T2
; plated pad hole
X33.284Y-84.556
X33.375Y-224.556
X34.053Y-82.7
X34.053Y-86.412
X34.144Y-222.7
X34.144Y-226.412
X35.909Y-81.931
X35.909Y-87.181
X36.0Y-221.931
X36.0Y-227.181
X37.765Y-82.7
X37.765Y-86.412
X37.856Y-222.7
X37.856Y-226.412
X38.534Y-84.556
X38.625Y-224.556
X239.896Y-84.556
X239.896Y-224.556
X240.665Y-82.7
X240.665Y-86.412
X240.665Y-222.7
X240.665Y-226.412
X242.521Y-81.931
X242.521Y-87.181
X242.521Y-221.931
X242.521Y-227.181
X244.377Y-82.7
X244.377Y-86.412
X244.377Y-222.7
X244.377Y-226.412
X245.146Y-84.556
X245.146Y-224.556
X349.284Y-84.556
X349.284Y-224.556
X350.053Y-82.7
X350.053Y-86.412
X350.053Y-222.7
X350.053Y-226.412
X351.909Y-81.931
X351.909Y-87.181
X351.909Y-221.931
X351.909Y-227.181
X353.765Y-82.7
X353.765Y-86.412
X353.765Y-222.7
X353.765Y-226.412
X354.534Y-84.556
X354.534Y-224.556
T3
; via hole
X262.915Y-203.546
T4
; plated pad hole
X101.32Y-187.087
X101.32Y-194.707
X104.114Y-187.087
X104.114Y-194.707
X106.908Y-177.181
X106.908Y-184.801
X106.908Y-187.087
X106.908Y-194.707
X140.436Y-217.364
X148.056Y-217.364
X156.131Y-182.109
X163.751Y-182.109
X179.651Y-181.093
X180.159Y-187.29
X180.82Y-178.197
X183.159Y-132.02
X183.159Y-139.64
X187.271Y-181.093
X187.779Y-187.29
X188.44Y-178.197
X188.493Y-132.045
X188.493Y-139.665
X249.73Y-87.849
X250.45Y-223.333
X257.35Y-87.849
X258.07Y-223.333
X260.398Y-87.9
X268.018Y-87.9
X268.247Y-143.399
X268.247Y-151.019
X281.203Y-141.672
X281.203Y-147.428
X281.203Y-149.968
X281.203Y-152.762
X288.823Y-141.672
X288.823Y-147.428
X288.823Y-149.968
X288.823Y-152.762
X288.843Y-134.306
X291.343Y-134.306
X291.344Y-196.917
X291.344Y-199.33
X294.586Y-129.099
X294.586Y-136.719
X296.488Y-178.502
X296.488Y-186.122
X298.729Y-149.292
X298.729Y-156.912
X298.964Y-196.917
X298.964Y-199.33
X300.298Y-186.122
X300.298Y-188.662
X300.298Y-191.202
X300.298Y-193.615
X300.996Y-196.917
X300.996Y-199.33
X301.269Y-149.292
X301.269Y-156.912
X307.918Y-186.122
X307.918Y-188.662
X307.918Y-191.202
X307.918Y-193.615
X307.981Y-210.252
X307.981Y-217.872
X308.616Y-196.917
X308.616Y-199.33
X311.474Y-183.963
X313.76Y-173.93
X313.76Y-181.55
X319.094Y-183.963
X340.909Y-107.687
X348.529Y-107.687
X351.909Y-98.556
X351.909Y-106.176
T5
X301.568Y-180.28
X301.568Y-181.55
X301.568Y-182.82
X328.244Y-156.201
X328.244Y-158.201
X328.456Y-147.835
X328.456Y-149.835
T6
X192.214Y-168.672
X194.714Y-168.672
T7
X44.682Y-217.745
X45.166Y-206.823
X48.612Y-188.335
X48.666Y-206.823
X49.682Y-217.745
X72.923Y-217.999
X80.543Y-217.999
X91.414Y-183.785
X93.954Y-181.245
X93.954Y-186.325
X93.954Y-191.191
X93.954Y-193.691
X95.478Y-176.927
X98.526Y-182.769
X101.066Y-180.229
X103.098Y-176.927
X103.606Y-182.769
X162.905Y-210.135
X162.905Y-212.675
X162.905Y-215.215
X170.525Y-210.135
X170.525Y-212.675
X170.525Y-215.215
X177.746Y-172.042
X179.677Y-183.988
X180.286Y-174.582
X182.826Y-172.042
X185.699Y-132.02
X185.699Y-139.64
X187.297Y-183.988
X249.137Y-167.326
X251.541Y-154.524
X251.637Y-167.326
X255.041Y-154.524
X260.632Y-154.575
X261.499Y-210.967
X261.499Y-215.967
X264.132Y-154.575
X264.714Y-205.553
X267.214Y-205.553
X271.98Y-103.434
X271.98Y-108.434
X273.115Y-143.45
X273.837Y-149.546
X273.837Y-154.626
X275.615Y-143.45
X275.85Y-210.967
X275.85Y-215.967
X276.377Y-152.086
X280.295Y-205.172
X281.203Y-144.212
X282.795Y-205.172
X288.823Y-144.212
X292.387Y-150.308
X292.487Y-204.537
X293.403Y-141.926
X293.573Y-167.428
X294.927Y-147.768
X294.927Y-152.848
X295.027Y-201.997
X295.943Y-139.386
X295.943Y-144.466
X296.073Y-167.428
X297.567Y-204.537
X298.475Y-131.512
X298.475Y-136.592
X299.044Y-125.924
X300.425Y-172.208
X300.425Y-175.708
X301.015Y-134.052
X301.044Y-125.924
X302.774Y-204.664
X305.314Y-202.124
X307.854Y-204.664
X311.283Y-196.917
X311.283Y-204.537
X313.715Y-186.884
X313.715Y-191.964
X313.76Y-170.882
X316.255Y-189.424
X317.697Y-173.923
X317.697Y-181.423
X319.983Y-190.44
X321.38Y-170.882
X321.38Y-182.439
X322.523Y-187.9
X323.031Y-174.565
X323.031Y-176.565
X323.92Y-179.899
X323.92Y-184.979
X325.063Y-190.44
X326.057Y-104.958
X326.057Y-109.958
T8
X48.612Y-163.335
X73.612Y-168.335
X73.612Y-183.335
T9
X263.856Y-222.342
X266.356Y-222.342
X268.856Y-222.342
X281.023Y-222.578
X283.523Y-222.578
X286.023Y-222.578
X288.523Y-222.578
X291.023Y-222.578
X293.523Y-222.578
X296.023Y-222.578
X298.523Y-222.578
X301.023Y-222.578
X303.523Y-222.578
X306.023Y-222.578
X308.523Y-222.578
X323.755Y-210.506
X323.755Y-222.19
X326.255Y-210.506
X326.255Y-222.19
X328.755Y-210.506
X328.755Y-222.19
X331.255Y-210.506
X331.255Y-222.19
X333.755Y-210.506
X333.755Y-222.19
X336.255Y-210.506
X336.255Y-222.19
X338.755Y-210.506
X338.755Y-222.19
X341.255Y-210.506
X341.255Y-222.19
T10
X52.273Y-159.635
X52.273Y-207.585
X54.813Y-159.635
X54.813Y-207.585
X57.353Y-159.635
X57.353Y-207.585
X59.893Y-159.635
X59.893Y-207.585
X122.58Y-196.282
X125.12Y-196.282
X127.66Y-196.282
X130.2Y-196.282
X132.74Y-196.282
X135.28Y-196.282
X137.82Y-196.282
X140.36Y-196.282
X142.9Y-196.282
X145.44Y-196.282
X147.98Y-196.282
X150.52Y-196.282
X153.06Y-196.282
X155.6Y-196.282
X301.402Y-140.656
X301.402Y-143.196
X301.402Y-145.736
T11
X73.05Y-202.632
X73.05Y-206.442
X73.05Y-210.252
X73.05Y-214.062
X80.67Y-202.632
X80.67Y-206.442
X80.67Y-210.252
X80.67Y-214.062
X238.427Y-146.955
X238.478Y-142.993
X248.587Y-146.955
X248.638Y-142.993
X251.94Y-146.955
X251.991Y-142.993
X257.054Y-199.457
X259.594Y-195.393
X262.1Y-146.955
X262.134Y-195.393
X262.151Y-142.993
X264.674Y-195.393
X267.214Y-199.457
X272.802Y-199.457
X276.485Y-195.393
X279.025Y-195.393
X281.565Y-195.393
X282.962Y-199.457
X300.276Y-91.456
X300.276Y-93.996
X300.276Y-96.536
X300.327Y-113.427
X300.327Y-115.967
X300.327Y-118.507
X307.41Y-171.009
X307.41Y-181.169
X310.839Y-171.009
X310.839Y-181.169
T12
X46.761Y-114.748
X46.761Y-129.748
X46.761Y-134.8
X46.761Y-149.8
X55.016Y-114.748
X55.016Y-129.748
X55.016Y-134.8
X55.016Y-149.8
X58.064Y-218.888
X60.604Y-218.888
X63.144Y-218.888
X69.875Y-134.419
X69.875Y-149.419
X71.145Y-86.427
X78.765Y-86.427
X85.623Y-86.364
X87.096Y-182.261
X87.096Y-194.961
X93.243Y-86.364
X107.326Y-84.522
X122.326Y-84.522
X134.899Y-94.174
X134.899Y-106.874
X140.944Y-84.471
X140.944Y-106.971
X146.939Y-94.174
X146.939Y-106.874
X148.107Y-173.676
X148.107Y-178.502
X154.196Y-159.681
X154.221Y-167.072
X160.807Y-173.676
X160.807Y-178.502
X169.196Y-159.681
X169.221Y-167.072
X272.313Y-136.998
X281.711Y-157.42
X285.013Y-136.998
X294.411Y-157.42
X328.492Y-171.136
X328.492Y-183.836
X349.909Y-201.056
X349.909Y-216.056
T13
X44.073Y-86.364
X47.396Y-97.984
X47.396Y-102.984
X47.396Y-107.984
X66.573Y-86.364
X86.766Y-101.286
X88.766Y-95.286
X88.766Y-107.286
X100.966Y-95.286
X100.966Y-107.286
T14
X63.906Y-100.812
X63.906Y-118.812
X79.906Y-100.812
X79.906Y-118.812
X87.909Y-144.5
X87.909Y-162.5
X103.909Y-144.5
X103.909Y-162.5
X194.081Y-131.982
X194.081Y-137.432
X194.081Y-142.882
X194.081Y-180.534
X194.081Y-185.984
X194.081Y-191.434
X252.896Y-84.013
X257.896Y-84.013
X263.464Y-83.964
X268.464Y-83.964
X294.459Y-104.106
X295.874Y-82.542
X299.459Y-104.106
X300.874Y-82.542
X326.618Y-141.621
X331.618Y-141.621
X352.959Y-112.006
X352.959Y-117.006
T15
X194.741Y-98.949
X194.741Y-104.029
X194.741Y-109.109
X194.741Y-114.189
T16
X225.831Y-93.92
X225.831Y-99.0
X225.831Y-104.08
X225.831Y-109.16
X225.831Y-114.24
X225.831Y-119.32
X225.831Y-124.4
X225.831Y-129.48
X225.831Y-134.56
X261.391Y-93.92
X261.391Y-99.0
X261.391Y-104.08
X261.391Y-109.16
X261.391Y-114.24
X261.391Y-119.32
X261.391Y-124.4
X261.391Y-129.48
X261.391Y-134.56
T17
X128.93Y-123.384
X128.93Y-133.384
X128.93Y-159.706
X128.93Y-169.706
X163.855Y-132.688
X163.855Y-142.688
X171.221Y-94.588
X171.221Y-104.588
X279.11Y-118.431
X283.156Y-87.484
X283.156Y-97.484
X289.11Y-118.431
X332.304Y-93.556
X332.304Y-121.657
X342.304Y-93.556
X342.304Y-121.657
T18
X55.778Y-212.005
X65.938Y-212.005
X256.927Y-188.383
X267.087Y-188.383
X274.072Y-188.383
X284.232Y-188.383
T19
X35.909Y-84.556
X36.0Y-224.556
X242.521Y-84.556
X242.521Y-224.556
X351.909Y-84.556
X351.909Y-224.556
T0
M30
