%TF.GenerationSoftware,KiCad,Pcbnew,(5.99.0-9830-g9acf5e365a)*%
%TF.CreationDate,2021-04-14T10:40:31+02:00*%
%TF.ProjectId,Power Supply Board v2.0,506f7765-7220-4537-9570-706c7920426f,2.0*%
%TF.SameCoordinates,Original*%
%TF.FileFunction,Legend,Bot*%
%TF.FilePolarity,Positive*%
%FSLAX46Y46*%
G04 Gerber Fmt 4.6, Leading zero omitted, Abs format (unit mm)*
G04 Created by KiCad (PCBNEW (5.99.0-9830-g9acf5e365a)) date 2021-04-14 10:40:31*
%MOMM*%
%LPD*%
G01*
G04 APERTURE LIST*
%ADD10C,0.150000*%
%ADD11C,0.010000*%
%ADD12C,3.200000*%
G04 APERTURE END LIST*
D10*
X43411952Y-226976380D02*
X43411952Y-227690666D01*
X43364333Y-227833523D01*
X43269095Y-227928761D01*
X43126238Y-227976380D01*
X43031000Y-227976380D01*
X44364333Y-227976380D02*
X43888142Y-227976380D01*
X43888142Y-226976380D01*
X45269095Y-227881142D02*
X45221476Y-227928761D01*
X45078619Y-227976380D01*
X44983380Y-227976380D01*
X44840523Y-227928761D01*
X44745285Y-227833523D01*
X44697666Y-227738285D01*
X44650047Y-227547809D01*
X44650047Y-227404952D01*
X44697666Y-227214476D01*
X44745285Y-227119238D01*
X44840523Y-227024000D01*
X44983380Y-226976380D01*
X45078619Y-226976380D01*
X45221476Y-227024000D01*
X45269095Y-227071619D01*
X45983380Y-226976380D02*
X45983380Y-227690666D01*
X45935761Y-227833523D01*
X45840523Y-227928761D01*
X45697666Y-227976380D01*
X45602428Y-227976380D01*
X46935761Y-227976380D02*
X46459571Y-227976380D01*
X46459571Y-226976380D01*
X47840523Y-227881142D02*
X47792904Y-227928761D01*
X47650047Y-227976380D01*
X47554809Y-227976380D01*
X47411952Y-227928761D01*
X47316714Y-227833523D01*
X47269095Y-227738285D01*
X47221476Y-227547809D01*
X47221476Y-227404952D01*
X47269095Y-227214476D01*
X47316714Y-227119238D01*
X47411952Y-227024000D01*
X47554809Y-226976380D01*
X47650047Y-226976380D01*
X47792904Y-227024000D01*
X47840523Y-227071619D01*
X48554809Y-226976380D02*
X48554809Y-227690666D01*
X48507190Y-227833523D01*
X48411952Y-227928761D01*
X48269095Y-227976380D01*
X48173857Y-227976380D01*
X49507190Y-227976380D02*
X49031000Y-227976380D01*
X49031000Y-226976380D01*
X50411952Y-227881142D02*
X50364333Y-227928761D01*
X50221476Y-227976380D01*
X50126238Y-227976380D01*
X49983380Y-227928761D01*
X49888142Y-227833523D01*
X49840523Y-227738285D01*
X49792904Y-227547809D01*
X49792904Y-227404952D01*
X49840523Y-227214476D01*
X49888142Y-227119238D01*
X49983380Y-227024000D01*
X50126238Y-226976380D01*
X50221476Y-226976380D01*
X50364333Y-227024000D01*
X50411952Y-227071619D01*
X51126238Y-226976380D02*
X51126238Y-227690666D01*
X51078619Y-227833523D01*
X50983380Y-227928761D01*
X50840523Y-227976380D01*
X50745285Y-227976380D01*
X52078619Y-227976380D02*
X51602428Y-227976380D01*
X51602428Y-226976380D01*
X52983380Y-227881142D02*
X52935761Y-227928761D01*
X52792904Y-227976380D01*
X52697666Y-227976380D01*
X52554809Y-227928761D01*
X52459571Y-227833523D01*
X52411952Y-227738285D01*
X52364333Y-227547809D01*
X52364333Y-227404952D01*
X52411952Y-227214476D01*
X52459571Y-227119238D01*
X52554809Y-227024000D01*
X52697666Y-226976380D01*
X52792904Y-226976380D01*
X52935761Y-227024000D01*
X52983380Y-227071619D01*
X138779952Y-221404142D02*
X138827571Y-221451761D01*
X138970428Y-221499380D01*
X139065666Y-221499380D01*
X139208523Y-221451761D01*
X139303761Y-221356523D01*
X139351380Y-221261285D01*
X139399000Y-221070809D01*
X139399000Y-220927952D01*
X139351380Y-220737476D01*
X139303761Y-220642238D01*
X139208523Y-220547000D01*
X139065666Y-220499380D01*
X138970428Y-220499380D01*
X138827571Y-220547000D01*
X138779952Y-220594619D01*
X138351380Y-221499380D02*
X138351380Y-220832714D01*
X138351380Y-221023190D02*
X138303761Y-220927952D01*
X138256142Y-220880333D01*
X138160904Y-220832714D01*
X138065666Y-220832714D01*
X137351380Y-221451761D02*
X137446619Y-221499380D01*
X137637095Y-221499380D01*
X137732333Y-221451761D01*
X137779952Y-221356523D01*
X137779952Y-220975571D01*
X137732333Y-220880333D01*
X137637095Y-220832714D01*
X137446619Y-220832714D01*
X137351380Y-220880333D01*
X137303761Y-220975571D01*
X137303761Y-221070809D01*
X137779952Y-221166047D01*
X136446619Y-221499380D02*
X136446619Y-220975571D01*
X136494238Y-220880333D01*
X136589476Y-220832714D01*
X136779952Y-220832714D01*
X136875190Y-220880333D01*
X136446619Y-221451761D02*
X136541857Y-221499380D01*
X136779952Y-221499380D01*
X136875190Y-221451761D01*
X136922809Y-221356523D01*
X136922809Y-221261285D01*
X136875190Y-221166047D01*
X136779952Y-221118428D01*
X136541857Y-221118428D01*
X136446619Y-221070809D01*
X136113285Y-220832714D02*
X135732333Y-220832714D01*
X135970428Y-220499380D02*
X135970428Y-221356523D01*
X135922809Y-221451761D01*
X135827571Y-221499380D01*
X135732333Y-221499380D01*
X135018047Y-221451761D02*
X135113285Y-221499380D01*
X135303761Y-221499380D01*
X135399000Y-221451761D01*
X135446619Y-221356523D01*
X135446619Y-220975571D01*
X135399000Y-220880333D01*
X135303761Y-220832714D01*
X135113285Y-220832714D01*
X135018047Y-220880333D01*
X134970428Y-220975571D01*
X134970428Y-221070809D01*
X135446619Y-221166047D01*
X134113285Y-221499380D02*
X134113285Y-220499380D01*
X134113285Y-221451761D02*
X134208523Y-221499380D01*
X134399000Y-221499380D01*
X134494238Y-221451761D01*
X134541857Y-221404142D01*
X134589476Y-221308904D01*
X134589476Y-221023190D01*
X134541857Y-220927952D01*
X134494238Y-220880333D01*
X134399000Y-220832714D01*
X134208523Y-220832714D01*
X134113285Y-220880333D01*
X132875190Y-221499380D02*
X132875190Y-220499380D01*
X132875190Y-220880333D02*
X132779952Y-220832714D01*
X132589476Y-220832714D01*
X132494238Y-220880333D01*
X132446619Y-220927952D01*
X132399000Y-221023190D01*
X132399000Y-221308904D01*
X132446619Y-221404142D01*
X132494238Y-221451761D01*
X132589476Y-221499380D01*
X132779952Y-221499380D01*
X132875190Y-221451761D01*
X132065666Y-220832714D02*
X131827571Y-221499380D01*
X131589476Y-220832714D02*
X131827571Y-221499380D01*
X131922809Y-221737476D01*
X131970428Y-221785095D01*
X132065666Y-221832714D01*
X131208523Y-221404142D02*
X131160904Y-221451761D01*
X131208523Y-221499380D01*
X131256142Y-221451761D01*
X131208523Y-221404142D01*
X131208523Y-221499380D01*
X131208523Y-220880333D02*
X131160904Y-220927952D01*
X131208523Y-220975571D01*
X131256142Y-220927952D01*
X131208523Y-220880333D01*
X131208523Y-220975571D01*
%TO.C,E1*%
X220222276Y-199250571D02*
X219888942Y-199250571D01*
X219746085Y-199774380D02*
X220222276Y-199774380D01*
X220222276Y-198774380D01*
X219746085Y-198774380D01*
X218793704Y-199774380D02*
X219365133Y-199774380D01*
X219079419Y-199774380D02*
X219079419Y-198774380D01*
X219174657Y-198917238D01*
X219269895Y-199012476D01*
X219365133Y-199060095D01*
D11*
%TO.C,G\u002A\u002A\u002A*%
X128441094Y-219781240D02*
X128387600Y-219782337D01*
X128387600Y-219782337D02*
X128340651Y-219784545D01*
X128340651Y-219784545D02*
X128302994Y-219787884D01*
X128302994Y-219787884D02*
X128296144Y-219788784D01*
X128296144Y-219788784D02*
X128154891Y-219815121D01*
X128154891Y-219815121D02*
X128014796Y-219853626D01*
X128014796Y-219853626D02*
X127877322Y-219903771D01*
X127877322Y-219903771D02*
X127743933Y-219965026D01*
X127743933Y-219965026D02*
X127623009Y-220032609D01*
X127623009Y-220032609D02*
X127575391Y-220063762D01*
X127575391Y-220063762D02*
X127528453Y-220098272D01*
X127528453Y-220098272D02*
X127483423Y-220134907D01*
X127483423Y-220134907D02*
X127441532Y-220172435D01*
X127441532Y-220172435D02*
X127404008Y-220209624D01*
X127404008Y-220209624D02*
X127372082Y-220245241D01*
X127372082Y-220245241D02*
X127346983Y-220278055D01*
X127346983Y-220278055D02*
X127329941Y-220306835D01*
X127329941Y-220306835D02*
X127322185Y-220330347D01*
X127322185Y-220330347D02*
X127321856Y-220334331D01*
X127321856Y-220334331D02*
X127322069Y-220344271D01*
X127322069Y-220344271D02*
X127324066Y-220352516D01*
X127324066Y-220352516D02*
X127328932Y-220359229D01*
X127328932Y-220359229D02*
X127337749Y-220364574D01*
X127337749Y-220364574D02*
X127351600Y-220368714D01*
X127351600Y-220368714D02*
X127371568Y-220371813D01*
X127371568Y-220371813D02*
X127398737Y-220374035D01*
X127398737Y-220374035D02*
X127434189Y-220375544D01*
X127434189Y-220375544D02*
X127479007Y-220376504D01*
X127479007Y-220376504D02*
X127534275Y-220377078D01*
X127534275Y-220377078D02*
X127601076Y-220377431D01*
X127601076Y-220377431D02*
X127606996Y-220377455D01*
X127606996Y-220377455D02*
X127661356Y-220377605D01*
X127661356Y-220377605D02*
X127712480Y-220377622D01*
X127712480Y-220377622D02*
X127758788Y-220377516D01*
X127758788Y-220377516D02*
X127798702Y-220377294D01*
X127798702Y-220377294D02*
X127830640Y-220376966D01*
X127830640Y-220376966D02*
X127853023Y-220376541D01*
X127853023Y-220376541D02*
X127864236Y-220376030D01*
X127864236Y-220376030D02*
X127909047Y-220370166D01*
X127909047Y-220370166D02*
X127947162Y-220362116D01*
X127947162Y-220362116D02*
X127981154Y-220350627D01*
X127981154Y-220350627D02*
X128013597Y-220334444D01*
X128013597Y-220334444D02*
X128047065Y-220312314D01*
X128047065Y-220312314D02*
X128084133Y-220282981D01*
X128084133Y-220282981D02*
X128120929Y-220250973D01*
X128120929Y-220250973D02*
X128195277Y-220188964D01*
X128195277Y-220188964D02*
X128269202Y-220136652D01*
X128269202Y-220136652D02*
X128346177Y-220091641D01*
X128346177Y-220091641D02*
X128369187Y-220079801D01*
X128369187Y-220079801D02*
X128410848Y-220061495D01*
X128410848Y-220061495D02*
X128462326Y-220042937D01*
X128462326Y-220042937D02*
X128520779Y-220024927D01*
X128520779Y-220024927D02*
X128583364Y-220008266D01*
X128583364Y-220008266D02*
X128647238Y-219993752D01*
X128647238Y-219993752D02*
X128709560Y-219982187D01*
X128709560Y-219982187D02*
X128724112Y-219979917D01*
X128724112Y-219979917D02*
X128807219Y-219970666D01*
X128807219Y-219970666D02*
X128897797Y-219966194D01*
X128897797Y-219966194D02*
X128991571Y-219966451D01*
X128991571Y-219966451D02*
X129084265Y-219971381D01*
X129084265Y-219971381D02*
X129171601Y-219980932D01*
X129171601Y-219980932D02*
X129203101Y-219985866D01*
X129203101Y-219985866D02*
X129261036Y-219995467D01*
X129261036Y-219995467D02*
X129307624Y-220002294D01*
X129307624Y-220002294D02*
X129343907Y-220006373D01*
X129343907Y-220006373D02*
X129370931Y-220007726D01*
X129370931Y-220007726D02*
X129389738Y-220006379D01*
X129389738Y-220006379D02*
X129401371Y-220002355D01*
X129401371Y-220002355D02*
X129406876Y-219995679D01*
X129406876Y-219995679D02*
X129407672Y-219990571D01*
X129407672Y-219990571D02*
X129401578Y-219978228D01*
X129401578Y-219978228D02*
X129384044Y-219964296D01*
X129384044Y-219964296D02*
X129356186Y-219949095D01*
X129356186Y-219949095D02*
X129319123Y-219932942D01*
X129319123Y-219932942D02*
X129273972Y-219916158D01*
X129273972Y-219916158D02*
X129221852Y-219899060D01*
X129221852Y-219899060D02*
X129163880Y-219881968D01*
X129163880Y-219881968D02*
X129101174Y-219865200D01*
X129101174Y-219865200D02*
X129034853Y-219849076D01*
X129034853Y-219849076D02*
X128966033Y-219833914D01*
X128966033Y-219833914D02*
X128895833Y-219820033D01*
X128895833Y-219820033D02*
X128825372Y-219807753D01*
X128825372Y-219807753D02*
X128755765Y-219797391D01*
X128755765Y-219797391D02*
X128710640Y-219791736D01*
X128710640Y-219791736D02*
X128665609Y-219787571D01*
X128665609Y-219787571D02*
X128613392Y-219784420D01*
X128613392Y-219784420D02*
X128556737Y-219782301D01*
X128556737Y-219782301D02*
X128498389Y-219781234D01*
X128498389Y-219781234D02*
X128441094Y-219781240D01*
X128441094Y-219781240D02*
X128441094Y-219781240D01*
G36*
X128556737Y-219782301D02*
G01*
X128613392Y-219784420D01*
X128665609Y-219787571D01*
X128710640Y-219791736D01*
X128755765Y-219797391D01*
X128825372Y-219807753D01*
X128895833Y-219820033D01*
X128966033Y-219833914D01*
X129034853Y-219849076D01*
X129101174Y-219865200D01*
X129163880Y-219881968D01*
X129221852Y-219899060D01*
X129273972Y-219916158D01*
X129319123Y-219932942D01*
X129356186Y-219949095D01*
X129384044Y-219964296D01*
X129401578Y-219978228D01*
X129407672Y-219990571D01*
X129406876Y-219995679D01*
X129401371Y-220002355D01*
X129389738Y-220006379D01*
X129370931Y-220007726D01*
X129343907Y-220006373D01*
X129307624Y-220002294D01*
X129261036Y-219995467D01*
X129203101Y-219985866D01*
X129171601Y-219980932D01*
X129084265Y-219971381D01*
X128991571Y-219966451D01*
X128897797Y-219966194D01*
X128807219Y-219970666D01*
X128724112Y-219979917D01*
X128709560Y-219982187D01*
X128647238Y-219993752D01*
X128583364Y-220008266D01*
X128520779Y-220024927D01*
X128462326Y-220042937D01*
X128410848Y-220061495D01*
X128369187Y-220079801D01*
X128346177Y-220091641D01*
X128269202Y-220136652D01*
X128195277Y-220188964D01*
X128120929Y-220250973D01*
X128084133Y-220282981D01*
X128047065Y-220312314D01*
X128013597Y-220334444D01*
X127981154Y-220350627D01*
X127947162Y-220362116D01*
X127909047Y-220370166D01*
X127864236Y-220376030D01*
X127853023Y-220376541D01*
X127830640Y-220376966D01*
X127798702Y-220377294D01*
X127758788Y-220377516D01*
X127712480Y-220377622D01*
X127661356Y-220377605D01*
X127606996Y-220377455D01*
X127601076Y-220377431D01*
X127534275Y-220377078D01*
X127479007Y-220376504D01*
X127434189Y-220375544D01*
X127398737Y-220374035D01*
X127371568Y-220371813D01*
X127351600Y-220368714D01*
X127337749Y-220364574D01*
X127328932Y-220359229D01*
X127324066Y-220352516D01*
X127322069Y-220344271D01*
X127321856Y-220334331D01*
X127322185Y-220330347D01*
X127329941Y-220306835D01*
X127346983Y-220278055D01*
X127372082Y-220245241D01*
X127404008Y-220209624D01*
X127441532Y-220172435D01*
X127483423Y-220134907D01*
X127528453Y-220098272D01*
X127575391Y-220063762D01*
X127623009Y-220032609D01*
X127743933Y-219965026D01*
X127877322Y-219903771D01*
X128014796Y-219853626D01*
X128154891Y-219815121D01*
X128296144Y-219788784D01*
X128302994Y-219787884D01*
X128340651Y-219784545D01*
X128387600Y-219782337D01*
X128441094Y-219781240D01*
X128498389Y-219781234D01*
X128556737Y-219782301D01*
G37*
X128556737Y-219782301D02*
X128613392Y-219784420D01*
X128665609Y-219787571D01*
X128710640Y-219791736D01*
X128755765Y-219797391D01*
X128825372Y-219807753D01*
X128895833Y-219820033D01*
X128966033Y-219833914D01*
X129034853Y-219849076D01*
X129101174Y-219865200D01*
X129163880Y-219881968D01*
X129221852Y-219899060D01*
X129273972Y-219916158D01*
X129319123Y-219932942D01*
X129356186Y-219949095D01*
X129384044Y-219964296D01*
X129401578Y-219978228D01*
X129407672Y-219990571D01*
X129406876Y-219995679D01*
X129401371Y-220002355D01*
X129389738Y-220006379D01*
X129370931Y-220007726D01*
X129343907Y-220006373D01*
X129307624Y-220002294D01*
X129261036Y-219995467D01*
X129203101Y-219985866D01*
X129171601Y-219980932D01*
X129084265Y-219971381D01*
X128991571Y-219966451D01*
X128897797Y-219966194D01*
X128807219Y-219970666D01*
X128724112Y-219979917D01*
X128709560Y-219982187D01*
X128647238Y-219993752D01*
X128583364Y-220008266D01*
X128520779Y-220024927D01*
X128462326Y-220042937D01*
X128410848Y-220061495D01*
X128369187Y-220079801D01*
X128346177Y-220091641D01*
X128269202Y-220136652D01*
X128195277Y-220188964D01*
X128120929Y-220250973D01*
X128084133Y-220282981D01*
X128047065Y-220312314D01*
X128013597Y-220334444D01*
X127981154Y-220350627D01*
X127947162Y-220362116D01*
X127909047Y-220370166D01*
X127864236Y-220376030D01*
X127853023Y-220376541D01*
X127830640Y-220376966D01*
X127798702Y-220377294D01*
X127758788Y-220377516D01*
X127712480Y-220377622D01*
X127661356Y-220377605D01*
X127606996Y-220377455D01*
X127601076Y-220377431D01*
X127534275Y-220377078D01*
X127479007Y-220376504D01*
X127434189Y-220375544D01*
X127398737Y-220374035D01*
X127371568Y-220371813D01*
X127351600Y-220368714D01*
X127337749Y-220364574D01*
X127328932Y-220359229D01*
X127324066Y-220352516D01*
X127322069Y-220344271D01*
X127321856Y-220334331D01*
X127322185Y-220330347D01*
X127329941Y-220306835D01*
X127346983Y-220278055D01*
X127372082Y-220245241D01*
X127404008Y-220209624D01*
X127441532Y-220172435D01*
X127483423Y-220134907D01*
X127528453Y-220098272D01*
X127575391Y-220063762D01*
X127623009Y-220032609D01*
X127743933Y-219965026D01*
X127877322Y-219903771D01*
X128014796Y-219853626D01*
X128154891Y-219815121D01*
X128296144Y-219788784D01*
X128302994Y-219787884D01*
X128340651Y-219784545D01*
X128387600Y-219782337D01*
X128441094Y-219781240D01*
X128498389Y-219781234D01*
X128556737Y-219782301D01*
X129060999Y-220563420D02*
X129034046Y-220565180D01*
X129034046Y-220565180D02*
X129011100Y-220568840D01*
X129011100Y-220568840D02*
X128987826Y-220574996D01*
X128987826Y-220574996D02*
X128972443Y-220579953D01*
X128972443Y-220579953D02*
X128916184Y-220602187D01*
X128916184Y-220602187D02*
X128868389Y-220628963D01*
X128868389Y-220628963D02*
X128825013Y-220662590D01*
X128825013Y-220662590D02*
X128820355Y-220666790D01*
X128820355Y-220666790D02*
X128775475Y-220715996D01*
X128775475Y-220715996D02*
X128740989Y-220771241D01*
X128740989Y-220771241D02*
X128717217Y-220830979D01*
X128717217Y-220830979D02*
X128704479Y-220893666D01*
X128704479Y-220893666D02*
X128703095Y-220957755D01*
X128703095Y-220957755D02*
X128713386Y-221021700D01*
X128713386Y-221021700D02*
X128734504Y-221081427D01*
X128734504Y-221081427D02*
X128744698Y-221102587D01*
X128744698Y-221102587D02*
X128755288Y-221121360D01*
X128755288Y-221121360D02*
X128767950Y-221140011D01*
X128767950Y-221140011D02*
X128784360Y-221160800D01*
X128784360Y-221160800D02*
X128806193Y-221185991D01*
X128806193Y-221185991D02*
X128835125Y-221217846D01*
X128835125Y-221217846D02*
X128837341Y-221220255D01*
X128837341Y-221220255D02*
X128871330Y-221257952D01*
X128871330Y-221257952D02*
X128896152Y-221287789D01*
X128896152Y-221287789D02*
X128911849Y-221310659D01*
X128911849Y-221310659D02*
X128918458Y-221327454D01*
X128918458Y-221327454D02*
X128916021Y-221339070D01*
X128916021Y-221339070D02*
X128904576Y-221346398D01*
X128904576Y-221346398D02*
X128884163Y-221350333D01*
X128884163Y-221350333D02*
X128854822Y-221351768D01*
X128854822Y-221351768D02*
X128843173Y-221351845D01*
X128843173Y-221351845D02*
X128817986Y-221352642D01*
X128817986Y-221352642D02*
X128798843Y-221354785D01*
X128798843Y-221354785D02*
X128788789Y-221357904D01*
X128788789Y-221357904D02*
X128788171Y-221358553D01*
X128788171Y-221358553D02*
X128786742Y-221371122D01*
X128786742Y-221371122D02*
X128791454Y-221390459D01*
X128791454Y-221390459D02*
X128800911Y-221413104D01*
X128800911Y-221413104D02*
X128813721Y-221435597D01*
X128813721Y-221435597D02*
X128825542Y-221451269D01*
X128825542Y-221451269D02*
X128853960Y-221477959D01*
X128853960Y-221477959D02*
X128888894Y-221500081D01*
X128888894Y-221500081D02*
X128931805Y-221518240D01*
X128931805Y-221518240D02*
X128984159Y-221533042D01*
X128984159Y-221533042D02*
X129047419Y-221545093D01*
X129047419Y-221545093D02*
X129055159Y-221546285D01*
X129055159Y-221546285D02*
X129085498Y-221549745D01*
X129085498Y-221549745D02*
X129125882Y-221552723D01*
X129125882Y-221552723D02*
X129173657Y-221555167D01*
X129173657Y-221555167D02*
X129226173Y-221557025D01*
X129226173Y-221557025D02*
X129280778Y-221558247D01*
X129280778Y-221558247D02*
X129334819Y-221558780D01*
X129334819Y-221558780D02*
X129385644Y-221558573D01*
X129385644Y-221558573D02*
X129430603Y-221557575D01*
X129430603Y-221557575D02*
X129467042Y-221555735D01*
X129467042Y-221555735D02*
X129480715Y-221554539D01*
X129480715Y-221554539D02*
X129530321Y-221547678D01*
X129530321Y-221547678D02*
X129578938Y-221538007D01*
X129578938Y-221538007D02*
X129623747Y-221526277D01*
X129623747Y-221526277D02*
X129661930Y-221513241D01*
X129661930Y-221513241D02*
X129690666Y-221499653D01*
X129690666Y-221499653D02*
X129694069Y-221497561D01*
X129694069Y-221497561D02*
X129738806Y-221461708D01*
X129738806Y-221461708D02*
X129777565Y-221416270D01*
X129777565Y-221416270D02*
X129808733Y-221363595D01*
X129808733Y-221363595D02*
X129830693Y-221306030D01*
X129830693Y-221306030D02*
X129833704Y-221294680D01*
X129833704Y-221294680D02*
X129838808Y-221263468D01*
X129838808Y-221263468D02*
X129841477Y-221224014D01*
X129841477Y-221224014D02*
X129841762Y-221180538D01*
X129841762Y-221180538D02*
X129841667Y-221178526D01*
X129841667Y-221178526D02*
X129718816Y-221178526D01*
X129718816Y-221178526D02*
X129715556Y-221208255D01*
X129715556Y-221208255D02*
X129706776Y-221242867D01*
X129706776Y-221242867D02*
X129694168Y-221276784D01*
X129694168Y-221276784D02*
X129681626Y-221301032D01*
X129681626Y-221301032D02*
X129643253Y-221351432D01*
X129643253Y-221351432D02*
X129594313Y-221396268D01*
X129594313Y-221396268D02*
X129534295Y-221435966D01*
X129534295Y-221435966D02*
X129493418Y-221457179D01*
X129493418Y-221457179D02*
X129439146Y-221481835D01*
X129439146Y-221481835D02*
X129392879Y-221499717D01*
X129392879Y-221499717D02*
X129352035Y-221511071D01*
X129352035Y-221511071D02*
X129314031Y-221516142D01*
X129314031Y-221516142D02*
X129276284Y-221515174D01*
X129276284Y-221515174D02*
X129236213Y-221508415D01*
X129236213Y-221508415D02*
X129191234Y-221496108D01*
X129191234Y-221496108D02*
X129166853Y-221488205D01*
X129166853Y-221488205D02*
X129113123Y-221469193D01*
X129113123Y-221469193D02*
X129067418Y-221451034D01*
X129067418Y-221451034D02*
X129030867Y-221434241D01*
X129030867Y-221434241D02*
X129004594Y-221419324D01*
X129004594Y-221419324D02*
X128991010Y-221408310D01*
X128991010Y-221408310D02*
X128983736Y-221398519D01*
X128983736Y-221398519D02*
X128985570Y-221390769D01*
X128985570Y-221390769D02*
X128990946Y-221384372D01*
X128990946Y-221384372D02*
X129000115Y-221377398D01*
X129000115Y-221377398D02*
X129014667Y-221371500D01*
X129014667Y-221371500D02*
X129035685Y-221366545D01*
X129035685Y-221366545D02*
X129064250Y-221362401D01*
X129064250Y-221362401D02*
X129101445Y-221358938D01*
X129101445Y-221358938D02*
X129148352Y-221356022D01*
X129148352Y-221356022D02*
X129206054Y-221353522D01*
X129206054Y-221353522D02*
X129257998Y-221351813D01*
X129257998Y-221351813D02*
X129328128Y-221349328D01*
X129328128Y-221349328D02*
X129386937Y-221346223D01*
X129386937Y-221346223D02*
X129435802Y-221342246D01*
X129435802Y-221342246D02*
X129476097Y-221337142D01*
X129476097Y-221337142D02*
X129509201Y-221330661D01*
X129509201Y-221330661D02*
X129536489Y-221322547D01*
X129536489Y-221322547D02*
X129559338Y-221312549D01*
X129559338Y-221312549D02*
X129579124Y-221300414D01*
X129579124Y-221300414D02*
X129591965Y-221290448D01*
X129591965Y-221290448D02*
X129614401Y-221264759D01*
X129614401Y-221264759D02*
X129626980Y-221233504D01*
X129626980Y-221233504D02*
X129629641Y-221196380D01*
X129629641Y-221196380D02*
X129624786Y-221167664D01*
X129624786Y-221167664D02*
X129444190Y-221167664D01*
X129444190Y-221167664D02*
X129440045Y-221193506D01*
X129440045Y-221193506D02*
X129426309Y-221223647D01*
X129426309Y-221223647D02*
X129406627Y-221244771D01*
X129406627Y-221244771D02*
X129382575Y-221255426D01*
X129382575Y-221255426D02*
X129371639Y-221256431D01*
X129371639Y-221256431D02*
X129349696Y-221253488D01*
X129349696Y-221253488D02*
X129326332Y-221246389D01*
X129326332Y-221246389D02*
X129321925Y-221244487D01*
X129321925Y-221244487D02*
X129281863Y-221218947D01*
X129281863Y-221218947D02*
X129247561Y-221182537D01*
X129247561Y-221182537D02*
X129219512Y-221135947D01*
X129219512Y-221135947D02*
X129198206Y-221079867D01*
X129198206Y-221079867D02*
X129194219Y-221065337D01*
X129194219Y-221065337D02*
X129187727Y-221024267D01*
X129187727Y-221024267D02*
X129189677Y-220987511D01*
X129189677Y-220987511D02*
X129199371Y-220956569D01*
X129199371Y-220956569D02*
X129216110Y-220932943D01*
X129216110Y-220932943D02*
X129239196Y-220918134D01*
X129239196Y-220918134D02*
X129264839Y-220913585D01*
X129264839Y-220913585D02*
X129286882Y-220917830D01*
X129286882Y-220917830D02*
X129313572Y-220929083D01*
X129313572Y-220929083D02*
X129340827Y-220945119D01*
X129340827Y-220945119D02*
X129364568Y-220963717D01*
X129364568Y-220963717D02*
X129373359Y-220972719D01*
X129373359Y-220972719D02*
X129397808Y-221006671D01*
X129397808Y-221006671D02*
X129418049Y-221046233D01*
X129418049Y-221046233D02*
X129433149Y-221088313D01*
X129433149Y-221088313D02*
X129442173Y-221129820D01*
X129442173Y-221129820D02*
X129444190Y-221167664D01*
X129444190Y-221167664D02*
X129624786Y-221167664D01*
X129624786Y-221167664D02*
X129622320Y-221153083D01*
X129622320Y-221153083D02*
X129604955Y-221103311D01*
X129604955Y-221103311D02*
X129577483Y-221046759D01*
X129577483Y-221046759D02*
X129539842Y-220983123D01*
X129539842Y-220983123D02*
X129523540Y-220958046D01*
X129523540Y-220958046D02*
X129504817Y-220930688D01*
X129504817Y-220930688D02*
X129486733Y-220905723D01*
X129486733Y-220905723D02*
X129471367Y-220885935D01*
X129471367Y-220885935D02*
X129460926Y-220874228D01*
X129460926Y-220874228D02*
X129440539Y-220858460D01*
X129440539Y-220858460D02*
X129415637Y-220845697D01*
X129415637Y-220845697D02*
X129384934Y-220835703D01*
X129384934Y-220835703D02*
X129347143Y-220828245D01*
X129347143Y-220828245D02*
X129300975Y-220823087D01*
X129300975Y-220823087D02*
X129245143Y-220819993D01*
X129245143Y-220819993D02*
X129178361Y-220818729D01*
X129178361Y-220818729D02*
X129156784Y-220818671D01*
X129156784Y-220818671D02*
X129094116Y-220819418D01*
X129094116Y-220819418D02*
X129043261Y-220821727D01*
X129043261Y-220821727D02*
X129003403Y-220825763D01*
X129003403Y-220825763D02*
X128973729Y-220831692D01*
X128973729Y-220831692D02*
X128953424Y-220839680D01*
X128953424Y-220839680D02*
X128941675Y-220849893D01*
X128941675Y-220849893D02*
X128937666Y-220862498D01*
X128937666Y-220862498D02*
X128937654Y-220863323D01*
X128937654Y-220863323D02*
X128939770Y-220874319D01*
X128939770Y-220874319D02*
X128945390Y-220893527D01*
X128945390Y-220893527D02*
X128953426Y-220917315D01*
X128953426Y-220917315D02*
X128955947Y-220924267D01*
X128955947Y-220924267D02*
X128976245Y-220984072D01*
X128976245Y-220984072D02*
X128990902Y-221037592D01*
X128990902Y-221037592D02*
X128999746Y-221083789D01*
X128999746Y-221083789D02*
X129002603Y-221121624D01*
X129002603Y-221121624D02*
X128999301Y-221150058D01*
X128999301Y-221150058D02*
X128995266Y-221160461D01*
X128995266Y-221160461D02*
X128983389Y-221171629D01*
X128983389Y-221171629D02*
X128966309Y-221172513D01*
X128966309Y-221172513D02*
X128945334Y-221163739D01*
X128945334Y-221163739D02*
X128921769Y-221145933D01*
X128921769Y-221145933D02*
X128896923Y-221119719D01*
X128896923Y-221119719D02*
X128888808Y-221109518D01*
X128888808Y-221109518D02*
X128854686Y-221056719D01*
X128854686Y-221056719D02*
X128833262Y-221004290D01*
X128833262Y-221004290D02*
X128824534Y-220952229D01*
X128824534Y-220952229D02*
X128828501Y-220900531D01*
X128828501Y-220900531D02*
X128836492Y-220871080D01*
X128836492Y-220871080D02*
X128843573Y-220852175D01*
X128843573Y-220852175D02*
X128851521Y-220836185D01*
X128851521Y-220836185D02*
X128862227Y-220820504D01*
X128862227Y-220820504D02*
X128877580Y-220802528D01*
X128877580Y-220802528D02*
X128899472Y-220779651D01*
X128899472Y-220779651D02*
X128911950Y-220767072D01*
X128911950Y-220767072D02*
X128952141Y-220729374D01*
X128952141Y-220729374D02*
X128988764Y-220701194D01*
X128988764Y-220701194D02*
X129024519Y-220681001D01*
X129024519Y-220681001D02*
X129062108Y-220667266D01*
X129062108Y-220667266D02*
X129103442Y-220658577D01*
X129103442Y-220658577D02*
X129132352Y-220655043D01*
X129132352Y-220655043D02*
X129157284Y-220654627D01*
X129157284Y-220654627D02*
X129184374Y-220657481D01*
X129184374Y-220657481D02*
X129205582Y-220661074D01*
X129205582Y-220661074D02*
X129269457Y-220677797D01*
X129269457Y-220677797D02*
X129335721Y-220704218D01*
X129335721Y-220704218D02*
X129402355Y-220738870D01*
X129402355Y-220738870D02*
X129467341Y-220780289D01*
X129467341Y-220780289D02*
X129528659Y-220827009D01*
X129528659Y-220827009D02*
X129584293Y-220877564D01*
X129584293Y-220877564D02*
X129632222Y-220930489D01*
X129632222Y-220930489D02*
X129670430Y-220984318D01*
X129670430Y-220984318D02*
X129683858Y-221008336D01*
X129683858Y-221008336D02*
X129691675Y-221028554D01*
X129691675Y-221028554D02*
X129699766Y-221057509D01*
X129699766Y-221057509D02*
X129707327Y-221091280D01*
X129707327Y-221091280D02*
X129713550Y-221125946D01*
X129713550Y-221125946D02*
X129717632Y-221157587D01*
X129717632Y-221157587D02*
X129718816Y-221178526D01*
X129718816Y-221178526D02*
X129841667Y-221178526D01*
X129841667Y-221178526D02*
X129839712Y-221137256D01*
X129839712Y-221137256D02*
X129835378Y-221098385D01*
X129835378Y-221098385D02*
X129831116Y-221076481D01*
X129831116Y-221076481D02*
X129804275Y-220992792D01*
X129804275Y-220992792D02*
X129766609Y-220915692D01*
X129766609Y-220915692D02*
X129718206Y-220845267D01*
X129718206Y-220845267D02*
X129659154Y-220781604D01*
X129659154Y-220781604D02*
X129589538Y-220724787D01*
X129589538Y-220724787D02*
X129509446Y-220674903D01*
X129509446Y-220674903D02*
X129418966Y-220632037D01*
X129418966Y-220632037D02*
X129353739Y-220607678D01*
X129353739Y-220607678D02*
X129256458Y-220580602D01*
X129256458Y-220580602D02*
X129161250Y-220565915D01*
X129161250Y-220565915D02*
X129096299Y-220562966D01*
X129096299Y-220562966D02*
X129060999Y-220563420D01*
X129060999Y-220563420D02*
X129060999Y-220563420D01*
G36*
X129841477Y-221224014D02*
G01*
X129838808Y-221263468D01*
X129833704Y-221294680D01*
X129830693Y-221306030D01*
X129808733Y-221363595D01*
X129777565Y-221416270D01*
X129738806Y-221461708D01*
X129694069Y-221497561D01*
X129690666Y-221499653D01*
X129661930Y-221513241D01*
X129623747Y-221526277D01*
X129578938Y-221538007D01*
X129530321Y-221547678D01*
X129480715Y-221554539D01*
X129467042Y-221555735D01*
X129430603Y-221557575D01*
X129385644Y-221558573D01*
X129334819Y-221558780D01*
X129280778Y-221558247D01*
X129226173Y-221557025D01*
X129173657Y-221555167D01*
X129125882Y-221552723D01*
X129085498Y-221549745D01*
X129055159Y-221546285D01*
X129047419Y-221545093D01*
X128984159Y-221533042D01*
X128931805Y-221518240D01*
X128888894Y-221500081D01*
X128853960Y-221477959D01*
X128825542Y-221451269D01*
X128813721Y-221435597D01*
X128800911Y-221413104D01*
X128791454Y-221390459D01*
X128786742Y-221371122D01*
X128788171Y-221358553D01*
X128788789Y-221357904D01*
X128798843Y-221354785D01*
X128817986Y-221352642D01*
X128843173Y-221351845D01*
X128854822Y-221351768D01*
X128884163Y-221350333D01*
X128904576Y-221346398D01*
X128916021Y-221339070D01*
X128918458Y-221327454D01*
X128911849Y-221310659D01*
X128896152Y-221287789D01*
X128871330Y-221257952D01*
X128837341Y-221220255D01*
X128835125Y-221217846D01*
X128806193Y-221185991D01*
X128784360Y-221160800D01*
X128767950Y-221140011D01*
X128755288Y-221121360D01*
X128744698Y-221102587D01*
X128734504Y-221081427D01*
X128713386Y-221021700D01*
X128703095Y-220957755D01*
X128703214Y-220952229D01*
X128824534Y-220952229D01*
X128833262Y-221004290D01*
X128854686Y-221056719D01*
X128888808Y-221109518D01*
X128896923Y-221119719D01*
X128921769Y-221145933D01*
X128945334Y-221163739D01*
X128966309Y-221172513D01*
X128983389Y-221171629D01*
X128995266Y-221160461D01*
X128999301Y-221150058D01*
X129002603Y-221121624D01*
X128999746Y-221083789D01*
X128990902Y-221037592D01*
X128987253Y-221024267D01*
X129187727Y-221024267D01*
X129194219Y-221065337D01*
X129198206Y-221079867D01*
X129219512Y-221135947D01*
X129247561Y-221182537D01*
X129281863Y-221218947D01*
X129321925Y-221244487D01*
X129326332Y-221246389D01*
X129349696Y-221253488D01*
X129371639Y-221256431D01*
X129382575Y-221255426D01*
X129406627Y-221244771D01*
X129426309Y-221223647D01*
X129440045Y-221193506D01*
X129444190Y-221167664D01*
X129442173Y-221129820D01*
X129433149Y-221088313D01*
X129418049Y-221046233D01*
X129397808Y-221006671D01*
X129373359Y-220972719D01*
X129364568Y-220963717D01*
X129340827Y-220945119D01*
X129313572Y-220929083D01*
X129286882Y-220917830D01*
X129264839Y-220913585D01*
X129239196Y-220918134D01*
X129216110Y-220932943D01*
X129199371Y-220956569D01*
X129189677Y-220987511D01*
X129187727Y-221024267D01*
X128987253Y-221024267D01*
X128976245Y-220984072D01*
X128955947Y-220924267D01*
X128953426Y-220917315D01*
X128945390Y-220893527D01*
X128939770Y-220874319D01*
X128937654Y-220863323D01*
X128937666Y-220862498D01*
X128941675Y-220849893D01*
X128953424Y-220839680D01*
X128973729Y-220831692D01*
X129003403Y-220825763D01*
X129043261Y-220821727D01*
X129094116Y-220819418D01*
X129156784Y-220818671D01*
X129178361Y-220818729D01*
X129245143Y-220819993D01*
X129300975Y-220823087D01*
X129347143Y-220828245D01*
X129384934Y-220835703D01*
X129415637Y-220845697D01*
X129440539Y-220858460D01*
X129460926Y-220874228D01*
X129471367Y-220885935D01*
X129486733Y-220905723D01*
X129504817Y-220930688D01*
X129523540Y-220958046D01*
X129539842Y-220983123D01*
X129577483Y-221046759D01*
X129604955Y-221103311D01*
X129622320Y-221153083D01*
X129624786Y-221167664D01*
X129629641Y-221196380D01*
X129626980Y-221233504D01*
X129614401Y-221264759D01*
X129591965Y-221290448D01*
X129579124Y-221300414D01*
X129559338Y-221312549D01*
X129536489Y-221322547D01*
X129509201Y-221330661D01*
X129476097Y-221337142D01*
X129435802Y-221342246D01*
X129386937Y-221346223D01*
X129328128Y-221349328D01*
X129257998Y-221351813D01*
X129206054Y-221353522D01*
X129148352Y-221356022D01*
X129101445Y-221358938D01*
X129064250Y-221362401D01*
X129035685Y-221366545D01*
X129014667Y-221371500D01*
X129000115Y-221377398D01*
X128990946Y-221384372D01*
X128985570Y-221390769D01*
X128983736Y-221398519D01*
X128991010Y-221408310D01*
X129004594Y-221419324D01*
X129030867Y-221434241D01*
X129067418Y-221451034D01*
X129113123Y-221469193D01*
X129166853Y-221488205D01*
X129191234Y-221496108D01*
X129236213Y-221508415D01*
X129276284Y-221515174D01*
X129314031Y-221516142D01*
X129352035Y-221511071D01*
X129392879Y-221499717D01*
X129439146Y-221481835D01*
X129493418Y-221457179D01*
X129534295Y-221435966D01*
X129594313Y-221396268D01*
X129643253Y-221351432D01*
X129681626Y-221301032D01*
X129694168Y-221276784D01*
X129706776Y-221242867D01*
X129715556Y-221208255D01*
X129718816Y-221178526D01*
X129717632Y-221157587D01*
X129713550Y-221125946D01*
X129707327Y-221091280D01*
X129699766Y-221057509D01*
X129691675Y-221028554D01*
X129683858Y-221008336D01*
X129670430Y-220984318D01*
X129632222Y-220930489D01*
X129584293Y-220877564D01*
X129528659Y-220827009D01*
X129467341Y-220780289D01*
X129402355Y-220738870D01*
X129335721Y-220704218D01*
X129269457Y-220677797D01*
X129205582Y-220661074D01*
X129184374Y-220657481D01*
X129157284Y-220654627D01*
X129132352Y-220655043D01*
X129103442Y-220658577D01*
X129062108Y-220667266D01*
X129024519Y-220681001D01*
X128988764Y-220701194D01*
X128952141Y-220729374D01*
X128911950Y-220767072D01*
X128899472Y-220779651D01*
X128877580Y-220802528D01*
X128862227Y-220820504D01*
X128851521Y-220836185D01*
X128843573Y-220852175D01*
X128836492Y-220871080D01*
X128828501Y-220900531D01*
X128824534Y-220952229D01*
X128703214Y-220952229D01*
X128704479Y-220893666D01*
X128717217Y-220830979D01*
X128740989Y-220771241D01*
X128775475Y-220715996D01*
X128820355Y-220666790D01*
X128825013Y-220662590D01*
X128868389Y-220628963D01*
X128916184Y-220602187D01*
X128972443Y-220579953D01*
X128987826Y-220574996D01*
X129011100Y-220568840D01*
X129034046Y-220565180D01*
X129060999Y-220563420D01*
X129096299Y-220562966D01*
X129161250Y-220565915D01*
X129256458Y-220580602D01*
X129353739Y-220607678D01*
X129418966Y-220632037D01*
X129509446Y-220674903D01*
X129589538Y-220724787D01*
X129659154Y-220781604D01*
X129718206Y-220845267D01*
X129766609Y-220915692D01*
X129804275Y-220992792D01*
X129831116Y-221076481D01*
X129835378Y-221098385D01*
X129839712Y-221137256D01*
X129841667Y-221178526D01*
X129841762Y-221180538D01*
X129841477Y-221224014D01*
G37*
X129841477Y-221224014D02*
X129838808Y-221263468D01*
X129833704Y-221294680D01*
X129830693Y-221306030D01*
X129808733Y-221363595D01*
X129777565Y-221416270D01*
X129738806Y-221461708D01*
X129694069Y-221497561D01*
X129690666Y-221499653D01*
X129661930Y-221513241D01*
X129623747Y-221526277D01*
X129578938Y-221538007D01*
X129530321Y-221547678D01*
X129480715Y-221554539D01*
X129467042Y-221555735D01*
X129430603Y-221557575D01*
X129385644Y-221558573D01*
X129334819Y-221558780D01*
X129280778Y-221558247D01*
X129226173Y-221557025D01*
X129173657Y-221555167D01*
X129125882Y-221552723D01*
X129085498Y-221549745D01*
X129055159Y-221546285D01*
X129047419Y-221545093D01*
X128984159Y-221533042D01*
X128931805Y-221518240D01*
X128888894Y-221500081D01*
X128853960Y-221477959D01*
X128825542Y-221451269D01*
X128813721Y-221435597D01*
X128800911Y-221413104D01*
X128791454Y-221390459D01*
X128786742Y-221371122D01*
X128788171Y-221358553D01*
X128788789Y-221357904D01*
X128798843Y-221354785D01*
X128817986Y-221352642D01*
X128843173Y-221351845D01*
X128854822Y-221351768D01*
X128884163Y-221350333D01*
X128904576Y-221346398D01*
X128916021Y-221339070D01*
X128918458Y-221327454D01*
X128911849Y-221310659D01*
X128896152Y-221287789D01*
X128871330Y-221257952D01*
X128837341Y-221220255D01*
X128835125Y-221217846D01*
X128806193Y-221185991D01*
X128784360Y-221160800D01*
X128767950Y-221140011D01*
X128755288Y-221121360D01*
X128744698Y-221102587D01*
X128734504Y-221081427D01*
X128713386Y-221021700D01*
X128703095Y-220957755D01*
X128703214Y-220952229D01*
X128824534Y-220952229D01*
X128833262Y-221004290D01*
X128854686Y-221056719D01*
X128888808Y-221109518D01*
X128896923Y-221119719D01*
X128921769Y-221145933D01*
X128945334Y-221163739D01*
X128966309Y-221172513D01*
X128983389Y-221171629D01*
X128995266Y-221160461D01*
X128999301Y-221150058D01*
X129002603Y-221121624D01*
X128999746Y-221083789D01*
X128990902Y-221037592D01*
X128987253Y-221024267D01*
X129187727Y-221024267D01*
X129194219Y-221065337D01*
X129198206Y-221079867D01*
X129219512Y-221135947D01*
X129247561Y-221182537D01*
X129281863Y-221218947D01*
X129321925Y-221244487D01*
X129326332Y-221246389D01*
X129349696Y-221253488D01*
X129371639Y-221256431D01*
X129382575Y-221255426D01*
X129406627Y-221244771D01*
X129426309Y-221223647D01*
X129440045Y-221193506D01*
X129444190Y-221167664D01*
X129442173Y-221129820D01*
X129433149Y-221088313D01*
X129418049Y-221046233D01*
X129397808Y-221006671D01*
X129373359Y-220972719D01*
X129364568Y-220963717D01*
X129340827Y-220945119D01*
X129313572Y-220929083D01*
X129286882Y-220917830D01*
X129264839Y-220913585D01*
X129239196Y-220918134D01*
X129216110Y-220932943D01*
X129199371Y-220956569D01*
X129189677Y-220987511D01*
X129187727Y-221024267D01*
X128987253Y-221024267D01*
X128976245Y-220984072D01*
X128955947Y-220924267D01*
X128953426Y-220917315D01*
X128945390Y-220893527D01*
X128939770Y-220874319D01*
X128937654Y-220863323D01*
X128937666Y-220862498D01*
X128941675Y-220849893D01*
X128953424Y-220839680D01*
X128973729Y-220831692D01*
X129003403Y-220825763D01*
X129043261Y-220821727D01*
X129094116Y-220819418D01*
X129156784Y-220818671D01*
X129178361Y-220818729D01*
X129245143Y-220819993D01*
X129300975Y-220823087D01*
X129347143Y-220828245D01*
X129384934Y-220835703D01*
X129415637Y-220845697D01*
X129440539Y-220858460D01*
X129460926Y-220874228D01*
X129471367Y-220885935D01*
X129486733Y-220905723D01*
X129504817Y-220930688D01*
X129523540Y-220958046D01*
X129539842Y-220983123D01*
X129577483Y-221046759D01*
X129604955Y-221103311D01*
X129622320Y-221153083D01*
X129624786Y-221167664D01*
X129629641Y-221196380D01*
X129626980Y-221233504D01*
X129614401Y-221264759D01*
X129591965Y-221290448D01*
X129579124Y-221300414D01*
X129559338Y-221312549D01*
X129536489Y-221322547D01*
X129509201Y-221330661D01*
X129476097Y-221337142D01*
X129435802Y-221342246D01*
X129386937Y-221346223D01*
X129328128Y-221349328D01*
X129257998Y-221351813D01*
X129206054Y-221353522D01*
X129148352Y-221356022D01*
X129101445Y-221358938D01*
X129064250Y-221362401D01*
X129035685Y-221366545D01*
X129014667Y-221371500D01*
X129000115Y-221377398D01*
X128990946Y-221384372D01*
X128985570Y-221390769D01*
X128983736Y-221398519D01*
X128991010Y-221408310D01*
X129004594Y-221419324D01*
X129030867Y-221434241D01*
X129067418Y-221451034D01*
X129113123Y-221469193D01*
X129166853Y-221488205D01*
X129191234Y-221496108D01*
X129236213Y-221508415D01*
X129276284Y-221515174D01*
X129314031Y-221516142D01*
X129352035Y-221511071D01*
X129392879Y-221499717D01*
X129439146Y-221481835D01*
X129493418Y-221457179D01*
X129534295Y-221435966D01*
X129594313Y-221396268D01*
X129643253Y-221351432D01*
X129681626Y-221301032D01*
X129694168Y-221276784D01*
X129706776Y-221242867D01*
X129715556Y-221208255D01*
X129718816Y-221178526D01*
X129717632Y-221157587D01*
X129713550Y-221125946D01*
X129707327Y-221091280D01*
X129699766Y-221057509D01*
X129691675Y-221028554D01*
X129683858Y-221008336D01*
X129670430Y-220984318D01*
X129632222Y-220930489D01*
X129584293Y-220877564D01*
X129528659Y-220827009D01*
X129467341Y-220780289D01*
X129402355Y-220738870D01*
X129335721Y-220704218D01*
X129269457Y-220677797D01*
X129205582Y-220661074D01*
X129184374Y-220657481D01*
X129157284Y-220654627D01*
X129132352Y-220655043D01*
X129103442Y-220658577D01*
X129062108Y-220667266D01*
X129024519Y-220681001D01*
X128988764Y-220701194D01*
X128952141Y-220729374D01*
X128911950Y-220767072D01*
X128899472Y-220779651D01*
X128877580Y-220802528D01*
X128862227Y-220820504D01*
X128851521Y-220836185D01*
X128843573Y-220852175D01*
X128836492Y-220871080D01*
X128828501Y-220900531D01*
X128824534Y-220952229D01*
X128703214Y-220952229D01*
X128704479Y-220893666D01*
X128717217Y-220830979D01*
X128740989Y-220771241D01*
X128775475Y-220715996D01*
X128820355Y-220666790D01*
X128825013Y-220662590D01*
X128868389Y-220628963D01*
X128916184Y-220602187D01*
X128972443Y-220579953D01*
X128987826Y-220574996D01*
X129011100Y-220568840D01*
X129034046Y-220565180D01*
X129060999Y-220563420D01*
X129096299Y-220562966D01*
X129161250Y-220565915D01*
X129256458Y-220580602D01*
X129353739Y-220607678D01*
X129418966Y-220632037D01*
X129509446Y-220674903D01*
X129589538Y-220724787D01*
X129659154Y-220781604D01*
X129718206Y-220845267D01*
X129766609Y-220915692D01*
X129804275Y-220992792D01*
X129831116Y-221076481D01*
X129835378Y-221098385D01*
X129839712Y-221137256D01*
X129841667Y-221178526D01*
X129841762Y-221180538D01*
X129841477Y-221224014D01*
X127065185Y-220460838D02*
X127024017Y-220466430D01*
X127024017Y-220466430D02*
X126990848Y-220475132D01*
X126990848Y-220475132D02*
X126963395Y-220487553D01*
X126963395Y-220487553D02*
X126939377Y-220504302D01*
X126939377Y-220504302D02*
X126938054Y-220505409D01*
X126938054Y-220505409D02*
X126916102Y-220530910D01*
X126916102Y-220530910D02*
X126905269Y-220559193D01*
X126905269Y-220559193D02*
X126905010Y-220588012D01*
X126905010Y-220588012D02*
X126914777Y-220615120D01*
X126914777Y-220615120D02*
X126934025Y-220638269D01*
X126934025Y-220638269D02*
X126962208Y-220655213D01*
X126962208Y-220655213D02*
X126975540Y-220659663D01*
X126975540Y-220659663D02*
X127001303Y-220663952D01*
X127001303Y-220663952D02*
X127036971Y-220666077D01*
X127036971Y-220666077D02*
X127079931Y-220666036D01*
X127079931Y-220666036D02*
X127127569Y-220663827D01*
X127127569Y-220663827D02*
X127173727Y-220659832D01*
X127173727Y-220659832D02*
X127214571Y-220656688D01*
X127214571Y-220656688D02*
X127247765Y-220657599D01*
X127247765Y-220657599D02*
X127277925Y-220663325D01*
X127277925Y-220663325D02*
X127309668Y-220674624D01*
X127309668Y-220674624D02*
X127335815Y-220686502D01*
X127335815Y-220686502D02*
X127379537Y-220713458D01*
X127379537Y-220713458D02*
X127420118Y-220749669D01*
X127420118Y-220749669D02*
X127454021Y-220791693D01*
X127454021Y-220791693D02*
X127468158Y-220815307D01*
X127468158Y-220815307D02*
X127486486Y-220858767D01*
X127486486Y-220858767D02*
X127500496Y-220909356D01*
X127500496Y-220909356D02*
X127509682Y-220963297D01*
X127509682Y-220963297D02*
X127513538Y-221016813D01*
X127513538Y-221016813D02*
X127511557Y-221066128D01*
X127511557Y-221066128D02*
X127506015Y-221097781D01*
X127506015Y-221097781D02*
X127490639Y-221147431D01*
X127490639Y-221147431D02*
X127471984Y-221186116D01*
X127471984Y-221186116D02*
X127449106Y-221214256D01*
X127449106Y-221214256D02*
X127421060Y-221232268D01*
X127421060Y-221232268D02*
X127386900Y-221240570D01*
X127386900Y-221240570D02*
X127345680Y-221239580D01*
X127345680Y-221239580D02*
X127296456Y-221229716D01*
X127296456Y-221229716D02*
X127244303Y-221213518D01*
X127244303Y-221213518D02*
X127196495Y-221198212D01*
X127196495Y-221198212D02*
X127157527Y-221189323D01*
X127157527Y-221189323D02*
X127125207Y-221186971D01*
X127125207Y-221186971D02*
X127097341Y-221191279D01*
X127097341Y-221191279D02*
X127071734Y-221202369D01*
X127071734Y-221202369D02*
X127046194Y-221220363D01*
X127046194Y-221220363D02*
X127040886Y-221224813D01*
X127040886Y-221224813D02*
X127018608Y-221247298D01*
X127018608Y-221247298D02*
X127004594Y-221268778D01*
X127004594Y-221268778D02*
X127000420Y-221284809D01*
X127000420Y-221284809D02*
X127005496Y-221297395D01*
X127005496Y-221297395D02*
X127019242Y-221314555D01*
X127019242Y-221314555D02*
X127039436Y-221334326D01*
X127039436Y-221334326D02*
X127063856Y-221354745D01*
X127063856Y-221354745D02*
X127090279Y-221373849D01*
X127090279Y-221373849D02*
X127116483Y-221389677D01*
X127116483Y-221389677D02*
X127122863Y-221392952D01*
X127122863Y-221392952D02*
X127152428Y-221405778D01*
X127152428Y-221405778D02*
X127185239Y-221417416D01*
X127185239Y-221417416D02*
X127213198Y-221425104D01*
X127213198Y-221425104D02*
X127234408Y-221428535D01*
X127234408Y-221428535D02*
X127263547Y-221431708D01*
X127263547Y-221431708D02*
X127297774Y-221434481D01*
X127297774Y-221434481D02*
X127334248Y-221436713D01*
X127334248Y-221436713D02*
X127370128Y-221438260D01*
X127370128Y-221438260D02*
X127402572Y-221438981D01*
X127402572Y-221438981D02*
X127428741Y-221438734D01*
X127428741Y-221438734D02*
X127445793Y-221437376D01*
X127445793Y-221437376D02*
X127448207Y-221436870D01*
X127448207Y-221436870D02*
X127516440Y-221417029D01*
X127516440Y-221417029D02*
X127573456Y-221396176D01*
X127573456Y-221396176D02*
X127620735Y-221373609D01*
X127620735Y-221373609D02*
X127659758Y-221348628D01*
X127659758Y-221348628D02*
X127690284Y-221322269D01*
X127690284Y-221322269D02*
X127726516Y-221277279D01*
X127726516Y-221277279D02*
X127754061Y-221224319D01*
X127754061Y-221224319D02*
X127772828Y-221164776D01*
X127772828Y-221164776D02*
X127782723Y-221100035D01*
X127782723Y-221100035D02*
X127783654Y-221031482D01*
X127783654Y-221031482D02*
X127775529Y-220960503D01*
X127775529Y-220960503D02*
X127758254Y-220888484D01*
X127758254Y-220888484D02*
X127731736Y-220816812D01*
X127731736Y-220816812D02*
X127725072Y-220802119D01*
X127725072Y-220802119D02*
X127691620Y-220740568D01*
X127691620Y-220740568D02*
X127650896Y-220681766D01*
X127650896Y-220681766D02*
X127605202Y-220628543D01*
X127605202Y-220628543D02*
X127556844Y-220583726D01*
X127556844Y-220583726D02*
X127531930Y-220565041D01*
X127531930Y-220565041D02*
X127461296Y-220523998D01*
X127461296Y-220523998D02*
X127382999Y-220492508D01*
X127382999Y-220492508D02*
X127298035Y-220470826D01*
X127298035Y-220470826D02*
X127207399Y-220459211D01*
X127207399Y-220459211D02*
X127116633Y-220457746D01*
X127116633Y-220457746D02*
X127065185Y-220460838D01*
X127065185Y-220460838D02*
X127065185Y-220460838D01*
G36*
X127207399Y-220459211D02*
G01*
X127298035Y-220470826D01*
X127382999Y-220492508D01*
X127461296Y-220523998D01*
X127531930Y-220565041D01*
X127556844Y-220583726D01*
X127605202Y-220628543D01*
X127650896Y-220681766D01*
X127691620Y-220740568D01*
X127725072Y-220802119D01*
X127731736Y-220816812D01*
X127758254Y-220888484D01*
X127775529Y-220960503D01*
X127783654Y-221031482D01*
X127782723Y-221100035D01*
X127772828Y-221164776D01*
X127754061Y-221224319D01*
X127726516Y-221277279D01*
X127690284Y-221322269D01*
X127659758Y-221348628D01*
X127620735Y-221373609D01*
X127573456Y-221396176D01*
X127516440Y-221417029D01*
X127448207Y-221436870D01*
X127445793Y-221437376D01*
X127428741Y-221438734D01*
X127402572Y-221438981D01*
X127370128Y-221438260D01*
X127334248Y-221436713D01*
X127297774Y-221434481D01*
X127263547Y-221431708D01*
X127234408Y-221428535D01*
X127213198Y-221425104D01*
X127185239Y-221417416D01*
X127152428Y-221405778D01*
X127122863Y-221392952D01*
X127116483Y-221389677D01*
X127090279Y-221373849D01*
X127063856Y-221354745D01*
X127039436Y-221334326D01*
X127019242Y-221314555D01*
X127005496Y-221297395D01*
X127000420Y-221284809D01*
X127004594Y-221268778D01*
X127018608Y-221247298D01*
X127040886Y-221224813D01*
X127046194Y-221220363D01*
X127071734Y-221202369D01*
X127097341Y-221191279D01*
X127125207Y-221186971D01*
X127157527Y-221189323D01*
X127196495Y-221198212D01*
X127244303Y-221213518D01*
X127296456Y-221229716D01*
X127345680Y-221239580D01*
X127386900Y-221240570D01*
X127421060Y-221232268D01*
X127449106Y-221214256D01*
X127471984Y-221186116D01*
X127490639Y-221147431D01*
X127506015Y-221097781D01*
X127511557Y-221066128D01*
X127513538Y-221016813D01*
X127509682Y-220963297D01*
X127500496Y-220909356D01*
X127486486Y-220858767D01*
X127468158Y-220815307D01*
X127454021Y-220791693D01*
X127420118Y-220749669D01*
X127379537Y-220713458D01*
X127335815Y-220686502D01*
X127309668Y-220674624D01*
X127277925Y-220663325D01*
X127247765Y-220657599D01*
X127214571Y-220656688D01*
X127173727Y-220659832D01*
X127127569Y-220663827D01*
X127079931Y-220666036D01*
X127036971Y-220666077D01*
X127001303Y-220663952D01*
X126975540Y-220659663D01*
X126962208Y-220655213D01*
X126934025Y-220638269D01*
X126914777Y-220615120D01*
X126905010Y-220588012D01*
X126905269Y-220559193D01*
X126916102Y-220530910D01*
X126938054Y-220505409D01*
X126939377Y-220504302D01*
X126963395Y-220487553D01*
X126990848Y-220475132D01*
X127024017Y-220466430D01*
X127065185Y-220460838D01*
X127116633Y-220457746D01*
X127207399Y-220459211D01*
G37*
X127207399Y-220459211D02*
X127298035Y-220470826D01*
X127382999Y-220492508D01*
X127461296Y-220523998D01*
X127531930Y-220565041D01*
X127556844Y-220583726D01*
X127605202Y-220628543D01*
X127650896Y-220681766D01*
X127691620Y-220740568D01*
X127725072Y-220802119D01*
X127731736Y-220816812D01*
X127758254Y-220888484D01*
X127775529Y-220960503D01*
X127783654Y-221031482D01*
X127782723Y-221100035D01*
X127772828Y-221164776D01*
X127754061Y-221224319D01*
X127726516Y-221277279D01*
X127690284Y-221322269D01*
X127659758Y-221348628D01*
X127620735Y-221373609D01*
X127573456Y-221396176D01*
X127516440Y-221417029D01*
X127448207Y-221436870D01*
X127445793Y-221437376D01*
X127428741Y-221438734D01*
X127402572Y-221438981D01*
X127370128Y-221438260D01*
X127334248Y-221436713D01*
X127297774Y-221434481D01*
X127263547Y-221431708D01*
X127234408Y-221428535D01*
X127213198Y-221425104D01*
X127185239Y-221417416D01*
X127152428Y-221405778D01*
X127122863Y-221392952D01*
X127116483Y-221389677D01*
X127090279Y-221373849D01*
X127063856Y-221354745D01*
X127039436Y-221334326D01*
X127019242Y-221314555D01*
X127005496Y-221297395D01*
X127000420Y-221284809D01*
X127004594Y-221268778D01*
X127018608Y-221247298D01*
X127040886Y-221224813D01*
X127046194Y-221220363D01*
X127071734Y-221202369D01*
X127097341Y-221191279D01*
X127125207Y-221186971D01*
X127157527Y-221189323D01*
X127196495Y-221198212D01*
X127244303Y-221213518D01*
X127296456Y-221229716D01*
X127345680Y-221239580D01*
X127386900Y-221240570D01*
X127421060Y-221232268D01*
X127449106Y-221214256D01*
X127471984Y-221186116D01*
X127490639Y-221147431D01*
X127506015Y-221097781D01*
X127511557Y-221066128D01*
X127513538Y-221016813D01*
X127509682Y-220963297D01*
X127500496Y-220909356D01*
X127486486Y-220858767D01*
X127468158Y-220815307D01*
X127454021Y-220791693D01*
X127420118Y-220749669D01*
X127379537Y-220713458D01*
X127335815Y-220686502D01*
X127309668Y-220674624D01*
X127277925Y-220663325D01*
X127247765Y-220657599D01*
X127214571Y-220656688D01*
X127173727Y-220659832D01*
X127127569Y-220663827D01*
X127079931Y-220666036D01*
X127036971Y-220666077D01*
X127001303Y-220663952D01*
X126975540Y-220659663D01*
X126962208Y-220655213D01*
X126934025Y-220638269D01*
X126914777Y-220615120D01*
X126905010Y-220588012D01*
X126905269Y-220559193D01*
X126916102Y-220530910D01*
X126938054Y-220505409D01*
X126939377Y-220504302D01*
X126963395Y-220487553D01*
X126990848Y-220475132D01*
X127024017Y-220466430D01*
X127065185Y-220460838D01*
X127116633Y-220457746D01*
X127207399Y-220459211D01*
X118928370Y-220327363D02*
X118866279Y-220330775D01*
X118866279Y-220330775D02*
X118812233Y-220337021D01*
X118812233Y-220337021D02*
X118807454Y-220337797D01*
X118807454Y-220337797D02*
X118747769Y-220348836D01*
X118747769Y-220348836D02*
X118688950Y-220361642D01*
X118688950Y-220361642D02*
X118633320Y-220375588D01*
X118633320Y-220375588D02*
X118583201Y-220390048D01*
X118583201Y-220390048D02*
X118540914Y-220404396D01*
X118540914Y-220404396D02*
X118508782Y-220418005D01*
X118508782Y-220418005D02*
X118507127Y-220418835D01*
X118507127Y-220418835D02*
X118477069Y-220441114D01*
X118477069Y-220441114D02*
X118454660Y-220473503D01*
X118454660Y-220473503D02*
X118439920Y-220515960D01*
X118439920Y-220515960D02*
X118432867Y-220568437D01*
X118432867Y-220568437D02*
X118432203Y-220592424D01*
X118432203Y-220592424D02*
X118436565Y-220650165D01*
X118436565Y-220650165D02*
X118449117Y-220707277D01*
X118449117Y-220707277D02*
X118468803Y-220760712D01*
X118468803Y-220760712D02*
X118494569Y-220807424D01*
X118494569Y-220807424D02*
X118516321Y-220835214D01*
X118516321Y-220835214D02*
X118531747Y-220850538D01*
X118531747Y-220850538D02*
X118545512Y-220859481D01*
X118545512Y-220859481D02*
X118559711Y-220861690D01*
X118559711Y-220861690D02*
X118576438Y-220856807D01*
X118576438Y-220856807D02*
X118597789Y-220844479D01*
X118597789Y-220844479D02*
X118625860Y-220824350D01*
X118625860Y-220824350D02*
X118638925Y-220814428D01*
X118638925Y-220814428D02*
X118666153Y-220794343D01*
X118666153Y-220794343D02*
X118692754Y-220776045D01*
X118692754Y-220776045D02*
X118715566Y-220761634D01*
X118715566Y-220761634D02*
X118730652Y-220753541D01*
X118730652Y-220753541D02*
X118776712Y-220737649D01*
X118776712Y-220737649D02*
X118832201Y-220725526D01*
X118832201Y-220725526D02*
X118894388Y-220717272D01*
X118894388Y-220717272D02*
X118960542Y-220712988D01*
X118960542Y-220712988D02*
X119027929Y-220712773D01*
X119027929Y-220712773D02*
X119093819Y-220716729D01*
X119093819Y-220716729D02*
X119155480Y-220724955D01*
X119155480Y-220724955D02*
X119205212Y-220736124D01*
X119205212Y-220736124D02*
X119249360Y-220749790D01*
X119249360Y-220749790D02*
X119284905Y-220764398D01*
X119284905Y-220764398D02*
X119315761Y-220782245D01*
X119315761Y-220782245D02*
X119345846Y-220805627D01*
X119345846Y-220805627D02*
X119379074Y-220836844D01*
X119379074Y-220836844D02*
X119382194Y-220839958D01*
X119382194Y-220839958D02*
X119415060Y-220874677D01*
X119415060Y-220874677D02*
X119440894Y-220906887D01*
X119440894Y-220906887D02*
X119461845Y-220940117D01*
X119461845Y-220940117D02*
X119480061Y-220977895D01*
X119480061Y-220977895D02*
X119497691Y-221023751D01*
X119497691Y-221023751D02*
X119502447Y-221037441D01*
X119502447Y-221037441D02*
X119527594Y-221122774D01*
X119527594Y-221122774D02*
X119542742Y-221202133D01*
X119542742Y-221202133D02*
X119547926Y-221275184D01*
X119547926Y-221275184D02*
X119543178Y-221341591D01*
X119543178Y-221341591D02*
X119528530Y-221401019D01*
X119528530Y-221401019D02*
X119504016Y-221453133D01*
X119504016Y-221453133D02*
X119469668Y-221497599D01*
X119469668Y-221497599D02*
X119456158Y-221510557D01*
X119456158Y-221510557D02*
X119432749Y-221529468D01*
X119432749Y-221529468D02*
X119409319Y-221543452D01*
X119409319Y-221543452D02*
X119383201Y-221553334D01*
X119383201Y-221553334D02*
X119351725Y-221559938D01*
X119351725Y-221559938D02*
X119312223Y-221564088D01*
X119312223Y-221564088D02*
X119276434Y-221566057D01*
X119276434Y-221566057D02*
X119174948Y-221565212D01*
X119174948Y-221565212D02*
X119077889Y-221554174D01*
X119077889Y-221554174D02*
X118986519Y-221533175D01*
X118986519Y-221533175D02*
X118902102Y-221502445D01*
X118902102Y-221502445D02*
X118884810Y-221494507D01*
X118884810Y-221494507D02*
X118854774Y-221480515D01*
X118854774Y-221480515D02*
X118824716Y-221467099D01*
X118824716Y-221467099D02*
X118799051Y-221456203D01*
X118799051Y-221456203D02*
X118787817Y-221451768D01*
X118787817Y-221451768D02*
X118762431Y-221444518D01*
X118762431Y-221444518D02*
X118734616Y-221440125D01*
X118734616Y-221440125D02*
X118707950Y-221438756D01*
X118707950Y-221438756D02*
X118686011Y-221440577D01*
X118686011Y-221440577D02*
X118672377Y-221445753D01*
X118672377Y-221445753D02*
X118671688Y-221446380D01*
X118671688Y-221446380D02*
X118667447Y-221457616D01*
X118667447Y-221457616D02*
X118664955Y-221480564D01*
X118664955Y-221480564D02*
X118664299Y-221512543D01*
X118664299Y-221512543D02*
X118670765Y-221582854D01*
X118670765Y-221582854D02*
X118688902Y-221649629D01*
X118688902Y-221649629D02*
X118718061Y-221711578D01*
X118718061Y-221711578D02*
X118757595Y-221767408D01*
X118757595Y-221767408D02*
X118806854Y-221815828D01*
X118806854Y-221815828D02*
X118822720Y-221828191D01*
X118822720Y-221828191D02*
X118879416Y-221863800D01*
X118879416Y-221863800D02*
X118945982Y-221894902D01*
X118945982Y-221894902D02*
X119020238Y-221921014D01*
X119020238Y-221921014D02*
X119100005Y-221941653D01*
X119100005Y-221941653D02*
X119183102Y-221956338D01*
X119183102Y-221956338D02*
X119267352Y-221964585D01*
X119267352Y-221964585D02*
X119350574Y-221965913D01*
X119350574Y-221965913D02*
X119422114Y-221960872D01*
X119422114Y-221960872D02*
X119509182Y-221946736D01*
X119509182Y-221946736D02*
X119588943Y-221924910D01*
X119588943Y-221924910D02*
X119663230Y-221894474D01*
X119663230Y-221894474D02*
X119733877Y-221854503D01*
X119733877Y-221854503D02*
X119802720Y-221804076D01*
X119802720Y-221804076D02*
X119871592Y-221742272D01*
X119871592Y-221742272D02*
X119886689Y-221727299D01*
X119886689Y-221727299D02*
X119929023Y-221683383D01*
X119929023Y-221683383D02*
X119962501Y-221645019D01*
X119962501Y-221645019D02*
X119988191Y-221609831D01*
X119988191Y-221609831D02*
X120007163Y-221575445D01*
X120007163Y-221575445D02*
X120020486Y-221539486D01*
X120020486Y-221539486D02*
X120029230Y-221499578D01*
X120029230Y-221499578D02*
X120034463Y-221453347D01*
X120034463Y-221453347D02*
X120037256Y-221398416D01*
X120037256Y-221398416D02*
X120037439Y-221392461D01*
X120037439Y-221392461D02*
X120038144Y-221315552D01*
X120038144Y-221315552D02*
X120035173Y-221247225D01*
X120035173Y-221247225D02*
X120028168Y-221183801D01*
X120028168Y-221183801D02*
X120016771Y-221121599D01*
X120016771Y-221121599D02*
X120007195Y-221081466D01*
X120007195Y-221081466D02*
X119973698Y-220976233D01*
X119973698Y-220976233D02*
X119929065Y-220876974D01*
X119929065Y-220876974D02*
X119873501Y-220783938D01*
X119873501Y-220783938D02*
X119807211Y-220697378D01*
X119807211Y-220697378D02*
X119730399Y-220617542D01*
X119730399Y-220617542D02*
X119643271Y-220544681D01*
X119643271Y-220544681D02*
X119546031Y-220479045D01*
X119546031Y-220479045D02*
X119486491Y-220445140D01*
X119486491Y-220445140D02*
X119435581Y-220420770D01*
X119435581Y-220420770D02*
X119376071Y-220396980D01*
X119376071Y-220396980D02*
X119312041Y-220375146D01*
X119312041Y-220375146D02*
X119247572Y-220356643D01*
X119247572Y-220356643D02*
X119186741Y-220342845D01*
X119186741Y-220342845D02*
X119178439Y-220341312D01*
X119178439Y-220341312D02*
X119123540Y-220333760D01*
X119123540Y-220333760D02*
X119060937Y-220328893D01*
X119060937Y-220328893D02*
X118994568Y-220326748D01*
X118994568Y-220326748D02*
X118928370Y-220327363D01*
X118928370Y-220327363D02*
X118928370Y-220327363D01*
G36*
X119060937Y-220328893D02*
G01*
X119123540Y-220333760D01*
X119178439Y-220341312D01*
X119186741Y-220342845D01*
X119247572Y-220356643D01*
X119312041Y-220375146D01*
X119376071Y-220396980D01*
X119435581Y-220420770D01*
X119486491Y-220445140D01*
X119546031Y-220479045D01*
X119643271Y-220544681D01*
X119730399Y-220617542D01*
X119807211Y-220697378D01*
X119873501Y-220783938D01*
X119929065Y-220876974D01*
X119973698Y-220976233D01*
X120007195Y-221081466D01*
X120016771Y-221121599D01*
X120028168Y-221183801D01*
X120035173Y-221247225D01*
X120038144Y-221315552D01*
X120037439Y-221392461D01*
X120037256Y-221398416D01*
X120034463Y-221453347D01*
X120029230Y-221499578D01*
X120020486Y-221539486D01*
X120007163Y-221575445D01*
X119988191Y-221609831D01*
X119962501Y-221645019D01*
X119929023Y-221683383D01*
X119886689Y-221727299D01*
X119871592Y-221742272D01*
X119802720Y-221804076D01*
X119733877Y-221854503D01*
X119663230Y-221894474D01*
X119588943Y-221924910D01*
X119509182Y-221946736D01*
X119422114Y-221960872D01*
X119350574Y-221965913D01*
X119267352Y-221964585D01*
X119183102Y-221956338D01*
X119100005Y-221941653D01*
X119020238Y-221921014D01*
X118945982Y-221894902D01*
X118879416Y-221863800D01*
X118822720Y-221828191D01*
X118806854Y-221815828D01*
X118757595Y-221767408D01*
X118718061Y-221711578D01*
X118688902Y-221649629D01*
X118670765Y-221582854D01*
X118664299Y-221512543D01*
X118664955Y-221480564D01*
X118667447Y-221457616D01*
X118671688Y-221446380D01*
X118672377Y-221445753D01*
X118686011Y-221440577D01*
X118707950Y-221438756D01*
X118734616Y-221440125D01*
X118762431Y-221444518D01*
X118787817Y-221451768D01*
X118799051Y-221456203D01*
X118824716Y-221467099D01*
X118854774Y-221480515D01*
X118884810Y-221494507D01*
X118902102Y-221502445D01*
X118986519Y-221533175D01*
X119077889Y-221554174D01*
X119174948Y-221565212D01*
X119276434Y-221566057D01*
X119312223Y-221564088D01*
X119351725Y-221559938D01*
X119383201Y-221553334D01*
X119409319Y-221543452D01*
X119432749Y-221529468D01*
X119456158Y-221510557D01*
X119469668Y-221497599D01*
X119504016Y-221453133D01*
X119528530Y-221401019D01*
X119543178Y-221341591D01*
X119547926Y-221275184D01*
X119542742Y-221202133D01*
X119527594Y-221122774D01*
X119502447Y-221037441D01*
X119497691Y-221023751D01*
X119480061Y-220977895D01*
X119461845Y-220940117D01*
X119440894Y-220906887D01*
X119415060Y-220874677D01*
X119382194Y-220839958D01*
X119379074Y-220836844D01*
X119345846Y-220805627D01*
X119315761Y-220782245D01*
X119284905Y-220764398D01*
X119249360Y-220749790D01*
X119205212Y-220736124D01*
X119155480Y-220724955D01*
X119093819Y-220716729D01*
X119027929Y-220712773D01*
X118960542Y-220712988D01*
X118894388Y-220717272D01*
X118832201Y-220725526D01*
X118776712Y-220737649D01*
X118730652Y-220753541D01*
X118715566Y-220761634D01*
X118692754Y-220776045D01*
X118666153Y-220794343D01*
X118638925Y-220814428D01*
X118625860Y-220824350D01*
X118597789Y-220844479D01*
X118576438Y-220856807D01*
X118559711Y-220861690D01*
X118545512Y-220859481D01*
X118531747Y-220850538D01*
X118516321Y-220835214D01*
X118494569Y-220807424D01*
X118468803Y-220760712D01*
X118449117Y-220707277D01*
X118436565Y-220650165D01*
X118432203Y-220592424D01*
X118432867Y-220568437D01*
X118439920Y-220515960D01*
X118454660Y-220473503D01*
X118477069Y-220441114D01*
X118507127Y-220418835D01*
X118508782Y-220418005D01*
X118540914Y-220404396D01*
X118583201Y-220390048D01*
X118633320Y-220375588D01*
X118688950Y-220361642D01*
X118747769Y-220348836D01*
X118807454Y-220337797D01*
X118812233Y-220337021D01*
X118866279Y-220330775D01*
X118928370Y-220327363D01*
X118994568Y-220326748D01*
X119060937Y-220328893D01*
G37*
X119060937Y-220328893D02*
X119123540Y-220333760D01*
X119178439Y-220341312D01*
X119186741Y-220342845D01*
X119247572Y-220356643D01*
X119312041Y-220375146D01*
X119376071Y-220396980D01*
X119435581Y-220420770D01*
X119486491Y-220445140D01*
X119546031Y-220479045D01*
X119643271Y-220544681D01*
X119730399Y-220617542D01*
X119807211Y-220697378D01*
X119873501Y-220783938D01*
X119929065Y-220876974D01*
X119973698Y-220976233D01*
X120007195Y-221081466D01*
X120016771Y-221121599D01*
X120028168Y-221183801D01*
X120035173Y-221247225D01*
X120038144Y-221315552D01*
X120037439Y-221392461D01*
X120037256Y-221398416D01*
X120034463Y-221453347D01*
X120029230Y-221499578D01*
X120020486Y-221539486D01*
X120007163Y-221575445D01*
X119988191Y-221609831D01*
X119962501Y-221645019D01*
X119929023Y-221683383D01*
X119886689Y-221727299D01*
X119871592Y-221742272D01*
X119802720Y-221804076D01*
X119733877Y-221854503D01*
X119663230Y-221894474D01*
X119588943Y-221924910D01*
X119509182Y-221946736D01*
X119422114Y-221960872D01*
X119350574Y-221965913D01*
X119267352Y-221964585D01*
X119183102Y-221956338D01*
X119100005Y-221941653D01*
X119020238Y-221921014D01*
X118945982Y-221894902D01*
X118879416Y-221863800D01*
X118822720Y-221828191D01*
X118806854Y-221815828D01*
X118757595Y-221767408D01*
X118718061Y-221711578D01*
X118688902Y-221649629D01*
X118670765Y-221582854D01*
X118664299Y-221512543D01*
X118664955Y-221480564D01*
X118667447Y-221457616D01*
X118671688Y-221446380D01*
X118672377Y-221445753D01*
X118686011Y-221440577D01*
X118707950Y-221438756D01*
X118734616Y-221440125D01*
X118762431Y-221444518D01*
X118787817Y-221451768D01*
X118799051Y-221456203D01*
X118824716Y-221467099D01*
X118854774Y-221480515D01*
X118884810Y-221494507D01*
X118902102Y-221502445D01*
X118986519Y-221533175D01*
X119077889Y-221554174D01*
X119174948Y-221565212D01*
X119276434Y-221566057D01*
X119312223Y-221564088D01*
X119351725Y-221559938D01*
X119383201Y-221553334D01*
X119409319Y-221543452D01*
X119432749Y-221529468D01*
X119456158Y-221510557D01*
X119469668Y-221497599D01*
X119504016Y-221453133D01*
X119528530Y-221401019D01*
X119543178Y-221341591D01*
X119547926Y-221275184D01*
X119542742Y-221202133D01*
X119527594Y-221122774D01*
X119502447Y-221037441D01*
X119497691Y-221023751D01*
X119480061Y-220977895D01*
X119461845Y-220940117D01*
X119440894Y-220906887D01*
X119415060Y-220874677D01*
X119382194Y-220839958D01*
X119379074Y-220836844D01*
X119345846Y-220805627D01*
X119315761Y-220782245D01*
X119284905Y-220764398D01*
X119249360Y-220749790D01*
X119205212Y-220736124D01*
X119155480Y-220724955D01*
X119093819Y-220716729D01*
X119027929Y-220712773D01*
X118960542Y-220712988D01*
X118894388Y-220717272D01*
X118832201Y-220725526D01*
X118776712Y-220737649D01*
X118730652Y-220753541D01*
X118715566Y-220761634D01*
X118692754Y-220776045D01*
X118666153Y-220794343D01*
X118638925Y-220814428D01*
X118625860Y-220824350D01*
X118597789Y-220844479D01*
X118576438Y-220856807D01*
X118559711Y-220861690D01*
X118545512Y-220859481D01*
X118531747Y-220850538D01*
X118516321Y-220835214D01*
X118494569Y-220807424D01*
X118468803Y-220760712D01*
X118449117Y-220707277D01*
X118436565Y-220650165D01*
X118432203Y-220592424D01*
X118432867Y-220568437D01*
X118439920Y-220515960D01*
X118454660Y-220473503D01*
X118477069Y-220441114D01*
X118507127Y-220418835D01*
X118508782Y-220418005D01*
X118540914Y-220404396D01*
X118583201Y-220390048D01*
X118633320Y-220375588D01*
X118688950Y-220361642D01*
X118747769Y-220348836D01*
X118807454Y-220337797D01*
X118812233Y-220337021D01*
X118866279Y-220330775D01*
X118928370Y-220327363D01*
X118994568Y-220326748D01*
X119060937Y-220328893D01*
X120985737Y-220343895D02*
X120860502Y-220349660D01*
X120860502Y-220349660D02*
X120746692Y-220359301D01*
X120746692Y-220359301D02*
X120643958Y-220372858D01*
X120643958Y-220372858D02*
X120551952Y-220390371D01*
X120551952Y-220390371D02*
X120470325Y-220411880D01*
X120470325Y-220411880D02*
X120449770Y-220418460D01*
X120449770Y-220418460D02*
X120383448Y-220445411D01*
X120383448Y-220445411D02*
X120323738Y-220479373D01*
X120323738Y-220479373D02*
X120271882Y-220519268D01*
X120271882Y-220519268D02*
X120229123Y-220564021D01*
X120229123Y-220564021D02*
X120196702Y-220612554D01*
X120196702Y-220612554D02*
X120179113Y-220653170D01*
X120179113Y-220653170D02*
X120166725Y-220705987D01*
X120166725Y-220705987D02*
X120161322Y-220765987D01*
X120161322Y-220765987D02*
X120162564Y-220829977D01*
X120162564Y-220829977D02*
X120170112Y-220894761D01*
X120170112Y-220894761D02*
X120183625Y-220957144D01*
X120183625Y-220957144D02*
X120202765Y-221013932D01*
X120202765Y-221013932D02*
X120221575Y-221052622D01*
X120221575Y-221052622D02*
X120268165Y-221120980D01*
X120268165Y-221120980D02*
X120325457Y-221183101D01*
X120325457Y-221183101D02*
X120392834Y-221238521D01*
X120392834Y-221238521D02*
X120469681Y-221286773D01*
X120469681Y-221286773D02*
X120555382Y-221327392D01*
X120555382Y-221327392D02*
X120612881Y-221348600D01*
X120612881Y-221348600D02*
X120654799Y-221361863D01*
X120654799Y-221361863D02*
X120692977Y-221372246D01*
X120692977Y-221372246D02*
X120730360Y-221380238D01*
X120730360Y-221380238D02*
X120769890Y-221386327D01*
X120769890Y-221386327D02*
X120814512Y-221391002D01*
X120814512Y-221391002D02*
X120867170Y-221394750D01*
X120867170Y-221394750D02*
X120902895Y-221396710D01*
X120902895Y-221396710D02*
X120975951Y-221401251D01*
X120975951Y-221401251D02*
X121037962Y-221406881D01*
X121037962Y-221406881D02*
X121088541Y-221413549D01*
X121088541Y-221413549D02*
X121127301Y-221421199D01*
X121127301Y-221421199D02*
X121153852Y-221429780D01*
X121153852Y-221429780D02*
X121157656Y-221431600D01*
X121157656Y-221431600D02*
X121185206Y-221449939D01*
X121185206Y-221449939D02*
X121212645Y-221474956D01*
X121212645Y-221474956D02*
X121234672Y-221501733D01*
X121234672Y-221501733D02*
X121236819Y-221505020D01*
X121236819Y-221505020D02*
X121248339Y-221525152D01*
X121248339Y-221525152D02*
X121259716Y-221549259D01*
X121259716Y-221549259D02*
X121271483Y-221578839D01*
X121271483Y-221578839D02*
X121284172Y-221615393D01*
X121284172Y-221615393D02*
X121298316Y-221660417D01*
X121298316Y-221660417D02*
X121314448Y-221715411D01*
X121314448Y-221715411D02*
X121325468Y-221754407D01*
X121325468Y-221754407D02*
X121337025Y-221795377D01*
X121337025Y-221795377D02*
X121347601Y-221832174D01*
X121347601Y-221832174D02*
X121356683Y-221863059D01*
X121356683Y-221863059D02*
X121363753Y-221886294D01*
X121363753Y-221886294D02*
X121368296Y-221900142D01*
X121368296Y-221900142D02*
X121369644Y-221903281D01*
X121369644Y-221903281D02*
X121377846Y-221905622D01*
X121377846Y-221905622D02*
X121396586Y-221908142D01*
X121396586Y-221908142D02*
X121423700Y-221910728D01*
X121423700Y-221910728D02*
X121457025Y-221913265D01*
X121457025Y-221913265D02*
X121494399Y-221915640D01*
X121494399Y-221915640D02*
X121533659Y-221917739D01*
X121533659Y-221917739D02*
X121572643Y-221919447D01*
X121572643Y-221919447D02*
X121609187Y-221920651D01*
X121609187Y-221920651D02*
X121641129Y-221921236D01*
X121641129Y-221921236D02*
X121666306Y-221921089D01*
X121666306Y-221921089D02*
X121682556Y-221920095D01*
X121682556Y-221920095D02*
X121684141Y-221919857D01*
X121684141Y-221919857D02*
X121723361Y-221912366D01*
X121723361Y-221912366D02*
X121751865Y-221905097D01*
X121751865Y-221905097D02*
X121771613Y-221897471D01*
X121771613Y-221897471D02*
X121782203Y-221890900D01*
X121782203Y-221890900D02*
X121791659Y-221881716D01*
X121791659Y-221881716D02*
X121796564Y-221870494D01*
X121796564Y-221870494D02*
X121798326Y-221852935D01*
X121798326Y-221852935D02*
X121798469Y-221841252D01*
X121798469Y-221841252D02*
X121796485Y-221805870D01*
X121796485Y-221805870D02*
X121790494Y-221759948D01*
X121790494Y-221759948D02*
X121780443Y-221703204D01*
X121780443Y-221703204D02*
X121766277Y-221635354D01*
X121766277Y-221635354D02*
X121747939Y-221556115D01*
X121747939Y-221556115D02*
X121725375Y-221465207D01*
X121725375Y-221465207D02*
X121724811Y-221462997D01*
X121724811Y-221462997D02*
X121711685Y-221411493D01*
X121711685Y-221411493D02*
X121696238Y-221350738D01*
X121696238Y-221350738D02*
X121679248Y-221283804D01*
X121679248Y-221283804D02*
X121661495Y-221213758D01*
X121661495Y-221213758D02*
X121643756Y-221143672D01*
X121643756Y-221143672D02*
X121626810Y-221076614D01*
X121626810Y-221076614D02*
X121616925Y-221037441D01*
X121616925Y-221037441D02*
X121606243Y-220995317D01*
X121606243Y-220995317D02*
X121109448Y-220995317D01*
X121109448Y-220995317D02*
X121102250Y-221028103D01*
X121102250Y-221028103D02*
X121087740Y-221053056D01*
X121087740Y-221053056D02*
X121075843Y-221063391D01*
X121075843Y-221063391D02*
X121047413Y-221075332D01*
X121047413Y-221075332D02*
X121009623Y-221080680D01*
X121009623Y-221080680D02*
X120963981Y-221079416D01*
X120963981Y-221079416D02*
X120911998Y-221071521D01*
X120911998Y-221071521D02*
X120886665Y-221065731D01*
X120886665Y-221065731D02*
X120828428Y-221047107D01*
X120828428Y-221047107D02*
X120776269Y-221022493D01*
X120776269Y-221022493D02*
X120731458Y-220992915D01*
X120731458Y-220992915D02*
X120695265Y-220959396D01*
X120695265Y-220959396D02*
X120668961Y-220922960D01*
X120668961Y-220922960D02*
X120653815Y-220884631D01*
X120653815Y-220884631D02*
X120652222Y-220876743D01*
X120652222Y-220876743D02*
X120650812Y-220857109D01*
X120650812Y-220857109D02*
X120654633Y-220837881D01*
X120654633Y-220837881D02*
X120663293Y-220816448D01*
X120663293Y-220816448D02*
X120688909Y-220774995D01*
X120688909Y-220774995D02*
X120723638Y-220742150D01*
X120723638Y-220742150D02*
X120767032Y-220718153D01*
X120767032Y-220718153D02*
X120818648Y-220703245D01*
X120818648Y-220703245D02*
X120878037Y-220697667D01*
X120878037Y-220697667D02*
X120883555Y-220697631D01*
X120883555Y-220697631D02*
X120932530Y-220702248D01*
X120932530Y-220702248D02*
X120974601Y-220716564D01*
X120974601Y-220716564D02*
X121010836Y-220741278D01*
X121010836Y-220741278D02*
X121042301Y-220777087D01*
X121042301Y-220777087D02*
X121066330Y-220817232D01*
X121066330Y-220817232D02*
X121087775Y-220865656D01*
X121087775Y-220865656D02*
X121102149Y-220912525D01*
X121102149Y-220912525D02*
X121109394Y-220956268D01*
X121109394Y-220956268D02*
X121109448Y-220995317D01*
X121109448Y-220995317D02*
X121606243Y-220995317D01*
X121606243Y-220995317D02*
X121592410Y-220940773D01*
X121592410Y-220940773D02*
X121570478Y-220855514D01*
X121570478Y-220855514D02*
X121550858Y-220780695D01*
X121550858Y-220780695D02*
X121533283Y-220715346D01*
X121533283Y-220715346D02*
X121517483Y-220658498D01*
X121517483Y-220658498D02*
X121503190Y-220609181D01*
X121503190Y-220609181D02*
X121490134Y-220566426D01*
X121490134Y-220566426D02*
X121478047Y-220529263D01*
X121478047Y-220529263D02*
X121467882Y-220500094D01*
X121467882Y-220500094D02*
X121456968Y-220469130D01*
X121456968Y-220469130D02*
X121447163Y-220439983D01*
X121447163Y-220439983D02*
X121439614Y-220416146D01*
X121439614Y-220416146D02*
X121435721Y-220402221D01*
X121435721Y-220402221D02*
X121431461Y-220387690D01*
X121431461Y-220387690D02*
X121425027Y-220378634D01*
X121425027Y-220378634D02*
X121412992Y-220372080D01*
X121412992Y-220372080D02*
X121393367Y-220365500D01*
X121393367Y-220365500D02*
X121369359Y-220358541D01*
X121369359Y-220358541D02*
X121346149Y-220353072D01*
X121346149Y-220353072D02*
X121321766Y-220348922D01*
X121321766Y-220348922D02*
X121294243Y-220345921D01*
X121294243Y-220345921D02*
X121261611Y-220343896D01*
X121261611Y-220343896D02*
X121221902Y-220342678D01*
X121221902Y-220342678D02*
X121173146Y-220342093D01*
X121173146Y-220342093D02*
X121122746Y-220341968D01*
X121122746Y-220341968D02*
X120985737Y-220343895D01*
X120985737Y-220343895D02*
X120985737Y-220343895D01*
G36*
X121626810Y-221076614D02*
G01*
X121643756Y-221143672D01*
X121661495Y-221213758D01*
X121679248Y-221283804D01*
X121696238Y-221350738D01*
X121711685Y-221411493D01*
X121724811Y-221462997D01*
X121725375Y-221465207D01*
X121747939Y-221556115D01*
X121766277Y-221635354D01*
X121780443Y-221703204D01*
X121790494Y-221759948D01*
X121796485Y-221805870D01*
X121798469Y-221841252D01*
X121798326Y-221852935D01*
X121796564Y-221870494D01*
X121791659Y-221881716D01*
X121782203Y-221890900D01*
X121771613Y-221897471D01*
X121751865Y-221905097D01*
X121723361Y-221912366D01*
X121684141Y-221919857D01*
X121682556Y-221920095D01*
X121666306Y-221921089D01*
X121641129Y-221921236D01*
X121609187Y-221920651D01*
X121572643Y-221919447D01*
X121533659Y-221917739D01*
X121494399Y-221915640D01*
X121457025Y-221913265D01*
X121423700Y-221910728D01*
X121396586Y-221908142D01*
X121377846Y-221905622D01*
X121369644Y-221903281D01*
X121368296Y-221900142D01*
X121363753Y-221886294D01*
X121356683Y-221863059D01*
X121347601Y-221832174D01*
X121337025Y-221795377D01*
X121325468Y-221754407D01*
X121314448Y-221715411D01*
X121298316Y-221660417D01*
X121284172Y-221615393D01*
X121271483Y-221578839D01*
X121259716Y-221549259D01*
X121248339Y-221525152D01*
X121236819Y-221505020D01*
X121234672Y-221501733D01*
X121212645Y-221474956D01*
X121185206Y-221449939D01*
X121157656Y-221431600D01*
X121153852Y-221429780D01*
X121127301Y-221421199D01*
X121088541Y-221413549D01*
X121037962Y-221406881D01*
X120975951Y-221401251D01*
X120902895Y-221396710D01*
X120867170Y-221394750D01*
X120814512Y-221391002D01*
X120769890Y-221386327D01*
X120730360Y-221380238D01*
X120692977Y-221372246D01*
X120654799Y-221361863D01*
X120612881Y-221348600D01*
X120555382Y-221327392D01*
X120469681Y-221286773D01*
X120392834Y-221238521D01*
X120325457Y-221183101D01*
X120268165Y-221120980D01*
X120221575Y-221052622D01*
X120202765Y-221013932D01*
X120183625Y-220957144D01*
X120170112Y-220894761D01*
X120165725Y-220857109D01*
X120650812Y-220857109D01*
X120652222Y-220876743D01*
X120653815Y-220884631D01*
X120668961Y-220922960D01*
X120695265Y-220959396D01*
X120731458Y-220992915D01*
X120776269Y-221022493D01*
X120828428Y-221047107D01*
X120886665Y-221065731D01*
X120911998Y-221071521D01*
X120963981Y-221079416D01*
X121009623Y-221080680D01*
X121047413Y-221075332D01*
X121075843Y-221063391D01*
X121087740Y-221053056D01*
X121102250Y-221028103D01*
X121109448Y-220995317D01*
X121109394Y-220956268D01*
X121102149Y-220912525D01*
X121087775Y-220865656D01*
X121066330Y-220817232D01*
X121042301Y-220777087D01*
X121010836Y-220741278D01*
X120974601Y-220716564D01*
X120932530Y-220702248D01*
X120883555Y-220697631D01*
X120878037Y-220697667D01*
X120818648Y-220703245D01*
X120767032Y-220718153D01*
X120723638Y-220742150D01*
X120688909Y-220774995D01*
X120663293Y-220816448D01*
X120654633Y-220837881D01*
X120650812Y-220857109D01*
X120165725Y-220857109D01*
X120162564Y-220829977D01*
X120161322Y-220765987D01*
X120166725Y-220705987D01*
X120179113Y-220653170D01*
X120196702Y-220612554D01*
X120229123Y-220564021D01*
X120271882Y-220519268D01*
X120323738Y-220479373D01*
X120383448Y-220445411D01*
X120449770Y-220418460D01*
X120470325Y-220411880D01*
X120551952Y-220390371D01*
X120643958Y-220372858D01*
X120746692Y-220359301D01*
X120860502Y-220349660D01*
X120985737Y-220343895D01*
X121122746Y-220341968D01*
X121173146Y-220342093D01*
X121221902Y-220342678D01*
X121261611Y-220343896D01*
X121294243Y-220345921D01*
X121321766Y-220348922D01*
X121346149Y-220353072D01*
X121369359Y-220358541D01*
X121393367Y-220365500D01*
X121412992Y-220372080D01*
X121425027Y-220378634D01*
X121431461Y-220387690D01*
X121435721Y-220402221D01*
X121439614Y-220416146D01*
X121447163Y-220439983D01*
X121456968Y-220469130D01*
X121467882Y-220500094D01*
X121478047Y-220529263D01*
X121490134Y-220566426D01*
X121503190Y-220609181D01*
X121517483Y-220658498D01*
X121533283Y-220715346D01*
X121550858Y-220780695D01*
X121570478Y-220855514D01*
X121592410Y-220940773D01*
X121606243Y-220995317D01*
X121616925Y-221037441D01*
X121626810Y-221076614D01*
G37*
X121626810Y-221076614D02*
X121643756Y-221143672D01*
X121661495Y-221213758D01*
X121679248Y-221283804D01*
X121696238Y-221350738D01*
X121711685Y-221411493D01*
X121724811Y-221462997D01*
X121725375Y-221465207D01*
X121747939Y-221556115D01*
X121766277Y-221635354D01*
X121780443Y-221703204D01*
X121790494Y-221759948D01*
X121796485Y-221805870D01*
X121798469Y-221841252D01*
X121798326Y-221852935D01*
X121796564Y-221870494D01*
X121791659Y-221881716D01*
X121782203Y-221890900D01*
X121771613Y-221897471D01*
X121751865Y-221905097D01*
X121723361Y-221912366D01*
X121684141Y-221919857D01*
X121682556Y-221920095D01*
X121666306Y-221921089D01*
X121641129Y-221921236D01*
X121609187Y-221920651D01*
X121572643Y-221919447D01*
X121533659Y-221917739D01*
X121494399Y-221915640D01*
X121457025Y-221913265D01*
X121423700Y-221910728D01*
X121396586Y-221908142D01*
X121377846Y-221905622D01*
X121369644Y-221903281D01*
X121368296Y-221900142D01*
X121363753Y-221886294D01*
X121356683Y-221863059D01*
X121347601Y-221832174D01*
X121337025Y-221795377D01*
X121325468Y-221754407D01*
X121314448Y-221715411D01*
X121298316Y-221660417D01*
X121284172Y-221615393D01*
X121271483Y-221578839D01*
X121259716Y-221549259D01*
X121248339Y-221525152D01*
X121236819Y-221505020D01*
X121234672Y-221501733D01*
X121212645Y-221474956D01*
X121185206Y-221449939D01*
X121157656Y-221431600D01*
X121153852Y-221429780D01*
X121127301Y-221421199D01*
X121088541Y-221413549D01*
X121037962Y-221406881D01*
X120975951Y-221401251D01*
X120902895Y-221396710D01*
X120867170Y-221394750D01*
X120814512Y-221391002D01*
X120769890Y-221386327D01*
X120730360Y-221380238D01*
X120692977Y-221372246D01*
X120654799Y-221361863D01*
X120612881Y-221348600D01*
X120555382Y-221327392D01*
X120469681Y-221286773D01*
X120392834Y-221238521D01*
X120325457Y-221183101D01*
X120268165Y-221120980D01*
X120221575Y-221052622D01*
X120202765Y-221013932D01*
X120183625Y-220957144D01*
X120170112Y-220894761D01*
X120165725Y-220857109D01*
X120650812Y-220857109D01*
X120652222Y-220876743D01*
X120653815Y-220884631D01*
X120668961Y-220922960D01*
X120695265Y-220959396D01*
X120731458Y-220992915D01*
X120776269Y-221022493D01*
X120828428Y-221047107D01*
X120886665Y-221065731D01*
X120911998Y-221071521D01*
X120963981Y-221079416D01*
X121009623Y-221080680D01*
X121047413Y-221075332D01*
X121075843Y-221063391D01*
X121087740Y-221053056D01*
X121102250Y-221028103D01*
X121109448Y-220995317D01*
X121109394Y-220956268D01*
X121102149Y-220912525D01*
X121087775Y-220865656D01*
X121066330Y-220817232D01*
X121042301Y-220777087D01*
X121010836Y-220741278D01*
X120974601Y-220716564D01*
X120932530Y-220702248D01*
X120883555Y-220697631D01*
X120878037Y-220697667D01*
X120818648Y-220703245D01*
X120767032Y-220718153D01*
X120723638Y-220742150D01*
X120688909Y-220774995D01*
X120663293Y-220816448D01*
X120654633Y-220837881D01*
X120650812Y-220857109D01*
X120165725Y-220857109D01*
X120162564Y-220829977D01*
X120161322Y-220765987D01*
X120166725Y-220705987D01*
X120179113Y-220653170D01*
X120196702Y-220612554D01*
X120229123Y-220564021D01*
X120271882Y-220519268D01*
X120323738Y-220479373D01*
X120383448Y-220445411D01*
X120449770Y-220418460D01*
X120470325Y-220411880D01*
X120551952Y-220390371D01*
X120643958Y-220372858D01*
X120746692Y-220359301D01*
X120860502Y-220349660D01*
X120985737Y-220343895D01*
X121122746Y-220341968D01*
X121173146Y-220342093D01*
X121221902Y-220342678D01*
X121261611Y-220343896D01*
X121294243Y-220345921D01*
X121321766Y-220348922D01*
X121346149Y-220353072D01*
X121369359Y-220358541D01*
X121393367Y-220365500D01*
X121412992Y-220372080D01*
X121425027Y-220378634D01*
X121431461Y-220387690D01*
X121435721Y-220402221D01*
X121439614Y-220416146D01*
X121447163Y-220439983D01*
X121456968Y-220469130D01*
X121467882Y-220500094D01*
X121478047Y-220529263D01*
X121490134Y-220566426D01*
X121503190Y-220609181D01*
X121517483Y-220658498D01*
X121533283Y-220715346D01*
X121550858Y-220780695D01*
X121570478Y-220855514D01*
X121592410Y-220940773D01*
X121606243Y-220995317D01*
X121616925Y-221037441D01*
X121626810Y-221076614D01*
X124373223Y-220343058D02*
X124321532Y-220348886D01*
X124321532Y-220348886D02*
X124277113Y-220358146D01*
X124277113Y-220358146D02*
X124242370Y-220370442D01*
X124242370Y-220370442D02*
X124238162Y-220372513D01*
X124238162Y-220372513D02*
X124216689Y-220390476D01*
X124216689Y-220390476D02*
X124203814Y-220417602D01*
X124203814Y-220417602D02*
X124199728Y-220449104D01*
X124199728Y-220449104D02*
X124201230Y-220479064D01*
X124201230Y-220479064D02*
X124206446Y-220520447D01*
X124206446Y-220520447D02*
X124215235Y-220572571D01*
X124215235Y-220572571D02*
X124227453Y-220634756D01*
X124227453Y-220634756D02*
X124242961Y-220706321D01*
X124242961Y-220706321D02*
X124261614Y-220786584D01*
X124261614Y-220786584D02*
X124283273Y-220874865D01*
X124283273Y-220874865D02*
X124307794Y-220970482D01*
X124307794Y-220970482D02*
X124310361Y-220980277D01*
X124310361Y-220980277D02*
X124327560Y-221047204D01*
X124327560Y-221047204D02*
X124344259Y-221114839D01*
X124344259Y-221114839D02*
X124360035Y-221181291D01*
X124360035Y-221181291D02*
X124374467Y-221244673D01*
X124374467Y-221244673D02*
X124387133Y-221303095D01*
X124387133Y-221303095D02*
X124397611Y-221354669D01*
X124397611Y-221354669D02*
X124405479Y-221397506D01*
X124405479Y-221397506D02*
X124409822Y-221425794D01*
X124409822Y-221425794D02*
X124413002Y-221454731D01*
X124413002Y-221454731D02*
X124413718Y-221479211D01*
X124413718Y-221479211D02*
X124411038Y-221499639D01*
X124411038Y-221499639D02*
X124404028Y-221516422D01*
X124404028Y-221516422D02*
X124391756Y-221529963D01*
X124391756Y-221529963D02*
X124373286Y-221540669D01*
X124373286Y-221540669D02*
X124347688Y-221548944D01*
X124347688Y-221548944D02*
X124314027Y-221555193D01*
X124314027Y-221555193D02*
X124271370Y-221559822D01*
X124271370Y-221559822D02*
X124218784Y-221563235D01*
X124218784Y-221563235D02*
X124155335Y-221565839D01*
X124155335Y-221565839D02*
X124082315Y-221567979D01*
X124082315Y-221567979D02*
X124030372Y-221569441D01*
X124030372Y-221569441D02*
X123981778Y-221570996D01*
X123981778Y-221570996D02*
X123938172Y-221572576D01*
X123938172Y-221572576D02*
X123901195Y-221574114D01*
X123901195Y-221574114D02*
X123872488Y-221575544D01*
X123872488Y-221575544D02*
X123853690Y-221576800D01*
X123853690Y-221576800D02*
X123847306Y-221577539D01*
X123847306Y-221577539D02*
X123821336Y-221583921D01*
X123821336Y-221583921D02*
X123794504Y-221592448D01*
X123794504Y-221592448D02*
X123770236Y-221601813D01*
X123770236Y-221601813D02*
X123751960Y-221610713D01*
X123751960Y-221610713D02*
X123743643Y-221617006D01*
X123743643Y-221617006D02*
X123736180Y-221636100D01*
X123736180Y-221636100D02*
X123734779Y-221664577D01*
X123734779Y-221664577D02*
X123739105Y-221700843D01*
X123739105Y-221700843D02*
X123748825Y-221743305D01*
X123748825Y-221743305D02*
X123763605Y-221790371D01*
X123763605Y-221790371D02*
X123783109Y-221840446D01*
X123783109Y-221840446D02*
X123797008Y-221871416D01*
X123797008Y-221871416D02*
X123820609Y-221921460D01*
X123820609Y-221921460D02*
X124077722Y-221925649D01*
X124077722Y-221925649D02*
X124173444Y-221927092D01*
X124173444Y-221927092D02*
X124258481Y-221928097D01*
X124258481Y-221928097D02*
X124334845Y-221928656D01*
X124334845Y-221928656D02*
X124404547Y-221928760D01*
X124404547Y-221928760D02*
X124469598Y-221928400D01*
X124469598Y-221928400D02*
X124532009Y-221927567D01*
X124532009Y-221927567D02*
X124593791Y-221926251D01*
X124593791Y-221926251D02*
X124656956Y-221924445D01*
X124656956Y-221924445D02*
X124704321Y-221922838D01*
X124704321Y-221922838D02*
X124779702Y-221919286D01*
X124779702Y-221919286D02*
X124842598Y-221914466D01*
X124842598Y-221914466D02*
X124893162Y-221908356D01*
X124893162Y-221908356D02*
X124931552Y-221900936D01*
X124931552Y-221900936D02*
X124957921Y-221892183D01*
X124957921Y-221892183D02*
X124967592Y-221886620D01*
X124967592Y-221886620D02*
X124978400Y-221874029D01*
X124978400Y-221874029D02*
X124984474Y-221854943D01*
X124984474Y-221854943D02*
X124985925Y-221827910D01*
X124985925Y-221827910D02*
X124982867Y-221791478D01*
X124982867Y-221791478D02*
X124977629Y-221756805D01*
X124977629Y-221756805D02*
X124965540Y-221691130D01*
X124965540Y-221691130D02*
X124949978Y-221614970D01*
X124949978Y-221614970D02*
X124931352Y-221529936D01*
X124931352Y-221529936D02*
X124910068Y-221437638D01*
X124910068Y-221437638D02*
X124886535Y-221339689D01*
X124886535Y-221339689D02*
X124861161Y-221237699D01*
X124861161Y-221237699D02*
X124834353Y-221133279D01*
X124834353Y-221133279D02*
X124806518Y-221028041D01*
X124806518Y-221028041D02*
X124778066Y-220923594D01*
X124778066Y-220923594D02*
X124749403Y-220821550D01*
X124749403Y-220821550D02*
X124720937Y-220723521D01*
X124720937Y-220723521D02*
X124693076Y-220631117D01*
X124693076Y-220631117D02*
X124691062Y-220624588D01*
X124691062Y-220624588D02*
X124680205Y-220588206D01*
X124680205Y-220588206D02*
X124668089Y-220545648D01*
X124668089Y-220545648D02*
X124656447Y-220503083D01*
X124656447Y-220503083D02*
X124649591Y-220476913D01*
X124649591Y-220476913D02*
X124641637Y-220447539D01*
X124641637Y-220447539D02*
X124634209Y-220423241D01*
X124634209Y-220423241D02*
X124628082Y-220406351D01*
X124628082Y-220406351D02*
X124624031Y-220399200D01*
X124624031Y-220399200D02*
X124623713Y-220399106D01*
X124623713Y-220399106D02*
X124616117Y-220394842D01*
X124616117Y-220394842D02*
X124603798Y-220384053D01*
X124603798Y-220384053D02*
X124597487Y-220377652D01*
X124597487Y-220377652D02*
X124580990Y-220364050D01*
X124580990Y-220364050D02*
X124559559Y-220353985D01*
X124559559Y-220353985D02*
X124531435Y-220347074D01*
X124531435Y-220347074D02*
X124494858Y-220342933D01*
X124494858Y-220342933D02*
X124448067Y-220341178D01*
X124448067Y-220341178D02*
X124429781Y-220341056D01*
X124429781Y-220341056D02*
X124373223Y-220343058D01*
X124373223Y-220343058D02*
X124373223Y-220343058D01*
G36*
X124448067Y-220341178D02*
G01*
X124494858Y-220342933D01*
X124531435Y-220347074D01*
X124559559Y-220353985D01*
X124580990Y-220364050D01*
X124597487Y-220377652D01*
X124603798Y-220384053D01*
X124616117Y-220394842D01*
X124623713Y-220399106D01*
X124624031Y-220399200D01*
X124628082Y-220406351D01*
X124634209Y-220423241D01*
X124641637Y-220447539D01*
X124649591Y-220476913D01*
X124656447Y-220503083D01*
X124668089Y-220545648D01*
X124680205Y-220588206D01*
X124691062Y-220624588D01*
X124693076Y-220631117D01*
X124720937Y-220723521D01*
X124749403Y-220821550D01*
X124778066Y-220923594D01*
X124806518Y-221028041D01*
X124834353Y-221133279D01*
X124861161Y-221237699D01*
X124886535Y-221339689D01*
X124910068Y-221437638D01*
X124931352Y-221529936D01*
X124949978Y-221614970D01*
X124965540Y-221691130D01*
X124977629Y-221756805D01*
X124982867Y-221791478D01*
X124985925Y-221827910D01*
X124984474Y-221854943D01*
X124978400Y-221874029D01*
X124967592Y-221886620D01*
X124957921Y-221892183D01*
X124931552Y-221900936D01*
X124893162Y-221908356D01*
X124842598Y-221914466D01*
X124779702Y-221919286D01*
X124704321Y-221922838D01*
X124656956Y-221924445D01*
X124593791Y-221926251D01*
X124532009Y-221927567D01*
X124469598Y-221928400D01*
X124404547Y-221928760D01*
X124334845Y-221928656D01*
X124258481Y-221928097D01*
X124173444Y-221927092D01*
X124077722Y-221925649D01*
X123820609Y-221921460D01*
X123797008Y-221871416D01*
X123783109Y-221840446D01*
X123763605Y-221790371D01*
X123748825Y-221743305D01*
X123739105Y-221700843D01*
X123734779Y-221664577D01*
X123736180Y-221636100D01*
X123743643Y-221617006D01*
X123751960Y-221610713D01*
X123770236Y-221601813D01*
X123794504Y-221592448D01*
X123821336Y-221583921D01*
X123847306Y-221577539D01*
X123853690Y-221576800D01*
X123872488Y-221575544D01*
X123901195Y-221574114D01*
X123938172Y-221572576D01*
X123981778Y-221570996D01*
X124030372Y-221569441D01*
X124082315Y-221567979D01*
X124155335Y-221565839D01*
X124218784Y-221563235D01*
X124271370Y-221559822D01*
X124314027Y-221555193D01*
X124347688Y-221548944D01*
X124373286Y-221540669D01*
X124391756Y-221529963D01*
X124404028Y-221516422D01*
X124411038Y-221499639D01*
X124413718Y-221479211D01*
X124413002Y-221454731D01*
X124409822Y-221425794D01*
X124405479Y-221397506D01*
X124397611Y-221354669D01*
X124387133Y-221303095D01*
X124374467Y-221244673D01*
X124360035Y-221181291D01*
X124344259Y-221114839D01*
X124327560Y-221047204D01*
X124310361Y-220980277D01*
X124307794Y-220970482D01*
X124283273Y-220874865D01*
X124261614Y-220786584D01*
X124242961Y-220706321D01*
X124227453Y-220634756D01*
X124215235Y-220572571D01*
X124206446Y-220520447D01*
X124201230Y-220479064D01*
X124199728Y-220449104D01*
X124203814Y-220417602D01*
X124216689Y-220390476D01*
X124238162Y-220372513D01*
X124242370Y-220370442D01*
X124277113Y-220358146D01*
X124321532Y-220348886D01*
X124373223Y-220343058D01*
X124429781Y-220341056D01*
X124448067Y-220341178D01*
G37*
X124448067Y-220341178D02*
X124494858Y-220342933D01*
X124531435Y-220347074D01*
X124559559Y-220353985D01*
X124580990Y-220364050D01*
X124597487Y-220377652D01*
X124603798Y-220384053D01*
X124616117Y-220394842D01*
X124623713Y-220399106D01*
X124624031Y-220399200D01*
X124628082Y-220406351D01*
X124634209Y-220423241D01*
X124641637Y-220447539D01*
X124649591Y-220476913D01*
X124656447Y-220503083D01*
X124668089Y-220545648D01*
X124680205Y-220588206D01*
X124691062Y-220624588D01*
X124693076Y-220631117D01*
X124720937Y-220723521D01*
X124749403Y-220821550D01*
X124778066Y-220923594D01*
X124806518Y-221028041D01*
X124834353Y-221133279D01*
X124861161Y-221237699D01*
X124886535Y-221339689D01*
X124910068Y-221437638D01*
X124931352Y-221529936D01*
X124949978Y-221614970D01*
X124965540Y-221691130D01*
X124977629Y-221756805D01*
X124982867Y-221791478D01*
X124985925Y-221827910D01*
X124984474Y-221854943D01*
X124978400Y-221874029D01*
X124967592Y-221886620D01*
X124957921Y-221892183D01*
X124931552Y-221900936D01*
X124893162Y-221908356D01*
X124842598Y-221914466D01*
X124779702Y-221919286D01*
X124704321Y-221922838D01*
X124656956Y-221924445D01*
X124593791Y-221926251D01*
X124532009Y-221927567D01*
X124469598Y-221928400D01*
X124404547Y-221928760D01*
X124334845Y-221928656D01*
X124258481Y-221928097D01*
X124173444Y-221927092D01*
X124077722Y-221925649D01*
X123820609Y-221921460D01*
X123797008Y-221871416D01*
X123783109Y-221840446D01*
X123763605Y-221790371D01*
X123748825Y-221743305D01*
X123739105Y-221700843D01*
X123734779Y-221664577D01*
X123736180Y-221636100D01*
X123743643Y-221617006D01*
X123751960Y-221610713D01*
X123770236Y-221601813D01*
X123794504Y-221592448D01*
X123821336Y-221583921D01*
X123847306Y-221577539D01*
X123853690Y-221576800D01*
X123872488Y-221575544D01*
X123901195Y-221574114D01*
X123938172Y-221572576D01*
X123981778Y-221570996D01*
X124030372Y-221569441D01*
X124082315Y-221567979D01*
X124155335Y-221565839D01*
X124218784Y-221563235D01*
X124271370Y-221559822D01*
X124314027Y-221555193D01*
X124347688Y-221548944D01*
X124373286Y-221540669D01*
X124391756Y-221529963D01*
X124404028Y-221516422D01*
X124411038Y-221499639D01*
X124413718Y-221479211D01*
X124413002Y-221454731D01*
X124409822Y-221425794D01*
X124405479Y-221397506D01*
X124397611Y-221354669D01*
X124387133Y-221303095D01*
X124374467Y-221244673D01*
X124360035Y-221181291D01*
X124344259Y-221114839D01*
X124327560Y-221047204D01*
X124310361Y-220980277D01*
X124307794Y-220970482D01*
X124283273Y-220874865D01*
X124261614Y-220786584D01*
X124242961Y-220706321D01*
X124227453Y-220634756D01*
X124215235Y-220572571D01*
X124206446Y-220520447D01*
X124201230Y-220479064D01*
X124199728Y-220449104D01*
X124203814Y-220417602D01*
X124216689Y-220390476D01*
X124238162Y-220372513D01*
X124242370Y-220370442D01*
X124277113Y-220358146D01*
X124321532Y-220348886D01*
X124373223Y-220343058D01*
X124429781Y-220341056D01*
X124448067Y-220341178D01*
X117567828Y-220342321D02*
X117512024Y-220343243D01*
X117512024Y-220343243D02*
X117460235Y-220344730D01*
X117460235Y-220344730D02*
X117414549Y-220346793D01*
X117414549Y-220346793D02*
X117390467Y-220348345D01*
X117390467Y-220348345D02*
X117312474Y-220355046D01*
X117312474Y-220355046D02*
X117245123Y-220362980D01*
X117245123Y-220362980D02*
X117186375Y-220372622D01*
X117186375Y-220372622D02*
X117134193Y-220384451D01*
X117134193Y-220384451D02*
X117086538Y-220398940D01*
X117086538Y-220398940D02*
X117041371Y-220416566D01*
X117041371Y-220416566D02*
X116996655Y-220437805D01*
X116996655Y-220437805D02*
X116988000Y-220442310D01*
X116988000Y-220442310D02*
X116928715Y-220478617D01*
X116928715Y-220478617D02*
X116881193Y-220519136D01*
X116881193Y-220519136D02*
X116844991Y-220564566D01*
X116844991Y-220564566D02*
X116819665Y-220615609D01*
X116819665Y-220615609D02*
X116804770Y-220672961D01*
X116804770Y-220672961D02*
X116799863Y-220737325D01*
X116799863Y-220737325D02*
X116799864Y-220738663D01*
X116799864Y-220738663D02*
X116805255Y-220803087D01*
X116805255Y-220803087D02*
X116820620Y-220864739D01*
X116820620Y-220864739D02*
X116845103Y-220921292D01*
X116845103Y-220921292D02*
X116877850Y-220970420D01*
X116877850Y-220970420D02*
X116890284Y-220984565D01*
X116890284Y-220984565D02*
X116912039Y-221009379D01*
X116912039Y-221009379D02*
X116931455Y-221034744D01*
X116931455Y-221034744D02*
X116946788Y-221058069D01*
X116946788Y-221058069D02*
X116956297Y-221076765D01*
X116956297Y-221076765D02*
X116958559Y-221086032D01*
X116958559Y-221086032D02*
X116956998Y-221096580D01*
X116956998Y-221096580D02*
X116951737Y-221110715D01*
X116951737Y-221110715D02*
X116941910Y-221130145D01*
X116941910Y-221130145D02*
X116926651Y-221156575D01*
X116926651Y-221156575D02*
X116905094Y-221191713D01*
X116905094Y-221191713D02*
X116904257Y-221193055D01*
X116904257Y-221193055D02*
X116875851Y-221243918D01*
X116875851Y-221243918D02*
X116857195Y-221291089D01*
X116857195Y-221291089D02*
X116847378Y-221337781D01*
X116847378Y-221337781D02*
X116845492Y-221387212D01*
X116845492Y-221387212D02*
X116846050Y-221398759D01*
X116846050Y-221398759D02*
X116854673Y-221462442D01*
X116854673Y-221462442D02*
X116872833Y-221521530D01*
X116872833Y-221521530D02*
X116901311Y-221577587D01*
X116901311Y-221577587D02*
X116940891Y-221632177D01*
X116940891Y-221632177D02*
X116988190Y-221682847D01*
X116988190Y-221682847D02*
X117045730Y-221733475D01*
X117045730Y-221733475D02*
X117107484Y-221777178D01*
X117107484Y-221777178D02*
X117174572Y-221814366D01*
X117174572Y-221814366D02*
X117248109Y-221845446D01*
X117248109Y-221845446D02*
X117329214Y-221870827D01*
X117329214Y-221870827D02*
X117419005Y-221890917D01*
X117419005Y-221890917D02*
X117518599Y-221906124D01*
X117518599Y-221906124D02*
X117628652Y-221916823D01*
X117628652Y-221916823D02*
X117655182Y-221918283D01*
X117655182Y-221918283D02*
X117691514Y-221919525D01*
X117691514Y-221919525D02*
X117735987Y-221920552D01*
X117735987Y-221920552D02*
X117786943Y-221921363D01*
X117786943Y-221921363D02*
X117842722Y-221921958D01*
X117842722Y-221921958D02*
X117901664Y-221922337D01*
X117901664Y-221922337D02*
X117962109Y-221922501D01*
X117962109Y-221922501D02*
X118022399Y-221922449D01*
X118022399Y-221922449D02*
X118080874Y-221922182D01*
X118080874Y-221922182D02*
X118135873Y-221921700D01*
X118135873Y-221921700D02*
X118185738Y-221921002D01*
X118185738Y-221921002D02*
X118228809Y-221920089D01*
X118228809Y-221920089D02*
X118263426Y-221918962D01*
X118263426Y-221918962D02*
X118287931Y-221917620D01*
X118287931Y-221917620D02*
X118296612Y-221916775D01*
X118296612Y-221916775D02*
X118335775Y-221908643D01*
X118335775Y-221908643D02*
X118364197Y-221895994D01*
X118364197Y-221895994D02*
X118381226Y-221879126D01*
X118381226Y-221879126D02*
X118381990Y-221877766D01*
X118381990Y-221877766D02*
X118386581Y-221860008D01*
X118386581Y-221860008D02*
X118387204Y-221831204D01*
X118387204Y-221831204D02*
X118383840Y-221791248D01*
X118383840Y-221791248D02*
X118376465Y-221740030D01*
X118376465Y-221740030D02*
X118365061Y-221677445D01*
X118365061Y-221677445D02*
X118349605Y-221603383D01*
X118349605Y-221603383D02*
X118330077Y-221517736D01*
X118330077Y-221517736D02*
X118317738Y-221466888D01*
X118317738Y-221466888D02*
X117826711Y-221466888D01*
X117826711Y-221466888D02*
X117823589Y-221500863D01*
X117823589Y-221500863D02*
X117812843Y-221526134D01*
X117812843Y-221526134D02*
X117799865Y-221538816D01*
X117799865Y-221538816D02*
X117770147Y-221552462D01*
X117770147Y-221552462D02*
X117730636Y-221561719D01*
X117730636Y-221561719D02*
X117683519Y-221566425D01*
X117683519Y-221566425D02*
X117630982Y-221566416D01*
X117630982Y-221566416D02*
X117575212Y-221561529D01*
X117575212Y-221561529D02*
X117548788Y-221557549D01*
X117548788Y-221557549D02*
X117499842Y-221547766D01*
X117499842Y-221547766D02*
X117461127Y-221536536D01*
X117461127Y-221536536D02*
X117430178Y-221522846D01*
X117430178Y-221522846D02*
X117404531Y-221505686D01*
X117404531Y-221505686D02*
X117389597Y-221492251D01*
X117389597Y-221492251D02*
X117363086Y-221458243D01*
X117363086Y-221458243D02*
X117348910Y-221421234D01*
X117348910Y-221421234D02*
X117347109Y-221381409D01*
X117347109Y-221381409D02*
X117357601Y-221339268D01*
X117357601Y-221339268D02*
X117369303Y-221317956D01*
X117369303Y-221317956D02*
X117387055Y-221300947D01*
X117387055Y-221300947D02*
X117411910Y-221287950D01*
X117411910Y-221287950D02*
X117444923Y-221278678D01*
X117444923Y-221278678D02*
X117487146Y-221272840D01*
X117487146Y-221272840D02*
X117539632Y-221270149D01*
X117539632Y-221270149D02*
X117603436Y-221270314D01*
X117603436Y-221270314D02*
X117608426Y-221270427D01*
X117608426Y-221270427D02*
X117648871Y-221271604D01*
X117648871Y-221271604D02*
X117679028Y-221273121D01*
X117679028Y-221273121D02*
X117701311Y-221275266D01*
X117701311Y-221275266D02*
X117718135Y-221278327D01*
X117718135Y-221278327D02*
X117731915Y-221282593D01*
X117731915Y-221282593D02*
X117740390Y-221286150D01*
X117740390Y-221286150D02*
X117767592Y-221303154D01*
X117767592Y-221303154D02*
X117788494Y-221327476D01*
X117788494Y-221327476D02*
X117804784Y-221361304D01*
X117804784Y-221361304D02*
X117809874Y-221376326D01*
X117809874Y-221376326D02*
X117822158Y-221425084D01*
X117822158Y-221425084D02*
X117826711Y-221466888D01*
X117826711Y-221466888D02*
X118317738Y-221466888D01*
X118317738Y-221466888D02*
X118306455Y-221420399D01*
X118306455Y-221420399D02*
X118278718Y-221311261D01*
X118278718Y-221311261D02*
X118250146Y-221202582D01*
X118250146Y-221202582D02*
X118229466Y-221126097D01*
X118229466Y-221126097D02*
X118207779Y-221047943D01*
X118207779Y-221047943D02*
X118185439Y-220969264D01*
X118185439Y-220969264D02*
X118162800Y-220891204D01*
X118162800Y-220891204D02*
X118150379Y-220849240D01*
X118150379Y-220849240D02*
X117667538Y-220849240D01*
X117667538Y-220849240D02*
X117661924Y-220881077D01*
X117661924Y-220881077D02*
X117646429Y-220907593D01*
X117646429Y-220907593D02*
X117620783Y-220928651D01*
X117620783Y-220928651D02*
X117586562Y-220942516D01*
X117586562Y-220942516D02*
X117545865Y-220948890D01*
X117545865Y-220948890D02*
X117500787Y-220947471D01*
X117500787Y-220947471D02*
X117453426Y-220937960D01*
X117453426Y-220937960D02*
X117447215Y-220936115D01*
X117447215Y-220936115D02*
X117401251Y-220919658D01*
X117401251Y-220919658D02*
X117363358Y-220900616D01*
X117363358Y-220900616D02*
X117339144Y-220884558D01*
X117339144Y-220884558D02*
X117311796Y-220859162D01*
X117311796Y-220859162D02*
X117296229Y-220832621D01*
X117296229Y-220832621D02*
X117291696Y-220805902D01*
X117291696Y-220805902D02*
X117297451Y-220779970D01*
X117297451Y-220779970D02*
X117312749Y-220755794D01*
X117312749Y-220755794D02*
X117336844Y-220734338D01*
X117336844Y-220734338D02*
X117368989Y-220716571D01*
X117368989Y-220716571D02*
X117408439Y-220703459D01*
X117408439Y-220703459D02*
X117454448Y-220695969D01*
X117454448Y-220695969D02*
X117485741Y-220694572D01*
X117485741Y-220694572D02*
X117524767Y-220696444D01*
X117524767Y-220696444D02*
X117555702Y-220703370D01*
X117555702Y-220703370D02*
X117582702Y-220717024D01*
X117582702Y-220717024D02*
X117609921Y-220739084D01*
X117609921Y-220739084D02*
X117619798Y-220748631D01*
X117619798Y-220748631D02*
X117646185Y-220781288D01*
X117646185Y-220781288D02*
X117662195Y-220815401D01*
X117662195Y-220815401D02*
X117667538Y-220849240D01*
X117667538Y-220849240D02*
X118150379Y-220849240D01*
X118150379Y-220849240D02*
X118140216Y-220814907D01*
X118140216Y-220814907D02*
X118118041Y-220741516D01*
X118118041Y-220741516D02*
X118096630Y-220672176D01*
X118096630Y-220672176D02*
X118076334Y-220608029D01*
X118076334Y-220608029D02*
X118057510Y-220550220D01*
X118057510Y-220550220D02*
X118040510Y-220499893D01*
X118040510Y-220499893D02*
X118025689Y-220458190D01*
X118025689Y-220458190D02*
X118013400Y-220426257D01*
X118013400Y-220426257D02*
X118003997Y-220405236D01*
X118003997Y-220405236D02*
X118002618Y-220402662D01*
X118002618Y-220402662D02*
X117992670Y-220386697D01*
X117992670Y-220386697D02*
X117981899Y-220375146D01*
X117981899Y-220375146D02*
X117967759Y-220366776D01*
X117967759Y-220366776D02*
X117947700Y-220360356D01*
X117947700Y-220360356D02*
X117919175Y-220354653D01*
X117919175Y-220354653D02*
X117895419Y-220350830D01*
X117895419Y-220350830D02*
X117869993Y-220348083D01*
X117869993Y-220348083D02*
X117833963Y-220345830D01*
X117833963Y-220345830D02*
X117789415Y-220344080D01*
X117789415Y-220344080D02*
X117738439Y-220342844D01*
X117738439Y-220342844D02*
X117683124Y-220342132D01*
X117683124Y-220342132D02*
X117625557Y-220341954D01*
X117625557Y-220341954D02*
X117567828Y-220342321D01*
X117567828Y-220342321D02*
X117567828Y-220342321D01*
G36*
X118349605Y-221603383D02*
G01*
X118365061Y-221677445D01*
X118376465Y-221740030D01*
X118383840Y-221791248D01*
X118387204Y-221831204D01*
X118386581Y-221860008D01*
X118381990Y-221877766D01*
X118381226Y-221879126D01*
X118364197Y-221895994D01*
X118335775Y-221908643D01*
X118296612Y-221916775D01*
X118287931Y-221917620D01*
X118263426Y-221918962D01*
X118228809Y-221920089D01*
X118185738Y-221921002D01*
X118135873Y-221921700D01*
X118080874Y-221922182D01*
X118022399Y-221922449D01*
X117962109Y-221922501D01*
X117901664Y-221922337D01*
X117842722Y-221921958D01*
X117786943Y-221921363D01*
X117735987Y-221920552D01*
X117691514Y-221919525D01*
X117655182Y-221918283D01*
X117628652Y-221916823D01*
X117518599Y-221906124D01*
X117419005Y-221890917D01*
X117329214Y-221870827D01*
X117248109Y-221845446D01*
X117174572Y-221814366D01*
X117107484Y-221777178D01*
X117045730Y-221733475D01*
X116988190Y-221682847D01*
X116940891Y-221632177D01*
X116901311Y-221577587D01*
X116872833Y-221521530D01*
X116854673Y-221462442D01*
X116846050Y-221398759D01*
X116845492Y-221387212D01*
X116845713Y-221381409D01*
X117347109Y-221381409D01*
X117348910Y-221421234D01*
X117363086Y-221458243D01*
X117389597Y-221492251D01*
X117404531Y-221505686D01*
X117430178Y-221522846D01*
X117461127Y-221536536D01*
X117499842Y-221547766D01*
X117548788Y-221557549D01*
X117575212Y-221561529D01*
X117630982Y-221566416D01*
X117683519Y-221566425D01*
X117730636Y-221561719D01*
X117770147Y-221552462D01*
X117799865Y-221538816D01*
X117812843Y-221526134D01*
X117823589Y-221500863D01*
X117826711Y-221466888D01*
X117822158Y-221425084D01*
X117809874Y-221376326D01*
X117804784Y-221361304D01*
X117788494Y-221327476D01*
X117767592Y-221303154D01*
X117740390Y-221286150D01*
X117731915Y-221282593D01*
X117718135Y-221278327D01*
X117701311Y-221275266D01*
X117679028Y-221273121D01*
X117648871Y-221271604D01*
X117608426Y-221270427D01*
X117603436Y-221270314D01*
X117539632Y-221270149D01*
X117487146Y-221272840D01*
X117444923Y-221278678D01*
X117411910Y-221287950D01*
X117387055Y-221300947D01*
X117369303Y-221317956D01*
X117357601Y-221339268D01*
X117347109Y-221381409D01*
X116845713Y-221381409D01*
X116847378Y-221337781D01*
X116857195Y-221291089D01*
X116875851Y-221243918D01*
X116904257Y-221193055D01*
X116905094Y-221191713D01*
X116926651Y-221156575D01*
X116941910Y-221130145D01*
X116951737Y-221110715D01*
X116956998Y-221096580D01*
X116958559Y-221086032D01*
X116956297Y-221076765D01*
X116946788Y-221058069D01*
X116931455Y-221034744D01*
X116912039Y-221009379D01*
X116890284Y-220984565D01*
X116877850Y-220970420D01*
X116845103Y-220921292D01*
X116820620Y-220864739D01*
X116805957Y-220805902D01*
X117291696Y-220805902D01*
X117296229Y-220832621D01*
X117311796Y-220859162D01*
X117339144Y-220884558D01*
X117363358Y-220900616D01*
X117401251Y-220919658D01*
X117447215Y-220936115D01*
X117453426Y-220937960D01*
X117500787Y-220947471D01*
X117545865Y-220948890D01*
X117586562Y-220942516D01*
X117620783Y-220928651D01*
X117646429Y-220907593D01*
X117661924Y-220881077D01*
X117667538Y-220849240D01*
X117662195Y-220815401D01*
X117646185Y-220781288D01*
X117619798Y-220748631D01*
X117609921Y-220739084D01*
X117582702Y-220717024D01*
X117555702Y-220703370D01*
X117524767Y-220696444D01*
X117485741Y-220694572D01*
X117454448Y-220695969D01*
X117408439Y-220703459D01*
X117368989Y-220716571D01*
X117336844Y-220734338D01*
X117312749Y-220755794D01*
X117297451Y-220779970D01*
X117291696Y-220805902D01*
X116805957Y-220805902D01*
X116805255Y-220803087D01*
X116799864Y-220738663D01*
X116799863Y-220737325D01*
X116804770Y-220672961D01*
X116819665Y-220615609D01*
X116844991Y-220564566D01*
X116881193Y-220519136D01*
X116928715Y-220478617D01*
X116988000Y-220442310D01*
X116996655Y-220437805D01*
X117041371Y-220416566D01*
X117086538Y-220398940D01*
X117134193Y-220384451D01*
X117186375Y-220372622D01*
X117245123Y-220362980D01*
X117312474Y-220355046D01*
X117390467Y-220348345D01*
X117414549Y-220346793D01*
X117460235Y-220344730D01*
X117512024Y-220343243D01*
X117567828Y-220342321D01*
X117625557Y-220341954D01*
X117683124Y-220342132D01*
X117738439Y-220342844D01*
X117789415Y-220344080D01*
X117833963Y-220345830D01*
X117869993Y-220348083D01*
X117895419Y-220350830D01*
X117919175Y-220354653D01*
X117947700Y-220360356D01*
X117967759Y-220366776D01*
X117981899Y-220375146D01*
X117992670Y-220386697D01*
X118002618Y-220402662D01*
X118003997Y-220405236D01*
X118013400Y-220426257D01*
X118025689Y-220458190D01*
X118040510Y-220499893D01*
X118057510Y-220550220D01*
X118076334Y-220608029D01*
X118096630Y-220672176D01*
X118118041Y-220741516D01*
X118140216Y-220814907D01*
X118150379Y-220849240D01*
X118162800Y-220891204D01*
X118185439Y-220969264D01*
X118207779Y-221047943D01*
X118229466Y-221126097D01*
X118250146Y-221202582D01*
X118278718Y-221311261D01*
X118306455Y-221420399D01*
X118317738Y-221466888D01*
X118330077Y-221517736D01*
X118349605Y-221603383D01*
G37*
X118349605Y-221603383D02*
X118365061Y-221677445D01*
X118376465Y-221740030D01*
X118383840Y-221791248D01*
X118387204Y-221831204D01*
X118386581Y-221860008D01*
X118381990Y-221877766D01*
X118381226Y-221879126D01*
X118364197Y-221895994D01*
X118335775Y-221908643D01*
X118296612Y-221916775D01*
X118287931Y-221917620D01*
X118263426Y-221918962D01*
X118228809Y-221920089D01*
X118185738Y-221921002D01*
X118135873Y-221921700D01*
X118080874Y-221922182D01*
X118022399Y-221922449D01*
X117962109Y-221922501D01*
X117901664Y-221922337D01*
X117842722Y-221921958D01*
X117786943Y-221921363D01*
X117735987Y-221920552D01*
X117691514Y-221919525D01*
X117655182Y-221918283D01*
X117628652Y-221916823D01*
X117518599Y-221906124D01*
X117419005Y-221890917D01*
X117329214Y-221870827D01*
X117248109Y-221845446D01*
X117174572Y-221814366D01*
X117107484Y-221777178D01*
X117045730Y-221733475D01*
X116988190Y-221682847D01*
X116940891Y-221632177D01*
X116901311Y-221577587D01*
X116872833Y-221521530D01*
X116854673Y-221462442D01*
X116846050Y-221398759D01*
X116845492Y-221387212D01*
X116845713Y-221381409D01*
X117347109Y-221381409D01*
X117348910Y-221421234D01*
X117363086Y-221458243D01*
X117389597Y-221492251D01*
X117404531Y-221505686D01*
X117430178Y-221522846D01*
X117461127Y-221536536D01*
X117499842Y-221547766D01*
X117548788Y-221557549D01*
X117575212Y-221561529D01*
X117630982Y-221566416D01*
X117683519Y-221566425D01*
X117730636Y-221561719D01*
X117770147Y-221552462D01*
X117799865Y-221538816D01*
X117812843Y-221526134D01*
X117823589Y-221500863D01*
X117826711Y-221466888D01*
X117822158Y-221425084D01*
X117809874Y-221376326D01*
X117804784Y-221361304D01*
X117788494Y-221327476D01*
X117767592Y-221303154D01*
X117740390Y-221286150D01*
X117731915Y-221282593D01*
X117718135Y-221278327D01*
X117701311Y-221275266D01*
X117679028Y-221273121D01*
X117648871Y-221271604D01*
X117608426Y-221270427D01*
X117603436Y-221270314D01*
X117539632Y-221270149D01*
X117487146Y-221272840D01*
X117444923Y-221278678D01*
X117411910Y-221287950D01*
X117387055Y-221300947D01*
X117369303Y-221317956D01*
X117357601Y-221339268D01*
X117347109Y-221381409D01*
X116845713Y-221381409D01*
X116847378Y-221337781D01*
X116857195Y-221291089D01*
X116875851Y-221243918D01*
X116904257Y-221193055D01*
X116905094Y-221191713D01*
X116926651Y-221156575D01*
X116941910Y-221130145D01*
X116951737Y-221110715D01*
X116956998Y-221096580D01*
X116958559Y-221086032D01*
X116956297Y-221076765D01*
X116946788Y-221058069D01*
X116931455Y-221034744D01*
X116912039Y-221009379D01*
X116890284Y-220984565D01*
X116877850Y-220970420D01*
X116845103Y-220921292D01*
X116820620Y-220864739D01*
X116805957Y-220805902D01*
X117291696Y-220805902D01*
X117296229Y-220832621D01*
X117311796Y-220859162D01*
X117339144Y-220884558D01*
X117363358Y-220900616D01*
X117401251Y-220919658D01*
X117447215Y-220936115D01*
X117453426Y-220937960D01*
X117500787Y-220947471D01*
X117545865Y-220948890D01*
X117586562Y-220942516D01*
X117620783Y-220928651D01*
X117646429Y-220907593D01*
X117661924Y-220881077D01*
X117667538Y-220849240D01*
X117662195Y-220815401D01*
X117646185Y-220781288D01*
X117619798Y-220748631D01*
X117609921Y-220739084D01*
X117582702Y-220717024D01*
X117555702Y-220703370D01*
X117524767Y-220696444D01*
X117485741Y-220694572D01*
X117454448Y-220695969D01*
X117408439Y-220703459D01*
X117368989Y-220716571D01*
X117336844Y-220734338D01*
X117312749Y-220755794D01*
X117297451Y-220779970D01*
X117291696Y-220805902D01*
X116805957Y-220805902D01*
X116805255Y-220803087D01*
X116799864Y-220738663D01*
X116799863Y-220737325D01*
X116804770Y-220672961D01*
X116819665Y-220615609D01*
X116844991Y-220564566D01*
X116881193Y-220519136D01*
X116928715Y-220478617D01*
X116988000Y-220442310D01*
X116996655Y-220437805D01*
X117041371Y-220416566D01*
X117086538Y-220398940D01*
X117134193Y-220384451D01*
X117186375Y-220372622D01*
X117245123Y-220362980D01*
X117312474Y-220355046D01*
X117390467Y-220348345D01*
X117414549Y-220346793D01*
X117460235Y-220344730D01*
X117512024Y-220343243D01*
X117567828Y-220342321D01*
X117625557Y-220341954D01*
X117683124Y-220342132D01*
X117738439Y-220342844D01*
X117789415Y-220344080D01*
X117833963Y-220345830D01*
X117869993Y-220348083D01*
X117895419Y-220350830D01*
X117919175Y-220354653D01*
X117947700Y-220360356D01*
X117967759Y-220366776D01*
X117981899Y-220375146D01*
X117992670Y-220386697D01*
X118002618Y-220402662D01*
X118003997Y-220405236D01*
X118013400Y-220426257D01*
X118025689Y-220458190D01*
X118040510Y-220499893D01*
X118057510Y-220550220D01*
X118076334Y-220608029D01*
X118096630Y-220672176D01*
X118118041Y-220741516D01*
X118140216Y-220814907D01*
X118150379Y-220849240D01*
X118162800Y-220891204D01*
X118185439Y-220969264D01*
X118207779Y-221047943D01*
X118229466Y-221126097D01*
X118250146Y-221202582D01*
X118278718Y-221311261D01*
X118306455Y-221420399D01*
X118317738Y-221466888D01*
X118330077Y-221517736D01*
X118349605Y-221603383D01*
X127651642Y-221530057D02*
X127578285Y-221530971D01*
X127578285Y-221530971D02*
X127515682Y-221532590D01*
X127515682Y-221532590D02*
X127462865Y-221534973D01*
X127462865Y-221534973D02*
X127418865Y-221538176D01*
X127418865Y-221538176D02*
X127382714Y-221542257D01*
X127382714Y-221542257D02*
X127353444Y-221547274D01*
X127353444Y-221547274D02*
X127330087Y-221553284D01*
X127330087Y-221553284D02*
X127327527Y-221554111D01*
X127327527Y-221554111D02*
X127308846Y-221561075D01*
X127308846Y-221561075D02*
X127299680Y-221567478D01*
X127299680Y-221567478D02*
X127297209Y-221575799D01*
X127297209Y-221575799D02*
X127297494Y-221580503D01*
X127297494Y-221580503D02*
X127302411Y-221597097D01*
X127302411Y-221597097D02*
X127314370Y-221618376D01*
X127314370Y-221618376D02*
X127333900Y-221644995D01*
X127333900Y-221644995D02*
X127361526Y-221677606D01*
X127361526Y-221677606D02*
X127397778Y-221716862D01*
X127397778Y-221716862D02*
X127443183Y-221763416D01*
X127443183Y-221763416D02*
X127454159Y-221774410D01*
X127454159Y-221774410D02*
X127556142Y-221872712D01*
X127556142Y-221872712D02*
X127657734Y-221963808D01*
X127657734Y-221963808D02*
X127758000Y-222046978D01*
X127758000Y-222046978D02*
X127856006Y-222121504D01*
X127856006Y-222121504D02*
X127950816Y-222186664D01*
X127950816Y-222186664D02*
X128041498Y-222241741D01*
X128041498Y-222241741D02*
X128104580Y-222275180D01*
X128104580Y-222275180D02*
X128175258Y-222309205D01*
X128175258Y-222309205D02*
X128243122Y-222339792D01*
X128243122Y-222339792D02*
X128309843Y-222367467D01*
X128309843Y-222367467D02*
X128377093Y-222392754D01*
X128377093Y-222392754D02*
X128446541Y-222416181D01*
X128446541Y-222416181D02*
X128519858Y-222438271D01*
X128519858Y-222438271D02*
X128598716Y-222459551D01*
X128598716Y-222459551D02*
X128684786Y-222480546D01*
X128684786Y-222480546D02*
X128779737Y-222501783D01*
X128779737Y-222501783D02*
X128885241Y-222523785D01*
X128885241Y-222523785D02*
X128912248Y-222529224D01*
X128912248Y-222529224D02*
X128974255Y-222541440D01*
X128974255Y-222541440D02*
X129026531Y-222551160D01*
X129026531Y-222551160D02*
X129071734Y-222558693D01*
X129071734Y-222558693D02*
X129112524Y-222564343D01*
X129112524Y-222564343D02*
X129151559Y-222568417D01*
X129151559Y-222568417D02*
X129191497Y-222571221D01*
X129191497Y-222571221D02*
X129234999Y-222573062D01*
X129234999Y-222573062D02*
X129284723Y-222574246D01*
X129284723Y-222574246D02*
X129306046Y-222574591D01*
X129306046Y-222574591D02*
X129349205Y-222575105D01*
X129349205Y-222575105D02*
X129388846Y-222575347D01*
X129388846Y-222575347D02*
X129422958Y-222575323D01*
X129422958Y-222575323D02*
X129449529Y-222575039D01*
X129449529Y-222575039D02*
X129466549Y-222574502D01*
X129466549Y-222574502D02*
X129471188Y-222574087D01*
X129471188Y-222574087D02*
X129484571Y-222572114D01*
X129484571Y-222572114D02*
X129506627Y-222569174D01*
X129506627Y-222569174D02*
X129533410Y-222565787D01*
X129533410Y-222565787D02*
X129544231Y-222564464D01*
X129544231Y-222564464D02*
X129626946Y-222551578D01*
X129626946Y-222551578D02*
X129716715Y-222532482D01*
X129716715Y-222532482D02*
X129810135Y-222508182D01*
X129810135Y-222508182D02*
X129903802Y-222479681D01*
X129903802Y-222479681D02*
X129994312Y-222447983D01*
X129994312Y-222447983D02*
X130078262Y-222414091D01*
X130078262Y-222414091D02*
X130122225Y-222394007D01*
X130122225Y-222394007D02*
X130176974Y-222365045D01*
X130176974Y-222365045D02*
X130229696Y-222331319D01*
X130229696Y-222331319D02*
X130282582Y-222291193D01*
X130282582Y-222291193D02*
X130337821Y-222243028D01*
X130337821Y-222243028D02*
X130386188Y-222196606D01*
X130386188Y-222196606D02*
X130447196Y-222133124D01*
X130447196Y-222133124D02*
X130498434Y-222073675D01*
X130498434Y-222073675D02*
X130539630Y-222018660D01*
X130539630Y-222018660D02*
X130570510Y-221968481D01*
X130570510Y-221968481D02*
X130590802Y-221923539D01*
X130590802Y-221923539D02*
X130600232Y-221884236D01*
X130600232Y-221884236D02*
X130600519Y-221881231D01*
X130600519Y-221881231D02*
X130601471Y-221861328D01*
X130601471Y-221861328D02*
X130599326Y-221849979D01*
X130599326Y-221849979D02*
X130592945Y-221843189D01*
X130592945Y-221843189D02*
X130589026Y-221840895D01*
X130589026Y-221840895D02*
X130571090Y-221836526D01*
X130571090Y-221836526D02*
X130550624Y-221838883D01*
X130550624Y-221838883D02*
X130531514Y-221846473D01*
X130531514Y-221846473D02*
X130517643Y-221857805D01*
X130517643Y-221857805D02*
X130512848Y-221870162D01*
X130512848Y-221870162D02*
X130508714Y-221878826D01*
X130508714Y-221878826D02*
X130497981Y-221892985D01*
X130497981Y-221892985D02*
X130485854Y-221906499D01*
X130485854Y-221906499D02*
X130455364Y-221934340D01*
X130455364Y-221934340D02*
X130414990Y-221965285D01*
X130414990Y-221965285D02*
X130366800Y-221998132D01*
X130366800Y-221998132D02*
X130312863Y-222031684D01*
X130312863Y-222031684D02*
X130255248Y-222064740D01*
X130255248Y-222064740D02*
X130196023Y-222096101D01*
X130196023Y-222096101D02*
X130137257Y-222124569D01*
X130137257Y-222124569D02*
X130081017Y-222148943D01*
X130081017Y-222148943D02*
X130042470Y-222163560D01*
X130042470Y-222163560D02*
X129956374Y-222188919D01*
X129956374Y-222188919D02*
X129860775Y-222208110D01*
X129860775Y-222208110D02*
X129757306Y-222221077D01*
X129757306Y-222221077D02*
X129647600Y-222227762D01*
X129647600Y-222227762D02*
X129533291Y-222228110D01*
X129533291Y-222228110D02*
X129416012Y-222222062D01*
X129416012Y-222222062D02*
X129297397Y-222209564D01*
X129297397Y-222209564D02*
X129192713Y-222193092D01*
X129192713Y-222193092D02*
X129054138Y-222164729D01*
X129054138Y-222164729D02*
X128923701Y-222131826D01*
X128923701Y-222131826D02*
X128802222Y-222094660D01*
X128802222Y-222094660D02*
X128690525Y-222053511D01*
X128690525Y-222053511D02*
X128589431Y-222008657D01*
X128589431Y-222008657D02*
X128499764Y-221960375D01*
X128499764Y-221960375D02*
X128493321Y-221956501D01*
X128493321Y-221956501D02*
X128429193Y-221915832D01*
X128429193Y-221915832D02*
X128366611Y-221872273D01*
X128366611Y-221872273D02*
X128303687Y-221824332D01*
X128303687Y-221824332D02*
X128238536Y-221770519D01*
X128238536Y-221770519D02*
X128169270Y-221709342D01*
X128169270Y-221709342D02*
X128104340Y-221649107D01*
X128104340Y-221649107D02*
X128075340Y-221621768D01*
X128075340Y-221621768D02*
X128048070Y-221596190D01*
X128048070Y-221596190D02*
X128024444Y-221574157D01*
X128024444Y-221574157D02*
X128006375Y-221557455D01*
X128006375Y-221557455D02*
X127996363Y-221548383D01*
X127996363Y-221548383D02*
X127975389Y-221529892D01*
X127975389Y-221529892D02*
X127736719Y-221529791D01*
X127736719Y-221529791D02*
X127651642Y-221530057D01*
X127651642Y-221530057D02*
X127651642Y-221530057D01*
G36*
X127975389Y-221529892D02*
G01*
X127996363Y-221548383D01*
X128006375Y-221557455D01*
X128024444Y-221574157D01*
X128048070Y-221596190D01*
X128075340Y-221621768D01*
X128104340Y-221649107D01*
X128169270Y-221709342D01*
X128238536Y-221770519D01*
X128303687Y-221824332D01*
X128366611Y-221872273D01*
X128429193Y-221915832D01*
X128493321Y-221956501D01*
X128499764Y-221960375D01*
X128589431Y-222008657D01*
X128690525Y-222053511D01*
X128802222Y-222094660D01*
X128923701Y-222131826D01*
X129054138Y-222164729D01*
X129192713Y-222193092D01*
X129297397Y-222209564D01*
X129416012Y-222222062D01*
X129533291Y-222228110D01*
X129647600Y-222227762D01*
X129757306Y-222221077D01*
X129860775Y-222208110D01*
X129956374Y-222188919D01*
X130042470Y-222163560D01*
X130081017Y-222148943D01*
X130137257Y-222124569D01*
X130196023Y-222096101D01*
X130255248Y-222064740D01*
X130312863Y-222031684D01*
X130366800Y-221998132D01*
X130414990Y-221965285D01*
X130455364Y-221934340D01*
X130485854Y-221906499D01*
X130497981Y-221892985D01*
X130508714Y-221878826D01*
X130512848Y-221870162D01*
X130517643Y-221857805D01*
X130531514Y-221846473D01*
X130550624Y-221838883D01*
X130571090Y-221836526D01*
X130589026Y-221840895D01*
X130592945Y-221843189D01*
X130599326Y-221849979D01*
X130601471Y-221861328D01*
X130600519Y-221881231D01*
X130600232Y-221884236D01*
X130590802Y-221923539D01*
X130570510Y-221968481D01*
X130539630Y-222018660D01*
X130498434Y-222073675D01*
X130447196Y-222133124D01*
X130386188Y-222196606D01*
X130337821Y-222243028D01*
X130282582Y-222291193D01*
X130229696Y-222331319D01*
X130176974Y-222365045D01*
X130122225Y-222394007D01*
X130078262Y-222414091D01*
X129994312Y-222447983D01*
X129903802Y-222479681D01*
X129810135Y-222508182D01*
X129716715Y-222532482D01*
X129626946Y-222551578D01*
X129544231Y-222564464D01*
X129533410Y-222565787D01*
X129506627Y-222569174D01*
X129484571Y-222572114D01*
X129471188Y-222574087D01*
X129466549Y-222574502D01*
X129449529Y-222575039D01*
X129422958Y-222575323D01*
X129388846Y-222575347D01*
X129349205Y-222575105D01*
X129306046Y-222574591D01*
X129284723Y-222574246D01*
X129234999Y-222573062D01*
X129191497Y-222571221D01*
X129151559Y-222568417D01*
X129112524Y-222564343D01*
X129071734Y-222558693D01*
X129026531Y-222551160D01*
X128974255Y-222541440D01*
X128912248Y-222529224D01*
X128885241Y-222523785D01*
X128779737Y-222501783D01*
X128684786Y-222480546D01*
X128598716Y-222459551D01*
X128519858Y-222438271D01*
X128446541Y-222416181D01*
X128377093Y-222392754D01*
X128309843Y-222367467D01*
X128243122Y-222339792D01*
X128175258Y-222309205D01*
X128104580Y-222275180D01*
X128041498Y-222241741D01*
X127950816Y-222186664D01*
X127856006Y-222121504D01*
X127758000Y-222046978D01*
X127657734Y-221963808D01*
X127556142Y-221872712D01*
X127454159Y-221774410D01*
X127443183Y-221763416D01*
X127397778Y-221716862D01*
X127361526Y-221677606D01*
X127333900Y-221644995D01*
X127314370Y-221618376D01*
X127302411Y-221597097D01*
X127297494Y-221580503D01*
X127297209Y-221575799D01*
X127299680Y-221567478D01*
X127308846Y-221561075D01*
X127327527Y-221554111D01*
X127330087Y-221553284D01*
X127353444Y-221547274D01*
X127382714Y-221542257D01*
X127418865Y-221538176D01*
X127462865Y-221534973D01*
X127515682Y-221532590D01*
X127578285Y-221530971D01*
X127651642Y-221530057D01*
X127736719Y-221529791D01*
X127975389Y-221529892D01*
G37*
X127975389Y-221529892D02*
X127996363Y-221548383D01*
X128006375Y-221557455D01*
X128024444Y-221574157D01*
X128048070Y-221596190D01*
X128075340Y-221621768D01*
X128104340Y-221649107D01*
X128169270Y-221709342D01*
X128238536Y-221770519D01*
X128303687Y-221824332D01*
X128366611Y-221872273D01*
X128429193Y-221915832D01*
X128493321Y-221956501D01*
X128499764Y-221960375D01*
X128589431Y-222008657D01*
X128690525Y-222053511D01*
X128802222Y-222094660D01*
X128923701Y-222131826D01*
X129054138Y-222164729D01*
X129192713Y-222193092D01*
X129297397Y-222209564D01*
X129416012Y-222222062D01*
X129533291Y-222228110D01*
X129647600Y-222227762D01*
X129757306Y-222221077D01*
X129860775Y-222208110D01*
X129956374Y-222188919D01*
X130042470Y-222163560D01*
X130081017Y-222148943D01*
X130137257Y-222124569D01*
X130196023Y-222096101D01*
X130255248Y-222064740D01*
X130312863Y-222031684D01*
X130366800Y-221998132D01*
X130414990Y-221965285D01*
X130455364Y-221934340D01*
X130485854Y-221906499D01*
X130497981Y-221892985D01*
X130508714Y-221878826D01*
X130512848Y-221870162D01*
X130517643Y-221857805D01*
X130531514Y-221846473D01*
X130550624Y-221838883D01*
X130571090Y-221836526D01*
X130589026Y-221840895D01*
X130592945Y-221843189D01*
X130599326Y-221849979D01*
X130601471Y-221861328D01*
X130600519Y-221881231D01*
X130600232Y-221884236D01*
X130590802Y-221923539D01*
X130570510Y-221968481D01*
X130539630Y-222018660D01*
X130498434Y-222073675D01*
X130447196Y-222133124D01*
X130386188Y-222196606D01*
X130337821Y-222243028D01*
X130282582Y-222291193D01*
X130229696Y-222331319D01*
X130176974Y-222365045D01*
X130122225Y-222394007D01*
X130078262Y-222414091D01*
X129994312Y-222447983D01*
X129903802Y-222479681D01*
X129810135Y-222508182D01*
X129716715Y-222532482D01*
X129626946Y-222551578D01*
X129544231Y-222564464D01*
X129533410Y-222565787D01*
X129506627Y-222569174D01*
X129484571Y-222572114D01*
X129471188Y-222574087D01*
X129466549Y-222574502D01*
X129449529Y-222575039D01*
X129422958Y-222575323D01*
X129388846Y-222575347D01*
X129349205Y-222575105D01*
X129306046Y-222574591D01*
X129284723Y-222574246D01*
X129234999Y-222573062D01*
X129191497Y-222571221D01*
X129151559Y-222568417D01*
X129112524Y-222564343D01*
X129071734Y-222558693D01*
X129026531Y-222551160D01*
X128974255Y-222541440D01*
X128912248Y-222529224D01*
X128885241Y-222523785D01*
X128779737Y-222501783D01*
X128684786Y-222480546D01*
X128598716Y-222459551D01*
X128519858Y-222438271D01*
X128446541Y-222416181D01*
X128377093Y-222392754D01*
X128309843Y-222367467D01*
X128243122Y-222339792D01*
X128175258Y-222309205D01*
X128104580Y-222275180D01*
X128041498Y-222241741D01*
X127950816Y-222186664D01*
X127856006Y-222121504D01*
X127758000Y-222046978D01*
X127657734Y-221963808D01*
X127556142Y-221872712D01*
X127454159Y-221774410D01*
X127443183Y-221763416D01*
X127397778Y-221716862D01*
X127361526Y-221677606D01*
X127333900Y-221644995D01*
X127314370Y-221618376D01*
X127302411Y-221597097D01*
X127297494Y-221580503D01*
X127297209Y-221575799D01*
X127299680Y-221567478D01*
X127308846Y-221561075D01*
X127327527Y-221554111D01*
X127330087Y-221553284D01*
X127353444Y-221547274D01*
X127382714Y-221542257D01*
X127418865Y-221538176D01*
X127462865Y-221534973D01*
X127515682Y-221532590D01*
X127578285Y-221530971D01*
X127651642Y-221530057D01*
X127736719Y-221529791D01*
X127975389Y-221529892D01*
X122262779Y-220345043D02*
X122162960Y-220354332D01*
X122162960Y-220354332D02*
X122073915Y-220369788D01*
X122073915Y-220369788D02*
X121995727Y-220391389D01*
X121995727Y-220391389D02*
X121928479Y-220419114D01*
X121928479Y-220419114D02*
X121872254Y-220452942D01*
X121872254Y-220452942D02*
X121841648Y-220478202D01*
X121841648Y-220478202D02*
X121827327Y-220495960D01*
X121827327Y-220495960D02*
X121818794Y-220517781D01*
X121818794Y-220517781D02*
X121816119Y-220544952D01*
X121816119Y-220544952D02*
X121819368Y-220578761D01*
X121819368Y-220578761D02*
X121828609Y-220620494D01*
X121828609Y-220620494D02*
X121843912Y-220671439D01*
X121843912Y-220671439D02*
X121853306Y-220699188D01*
X121853306Y-220699188D02*
X121870988Y-220747278D01*
X121870988Y-220747278D02*
X121886818Y-220784229D01*
X121886818Y-220784229D02*
X121901459Y-220811353D01*
X121901459Y-220811353D02*
X121915578Y-220829962D01*
X121915578Y-220829962D02*
X121922971Y-220836739D01*
X121922971Y-220836739D02*
X121931331Y-220843103D01*
X121931331Y-220843103D02*
X121939148Y-220847650D01*
X121939148Y-220847650D02*
X121947709Y-220849945D01*
X121947709Y-220849945D02*
X121958297Y-220849550D01*
X121958297Y-220849550D02*
X121972197Y-220846029D01*
X121972197Y-220846029D02*
X121990695Y-220838945D01*
X121990695Y-220838945D02*
X122015074Y-220827861D01*
X122015074Y-220827861D02*
X122046621Y-220812341D01*
X122046621Y-220812341D02*
X122086619Y-220791947D01*
X122086619Y-220791947D02*
X122136354Y-220766244D01*
X122136354Y-220766244D02*
X122147807Y-220760311D01*
X122147807Y-220760311D02*
X122207987Y-220732202D01*
X122207987Y-220732202D02*
X122264735Y-220712806D01*
X122264735Y-220712806D02*
X122322395Y-220701081D01*
X122322395Y-220701081D02*
X122385314Y-220695985D01*
X122385314Y-220695985D02*
X122417749Y-220695583D01*
X122417749Y-220695583D02*
X122460776Y-220696487D01*
X122460776Y-220696487D02*
X122495122Y-220698975D01*
X122495122Y-220698975D02*
X122524755Y-220703463D01*
X122524755Y-220703463D02*
X122550359Y-220709471D01*
X122550359Y-220709471D02*
X122627674Y-220736469D01*
X122627674Y-220736469D02*
X122697628Y-220773661D01*
X122697628Y-220773661D02*
X122759810Y-220820604D01*
X122759810Y-220820604D02*
X122813813Y-220876861D01*
X122813813Y-220876861D02*
X122859226Y-220941991D01*
X122859226Y-220941991D02*
X122895639Y-221015554D01*
X122895639Y-221015554D02*
X122922643Y-221097111D01*
X122922643Y-221097111D02*
X122926720Y-221113660D01*
X122926720Y-221113660D02*
X122932829Y-221148534D01*
X122932829Y-221148534D02*
X122936934Y-221190115D01*
X122936934Y-221190115D02*
X122939034Y-221235243D01*
X122939034Y-221235243D02*
X122939129Y-221280756D01*
X122939129Y-221280756D02*
X122937219Y-221323494D01*
X122937219Y-221323494D02*
X122933304Y-221360296D01*
X122933304Y-221360296D02*
X122927384Y-221388002D01*
X122927384Y-221388002D02*
X122926748Y-221389954D01*
X122926748Y-221389954D02*
X122901301Y-221448174D01*
X122901301Y-221448174D02*
X122867830Y-221496666D01*
X122867830Y-221496666D02*
X122826569Y-221535356D01*
X122826569Y-221535356D02*
X122777750Y-221564172D01*
X122777750Y-221564172D02*
X122721606Y-221583038D01*
X122721606Y-221583038D02*
X122658371Y-221591880D01*
X122658371Y-221591880D02*
X122588279Y-221590626D01*
X122588279Y-221590626D02*
X122511561Y-221579200D01*
X122511561Y-221579200D02*
X122428453Y-221557529D01*
X122428453Y-221557529D02*
X122413552Y-221552770D01*
X122413552Y-221552770D02*
X122355248Y-221532247D01*
X122355248Y-221532247D02*
X122306455Y-221512078D01*
X122306455Y-221512078D02*
X122268166Y-221492719D01*
X122268166Y-221492719D02*
X122241372Y-221474623D01*
X122241372Y-221474623D02*
X122239467Y-221472992D01*
X122239467Y-221472992D02*
X122212326Y-221455017D01*
X122212326Y-221455017D02*
X122179293Y-221444556D01*
X122179293Y-221444556D02*
X122137808Y-221440834D01*
X122137808Y-221440834D02*
X122133312Y-221440802D01*
X122133312Y-221440802D02*
X122098166Y-221443637D01*
X122098166Y-221443637D02*
X122071274Y-221451816D01*
X122071274Y-221451816D02*
X122054109Y-221464742D01*
X122054109Y-221464742D02*
X122048936Y-221475117D01*
X122048936Y-221475117D02*
X122048815Y-221490735D01*
X122048815Y-221490735D02*
X122053067Y-221515633D01*
X122053067Y-221515633D02*
X122060934Y-221547470D01*
X122060934Y-221547470D02*
X122071658Y-221583905D01*
X122071658Y-221583905D02*
X122084482Y-221622596D01*
X122084482Y-221622596D02*
X122098648Y-221661201D01*
X122098648Y-221661201D02*
X122113400Y-221697381D01*
X122113400Y-221697381D02*
X122127979Y-221728793D01*
X122127979Y-221728793D02*
X122135686Y-221743253D01*
X122135686Y-221743253D02*
X122154293Y-221771483D01*
X122154293Y-221771483D02*
X122176916Y-221796775D01*
X122176916Y-221796775D02*
X122204704Y-221819717D01*
X122204704Y-221819717D02*
X122238805Y-221840896D01*
X122238805Y-221840896D02*
X122280367Y-221860901D01*
X122280367Y-221860901D02*
X122330539Y-221880319D01*
X122330539Y-221880319D02*
X122390470Y-221899739D01*
X122390470Y-221899739D02*
X122461309Y-221919750D01*
X122461309Y-221919750D02*
X122500320Y-221929940D01*
X122500320Y-221929940D02*
X122571052Y-221946466D01*
X122571052Y-221946466D02*
X122633340Y-221957438D01*
X122633340Y-221957438D02*
X122690011Y-221963163D01*
X122690011Y-221963163D02*
X122743893Y-221963949D01*
X122743893Y-221963949D02*
X122787720Y-221961148D01*
X122787720Y-221961148D02*
X122886796Y-221946691D01*
X122886796Y-221946691D02*
X122981313Y-221923192D01*
X122981313Y-221923192D02*
X123070047Y-221891198D01*
X123070047Y-221891198D02*
X123151774Y-221851256D01*
X123151774Y-221851256D02*
X123225268Y-221803912D01*
X123225268Y-221803912D02*
X123289305Y-221749714D01*
X123289305Y-221749714D02*
X123310635Y-221727728D01*
X123310635Y-221727728D02*
X123359906Y-221664921D01*
X123359906Y-221664921D02*
X123398755Y-221596102D01*
X123398755Y-221596102D02*
X123427422Y-221522170D01*
X123427422Y-221522170D02*
X123446146Y-221444018D01*
X123446146Y-221444018D02*
X123455167Y-221362544D01*
X123455167Y-221362544D02*
X123454724Y-221278642D01*
X123454724Y-221278642D02*
X123445059Y-221193209D01*
X123445059Y-221193209D02*
X123426409Y-221107140D01*
X123426409Y-221107140D02*
X123399015Y-221021332D01*
X123399015Y-221021332D02*
X123363118Y-220936680D01*
X123363118Y-220936680D02*
X123318955Y-220854080D01*
X123318955Y-220854080D02*
X123266768Y-220774428D01*
X123266768Y-220774428D02*
X123206795Y-220698619D01*
X123206795Y-220698619D02*
X123139277Y-220627550D01*
X123139277Y-220627550D02*
X123064453Y-220562116D01*
X123064453Y-220562116D02*
X122983040Y-220503522D01*
X122983040Y-220503522D02*
X122908441Y-220458747D01*
X122908441Y-220458747D02*
X122834288Y-220422069D01*
X122834288Y-220422069D02*
X122758638Y-220392973D01*
X122758638Y-220392973D02*
X122679548Y-220370945D01*
X122679548Y-220370945D02*
X122595076Y-220355470D01*
X122595076Y-220355470D02*
X122503278Y-220346033D01*
X122503278Y-220346033D02*
X122402212Y-220342119D01*
X122402212Y-220342119D02*
X122373288Y-220341942D01*
X122373288Y-220341942D02*
X122262779Y-220345043D01*
X122262779Y-220345043D02*
X122262779Y-220345043D01*
G36*
X122402212Y-220342119D02*
G01*
X122503278Y-220346033D01*
X122595076Y-220355470D01*
X122679548Y-220370945D01*
X122758638Y-220392973D01*
X122834288Y-220422069D01*
X122908441Y-220458747D01*
X122983040Y-220503522D01*
X123064453Y-220562116D01*
X123139277Y-220627550D01*
X123206795Y-220698619D01*
X123266768Y-220774428D01*
X123318955Y-220854080D01*
X123363118Y-220936680D01*
X123399015Y-221021332D01*
X123426409Y-221107140D01*
X123445059Y-221193209D01*
X123454724Y-221278642D01*
X123455167Y-221362544D01*
X123446146Y-221444018D01*
X123427422Y-221522170D01*
X123398755Y-221596102D01*
X123359906Y-221664921D01*
X123310635Y-221727728D01*
X123289305Y-221749714D01*
X123225268Y-221803912D01*
X123151774Y-221851256D01*
X123070047Y-221891198D01*
X122981313Y-221923192D01*
X122886796Y-221946691D01*
X122787720Y-221961148D01*
X122743893Y-221963949D01*
X122690011Y-221963163D01*
X122633340Y-221957438D01*
X122571052Y-221946466D01*
X122500320Y-221929940D01*
X122461309Y-221919750D01*
X122390470Y-221899739D01*
X122330539Y-221880319D01*
X122280367Y-221860901D01*
X122238805Y-221840896D01*
X122204704Y-221819717D01*
X122176916Y-221796775D01*
X122154293Y-221771483D01*
X122135686Y-221743253D01*
X122127979Y-221728793D01*
X122113400Y-221697381D01*
X122098648Y-221661201D01*
X122084482Y-221622596D01*
X122071658Y-221583905D01*
X122060934Y-221547470D01*
X122053067Y-221515633D01*
X122048815Y-221490735D01*
X122048936Y-221475117D01*
X122054109Y-221464742D01*
X122071274Y-221451816D01*
X122098166Y-221443637D01*
X122133312Y-221440802D01*
X122137808Y-221440834D01*
X122179293Y-221444556D01*
X122212326Y-221455017D01*
X122239467Y-221472992D01*
X122241372Y-221474623D01*
X122268166Y-221492719D01*
X122306455Y-221512078D01*
X122355248Y-221532247D01*
X122413552Y-221552770D01*
X122428453Y-221557529D01*
X122511561Y-221579200D01*
X122588279Y-221590626D01*
X122658371Y-221591880D01*
X122721606Y-221583038D01*
X122777750Y-221564172D01*
X122826569Y-221535356D01*
X122867830Y-221496666D01*
X122901301Y-221448174D01*
X122926748Y-221389954D01*
X122927384Y-221388002D01*
X122933304Y-221360296D01*
X122937219Y-221323494D01*
X122939129Y-221280756D01*
X122939034Y-221235243D01*
X122936934Y-221190115D01*
X122932829Y-221148534D01*
X122926720Y-221113660D01*
X122922643Y-221097111D01*
X122895639Y-221015554D01*
X122859226Y-220941991D01*
X122813813Y-220876861D01*
X122759810Y-220820604D01*
X122697628Y-220773661D01*
X122627674Y-220736469D01*
X122550359Y-220709471D01*
X122524755Y-220703463D01*
X122495122Y-220698975D01*
X122460776Y-220696487D01*
X122417749Y-220695583D01*
X122385314Y-220695985D01*
X122322395Y-220701081D01*
X122264735Y-220712806D01*
X122207987Y-220732202D01*
X122147807Y-220760311D01*
X122136354Y-220766244D01*
X122086619Y-220791947D01*
X122046621Y-220812341D01*
X122015074Y-220827861D01*
X121990695Y-220838945D01*
X121972197Y-220846029D01*
X121958297Y-220849550D01*
X121947709Y-220849945D01*
X121939148Y-220847650D01*
X121931331Y-220843103D01*
X121922971Y-220836739D01*
X121915578Y-220829962D01*
X121901459Y-220811353D01*
X121886818Y-220784229D01*
X121870988Y-220747278D01*
X121853306Y-220699188D01*
X121843912Y-220671439D01*
X121828609Y-220620494D01*
X121819368Y-220578761D01*
X121816119Y-220544952D01*
X121818794Y-220517781D01*
X121827327Y-220495960D01*
X121841648Y-220478202D01*
X121872254Y-220452942D01*
X121928479Y-220419114D01*
X121995727Y-220391389D01*
X122073915Y-220369788D01*
X122162960Y-220354332D01*
X122262779Y-220345043D01*
X122373288Y-220341942D01*
X122402212Y-220342119D01*
G37*
X122402212Y-220342119D02*
X122503278Y-220346033D01*
X122595076Y-220355470D01*
X122679548Y-220370945D01*
X122758638Y-220392973D01*
X122834288Y-220422069D01*
X122908441Y-220458747D01*
X122983040Y-220503522D01*
X123064453Y-220562116D01*
X123139277Y-220627550D01*
X123206795Y-220698619D01*
X123266768Y-220774428D01*
X123318955Y-220854080D01*
X123363118Y-220936680D01*
X123399015Y-221021332D01*
X123426409Y-221107140D01*
X123445059Y-221193209D01*
X123454724Y-221278642D01*
X123455167Y-221362544D01*
X123446146Y-221444018D01*
X123427422Y-221522170D01*
X123398755Y-221596102D01*
X123359906Y-221664921D01*
X123310635Y-221727728D01*
X123289305Y-221749714D01*
X123225268Y-221803912D01*
X123151774Y-221851256D01*
X123070047Y-221891198D01*
X122981313Y-221923192D01*
X122886796Y-221946691D01*
X122787720Y-221961148D01*
X122743893Y-221963949D01*
X122690011Y-221963163D01*
X122633340Y-221957438D01*
X122571052Y-221946466D01*
X122500320Y-221929940D01*
X122461309Y-221919750D01*
X122390470Y-221899739D01*
X122330539Y-221880319D01*
X122280367Y-221860901D01*
X122238805Y-221840896D01*
X122204704Y-221819717D01*
X122176916Y-221796775D01*
X122154293Y-221771483D01*
X122135686Y-221743253D01*
X122127979Y-221728793D01*
X122113400Y-221697381D01*
X122098648Y-221661201D01*
X122084482Y-221622596D01*
X122071658Y-221583905D01*
X122060934Y-221547470D01*
X122053067Y-221515633D01*
X122048815Y-221490735D01*
X122048936Y-221475117D01*
X122054109Y-221464742D01*
X122071274Y-221451816D01*
X122098166Y-221443637D01*
X122133312Y-221440802D01*
X122137808Y-221440834D01*
X122179293Y-221444556D01*
X122212326Y-221455017D01*
X122239467Y-221472992D01*
X122241372Y-221474623D01*
X122268166Y-221492719D01*
X122306455Y-221512078D01*
X122355248Y-221532247D01*
X122413552Y-221552770D01*
X122428453Y-221557529D01*
X122511561Y-221579200D01*
X122588279Y-221590626D01*
X122658371Y-221591880D01*
X122721606Y-221583038D01*
X122777750Y-221564172D01*
X122826569Y-221535356D01*
X122867830Y-221496666D01*
X122901301Y-221448174D01*
X122926748Y-221389954D01*
X122927384Y-221388002D01*
X122933304Y-221360296D01*
X122937219Y-221323494D01*
X122939129Y-221280756D01*
X122939034Y-221235243D01*
X122936934Y-221190115D01*
X122932829Y-221148534D01*
X122926720Y-221113660D01*
X122922643Y-221097111D01*
X122895639Y-221015554D01*
X122859226Y-220941991D01*
X122813813Y-220876861D01*
X122759810Y-220820604D01*
X122697628Y-220773661D01*
X122627674Y-220736469D01*
X122550359Y-220709471D01*
X122524755Y-220703463D01*
X122495122Y-220698975D01*
X122460776Y-220696487D01*
X122417749Y-220695583D01*
X122385314Y-220695985D01*
X122322395Y-220701081D01*
X122264735Y-220712806D01*
X122207987Y-220732202D01*
X122147807Y-220760311D01*
X122136354Y-220766244D01*
X122086619Y-220791947D01*
X122046621Y-220812341D01*
X122015074Y-220827861D01*
X121990695Y-220838945D01*
X121972197Y-220846029D01*
X121958297Y-220849550D01*
X121947709Y-220849945D01*
X121939148Y-220847650D01*
X121931331Y-220843103D01*
X121922971Y-220836739D01*
X121915578Y-220829962D01*
X121901459Y-220811353D01*
X121886818Y-220784229D01*
X121870988Y-220747278D01*
X121853306Y-220699188D01*
X121843912Y-220671439D01*
X121828609Y-220620494D01*
X121819368Y-220578761D01*
X121816119Y-220544952D01*
X121818794Y-220517781D01*
X121827327Y-220495960D01*
X121841648Y-220478202D01*
X121872254Y-220452942D01*
X121928479Y-220419114D01*
X121995727Y-220391389D01*
X122073915Y-220369788D01*
X122162960Y-220354332D01*
X122262779Y-220345043D01*
X122373288Y-220341942D01*
X122402212Y-220342119D01*
X129858051Y-220475625D02*
X129839861Y-220476853D01*
X129839861Y-220476853D02*
X129829066Y-220479508D01*
X129829066Y-220479508D02*
X129823017Y-220484086D01*
X129823017Y-220484086D02*
X129820748Y-220487611D01*
X129820748Y-220487611D02*
X129815239Y-220508480D01*
X129815239Y-220508480D02*
X129815125Y-220539465D01*
X129815125Y-220539465D02*
X129820372Y-220579196D01*
X129820372Y-220579196D02*
X129823278Y-220594002D01*
X129823278Y-220594002D02*
X129828460Y-220620425D01*
X129828460Y-220620425D02*
X129835082Y-220656883D01*
X129835082Y-220656883D02*
X129842728Y-220700846D01*
X129842728Y-220700846D02*
X129850982Y-220749780D01*
X129850982Y-220749780D02*
X129859428Y-220801156D01*
X129859428Y-220801156D02*
X129867650Y-220852442D01*
X129867650Y-220852442D02*
X129875233Y-220901106D01*
X129875233Y-220901106D02*
X129881760Y-220944617D01*
X129881760Y-220944617D02*
X129886816Y-220980443D01*
X129886816Y-220980443D02*
X129887088Y-220982473D01*
X129887088Y-220982473D02*
X129903225Y-221068857D01*
X129903225Y-221068857D02*
X129927569Y-221146171D01*
X129927569Y-221146171D02*
X129960459Y-221215320D01*
X129960459Y-221215320D02*
X129993696Y-221266098D01*
X129993696Y-221266098D02*
X130028714Y-221309862D01*
X130028714Y-221309862D02*
X130062102Y-221344210D01*
X130062102Y-221344210D02*
X130096719Y-221371609D01*
X130096719Y-221371609D02*
X130135430Y-221394525D01*
X130135430Y-221394525D02*
X130152334Y-221402818D01*
X130152334Y-221402818D02*
X130210366Y-221423808D01*
X130210366Y-221423808D02*
X130275365Y-221436418D01*
X130275365Y-221436418D02*
X130344514Y-221440368D01*
X130344514Y-221440368D02*
X130414995Y-221435378D01*
X130414995Y-221435378D02*
X130439805Y-221431403D01*
X130439805Y-221431403D02*
X130498467Y-221416523D01*
X130498467Y-221416523D02*
X130546464Y-221395397D01*
X130546464Y-221395397D02*
X130584362Y-221367714D01*
X130584362Y-221367714D02*
X130609568Y-221338043D01*
X130609568Y-221338043D02*
X130623733Y-221309928D01*
X130623733Y-221309928D02*
X130625976Y-221283854D01*
X130625976Y-221283854D02*
X130616261Y-221257376D01*
X130616261Y-221257376D02*
X130608171Y-221244943D01*
X130608171Y-221244943D02*
X130581347Y-221214696D01*
X130581347Y-221214696D02*
X130551163Y-221195040D01*
X130551163Y-221195040D02*
X130514650Y-221184370D01*
X130514650Y-221184370D02*
X130491253Y-221181779D01*
X130491253Y-221181779D02*
X130440838Y-221183291D01*
X130440838Y-221183291D02*
X130395826Y-221195324D01*
X130395826Y-221195324D02*
X130353395Y-221218718D01*
X130353395Y-221218718D02*
X130343944Y-221225611D01*
X130343944Y-221225611D02*
X130325490Y-221238485D01*
X130325490Y-221238485D02*
X130309790Y-221247392D01*
X130309790Y-221247392D02*
X130301292Y-221250219D01*
X130301292Y-221250219D02*
X130285706Y-221244482D01*
X130285706Y-221244482D02*
X130267392Y-221228341D01*
X130267392Y-221228341D02*
X130247758Y-221203403D01*
X130247758Y-221203403D02*
X130228214Y-221171276D01*
X130228214Y-221171276D02*
X130222543Y-221160406D01*
X130222543Y-221160406D02*
X130203726Y-221117923D01*
X130203726Y-221117923D02*
X130184909Y-221065121D01*
X130184909Y-221065121D02*
X130165911Y-221001395D01*
X130165911Y-221001395D02*
X130146553Y-220926143D01*
X130146553Y-220926143D02*
X130128298Y-220846349D01*
X130128298Y-220846349D02*
X130118094Y-220800290D01*
X130118094Y-220800290D02*
X130106319Y-220748391D01*
X130106319Y-220748391D02*
X130094248Y-220696197D01*
X130094248Y-220696197D02*
X130083154Y-220649258D01*
X130083154Y-220649258D02*
X130080271Y-220637291D01*
X130080271Y-220637291D02*
X130070961Y-220599362D01*
X130070961Y-220599362D02*
X130063672Y-220571658D01*
X130063672Y-220571658D02*
X130057561Y-220552028D01*
X130057561Y-220552028D02*
X130051781Y-220538321D01*
X130051781Y-220538321D02*
X130045487Y-220528387D01*
X130045487Y-220528387D02*
X130037835Y-220520075D01*
X130037835Y-220520075D02*
X130032181Y-220514919D01*
X130032181Y-220514919D02*
X130004604Y-220496184D01*
X130004604Y-220496184D02*
X129970457Y-220483689D01*
X129970457Y-220483689D02*
X129927895Y-220476934D01*
X129927895Y-220476934D02*
X129886287Y-220475325D01*
X129886287Y-220475325D02*
X129858051Y-220475625D01*
X129858051Y-220475625D02*
X129858051Y-220475625D01*
G36*
X129927895Y-220476934D02*
G01*
X129970457Y-220483689D01*
X130004604Y-220496184D01*
X130032181Y-220514919D01*
X130037835Y-220520075D01*
X130045487Y-220528387D01*
X130051781Y-220538321D01*
X130057561Y-220552028D01*
X130063672Y-220571658D01*
X130070961Y-220599362D01*
X130080271Y-220637291D01*
X130083154Y-220649258D01*
X130094248Y-220696197D01*
X130106319Y-220748391D01*
X130118094Y-220800290D01*
X130128298Y-220846349D01*
X130146553Y-220926143D01*
X130165911Y-221001395D01*
X130184909Y-221065121D01*
X130203726Y-221117923D01*
X130222543Y-221160406D01*
X130228214Y-221171276D01*
X130247758Y-221203403D01*
X130267392Y-221228341D01*
X130285706Y-221244482D01*
X130301292Y-221250219D01*
X130309790Y-221247392D01*
X130325490Y-221238485D01*
X130343944Y-221225611D01*
X130353395Y-221218718D01*
X130395826Y-221195324D01*
X130440838Y-221183291D01*
X130491253Y-221181779D01*
X130514650Y-221184370D01*
X130551163Y-221195040D01*
X130581347Y-221214696D01*
X130608171Y-221244943D01*
X130616261Y-221257376D01*
X130625976Y-221283854D01*
X130623733Y-221309928D01*
X130609568Y-221338043D01*
X130584362Y-221367714D01*
X130546464Y-221395397D01*
X130498467Y-221416523D01*
X130439805Y-221431403D01*
X130414995Y-221435378D01*
X130344514Y-221440368D01*
X130275365Y-221436418D01*
X130210366Y-221423808D01*
X130152334Y-221402818D01*
X130135430Y-221394525D01*
X130096719Y-221371609D01*
X130062102Y-221344210D01*
X130028714Y-221309862D01*
X129993696Y-221266098D01*
X129960459Y-221215320D01*
X129927569Y-221146171D01*
X129903225Y-221068857D01*
X129887088Y-220982473D01*
X129886816Y-220980443D01*
X129881760Y-220944617D01*
X129875233Y-220901106D01*
X129867650Y-220852442D01*
X129859428Y-220801156D01*
X129850982Y-220749780D01*
X129842728Y-220700846D01*
X129835082Y-220656883D01*
X129828460Y-220620425D01*
X129823278Y-220594002D01*
X129820372Y-220579196D01*
X129815125Y-220539465D01*
X129815239Y-220508480D01*
X129820748Y-220487611D01*
X129823017Y-220484086D01*
X129829066Y-220479508D01*
X129839861Y-220476853D01*
X129858051Y-220475625D01*
X129886287Y-220475325D01*
X129927895Y-220476934D01*
G37*
X129927895Y-220476934D02*
X129970457Y-220483689D01*
X130004604Y-220496184D01*
X130032181Y-220514919D01*
X130037835Y-220520075D01*
X130045487Y-220528387D01*
X130051781Y-220538321D01*
X130057561Y-220552028D01*
X130063672Y-220571658D01*
X130070961Y-220599362D01*
X130080271Y-220637291D01*
X130083154Y-220649258D01*
X130094248Y-220696197D01*
X130106319Y-220748391D01*
X130118094Y-220800290D01*
X130128298Y-220846349D01*
X130146553Y-220926143D01*
X130165911Y-221001395D01*
X130184909Y-221065121D01*
X130203726Y-221117923D01*
X130222543Y-221160406D01*
X130228214Y-221171276D01*
X130247758Y-221203403D01*
X130267392Y-221228341D01*
X130285706Y-221244482D01*
X130301292Y-221250219D01*
X130309790Y-221247392D01*
X130325490Y-221238485D01*
X130343944Y-221225611D01*
X130353395Y-221218718D01*
X130395826Y-221195324D01*
X130440838Y-221183291D01*
X130491253Y-221181779D01*
X130514650Y-221184370D01*
X130551163Y-221195040D01*
X130581347Y-221214696D01*
X130608171Y-221244943D01*
X130616261Y-221257376D01*
X130625976Y-221283854D01*
X130623733Y-221309928D01*
X130609568Y-221338043D01*
X130584362Y-221367714D01*
X130546464Y-221395397D01*
X130498467Y-221416523D01*
X130439805Y-221431403D01*
X130414995Y-221435378D01*
X130344514Y-221440368D01*
X130275365Y-221436418D01*
X130210366Y-221423808D01*
X130152334Y-221402818D01*
X130135430Y-221394525D01*
X130096719Y-221371609D01*
X130062102Y-221344210D01*
X130028714Y-221309862D01*
X129993696Y-221266098D01*
X129960459Y-221215320D01*
X129927569Y-221146171D01*
X129903225Y-221068857D01*
X129887088Y-220982473D01*
X129886816Y-220980443D01*
X129881760Y-220944617D01*
X129875233Y-220901106D01*
X129867650Y-220852442D01*
X129859428Y-220801156D01*
X129850982Y-220749780D01*
X129842728Y-220700846D01*
X129835082Y-220656883D01*
X129828460Y-220620425D01*
X129823278Y-220594002D01*
X129820372Y-220579196D01*
X129815125Y-220539465D01*
X129815239Y-220508480D01*
X129820748Y-220487611D01*
X129823017Y-220484086D01*
X129829066Y-220479508D01*
X129839861Y-220476853D01*
X129858051Y-220475625D01*
X129886287Y-220475325D01*
X129927895Y-220476934D01*
X125296663Y-220343992D02*
X125251466Y-220345510D01*
X125251466Y-220345510D02*
X125213159Y-220348041D01*
X125213159Y-220348041D02*
X125183794Y-220351620D01*
X125183794Y-220351620D02*
X125167987Y-220355307D01*
X125167987Y-220355307D02*
X125149403Y-220364813D01*
X125149403Y-220364813D02*
X125128278Y-220380162D01*
X125128278Y-220380162D02*
X125114744Y-220392525D01*
X125114744Y-220392525D02*
X125086908Y-220421059D01*
X125086908Y-220421059D02*
X125091179Y-220487121D01*
X125091179Y-220487121D02*
X125093652Y-220518099D01*
X125093652Y-220518099D02*
X125097237Y-220549409D01*
X125097237Y-220549409D02*
X125102273Y-220582777D01*
X125102273Y-220582777D02*
X125109099Y-220619930D01*
X125109099Y-220619930D02*
X125118054Y-220662595D01*
X125118054Y-220662595D02*
X125129478Y-220712499D01*
X125129478Y-220712499D02*
X125143708Y-220771369D01*
X125143708Y-220771369D02*
X125158975Y-220832571D01*
X125158975Y-220832571D02*
X125182000Y-220922156D01*
X125182000Y-220922156D02*
X125205877Y-221011710D01*
X125205877Y-221011710D02*
X125230194Y-221099866D01*
X125230194Y-221099866D02*
X125254539Y-221185256D01*
X125254539Y-221185256D02*
X125278504Y-221266512D01*
X125278504Y-221266512D02*
X125301676Y-221342268D01*
X125301676Y-221342268D02*
X125323645Y-221411156D01*
X125323645Y-221411156D02*
X125344000Y-221471808D01*
X125344000Y-221471808D02*
X125362331Y-221522857D01*
X125362331Y-221522857D02*
X125378227Y-221562935D01*
X125378227Y-221562935D02*
X125378644Y-221563911D01*
X125378644Y-221563911D02*
X125408918Y-221623247D01*
X125408918Y-221623247D02*
X125447440Y-221677748D01*
X125447440Y-221677748D02*
X125496309Y-221730344D01*
X125496309Y-221730344D02*
X125501377Y-221735170D01*
X125501377Y-221735170D02*
X125563792Y-221786602D01*
X125563792Y-221786602D02*
X125635030Y-221831258D01*
X125635030Y-221831258D02*
X125715742Y-221869447D01*
X125715742Y-221869447D02*
X125806582Y-221901478D01*
X125806582Y-221901478D02*
X125907947Y-221927604D01*
X125907947Y-221927604D02*
X125937148Y-221933544D01*
X125937148Y-221933544D02*
X125964467Y-221937967D01*
X125964467Y-221937967D02*
X125992895Y-221941146D01*
X125992895Y-221941146D02*
X126025421Y-221943353D01*
X126025421Y-221943353D02*
X126065035Y-221944859D01*
X126065035Y-221944859D02*
X126108022Y-221945820D01*
X126108022Y-221945820D02*
X126150106Y-221946248D01*
X126150106Y-221946248D02*
X126190763Y-221946063D01*
X126190763Y-221946063D02*
X126227179Y-221945321D01*
X126227179Y-221945321D02*
X126256542Y-221944080D01*
X126256542Y-221944080D02*
X126276040Y-221942397D01*
X126276040Y-221942397D02*
X126276136Y-221942384D01*
X126276136Y-221942384D02*
X126320030Y-221935355D01*
X126320030Y-221935355D02*
X126360694Y-221927131D01*
X126360694Y-221927131D02*
X126395612Y-221918329D01*
X126395612Y-221918329D02*
X126422266Y-221909565D01*
X126422266Y-221909565D02*
X126435248Y-221903432D01*
X126435248Y-221903432D02*
X126452204Y-221890207D01*
X126452204Y-221890207D02*
X126463459Y-221873442D01*
X126463459Y-221873442D02*
X126469534Y-221851048D01*
X126469534Y-221851048D02*
X126470952Y-221820937D01*
X126470952Y-221820937D02*
X126468233Y-221781020D01*
X126468233Y-221781020D02*
X126467519Y-221774225D01*
X126467519Y-221774225D02*
X126459857Y-221716981D01*
X126459857Y-221716981D02*
X126449718Y-221670004D01*
X126449718Y-221670004D02*
X126435951Y-221632455D01*
X126435951Y-221632455D02*
X126417406Y-221603496D01*
X126417406Y-221603496D02*
X126392934Y-221582288D01*
X126392934Y-221582288D02*
X126361382Y-221567992D01*
X126361382Y-221567992D02*
X126321601Y-221559770D01*
X126321601Y-221559770D02*
X126272441Y-221556784D01*
X126272441Y-221556784D02*
X126212752Y-221558193D01*
X126212752Y-221558193D02*
X126174470Y-221560578D01*
X126174470Y-221560578D02*
X126116330Y-221563883D01*
X126116330Y-221563883D02*
X126068494Y-221564442D01*
X126068494Y-221564442D02*
X126028818Y-221562035D01*
X126028818Y-221562035D02*
X125995157Y-221556440D01*
X125995157Y-221556440D02*
X125965365Y-221547435D01*
X125965365Y-221547435D02*
X125940544Y-221536464D01*
X125940544Y-221536464D02*
X125906026Y-221514801D01*
X125906026Y-221514801D02*
X125874413Y-221485684D01*
X125874413Y-221485684D02*
X125845067Y-221448128D01*
X125845067Y-221448128D02*
X125817353Y-221401148D01*
X125817353Y-221401148D02*
X125790637Y-221343761D01*
X125790637Y-221343761D02*
X125764282Y-221274982D01*
X125764282Y-221274982D02*
X125755758Y-221250219D01*
X125755758Y-221250219D02*
X125746164Y-221220257D01*
X125746164Y-221220257D02*
X125734909Y-221182762D01*
X125734909Y-221182762D02*
X125722453Y-221139491D01*
X125722453Y-221139491D02*
X125709256Y-221092200D01*
X125709256Y-221092200D02*
X125695777Y-221042646D01*
X125695777Y-221042646D02*
X125682476Y-220992584D01*
X125682476Y-220992584D02*
X125669813Y-220943771D01*
X125669813Y-220943771D02*
X125658249Y-220897963D01*
X125658249Y-220897963D02*
X125648242Y-220856917D01*
X125648242Y-220856917D02*
X125640253Y-220822387D01*
X125640253Y-220822387D02*
X125634742Y-220796132D01*
X125634742Y-220796132D02*
X125632167Y-220779906D01*
X125632167Y-220779906D02*
X125632038Y-220777691D01*
X125632038Y-220777691D02*
X125632342Y-220766863D01*
X125632342Y-220766863D02*
X125634764Y-220757916D01*
X125634764Y-220757916D02*
X125640990Y-220748855D01*
X125640990Y-220748855D02*
X125652704Y-220737682D01*
X125652704Y-220737682D02*
X125671592Y-220722400D01*
X125671592Y-220722400D02*
X125691993Y-220706648D01*
X125691993Y-220706648D02*
X125725728Y-220679980D01*
X125725728Y-220679980D02*
X125750265Y-220658346D01*
X125750265Y-220658346D02*
X125767090Y-220639908D01*
X125767090Y-220639908D02*
X125777690Y-220622829D01*
X125777690Y-220622829D02*
X125783551Y-220605272D01*
X125783551Y-220605272D02*
X125785718Y-220590835D01*
X125785718Y-220590835D02*
X125785109Y-220560322D01*
X125785109Y-220560322D02*
X125778887Y-220524697D01*
X125778887Y-220524697D02*
X125768208Y-220487138D01*
X125768208Y-220487138D02*
X125754229Y-220450825D01*
X125754229Y-220450825D02*
X125738108Y-220418937D01*
X125738108Y-220418937D02*
X125721001Y-220394654D01*
X125721001Y-220394654D02*
X125710837Y-220385123D01*
X125710837Y-220385123D02*
X125695435Y-220376700D01*
X125695435Y-220376700D02*
X125673667Y-220368134D01*
X125673667Y-220368134D02*
X125660025Y-220363962D01*
X125660025Y-220363962D02*
X125633584Y-220358681D01*
X125633584Y-220358681D02*
X125597616Y-220354123D01*
X125597616Y-220354123D02*
X125554174Y-220350324D01*
X125554174Y-220350324D02*
X125505309Y-220347322D01*
X125505309Y-220347322D02*
X125453073Y-220345151D01*
X125453073Y-220345151D02*
X125399519Y-220343849D01*
X125399519Y-220343849D02*
X125346698Y-220343450D01*
X125346698Y-220343450D02*
X125296663Y-220343992D01*
X125296663Y-220343992D02*
X125296663Y-220343992D01*
G36*
X125399519Y-220343849D02*
G01*
X125453073Y-220345151D01*
X125505309Y-220347322D01*
X125554174Y-220350324D01*
X125597616Y-220354123D01*
X125633584Y-220358681D01*
X125660025Y-220363962D01*
X125673667Y-220368134D01*
X125695435Y-220376700D01*
X125710837Y-220385123D01*
X125721001Y-220394654D01*
X125738108Y-220418937D01*
X125754229Y-220450825D01*
X125768208Y-220487138D01*
X125778887Y-220524697D01*
X125785109Y-220560322D01*
X125785718Y-220590835D01*
X125783551Y-220605272D01*
X125777690Y-220622829D01*
X125767090Y-220639908D01*
X125750265Y-220658346D01*
X125725728Y-220679980D01*
X125691993Y-220706648D01*
X125671592Y-220722400D01*
X125652704Y-220737682D01*
X125640990Y-220748855D01*
X125634764Y-220757916D01*
X125632342Y-220766863D01*
X125632038Y-220777691D01*
X125632167Y-220779906D01*
X125634742Y-220796132D01*
X125640253Y-220822387D01*
X125648242Y-220856917D01*
X125658249Y-220897963D01*
X125669813Y-220943771D01*
X125682476Y-220992584D01*
X125695777Y-221042646D01*
X125709256Y-221092200D01*
X125722453Y-221139491D01*
X125734909Y-221182762D01*
X125746164Y-221220257D01*
X125755758Y-221250219D01*
X125764282Y-221274982D01*
X125790637Y-221343761D01*
X125817353Y-221401148D01*
X125845067Y-221448128D01*
X125874413Y-221485684D01*
X125906026Y-221514801D01*
X125940544Y-221536464D01*
X125965365Y-221547435D01*
X125995157Y-221556440D01*
X126028818Y-221562035D01*
X126068494Y-221564442D01*
X126116330Y-221563883D01*
X126174470Y-221560578D01*
X126212752Y-221558193D01*
X126272441Y-221556784D01*
X126321601Y-221559770D01*
X126361382Y-221567992D01*
X126392934Y-221582288D01*
X126417406Y-221603496D01*
X126435951Y-221632455D01*
X126449718Y-221670004D01*
X126459857Y-221716981D01*
X126467519Y-221774225D01*
X126468233Y-221781020D01*
X126470952Y-221820937D01*
X126469534Y-221851048D01*
X126463459Y-221873442D01*
X126452204Y-221890207D01*
X126435248Y-221903432D01*
X126422266Y-221909565D01*
X126395612Y-221918329D01*
X126360694Y-221927131D01*
X126320030Y-221935355D01*
X126276136Y-221942384D01*
X126276040Y-221942397D01*
X126256542Y-221944080D01*
X126227179Y-221945321D01*
X126190763Y-221946063D01*
X126150106Y-221946248D01*
X126108022Y-221945820D01*
X126065035Y-221944859D01*
X126025421Y-221943353D01*
X125992895Y-221941146D01*
X125964467Y-221937967D01*
X125937148Y-221933544D01*
X125907947Y-221927604D01*
X125806582Y-221901478D01*
X125715742Y-221869447D01*
X125635030Y-221831258D01*
X125563792Y-221786602D01*
X125501377Y-221735170D01*
X125496309Y-221730344D01*
X125447440Y-221677748D01*
X125408918Y-221623247D01*
X125378644Y-221563911D01*
X125378227Y-221562935D01*
X125362331Y-221522857D01*
X125344000Y-221471808D01*
X125323645Y-221411156D01*
X125301676Y-221342268D01*
X125278504Y-221266512D01*
X125254539Y-221185256D01*
X125230194Y-221099866D01*
X125205877Y-221011710D01*
X125182000Y-220922156D01*
X125158975Y-220832571D01*
X125143708Y-220771369D01*
X125129478Y-220712499D01*
X125118054Y-220662595D01*
X125109099Y-220619930D01*
X125102273Y-220582777D01*
X125097237Y-220549409D01*
X125093652Y-220518099D01*
X125091179Y-220487121D01*
X125086908Y-220421059D01*
X125114744Y-220392525D01*
X125128278Y-220380162D01*
X125149403Y-220364813D01*
X125167987Y-220355307D01*
X125183794Y-220351620D01*
X125213159Y-220348041D01*
X125251466Y-220345510D01*
X125296663Y-220343992D01*
X125346698Y-220343450D01*
X125399519Y-220343849D01*
G37*
X125399519Y-220343849D02*
X125453073Y-220345151D01*
X125505309Y-220347322D01*
X125554174Y-220350324D01*
X125597616Y-220354123D01*
X125633584Y-220358681D01*
X125660025Y-220363962D01*
X125673667Y-220368134D01*
X125695435Y-220376700D01*
X125710837Y-220385123D01*
X125721001Y-220394654D01*
X125738108Y-220418937D01*
X125754229Y-220450825D01*
X125768208Y-220487138D01*
X125778887Y-220524697D01*
X125785109Y-220560322D01*
X125785718Y-220590835D01*
X125783551Y-220605272D01*
X125777690Y-220622829D01*
X125767090Y-220639908D01*
X125750265Y-220658346D01*
X125725728Y-220679980D01*
X125691993Y-220706648D01*
X125671592Y-220722400D01*
X125652704Y-220737682D01*
X125640990Y-220748855D01*
X125634764Y-220757916D01*
X125632342Y-220766863D01*
X125632038Y-220777691D01*
X125632167Y-220779906D01*
X125634742Y-220796132D01*
X125640253Y-220822387D01*
X125648242Y-220856917D01*
X125658249Y-220897963D01*
X125669813Y-220943771D01*
X125682476Y-220992584D01*
X125695777Y-221042646D01*
X125709256Y-221092200D01*
X125722453Y-221139491D01*
X125734909Y-221182762D01*
X125746164Y-221220257D01*
X125755758Y-221250219D01*
X125764282Y-221274982D01*
X125790637Y-221343761D01*
X125817353Y-221401148D01*
X125845067Y-221448128D01*
X125874413Y-221485684D01*
X125906026Y-221514801D01*
X125940544Y-221536464D01*
X125965365Y-221547435D01*
X125995157Y-221556440D01*
X126028818Y-221562035D01*
X126068494Y-221564442D01*
X126116330Y-221563883D01*
X126174470Y-221560578D01*
X126212752Y-221558193D01*
X126272441Y-221556784D01*
X126321601Y-221559770D01*
X126361382Y-221567992D01*
X126392934Y-221582288D01*
X126417406Y-221603496D01*
X126435951Y-221632455D01*
X126449718Y-221670004D01*
X126459857Y-221716981D01*
X126467519Y-221774225D01*
X126468233Y-221781020D01*
X126470952Y-221820937D01*
X126469534Y-221851048D01*
X126463459Y-221873442D01*
X126452204Y-221890207D01*
X126435248Y-221903432D01*
X126422266Y-221909565D01*
X126395612Y-221918329D01*
X126360694Y-221927131D01*
X126320030Y-221935355D01*
X126276136Y-221942384D01*
X126276040Y-221942397D01*
X126256542Y-221944080D01*
X126227179Y-221945321D01*
X126190763Y-221946063D01*
X126150106Y-221946248D01*
X126108022Y-221945820D01*
X126065035Y-221944859D01*
X126025421Y-221943353D01*
X125992895Y-221941146D01*
X125964467Y-221937967D01*
X125937148Y-221933544D01*
X125907947Y-221927604D01*
X125806582Y-221901478D01*
X125715742Y-221869447D01*
X125635030Y-221831258D01*
X125563792Y-221786602D01*
X125501377Y-221735170D01*
X125496309Y-221730344D01*
X125447440Y-221677748D01*
X125408918Y-221623247D01*
X125378644Y-221563911D01*
X125378227Y-221562935D01*
X125362331Y-221522857D01*
X125344000Y-221471808D01*
X125323645Y-221411156D01*
X125301676Y-221342268D01*
X125278504Y-221266512D01*
X125254539Y-221185256D01*
X125230194Y-221099866D01*
X125205877Y-221011710D01*
X125182000Y-220922156D01*
X125158975Y-220832571D01*
X125143708Y-220771369D01*
X125129478Y-220712499D01*
X125118054Y-220662595D01*
X125109099Y-220619930D01*
X125102273Y-220582777D01*
X125097237Y-220549409D01*
X125093652Y-220518099D01*
X125091179Y-220487121D01*
X125086908Y-220421059D01*
X125114744Y-220392525D01*
X125128278Y-220380162D01*
X125149403Y-220364813D01*
X125167987Y-220355307D01*
X125183794Y-220351620D01*
X125213159Y-220348041D01*
X125251466Y-220345510D01*
X125296663Y-220343992D01*
X125346698Y-220343450D01*
X125399519Y-220343849D01*
X128273165Y-220470812D02*
X128252824Y-220477377D01*
X128252824Y-220477377D02*
X128239135Y-220490325D01*
X128239135Y-220490325D02*
X128230932Y-220511273D01*
X128230932Y-220511273D02*
X128227051Y-220541843D01*
X128227051Y-220541843D02*
X128226276Y-220573376D01*
X128226276Y-220573376D02*
X128226701Y-220596361D01*
X128226701Y-220596361D02*
X128228083Y-220621995D01*
X128228083Y-220621995D02*
X128230579Y-220651564D01*
X128230579Y-220651564D02*
X128234348Y-220686356D01*
X128234348Y-220686356D02*
X128239551Y-220727657D01*
X128239551Y-220727657D02*
X128246344Y-220776752D01*
X128246344Y-220776752D02*
X128254887Y-220834928D01*
X128254887Y-220834928D02*
X128265340Y-220903471D01*
X128265340Y-220903471D02*
X128273494Y-220955866D01*
X128273494Y-220955866D02*
X128280908Y-221003928D01*
X128280908Y-221003928D02*
X128287621Y-221048844D01*
X128287621Y-221048844D02*
X128293383Y-221088815D01*
X128293383Y-221088815D02*
X128297942Y-221122048D01*
X128297942Y-221122048D02*
X128301045Y-221146745D01*
X128301045Y-221146745D02*
X128302442Y-221161112D01*
X128302442Y-221161112D02*
X128302495Y-221162773D01*
X128302495Y-221162773D02*
X128297061Y-221186170D01*
X128297061Y-221186170D02*
X128286941Y-221199102D01*
X128286941Y-221199102D02*
X128280208Y-221204619D01*
X128280208Y-221204619D02*
X128272092Y-221208737D01*
X128272092Y-221208737D02*
X128260488Y-221211811D01*
X128260488Y-221211811D02*
X128243290Y-221214196D01*
X128243290Y-221214196D02*
X128218394Y-221216246D01*
X128218394Y-221216246D02*
X128183693Y-221218315D01*
X128183693Y-221218315D02*
X128167848Y-221219162D01*
X128167848Y-221219162D02*
X128108765Y-221223237D01*
X128108765Y-221223237D02*
X128060838Y-221228895D01*
X128060838Y-221228895D02*
X128022574Y-221236568D01*
X128022574Y-221236568D02*
X127992479Y-221246691D01*
X127992479Y-221246691D02*
X127969059Y-221259697D01*
X127969059Y-221259697D02*
X127950819Y-221276019D01*
X127950819Y-221276019D02*
X127944295Y-221284034D01*
X127944295Y-221284034D02*
X127933952Y-221307514D01*
X127933952Y-221307514D02*
X127931906Y-221335969D01*
X127931906Y-221335969D02*
X127938159Y-221364752D01*
X127938159Y-221364752D02*
X127944223Y-221377516D01*
X127944223Y-221377516D02*
X127962277Y-221398392D01*
X127962277Y-221398392D02*
X127989587Y-221414070D01*
X127989587Y-221414070D02*
X128027397Y-221425190D01*
X128027397Y-221425190D02*
X128042080Y-221427918D01*
X128042080Y-221427918D02*
X128063589Y-221430357D01*
X128063589Y-221430357D02*
X128095537Y-221432516D01*
X128095537Y-221432516D02*
X128135665Y-221434357D01*
X128135665Y-221434357D02*
X128181710Y-221435845D01*
X128181710Y-221435845D02*
X128231412Y-221436943D01*
X128231412Y-221436943D02*
X128282509Y-221437615D01*
X128282509Y-221437615D02*
X128332742Y-221437823D01*
X128332742Y-221437823D02*
X128379848Y-221437532D01*
X128379848Y-221437532D02*
X128421567Y-221436704D01*
X128421567Y-221436704D02*
X128455637Y-221435305D01*
X128455637Y-221435305D02*
X128464461Y-221434737D01*
X128464461Y-221434737D02*
X128506157Y-221431468D01*
X128506157Y-221431468D02*
X128536901Y-221428261D01*
X128536901Y-221428261D02*
X128558434Y-221424680D01*
X128558434Y-221424680D02*
X128572499Y-221420292D01*
X128572499Y-221420292D02*
X128580836Y-221414660D01*
X128580836Y-221414660D02*
X128585186Y-221407350D01*
X128585186Y-221407350D02*
X128586075Y-221404375D01*
X128586075Y-221404375D02*
X128588334Y-221386650D01*
X128588334Y-221386650D02*
X128588304Y-221360103D01*
X128588304Y-221360103D02*
X128585922Y-221324216D01*
X128585922Y-221324216D02*
X128581128Y-221278471D01*
X128581128Y-221278471D02*
X128573862Y-221222351D01*
X128573862Y-221222351D02*
X128564062Y-221155339D01*
X128564062Y-221155339D02*
X128551667Y-221076916D01*
X128551667Y-221076916D02*
X128537705Y-220992980D01*
X128537705Y-220992980D02*
X128524645Y-220916308D01*
X128524645Y-220916308D02*
X128513349Y-220850994D01*
X128513349Y-220850994D02*
X128503558Y-220795855D01*
X128503558Y-220795855D02*
X128495015Y-220749709D01*
X128495015Y-220749709D02*
X128487461Y-220711372D01*
X128487461Y-220711372D02*
X128480637Y-220679661D01*
X128480637Y-220679661D02*
X128474287Y-220653394D01*
X128474287Y-220653394D02*
X128468152Y-220631387D01*
X128468152Y-220631387D02*
X128461973Y-220612458D01*
X128461973Y-220612458D02*
X128455492Y-220595423D01*
X128455492Y-220595423D02*
X128448451Y-220579100D01*
X128448451Y-220579100D02*
X128446398Y-220574611D01*
X128446398Y-220574611D02*
X128423539Y-220532665D01*
X128423539Y-220532665D02*
X128398373Y-220502271D01*
X128398373Y-220502271D02*
X128369349Y-220482300D01*
X128369349Y-220482300D02*
X128334917Y-220471622D01*
X128334917Y-220471622D02*
X128301321Y-220469009D01*
X128301321Y-220469009D02*
X128273165Y-220470812D01*
X128273165Y-220470812D02*
X128273165Y-220470812D01*
G36*
X128334917Y-220471622D02*
G01*
X128369349Y-220482300D01*
X128398373Y-220502271D01*
X128423539Y-220532665D01*
X128446398Y-220574611D01*
X128448451Y-220579100D01*
X128455492Y-220595423D01*
X128461973Y-220612458D01*
X128468152Y-220631387D01*
X128474287Y-220653394D01*
X128480637Y-220679661D01*
X128487461Y-220711372D01*
X128495015Y-220749709D01*
X128503558Y-220795855D01*
X128513349Y-220850994D01*
X128524645Y-220916308D01*
X128537705Y-220992980D01*
X128551667Y-221076916D01*
X128564062Y-221155339D01*
X128573862Y-221222351D01*
X128581128Y-221278471D01*
X128585922Y-221324216D01*
X128588304Y-221360103D01*
X128588334Y-221386650D01*
X128586075Y-221404375D01*
X128585186Y-221407350D01*
X128580836Y-221414660D01*
X128572499Y-221420292D01*
X128558434Y-221424680D01*
X128536901Y-221428261D01*
X128506157Y-221431468D01*
X128464461Y-221434737D01*
X128455637Y-221435305D01*
X128421567Y-221436704D01*
X128379848Y-221437532D01*
X128332742Y-221437823D01*
X128282509Y-221437615D01*
X128231412Y-221436943D01*
X128181710Y-221435845D01*
X128135665Y-221434357D01*
X128095537Y-221432516D01*
X128063589Y-221430357D01*
X128042080Y-221427918D01*
X128027397Y-221425190D01*
X127989587Y-221414070D01*
X127962277Y-221398392D01*
X127944223Y-221377516D01*
X127938159Y-221364752D01*
X127931906Y-221335969D01*
X127933952Y-221307514D01*
X127944295Y-221284034D01*
X127950819Y-221276019D01*
X127969059Y-221259697D01*
X127992479Y-221246691D01*
X128022574Y-221236568D01*
X128060838Y-221228895D01*
X128108765Y-221223237D01*
X128167848Y-221219162D01*
X128183693Y-221218315D01*
X128218394Y-221216246D01*
X128243290Y-221214196D01*
X128260488Y-221211811D01*
X128272092Y-221208737D01*
X128280208Y-221204619D01*
X128286941Y-221199102D01*
X128297061Y-221186170D01*
X128302495Y-221162773D01*
X128302442Y-221161112D01*
X128301045Y-221146745D01*
X128297942Y-221122048D01*
X128293383Y-221088815D01*
X128287621Y-221048844D01*
X128280908Y-221003928D01*
X128273494Y-220955866D01*
X128265340Y-220903471D01*
X128254887Y-220834928D01*
X128246344Y-220776752D01*
X128239551Y-220727657D01*
X128234348Y-220686356D01*
X128230579Y-220651564D01*
X128228083Y-220621995D01*
X128226701Y-220596361D01*
X128226276Y-220573376D01*
X128227051Y-220541843D01*
X128230932Y-220511273D01*
X128239135Y-220490325D01*
X128252824Y-220477377D01*
X128273165Y-220470812D01*
X128301321Y-220469009D01*
X128334917Y-220471622D01*
G37*
X128334917Y-220471622D02*
X128369349Y-220482300D01*
X128398373Y-220502271D01*
X128423539Y-220532665D01*
X128446398Y-220574611D01*
X128448451Y-220579100D01*
X128455492Y-220595423D01*
X128461973Y-220612458D01*
X128468152Y-220631387D01*
X128474287Y-220653394D01*
X128480637Y-220679661D01*
X128487461Y-220711372D01*
X128495015Y-220749709D01*
X128503558Y-220795855D01*
X128513349Y-220850994D01*
X128524645Y-220916308D01*
X128537705Y-220992980D01*
X128551667Y-221076916D01*
X128564062Y-221155339D01*
X128573862Y-221222351D01*
X128581128Y-221278471D01*
X128585922Y-221324216D01*
X128588304Y-221360103D01*
X128588334Y-221386650D01*
X128586075Y-221404375D01*
X128585186Y-221407350D01*
X128580836Y-221414660D01*
X128572499Y-221420292D01*
X128558434Y-221424680D01*
X128536901Y-221428261D01*
X128506157Y-221431468D01*
X128464461Y-221434737D01*
X128455637Y-221435305D01*
X128421567Y-221436704D01*
X128379848Y-221437532D01*
X128332742Y-221437823D01*
X128282509Y-221437615D01*
X128231412Y-221436943D01*
X128181710Y-221435845D01*
X128135665Y-221434357D01*
X128095537Y-221432516D01*
X128063589Y-221430357D01*
X128042080Y-221427918D01*
X128027397Y-221425190D01*
X127989587Y-221414070D01*
X127962277Y-221398392D01*
X127944223Y-221377516D01*
X127938159Y-221364752D01*
X127931906Y-221335969D01*
X127933952Y-221307514D01*
X127944295Y-221284034D01*
X127950819Y-221276019D01*
X127969059Y-221259697D01*
X127992479Y-221246691D01*
X128022574Y-221236568D01*
X128060838Y-221228895D01*
X128108765Y-221223237D01*
X128167848Y-221219162D01*
X128183693Y-221218315D01*
X128218394Y-221216246D01*
X128243290Y-221214196D01*
X128260488Y-221211811D01*
X128272092Y-221208737D01*
X128280208Y-221204619D01*
X128286941Y-221199102D01*
X128297061Y-221186170D01*
X128302495Y-221162773D01*
X128302442Y-221161112D01*
X128301045Y-221146745D01*
X128297942Y-221122048D01*
X128293383Y-221088815D01*
X128287621Y-221048844D01*
X128280908Y-221003928D01*
X128273494Y-220955866D01*
X128265340Y-220903471D01*
X128254887Y-220834928D01*
X128246344Y-220776752D01*
X128239551Y-220727657D01*
X128234348Y-220686356D01*
X128230579Y-220651564D01*
X128228083Y-220621995D01*
X128226701Y-220596361D01*
X128226276Y-220573376D01*
X128227051Y-220541843D01*
X128230932Y-220511273D01*
X128239135Y-220490325D01*
X128252824Y-220477377D01*
X128273165Y-220470812D01*
X128301321Y-220469009D01*
X128334917Y-220471622D01*
%TD*%
D12*
%TO.C,HS2*%
X199499000Y-144720000D03*
X199499000Y-184720000D03*
X199499000Y-104720000D03*
%TD*%
%TO.C,HS4*%
X306585400Y-148056700D03*
X306585400Y-88056700D03*
%TD*%
M02*
