%TF.GenerationSoftware,KiCad,Pcbnew,(5.99.0-9830-g9acf5e365a)*%
%TF.CreationDate,2021-04-14T10:40:31+02:00*%
%TF.ProjectId,Power Supply Board v2.0,506f7765-7220-4537-9570-706c7920426f,2.0*%
%TF.SameCoordinates,Original*%
%TF.FileFunction,Soldermask,Bot*%
%TF.FilePolarity,Negative*%
%FSLAX46Y46*%
G04 Gerber Fmt 4.6, Leading zero omitted, Abs format (unit mm)*
G04 Created by KiCad (PCBNEW (5.99.0-9830-g9acf5e365a)) date 2021-04-14 10:40:31*
%MOMM*%
%LPD*%
G01*
G04 APERTURE LIST*
G04 Aperture macros list*
%AMRoundRect*
0 Rectangle with rounded corners*
0 $1 Rounding radius*
0 $2 $3 $4 $5 $6 $7 $8 $9 X,Y pos of 4 corners*
0 Add a 4 corners polygon primitive as box body*
4,1,4,$2,$3,$4,$5,$6,$7,$8,$9,$2,$3,0*
0 Add four circle primitives for the rounded corners*
1,1,$1+$1,$2,$3*
1,1,$1+$1,$4,$5*
1,1,$1+$1,$6,$7*
1,1,$1+$1,$8,$9*
0 Add four rect primitives between the rounded corners*
20,1,$1+$1,$2,$3,$4,$5,0*
20,1,$1+$1,$4,$5,$6,$7,0*
20,1,$1+$1,$6,$7,$8,$9,0*
20,1,$1+$1,$8,$9,$2,$3,0*%
%AMFreePoly0*
4,1,30,0.519135,1.106194,0.561561,1.088620,0.577781,1.077781,1.577780,0.077783,1.575172,0.075175,1.587414,0.061060,1.588621,0.061560,1.606194,0.019134,1.606194,-0.019133,1.588621,-0.061560,1.575570,-0.075573,1.577780,-0.077783,0.577781,-1.077781,0.561561,-1.088620,0.519135,-1.106194,0.500000,-1.110000,-1.000000,-1.110000,-1.019135,-1.106194,-1.061561,-1.088620,-1.088620,-1.061561,
-1.106194,-1.019135,-1.110000,-1.000000,-1.110000,1.000000,-1.106194,1.019135,-1.088620,1.061561,-1.061561,1.088620,-1.019135,1.106194,-1.000000,1.110000,0.500000,1.110000,0.519135,1.106194,0.519135,1.106194,$1*%
%AMFreePoly1*
4,1,27,1.019135,1.106194,1.061561,1.088620,1.088620,1.061561,1.106194,1.019135,1.110000,1.000000,1.110000,-1.000000,1.106194,-1.019135,1.088620,-1.061561,1.061561,-1.088620,1.019135,-1.106194,1.000000,-1.110000,-0.500000,-1.110000,-0.519134,-1.106194,-0.561560,-1.088621,-0.577781,-1.077782,-1.577781,-0.077781,-1.588620,-0.061560,-1.606193,-0.019134,-1.606193,0.019134,-1.588620,0.061560,
-1.577781,0.077781,-0.577781,1.077782,-0.561560,1.088621,-0.519134,1.106194,-0.500000,1.110000,1.000000,1.110000,1.019135,1.106194,1.019135,1.106194,$1*%
G04 Aperture macros list end*
%ADD10C,0.100000*%
%ADD11C,2.500000*%
%ADD12RoundRect,0.050000X0.800000X-0.800000X0.800000X0.800000X-0.800000X0.800000X-0.800000X-0.800000X0*%
%ADD13C,1.700000*%
%ADD14RoundRect,0.050000X0.800000X0.800000X-0.800000X0.800000X-0.800000X-0.800000X0.800000X-0.800000X0*%
%ADD15RoundRect,0.050000X2.000000X-2.000000X2.000000X2.000000X-2.000000X2.000000X-2.000000X-2.000000X0*%
%ADD16C,4.100000*%
%ADD17RoundRect,0.050000X-2.000000X2.000000X-2.000000X-2.000000X2.000000X-2.000000X2.000000X2.000000X0*%
%ADD18C,1.500000*%
%ADD19RoundRect,0.050000X-0.800000X-0.800000X0.800000X-0.800000X0.800000X0.800000X-0.800000X0.800000X0*%
%ADD20RoundRect,0.050000X-0.800000X0.800000X-0.800000X-0.800000X0.800000X-0.800000X0.800000X0.800000X0*%
%ADD21RoundRect,0.050000X-2.000000X-2.000000X2.000000X-2.000000X2.000000X2.000000X-2.000000X2.000000X0*%
%ADD22RoundRect,0.050000X1.200000X-1.200000X1.200000X1.200000X-1.200000X1.200000X-1.200000X-1.200000X0*%
%ADD23O,2.500000X2.500000*%
%ADD24RoundRect,0.050000X-1.100000X-1.100000X1.100000X-1.100000X1.100000X1.100000X-1.100000X1.100000X0*%
%ADD25O,2.300000X2.300000*%
%ADD26RoundRect,0.050000X1.100000X1.100000X-1.100000X1.100000X-1.100000X-1.100000X1.100000X-1.100000X0*%
%ADD27O,1.700000X1.700000*%
%ADD28RoundRect,0.050000X-1.600000X1.600000X-1.600000X-1.600000X1.600000X-1.600000X1.600000X1.600000X0*%
%ADD29C,3.300000*%
%ADD30RoundRect,0.050000X1.200000X1.200000X-1.200000X1.200000X-1.200000X-1.200000X1.200000X-1.200000X0*%
%ADD31RoundRect,0.050000X-1.200000X-1.200000X1.200000X-1.200000X1.200000X1.200000X-1.200000X1.200000X0*%
%ADD32RoundRect,0.050000X1.100000X-1.100000X1.100000X1.100000X-1.100000X1.100000X-1.100000X-1.100000X0*%
%ADD33RoundRect,0.050000X-1.000000X0.952500X-1.000000X-0.952500X1.000000X-0.952500X1.000000X0.952500X0*%
%ADD34O,2.100000X2.005000*%
%ADD35RoundRect,0.050000X-1.200000X1.200000X-1.200000X-1.200000X1.200000X-1.200000X1.200000X1.200000X0*%
%ADD36C,2.800000*%
%ADD37C,3.100000*%
%ADD38RoundRect,0.050000X1.500000X-1.500000X1.500000X1.500000X-1.500000X1.500000X-1.500000X-1.500000X0*%
%ADD39C,2.894000*%
%ADD40RoundRect,0.050000X-1.300000X1.300000X-1.300000X-1.300000X1.300000X-1.300000X1.300000X1.300000X0*%
%ADD41C,2.700000*%
%ADD42RoundRect,0.050000X-0.850000X0.850000X-0.850000X-0.850000X0.850000X-0.850000X0.850000X0.850000X0*%
%ADD43O,1.800000X1.800000*%
%ADD44RoundRect,0.270833X-0.654167X0.379167X-0.654167X-0.379167X0.654167X-0.379167X0.654167X0.379167X0*%
%ADD45O,1.850000X1.300000*%
%ADD46C,3.600000*%
%ADD47RoundRect,0.264706X0.635294X0.760294X-0.635294X0.760294X-0.635294X-0.760294X0.635294X-0.760294X0*%
%ADD48O,1.800000X2.050000*%
%ADD49C,2.000000*%
%ADD50RoundRect,0.050000X0.750000X-0.750000X0.750000X0.750000X-0.750000X0.750000X-0.750000X-0.750000X0*%
%ADD51C,1.600000*%
%ADD52RoundRect,0.050000X-0.750000X-0.750000X0.750000X-0.750000X0.750000X0.750000X-0.750000X0.750000X0*%
%ADD53RoundRect,0.050000X-0.750000X0.750000X-0.750000X-0.750000X0.750000X-0.750000X0.750000X0.750000X0*%
%ADD54RoundRect,0.050000X-2.250000X1.250000X-2.250000X-1.250000X2.250000X-1.250000X2.250000X1.250000X0*%
%ADD55O,4.600000X2.600000*%
%ADD56RoundRect,0.050000X-0.900000X0.900000X-0.900000X-0.900000X0.900000X-0.900000X0.900000X0.900000X0*%
%ADD57O,1.900000X1.900000*%
%ADD58RoundRect,0.050000X-0.750000X0.525000X-0.750000X-0.525000X0.750000X-0.525000X0.750000X0.525000X0*%
%ADD59O,1.600000X1.150000*%
%ADD60O,1.500000X1.500000*%
%ADD61C,2.599360*%
%ADD62RoundRect,0.050000X-0.952500X-1.000000X0.952500X-1.000000X0.952500X1.000000X-0.952500X1.000000X0*%
%ADD63O,2.005000X2.100000*%
%ADD64RoundRect,0.050000X1.200000X0.800000X-1.200000X0.800000X-1.200000X-0.800000X1.200000X-0.800000X0*%
%ADD65O,2.500000X1.700000*%
%ADD66C,0.900000*%
%ADD67C,7.100000*%
%ADD68C,1.624000*%
%ADD69RoundRect,0.050000X0.750000X0.750000X-0.750000X0.750000X-0.750000X-0.750000X0.750000X-0.750000X0*%
%ADD70RoundRect,0.050000X0.850000X-0.850000X0.850000X0.850000X-0.850000X0.850000X-0.850000X-0.850000X0*%
%ADD71FreePoly0,0.000000*%
%ADD72FreePoly1,0.000000*%
G04 APERTURE END LIST*
D10*
%TO.C,E1*%
X223697400Y-197806000D02*
X215544000Y-197806000D01*
X215544000Y-197806000D02*
X215544000Y-199838000D01*
X215544000Y-199838000D02*
X223697400Y-199838000D01*
X223697400Y-199838000D02*
X223697400Y-197806000D01*
G36*
X223697400Y-199838000D02*
G01*
X215544000Y-199838000D01*
X215544000Y-197806000D01*
X223697400Y-197806000D01*
X223697400Y-199838000D01*
G37*
X223697400Y-199838000D02*
X215544000Y-199838000D01*
X215544000Y-197806000D01*
X223697400Y-197806000D01*
X223697400Y-199838000D01*
X223697400Y-197806000D02*
X215544000Y-197806000D01*
X215544000Y-197806000D02*
X215544000Y-199838000D01*
X215544000Y-199838000D02*
X223697400Y-199838000D01*
X223697400Y-199838000D02*
X223697400Y-197806000D01*
G36*
X223697400Y-199838000D02*
G01*
X215544000Y-199838000D01*
X215544000Y-197806000D01*
X223697400Y-197806000D01*
X223697400Y-199838000D01*
G37*
X223697400Y-199838000D02*
X215544000Y-199838000D01*
X215544000Y-197806000D01*
X223697400Y-197806000D01*
X223697400Y-199838000D01*
%TD*%
D11*
%TO.C,C1*%
X46761000Y-114748000D03*
X46761000Y-129748000D03*
%TD*%
D12*
%TO.C,C2*%
X93954200Y-193691200D03*
D13*
X93954200Y-191191200D03*
%TD*%
D11*
%TO.C,C3*%
X55016000Y-114748000D03*
X55016000Y-129748000D03*
%TD*%
%TO.C,C4*%
X46761000Y-149800000D03*
X46761000Y-134800000D03*
%TD*%
%TO.C,C6*%
X55016000Y-149800000D03*
X55016000Y-134800000D03*
%TD*%
D14*
%TO.C,C7*%
X48666000Y-206823000D03*
D13*
X45166000Y-206823000D03*
%TD*%
D11*
%TO.C,C8*%
X69875000Y-149419000D03*
X69875000Y-134419000D03*
%TD*%
%TO.C,C9*%
X349909000Y-201056000D03*
X349909000Y-216056000D03*
%TD*%
D14*
%TO.C,C10*%
X49682000Y-217745000D03*
D13*
X44682000Y-217745000D03*
%TD*%
D11*
%TO.C,C11*%
X140944200Y-84471200D03*
X140944200Y-106971200D03*
%TD*%
D14*
%TO.C,C12*%
X275615000Y-143450000D03*
D13*
X273115000Y-143450000D03*
%TD*%
D15*
%TO.C,C13*%
X163855000Y-142688000D03*
D16*
X163855000Y-132688000D03*
%TD*%
D15*
%TO.C,C14*%
X171221000Y-104588000D03*
D16*
X171221000Y-94588000D03*
%TD*%
D17*
%TO.C,C15*%
X128930000Y-123384000D03*
D16*
X128930000Y-133384000D03*
%TD*%
D17*
%TO.C,C16*%
X128930000Y-159706000D03*
D16*
X128930000Y-169706000D03*
%TD*%
D11*
%TO.C,C17*%
X169221400Y-167072000D03*
X154221400Y-167072000D03*
%TD*%
%TO.C,C18*%
X154196000Y-159680600D03*
X169196000Y-159680600D03*
%TD*%
D18*
%TO.C,C19*%
X288843000Y-134306000D03*
X291343000Y-134306000D03*
%TD*%
D19*
%TO.C,C20*%
X299043888Y-125924000D03*
D13*
X301043888Y-125924000D03*
%TD*%
D12*
%TO.C,C21*%
X300424730Y-175708000D03*
D13*
X300424730Y-172208000D03*
%TD*%
%TO.C,C22*%
X317696730Y-181423000D03*
X317696730Y-173923000D03*
%TD*%
D20*
%TO.C,C23*%
X323030730Y-174565000D03*
D13*
X323030730Y-176565000D03*
%TD*%
D21*
%TO.C,C24*%
X279109830Y-118431000D03*
D16*
X289109830Y-118431000D03*
%TD*%
D21*
%TO.C,C25*%
X332303630Y-121656800D03*
D16*
X342303630Y-121656800D03*
%TD*%
D14*
%TO.C,C26*%
X255041000Y-154524400D03*
D13*
X251541000Y-154524400D03*
%TD*%
D14*
%TO.C,C27*%
X264131800Y-154575200D03*
D13*
X260631800Y-154575200D03*
%TD*%
D15*
%TO.C,C28*%
X283156400Y-97483971D03*
D16*
X283156400Y-87483971D03*
%TD*%
D21*
%TO.C,C29*%
X332303630Y-93556000D03*
D16*
X342303630Y-93556000D03*
%TD*%
D14*
%TO.C,C30*%
X251637400Y-167326000D03*
D13*
X249137400Y-167326000D03*
%TD*%
D14*
%TO.C,C31*%
X296073313Y-167427600D03*
D13*
X293573313Y-167427600D03*
%TD*%
%TO.C,C32*%
X271980400Y-108434200D03*
X271980400Y-103434200D03*
%TD*%
%TO.C,C33*%
X326057000Y-109958200D03*
X326057000Y-104958200D03*
%TD*%
D14*
%TO.C,C34*%
X267214230Y-205553000D03*
D13*
X264714230Y-205553000D03*
%TD*%
D19*
%TO.C,C35*%
X280295230Y-205172000D03*
D13*
X282795230Y-205172000D03*
%TD*%
%TO.C,C36*%
X275850230Y-215967000D03*
X275850230Y-210967000D03*
%TD*%
%TO.C,C37*%
X261499230Y-215967000D03*
X261499230Y-210967000D03*
%TD*%
D22*
%TO.C,D1*%
X87096200Y-194961200D03*
D23*
X87096200Y-182261200D03*
%TD*%
D24*
%TO.C,D2*%
X73050000Y-202632000D03*
D25*
X80670000Y-202632000D03*
%TD*%
D24*
%TO.C,D3*%
X73050000Y-206442000D03*
D25*
X80670000Y-206442000D03*
%TD*%
D26*
%TO.C,D4*%
X80670000Y-210252000D03*
D25*
X73050000Y-210252000D03*
%TD*%
D26*
%TO.C,D5*%
X80670000Y-214062000D03*
D25*
X73050000Y-214062000D03*
%TD*%
D14*
%TO.C,D6*%
X103098200Y-176927200D03*
D27*
X95478200Y-176927200D03*
%TD*%
D14*
%TO.C,D7*%
X80543000Y-217999000D03*
D27*
X72923000Y-217999000D03*
%TD*%
D28*
%TO.C,D8*%
X194741400Y-98949200D03*
D29*
X194741400Y-104029200D03*
X194741400Y-109109200D03*
X194741400Y-114189200D03*
%TD*%
D30*
%TO.C,D9*%
X285013000Y-136998400D03*
D23*
X272313000Y-136998400D03*
%TD*%
D19*
%TO.C,D10*%
X281203000Y-144212000D03*
D27*
X288823000Y-144212000D03*
%TD*%
D31*
%TO.C,D11*%
X281711000Y-157420000D03*
D23*
X294411000Y-157420000D03*
%TD*%
D12*
%TO.C,D12*%
X185699000Y-139640000D03*
D27*
X185699000Y-132020000D03*
%TD*%
D19*
%TO.C,D13*%
X179676800Y-183988400D03*
D27*
X187296800Y-183988400D03*
%TD*%
D32*
%TO.C,D14*%
X307409730Y-181169000D03*
D25*
X307409730Y-171009000D03*
%TD*%
D32*
%TO.C,D15*%
X310838730Y-181169000D03*
D25*
X310838730Y-171009000D03*
%TD*%
D33*
%TO.C,D16*%
X300276000Y-91456200D03*
D34*
X300276000Y-93996200D03*
X300276000Y-96536200D03*
%TD*%
D33*
%TO.C,D17*%
X300326800Y-113427200D03*
D34*
X300326800Y-115967200D03*
X300326800Y-118507200D03*
%TD*%
D26*
%TO.C,D18*%
X248587000Y-146955200D03*
D25*
X238427000Y-146955200D03*
%TD*%
D24*
%TO.C,D19*%
X251939800Y-146955200D03*
D25*
X262099800Y-146955200D03*
%TD*%
D24*
%TO.C,D20*%
X238477800Y-142992800D03*
D25*
X248637800Y-142992800D03*
%TD*%
D26*
%TO.C,D21*%
X262150600Y-142992800D03*
D25*
X251990600Y-142992800D03*
%TD*%
D19*
%TO.C,D22*%
X313759730Y-170882000D03*
D27*
X321379730Y-170882000D03*
%TD*%
D35*
%TO.C,D23*%
X328491730Y-171136000D03*
D23*
X328491730Y-183836000D03*
%TD*%
D12*
%TO.C,D24*%
X311283230Y-204537000D03*
D27*
X311283230Y-196917000D03*
%TD*%
D26*
%TO.C,D25*%
X267214230Y-199457000D03*
D25*
X257054230Y-199457000D03*
%TD*%
D24*
%TO.C,D26*%
X272802230Y-199457000D03*
D25*
X282962230Y-199457000D03*
%TD*%
D36*
%TO.C,F1*%
X55323000Y-86363500D03*
D37*
X66573000Y-86363500D03*
X44073000Y-86363500D03*
%TD*%
D38*
%TO.C,FL1*%
X63906000Y-118812000D03*
D37*
X79906000Y-118812000D03*
X79906000Y-100812000D03*
X63906000Y-100812000D03*
%TD*%
D38*
%TO.C,FL2*%
X87909000Y-162500000D03*
D37*
X103909000Y-162500000D03*
X103909000Y-144500000D03*
X87909000Y-144500000D03*
%TD*%
D29*
%TO.C,HS2*%
X199499000Y-144720000D03*
X199499000Y-184720000D03*
X199499000Y-104720000D03*
%TD*%
D39*
%TO.C,HS3*%
X256927230Y-188382600D03*
X267087230Y-188382600D03*
%TD*%
D29*
%TO.C,HS4*%
X306585400Y-148056700D03*
X306585400Y-88056700D03*
%TD*%
D39*
%TO.C,HS5*%
X55778000Y-212004600D03*
X65938000Y-212004600D03*
%TD*%
D40*
%TO.C,J1*%
X47396000Y-97984000D03*
D41*
X47396000Y-102984000D03*
X47396000Y-107984000D03*
%TD*%
D42*
%TO.C,J2*%
X155600000Y-196282000D03*
D43*
X153060000Y-196282000D03*
X150520000Y-196282000D03*
X147980000Y-196282000D03*
X145440000Y-196282000D03*
X142900000Y-196282000D03*
X140360000Y-196282000D03*
X137820000Y-196282000D03*
X135280000Y-196282000D03*
X132740000Y-196282000D03*
X130200000Y-196282000D03*
X127660000Y-196282000D03*
X125120000Y-196282000D03*
X122580000Y-196282000D03*
%TD*%
D44*
%TO.C,J3*%
X328243800Y-156200800D03*
D45*
X328243800Y-158200800D03*
%TD*%
D44*
%TO.C,J4*%
X328455800Y-147834800D03*
D45*
X328455800Y-149834800D03*
%TD*%
D46*
%TO.C,J5*%
X252895800Y-84013200D03*
X257895800Y-84013200D03*
%TD*%
%TO.C,J6*%
X326618200Y-141621200D03*
X331618200Y-141621200D03*
%TD*%
%TO.C,J7*%
X295874200Y-82541600D03*
X300874200Y-82541600D03*
%TD*%
%TO.C,J8*%
X268463800Y-83964000D03*
X263463800Y-83964000D03*
%TD*%
%TO.C,J9*%
X299459000Y-104106000D03*
X294459000Y-104106000D03*
%TD*%
%TO.C,J10*%
X352959000Y-112006000D03*
X352959000Y-117006000D03*
%TD*%
D47*
%TO.C,J11*%
X341255230Y-210506000D03*
D48*
X338755230Y-210506000D03*
X336255230Y-210506000D03*
X333755230Y-210506000D03*
X331255230Y-210506000D03*
X328755230Y-210506000D03*
X326255230Y-210506000D03*
X323755230Y-210506000D03*
%TD*%
D47*
%TO.C,J12*%
X341255230Y-222190000D03*
D48*
X338755230Y-222190000D03*
X336255230Y-222190000D03*
X333755230Y-222190000D03*
X331255230Y-222190000D03*
X328755230Y-222190000D03*
X326255230Y-222190000D03*
X323755230Y-222190000D03*
%TD*%
D47*
%TO.C,J13*%
X308523230Y-222578500D03*
D48*
X306023230Y-222578500D03*
X303523230Y-222578500D03*
X301023230Y-222578500D03*
X298523230Y-222578500D03*
X296023230Y-222578500D03*
X293523230Y-222578500D03*
X291023230Y-222578500D03*
X288523230Y-222578500D03*
X286023230Y-222578500D03*
X283523230Y-222578500D03*
X281023230Y-222578500D03*
%TD*%
D47*
%TO.C,J14*%
X268856200Y-222342400D03*
D48*
X266356200Y-222342400D03*
X263856200Y-222342400D03*
%TD*%
D49*
%TO.C,K1*%
X86766000Y-101286000D03*
X100966000Y-95286000D03*
X100966000Y-107286000D03*
X88766000Y-107286000D03*
X88766000Y-95286000D03*
%TD*%
D50*
%TO.C,Q1*%
X93954200Y-186325200D03*
D51*
X91414200Y-183785200D03*
X93954200Y-181245200D03*
%TD*%
D52*
%TO.C,Q2*%
X98526200Y-182769200D03*
D51*
X101066200Y-180229200D03*
X103606200Y-182769200D03*
%TD*%
D50*
%TO.C,Q3*%
X295943000Y-144466000D03*
D51*
X293403000Y-141926000D03*
X295943000Y-139386000D03*
%TD*%
D53*
%TO.C,Q4*%
X273837000Y-149546000D03*
D51*
X276377000Y-152086000D03*
X273837000Y-154626000D03*
%TD*%
D50*
%TO.C,Q5*%
X294927000Y-152848000D03*
D51*
X292387000Y-150308000D03*
X294927000Y-147768000D03*
%TD*%
D54*
%TO.C,Q6*%
X194081000Y-131981900D03*
D55*
X194081000Y-137431900D03*
X194081000Y-142881900D03*
%TD*%
D54*
%TO.C,Q7*%
X194081000Y-180534000D03*
D55*
X194081000Y-185984000D03*
X194081000Y-191434000D03*
%TD*%
D53*
%TO.C,Q8*%
X298475000Y-131512000D03*
D51*
X301015000Y-134052000D03*
X298475000Y-136592000D03*
%TD*%
D56*
%TO.C,Q9*%
X301402000Y-140656000D03*
D57*
X301402000Y-143196000D03*
X301402000Y-145736000D03*
%TD*%
D52*
%TO.C,Q10*%
X292487230Y-204537000D03*
D51*
X295027230Y-201997000D03*
X297567230Y-204537000D03*
%TD*%
D52*
%TO.C,Q11*%
X302774230Y-204664000D03*
D51*
X305314230Y-202124000D03*
X307854230Y-204664000D03*
%TD*%
D50*
%TO.C,Q12*%
X323919730Y-184979000D03*
D51*
X321379730Y-182439000D03*
X323919730Y-179899000D03*
%TD*%
D58*
%TO.C,Q14*%
X301567730Y-180280000D03*
D59*
X301567730Y-181550000D03*
X301567730Y-182820000D03*
%TD*%
D52*
%TO.C,Q15*%
X319982730Y-190440000D03*
D51*
X322522730Y-187900000D03*
X325062730Y-190440000D03*
%TD*%
D18*
%TO.C,R1*%
X101320200Y-194707200D03*
D60*
X101320200Y-187087200D03*
%TD*%
D18*
%TO.C,R2*%
X104114200Y-194707200D03*
D60*
X104114200Y-187087200D03*
%TD*%
D11*
%TO.C,R3*%
X78765000Y-86427000D03*
D23*
X71145000Y-86427000D03*
%TD*%
D18*
%TO.C,R4*%
X106908200Y-187087200D03*
D60*
X106908200Y-194707200D03*
%TD*%
D11*
%TO.C,R5*%
X93243000Y-86363500D03*
D23*
X85623000Y-86363500D03*
%TD*%
D18*
%TO.C,R6*%
X106908200Y-177181200D03*
D60*
X106908200Y-184801200D03*
%TD*%
D11*
%TO.C,R7*%
X134899000Y-106874000D03*
D23*
X134899000Y-94174000D03*
%TD*%
D11*
%TO.C,R8*%
X146938600Y-94174000D03*
D23*
X146938600Y-106874000D03*
%TD*%
D11*
%TO.C,R9*%
X148107000Y-178502000D03*
D23*
X160807000Y-178502000D03*
%TD*%
D11*
%TO.C,R10*%
X160807000Y-173676000D03*
D23*
X148107000Y-173676000D03*
%TD*%
D18*
%TO.C,R11*%
X288823000Y-141672000D03*
D60*
X281203000Y-141672000D03*
%TD*%
D18*
%TO.C,R12*%
X288823000Y-147428000D03*
D60*
X281203000Y-147428000D03*
%TD*%
D18*
%TO.C,R13*%
X281203000Y-152762000D03*
D60*
X288823000Y-152762000D03*
%TD*%
D18*
%TO.C,R14*%
X288823000Y-149968000D03*
D60*
X281203000Y-149968000D03*
%TD*%
D18*
%TO.C,R15*%
X268246600Y-151019200D03*
D60*
X268246600Y-143399200D03*
%TD*%
D18*
%TO.C,R16*%
X298729000Y-149292000D03*
D60*
X298729000Y-156912000D03*
%TD*%
D18*
%TO.C,R17*%
X183159000Y-132020000D03*
D60*
X183159000Y-139640000D03*
%TD*%
D18*
%TO.C,R18*%
X187271400Y-181092800D03*
D60*
X179651400Y-181092800D03*
%TD*%
D18*
%TO.C,R19*%
X301269000Y-149292000D03*
D60*
X301269000Y-156912000D03*
%TD*%
D18*
%TO.C,R20*%
X294586400Y-129099000D03*
D60*
X294586400Y-136719000D03*
%TD*%
D18*
%TO.C,R21*%
X188493000Y-132045400D03*
D60*
X188493000Y-139665400D03*
%TD*%
D18*
%TO.C,R22*%
X180159400Y-187290400D03*
D60*
X187779400Y-187290400D03*
%TD*%
D18*
%TO.C,R23*%
X148056200Y-217364000D03*
D60*
X140436200Y-217364000D03*
%TD*%
D18*
%TO.C,R24*%
X250450230Y-223333000D03*
D60*
X258070230Y-223333000D03*
%TD*%
D18*
%TO.C,R25*%
X313759730Y-181550000D03*
D60*
X313759730Y-173930000D03*
%TD*%
D18*
%TO.C,R26*%
X311473730Y-183963000D03*
D60*
X319093730Y-183963000D03*
%TD*%
D18*
%TO.C,R27*%
X291344230Y-199330000D03*
D60*
X298964230Y-199330000D03*
%TD*%
D18*
%TO.C,R28*%
X298964230Y-196917000D03*
D60*
X291344230Y-196917000D03*
%TD*%
D18*
%TO.C,R29*%
X300297730Y-188662000D03*
D60*
X307917730Y-188662000D03*
%TD*%
D18*
%TO.C,R30*%
X268018000Y-87900200D03*
D60*
X260398000Y-87900200D03*
%TD*%
D18*
%TO.C,R31*%
X257350000Y-87849400D03*
D60*
X249730000Y-87849400D03*
%TD*%
D18*
%TO.C,R32*%
X340909000Y-107686800D03*
D60*
X348529000Y-107686800D03*
%TD*%
D18*
%TO.C,R33*%
X351909000Y-98556000D03*
D60*
X351909000Y-106176000D03*
%TD*%
D18*
%TO.C,R34*%
X307917730Y-191202000D03*
D60*
X300297730Y-191202000D03*
%TD*%
D18*
%TO.C,R35*%
X300996230Y-199330000D03*
D60*
X308616230Y-199330000D03*
%TD*%
D18*
%TO.C,R36*%
X296487730Y-178502000D03*
D60*
X296487730Y-186122000D03*
%TD*%
D18*
%TO.C,R37*%
X300297730Y-186122000D03*
D60*
X307917730Y-186122000D03*
%TD*%
D18*
%TO.C,R38*%
X307981230Y-217872000D03*
D60*
X307981230Y-210252000D03*
%TD*%
D18*
%TO.C,R39*%
X308616230Y-196917000D03*
D60*
X300996230Y-196917000D03*
%TD*%
D18*
%TO.C,R40*%
X307917730Y-193615000D03*
D60*
X300297730Y-193615000D03*
%TD*%
D61*
%TO.C,T3*%
X225831000Y-93920000D03*
X225831000Y-99000000D03*
X225831000Y-104080000D03*
X225831000Y-109160000D03*
X225831000Y-114240000D03*
X225831000Y-119320000D03*
X225831000Y-124400000D03*
X225831000Y-129480000D03*
X225831000Y-134560000D03*
X261391000Y-134560000D03*
X261391000Y-129480000D03*
X261391000Y-124400000D03*
X261391000Y-119320000D03*
X261391000Y-114240000D03*
X261391000Y-109160000D03*
X261391000Y-104080000D03*
X261391000Y-99000000D03*
X261391000Y-93920000D03*
%TD*%
D62*
%TO.C,U1*%
X58064000Y-218888000D03*
D63*
X60604000Y-218888000D03*
X63144000Y-218888000D03*
%TD*%
D64*
%TO.C,U2*%
X170524800Y-215215400D03*
D65*
X170524800Y-212675400D03*
X170524800Y-210135400D03*
X162904800Y-210135400D03*
X162904800Y-212675400D03*
X162904800Y-215215400D03*
%TD*%
D62*
%TO.C,U3*%
X259594230Y-195393000D03*
D63*
X262134230Y-195393000D03*
X264674230Y-195393000D03*
%TD*%
D62*
%TO.C,U4*%
X276485230Y-195393000D03*
D63*
X279025230Y-195393000D03*
X281565230Y-195393000D03*
%TD*%
D29*
%TO.C,T1*%
X48612000Y-163335000D03*
X48612000Y-188335000D03*
X73612000Y-168335000D03*
X73612000Y-183335000D03*
%TD*%
D66*
%TO.C,H1*%
X34052845Y-82143845D03*
D67*
X35909000Y-84000000D03*
D66*
X35909000Y-81375000D03*
X38534000Y-84000000D03*
X37765155Y-85856155D03*
X35909000Y-86625000D03*
X37765155Y-82143845D03*
X34052845Y-85856155D03*
X33284000Y-84000000D03*
%TD*%
%TO.C,H2*%
X35909000Y-222375000D03*
X37765155Y-223143845D03*
X35909000Y-227625000D03*
X37765155Y-226856155D03*
X34052845Y-223143845D03*
D67*
X35909000Y-225000000D03*
D66*
X33284000Y-225000000D03*
X34052845Y-226856155D03*
X38534000Y-225000000D03*
%TD*%
%TO.C,H3*%
X353856155Y-85856155D03*
X352000000Y-81375000D03*
X353856155Y-82143845D03*
X349375000Y-84000000D03*
X354625000Y-84000000D03*
X352000000Y-86625000D03*
X350143845Y-85856155D03*
D67*
X352000000Y-84000000D03*
D66*
X350143845Y-82143845D03*
%TD*%
%TO.C,H4*%
X242000000Y-222375000D03*
D67*
X242000000Y-225000000D03*
D66*
X243856155Y-223143845D03*
X242000000Y-227625000D03*
X240143845Y-223143845D03*
X240143845Y-226856155D03*
X239375000Y-225000000D03*
X244625000Y-225000000D03*
X243856155Y-226856155D03*
%TD*%
D11*
%TO.C,C5*%
X122326000Y-84522000D03*
X107326000Y-84522000D03*
%TD*%
D66*
%TO.C,H5*%
X350143845Y-223143845D03*
X352000000Y-227625000D03*
X354625000Y-225000000D03*
X353856155Y-226856155D03*
X353856155Y-223143845D03*
X349375000Y-225000000D03*
X352000000Y-222375000D03*
X350143845Y-226856155D03*
D67*
X352000000Y-225000000D03*
%TD*%
D39*
%TO.C,HS7*%
X274072230Y-188382600D03*
X284232230Y-188382600D03*
%TD*%
D18*
%TO.C,R41*%
X163751000Y-182108800D03*
D60*
X156131000Y-182108800D03*
%TD*%
D68*
%TO.C,TH1*%
X194713600Y-168672200D03*
X192213600Y-168672200D03*
%TD*%
D18*
%TO.C,R42*%
X180819800Y-178197200D03*
D60*
X188439800Y-178197200D03*
%TD*%
D69*
%TO.C,Q16*%
X182826400Y-172042400D03*
D51*
X180286400Y-174582400D03*
X177746400Y-172042400D03*
%TD*%
D53*
%TO.C,Q13*%
X313715000Y-186884000D03*
D51*
X316255000Y-189424000D03*
X313715000Y-191964000D03*
%TD*%
D66*
%TO.C,H6*%
X242000000Y-86625000D03*
X242000000Y-81375000D03*
X243856155Y-82143845D03*
D67*
X242000000Y-84000000D03*
D66*
X239375000Y-84000000D03*
X240143845Y-82143845D03*
X244625000Y-84000000D03*
X240143845Y-85856155D03*
X243856155Y-85856155D03*
%TD*%
D70*
%TO.C,B1*%
X59892800Y-159635000D03*
D43*
X57352800Y-159635000D03*
X54812800Y-159635000D03*
X52272800Y-159635000D03*
D70*
X59892800Y-207585000D03*
D43*
X57352800Y-207585000D03*
X54812800Y-207585000D03*
X52272800Y-207585000D03*
%TD*%
D71*
%TO.C,E1*%
X215052000Y-198822000D03*
D72*
X224214800Y-198822000D03*
%TD*%
G36*
X301971602Y-182091877D02*
G01*
X301972367Y-182093725D01*
X301971634Y-182095025D01*
X301926598Y-182131105D01*
X301910633Y-182189465D01*
X301932040Y-182246116D01*
X301970855Y-182274629D01*
X301971659Y-182276460D01*
X301970475Y-182278072D01*
X301968906Y-182278089D01*
X301941029Y-182266542D01*
X301792598Y-182247000D01*
X301342862Y-182247000D01*
X301194431Y-182266542D01*
X301165841Y-182278384D01*
X301163858Y-182278123D01*
X301163093Y-182276275D01*
X301163826Y-182274975D01*
X301208862Y-182238895D01*
X301224827Y-182180535D01*
X301203420Y-182123884D01*
X301164605Y-182095371D01*
X301163801Y-182093540D01*
X301164985Y-182091928D01*
X301166554Y-182091911D01*
X301194431Y-182103458D01*
X301342862Y-182123000D01*
X301792598Y-182123000D01*
X301941029Y-182103458D01*
X301969619Y-182091616D01*
X301971602Y-182091877D01*
G37*
G36*
X302113120Y-180854000D02*
G01*
X302113120Y-180856000D01*
X302112006Y-180856902D01*
X302053847Y-180875799D01*
X302018283Y-180924748D01*
X302018283Y-180985250D01*
X302053964Y-181034361D01*
X302055244Y-181035060D01*
X302055418Y-181035346D01*
X302070315Y-181045816D01*
X302071157Y-181047630D01*
X302070007Y-181049266D01*
X302068400Y-181049300D01*
X301941029Y-180996542D01*
X301792598Y-180977000D01*
X301342862Y-180977000D01*
X301194431Y-180996542D01*
X301069843Y-181048147D01*
X301067860Y-181047886D01*
X301067095Y-181046038D01*
X301067945Y-181044651D01*
X301080615Y-181035943D01*
X301117651Y-180987676D01*
X301119235Y-180927195D01*
X301084973Y-180877345D01*
X301024727Y-180856894D01*
X301023408Y-180855390D01*
X301024051Y-180853496D01*
X301025370Y-180853000D01*
X302111388Y-180853000D01*
X302113120Y-180854000D01*
G37*
M02*
