%TF.GenerationSoftware,KiCad,Pcbnew,(5.99.0-9830-g9acf5e365a)*%
%TF.CreationDate,2021-04-09T15:36:23+02:00*%
%TF.ProjectId,Power Supply Board v2.0,506f7765-7220-4537-9570-706c7920426f,2.0*%
%TF.SameCoordinates,Original*%
%TF.FileFunction,Copper,L1,Top*%
%TF.FilePolarity,Positive*%
%FSLAX46Y46*%
G04 Gerber Fmt 4.6, Leading zero omitted, Abs format (unit mm)*
G04 Created by KiCad (PCBNEW (5.99.0-9830-g9acf5e365a)) date 2021-04-09 15:36:23*
%MOMM*%
%LPD*%
G01*
G04 APERTURE LIST*
G04 Aperture macros list*
%AMRoundRect*
0 Rectangle with rounded corners*
0 $1 Rounding radius*
0 $2 $3 $4 $5 $6 $7 $8 $9 X,Y pos of 4 corners*
0 Add a 4 corners polygon primitive as box body*
4,1,4,$2,$3,$4,$5,$6,$7,$8,$9,$2,$3,0*
0 Add four circle primitives for the rounded corners*
1,1,$1+$1,$2,$3*
1,1,$1+$1,$4,$5*
1,1,$1+$1,$6,$7*
1,1,$1+$1,$8,$9*
0 Add four rect primitives between the rounded corners*
20,1,$1+$1,$2,$3,$4,$5,0*
20,1,$1+$1,$4,$5,$6,$7,0*
20,1,$1+$1,$6,$7,$8,$9,0*
20,1,$1+$1,$8,$9,$2,$3,0*%
G04 Aperture macros list end*
%TA.AperFunction,ComponentPad*%
%ADD10C,2.400000*%
%TD*%
%TA.AperFunction,ComponentPad*%
%ADD11R,1.600000X1.600000*%
%TD*%
%TA.AperFunction,ComponentPad*%
%ADD12C,1.600000*%
%TD*%
%TA.AperFunction,ComponentPad*%
%ADD13R,4.000000X4.000000*%
%TD*%
%TA.AperFunction,ComponentPad*%
%ADD14C,4.000000*%
%TD*%
%TA.AperFunction,ComponentPad*%
%ADD15C,1.400000*%
%TD*%
%TA.AperFunction,ComponentPad*%
%ADD16R,2.400000X2.400000*%
%TD*%
%TA.AperFunction,ComponentPad*%
%ADD17O,2.400000X2.400000*%
%TD*%
%TA.AperFunction,ComponentPad*%
%ADD18R,2.200000X2.200000*%
%TD*%
%TA.AperFunction,ComponentPad*%
%ADD19O,2.200000X2.200000*%
%TD*%
%TA.AperFunction,ComponentPad*%
%ADD20O,1.600000X1.600000*%
%TD*%
%TA.AperFunction,ComponentPad*%
%ADD21R,3.200000X3.200000*%
%TD*%
%TA.AperFunction,ComponentPad*%
%ADD22C,3.200000*%
%TD*%
%TA.AperFunction,ComponentPad*%
%ADD23R,2.000000X1.905000*%
%TD*%
%TA.AperFunction,ComponentPad*%
%ADD24O,2.000000X1.905000*%
%TD*%
%TA.AperFunction,ComponentPad*%
%ADD25C,3.000000*%
%TD*%
%TA.AperFunction,ComponentPad*%
%ADD26R,3.000000X3.000000*%
%TD*%
%TA.AperFunction,ComponentPad*%
%ADD27C,2.794000*%
%TD*%
%TA.AperFunction,ComponentPad*%
%ADD28R,2.600000X2.600000*%
%TD*%
%TA.AperFunction,ComponentPad*%
%ADD29C,2.600000*%
%TD*%
%TA.AperFunction,ComponentPad*%
%ADD30R,1.700000X1.700000*%
%TD*%
%TA.AperFunction,ComponentPad*%
%ADD31O,1.700000X1.700000*%
%TD*%
%TA.AperFunction,ComponentPad*%
%ADD32RoundRect,0.250000X-0.625000X0.350000X-0.625000X-0.350000X0.625000X-0.350000X0.625000X0.350000X0*%
%TD*%
%TA.AperFunction,ComponentPad*%
%ADD33O,1.750000X1.200000*%
%TD*%
%TA.AperFunction,ComponentPad*%
%ADD34C,3.500000*%
%TD*%
%TA.AperFunction,ComponentPad*%
%ADD35RoundRect,0.250000X0.600000X0.725000X-0.600000X0.725000X-0.600000X-0.725000X0.600000X-0.725000X0*%
%TD*%
%TA.AperFunction,ComponentPad*%
%ADD36O,1.700000X1.950000*%
%TD*%
%TA.AperFunction,ComponentPad*%
%ADD37C,1.900000*%
%TD*%
%TA.AperFunction,SMDPad,CuDef*%
%ADD38R,4.000000X6.000000*%
%TD*%
%TA.AperFunction,SMDPad,CuDef*%
%ADD39R,4.900000X5.400000*%
%TD*%
%TA.AperFunction,ComponentPad*%
%ADD40R,1.500000X1.500000*%
%TD*%
%TA.AperFunction,ComponentPad*%
%ADD41C,1.500000*%
%TD*%
%TA.AperFunction,ComponentPad*%
%ADD42R,4.500000X2.500000*%
%TD*%
%TA.AperFunction,ComponentPad*%
%ADD43O,4.500000X2.500000*%
%TD*%
%TA.AperFunction,ComponentPad*%
%ADD44R,1.800000X1.800000*%
%TD*%
%TA.AperFunction,ComponentPad*%
%ADD45O,1.800000X1.800000*%
%TD*%
%TA.AperFunction,ComponentPad*%
%ADD46R,1.500000X1.050000*%
%TD*%
%TA.AperFunction,ComponentPad*%
%ADD47O,1.500000X1.050000*%
%TD*%
%TA.AperFunction,ComponentPad*%
%ADD48O,1.400000X1.400000*%
%TD*%
%TA.AperFunction,ComponentPad*%
%ADD49C,2.499360*%
%TD*%
%TA.AperFunction,ComponentPad*%
%ADD50R,1.905000X2.000000*%
%TD*%
%TA.AperFunction,ComponentPad*%
%ADD51O,1.905000X2.000000*%
%TD*%
%TA.AperFunction,ComponentPad*%
%ADD52R,2.400000X1.600000*%
%TD*%
%TA.AperFunction,ComponentPad*%
%ADD53O,2.400000X1.600000*%
%TD*%
%TA.AperFunction,ComponentPad*%
%ADD54C,0.800000*%
%TD*%
%TA.AperFunction,ComponentPad*%
%ADD55C,7.000000*%
%TD*%
%TA.AperFunction,ComponentPad*%
%ADD56C,1.524000*%
%TD*%
%TA.AperFunction,SMDPad,CuDef*%
%ADD57R,1.270000X1.520000*%
%TD*%
%TA.AperFunction,SMDPad,CuDef*%
%ADD58R,2.540000X3.050000*%
%TD*%
%TA.AperFunction,ViaPad*%
%ADD59C,0.762000*%
%TD*%
%TA.AperFunction,ViaPad*%
%ADD60C,1.016000*%
%TD*%
%TA.AperFunction,Conductor*%
%ADD61C,1.016000*%
%TD*%
%TA.AperFunction,Conductor*%
%ADD62C,1.270000*%
%TD*%
%TA.AperFunction,Conductor*%
%ADD63C,1.778000*%
%TD*%
%TA.AperFunction,Conductor*%
%ADD64C,0.508000*%
%TD*%
%TA.AperFunction,Conductor*%
%ADD65C,0.762000*%
%TD*%
%TA.AperFunction,Conductor*%
%ADD66C,0.635000*%
%TD*%
%TA.AperFunction,Conductor*%
%ADD67C,3.048000*%
%TD*%
%TA.AperFunction,Conductor*%
%ADD68C,2.540000*%
%TD*%
%TA.AperFunction,Conductor*%
%ADD69C,2.286000*%
%TD*%
%TA.AperFunction,Conductor*%
%ADD70C,0.381000*%
%TD*%
%TA.AperFunction,Conductor*%
%ADD71C,3.810000*%
%TD*%
G04 APERTURE END LIST*
D10*
%TO.P,C1,1*%
%TO.N,/N*%
X46761000Y-114748000D03*
%TO.P,C1,2*%
%TO.N,Earth_Protective*%
X46761000Y-129748000D03*
%TD*%
D11*
%TO.P,C2,1*%
%TO.N,Net-(C2-Pad1)*%
X93954200Y-193691200D03*
D12*
%TO.P,C2,2*%
%TO.N,GNDA*%
X93954200Y-191191200D03*
%TD*%
D10*
%TO.P,C3,1*%
%TO.N,Net-(C3-Pad1)*%
X55016000Y-114748000D03*
%TO.P,C3,2*%
%TO.N,Earth_Protective*%
X55016000Y-129748000D03*
%TD*%
%TO.P,C4,1*%
%TO.N,Net-(C4-Pad1)*%
X46761000Y-149800000D03*
%TO.P,C4,2*%
%TO.N,Earth_Protective*%
X46761000Y-134800000D03*
%TD*%
%TO.P,C6,1*%
%TO.N,Net-(C6-Pad1)*%
X55016000Y-149800000D03*
%TO.P,C6,2*%
%TO.N,Earth_Protective*%
X55016000Y-134800000D03*
%TD*%
D11*
%TO.P,C7,1*%
%TO.N,Net-(C7-Pad1)*%
X48666000Y-206823000D03*
D12*
%TO.P,C7,2*%
%TO.N,GNDA*%
X45166000Y-206823000D03*
%TD*%
D10*
%TO.P,C8,1*%
%TO.N,Net-(C8-Pad1)*%
X69875000Y-149419000D03*
%TO.P,C8,2*%
%TO.N,Net-(C8-Pad2)*%
X69875000Y-134419000D03*
%TD*%
%TO.P,C9,1*%
%TO.N,GND*%
X349909000Y-201056000D03*
%TO.P,C9,2*%
%TO.N,Net-(C9-Pad2)*%
X349909000Y-216056000D03*
%TD*%
D11*
%TO.P,C10,1*%
%TO.N,+16V*%
X49682000Y-217745000D03*
D12*
%TO.P,C10,2*%
%TO.N,GNDA*%
X44682000Y-217745000D03*
%TD*%
D10*
%TO.P,C11,1*%
%TO.N,GNDA*%
X140944200Y-84471200D03*
%TO.P,C11,2*%
%TO.N,VB*%
X140944200Y-106971200D03*
%TD*%
D11*
%TO.P,C12,1*%
%TO.N,GND*%
X275615000Y-143450000D03*
D12*
%TO.P,C12,2*%
%TO.N,Net-(C12-Pad2)*%
X273115000Y-143450000D03*
%TD*%
D13*
%TO.P,C13,1*%
%TO.N,VB*%
X163855000Y-142688000D03*
D14*
%TO.P,C13,2*%
%TO.N,Net-(C13-Pad2)*%
X163855000Y-132688000D03*
%TD*%
D13*
%TO.P,C14,1*%
%TO.N,Net-(C13-Pad2)*%
X171221000Y-104588000D03*
D14*
%TO.P,C14,2*%
%TO.N,GNDA*%
X171221000Y-94588000D03*
%TD*%
D13*
%TO.P,C15,1*%
%TO.N,VB*%
X128930000Y-123384000D03*
D14*
%TO.P,C15,2*%
%TO.N,Net-(C13-Pad2)*%
X128930000Y-133384000D03*
%TD*%
D13*
%TO.P,C16,1*%
%TO.N,Net-(C13-Pad2)*%
X128930000Y-159706000D03*
D14*
%TO.P,C16,2*%
%TO.N,GNDA*%
X128930000Y-169706000D03*
%TD*%
D10*
%TO.P,C17,1*%
%TO.N,Net-(C17-Pad1)*%
X169221400Y-167072000D03*
%TO.P,C17,2*%
%TO.N,Net-(C13-Pad2)*%
X154221400Y-167072000D03*
%TD*%
%TO.P,C18,1*%
%TO.N,Net-(C13-Pad2)*%
X154196000Y-159680600D03*
%TO.P,C18,2*%
%TO.N,Net-(C17-Pad1)*%
X169196000Y-159680600D03*
%TD*%
D15*
%TO.P,C19,1*%
%TO.N,Net-(C19-Pad1)*%
X288843000Y-134306000D03*
%TO.P,C19,2*%
%TO.N,Net-(C19-Pad2)*%
X291343000Y-134306000D03*
%TD*%
D11*
%TO.P,C20,1*%
%TO.N,Net-(C20-Pad1)*%
X299043888Y-125924000D03*
D12*
%TO.P,C20,2*%
%TO.N,GND*%
X301043888Y-125924000D03*
%TD*%
D11*
%TO.P,C21,1*%
%TO.N,Net-(C21-Pad1)*%
X300424730Y-175708000D03*
D12*
%TO.P,C21,2*%
%TO.N,GND*%
X300424730Y-172208000D03*
%TD*%
%TO.P,C22,1*%
%TO.N,Net-(C22-Pad1)*%
X317696730Y-181423000D03*
%TO.P,C22,2*%
%TO.N,GND*%
X317696730Y-173923000D03*
%TD*%
D11*
%TO.P,C23,1*%
%TO.N,Net-(C23-Pad1)*%
X323030730Y-174565000D03*
D12*
%TO.P,C23,2*%
%TO.N,GND*%
X323030730Y-176565000D03*
%TD*%
D13*
%TO.P,C24,1*%
%TO.N,Net-(C24-Pad1)*%
X279109830Y-118431000D03*
D14*
%TO.P,C24,2*%
%TO.N,GND*%
X289109830Y-118431000D03*
%TD*%
D13*
%TO.P,C25,1*%
%TO.N,GND*%
X332303630Y-121656800D03*
D14*
%TO.P,C25,2*%
%TO.N,Net-(C25-Pad2)*%
X342303630Y-121656800D03*
%TD*%
D11*
%TO.P,C26,1*%
%TO.N,Net-(C26-Pad1)*%
X255041000Y-154524400D03*
D12*
%TO.P,C26,2*%
%TO.N,GND*%
X251541000Y-154524400D03*
%TD*%
D11*
%TO.P,C27,1*%
%TO.N,GND*%
X264131800Y-154575200D03*
D12*
%TO.P,C27,2*%
%TO.N,Net-(C27-Pad2)*%
X260631800Y-154575200D03*
%TD*%
D13*
%TO.P,C28,1*%
%TO.N,Net-(C24-Pad1)*%
X283156400Y-97483971D03*
D14*
%TO.P,C28,2*%
%TO.N,GND*%
X283156400Y-87483971D03*
%TD*%
D13*
%TO.P,C29,1*%
%TO.N,GND*%
X332303630Y-93556000D03*
D14*
%TO.P,C29,2*%
%TO.N,Net-(C25-Pad2)*%
X342303630Y-93556000D03*
%TD*%
D11*
%TO.P,C30,1*%
%TO.N,+24V*%
X251637400Y-167326000D03*
D12*
%TO.P,C30,2*%
%TO.N,GND*%
X249137400Y-167326000D03*
%TD*%
D11*
%TO.P,C31,1*%
%TO.N,GND*%
X296073313Y-167427600D03*
D12*
%TO.P,C31,2*%
%TO.N,-24V*%
X293573313Y-167427600D03*
%TD*%
%TO.P,C32,1*%
%TO.N,Net-(C24-Pad1)*%
X271980400Y-108434200D03*
%TO.P,C32,2*%
%TO.N,GND*%
X271980400Y-103434200D03*
%TD*%
%TO.P,C33,1*%
%TO.N,GND*%
X326057000Y-109958200D03*
%TO.P,C33,2*%
%TO.N,Net-(C25-Pad2)*%
X326057000Y-104958200D03*
%TD*%
D11*
%TO.P,C34,1*%
%TO.N,+15V*%
X267214230Y-205553000D03*
D12*
%TO.P,C34,2*%
%TO.N,GND*%
X264714230Y-205553000D03*
%TD*%
D11*
%TO.P,C35,1*%
%TO.N,GND*%
X280295230Y-205172000D03*
D12*
%TO.P,C35,2*%
%TO.N,-15V*%
X282795230Y-205172000D03*
%TD*%
%TO.P,C36,1*%
%TO.N,-15V*%
X275850230Y-215967000D03*
%TO.P,C36,2*%
%TO.N,GND*%
X275850230Y-210967000D03*
%TD*%
%TO.P,C37,1*%
%TO.N,+15V*%
X261499230Y-215967000D03*
%TO.P,C37,2*%
%TO.N,GND*%
X261499230Y-210967000D03*
%TD*%
D16*
%TO.P,D1,1,K*%
%TO.N,Net-(C2-Pad1)*%
X87096200Y-194961200D03*
D17*
%TO.P,D1,2,A*%
%TO.N,Net-(D1-Pad2)*%
X87096200Y-182261200D03*
%TD*%
D18*
%TO.P,D2,1,K*%
%TO.N,Net-(C7-Pad1)*%
X73050000Y-202632000D03*
D19*
%TO.P,D2,2,A*%
%TO.N,Net-(D2-Pad2)*%
X80670000Y-202632000D03*
%TD*%
D18*
%TO.P,D3,1,K*%
%TO.N,Net-(C7-Pad1)*%
X73050000Y-206442000D03*
D19*
%TO.P,D3,2,A*%
%TO.N,Net-(D3-Pad2)*%
X80670000Y-206442000D03*
%TD*%
D18*
%TO.P,D4,1,K*%
%TO.N,Net-(D2-Pad2)*%
X80670000Y-210252000D03*
D19*
%TO.P,D4,2,A*%
%TO.N,GNDA*%
X73050000Y-210252000D03*
%TD*%
D18*
%TO.P,D5,1,K*%
%TO.N,Net-(D3-Pad2)*%
X80670000Y-214062000D03*
D19*
%TO.P,D5,2,A*%
%TO.N,GNDA*%
X73050000Y-214062000D03*
%TD*%
D11*
%TO.P,D6,1,K*%
%TO.N,Net-(D6-Pad1)*%
X103098200Y-176927200D03*
D20*
%TO.P,D6,2,A*%
%TO.N,GNDA*%
X95478200Y-176927200D03*
%TD*%
D11*
%TO.P,D7,1,K*%
%TO.N,GNDA*%
X80543000Y-217999000D03*
D20*
%TO.P,D7,2,A*%
%TO.N,Net-(D7-Pad2)*%
X72923000Y-217999000D03*
%TD*%
D21*
%TO.P,D8,1,+*%
%TO.N,VB*%
X194741400Y-98949200D03*
D22*
%TO.P,D8,2,~~*%
%TO.N,Net-(D8-Pad2)*%
X194741400Y-104029200D03*
%TO.P,D8,3,~~*%
%TO.N,Net-(D8-Pad3)*%
X194741400Y-109109200D03*
%TO.P,D8,4,-*%
%TO.N,GNDA*%
X194741400Y-114189200D03*
%TD*%
D16*
%TO.P,D9,1,K*%
%TO.N,GND*%
X285013000Y-136998400D03*
D17*
%TO.P,D9,2,A*%
%TO.N,Net-(C12-Pad2)*%
X272313000Y-136998400D03*
%TD*%
D11*
%TO.P,D10,1,K*%
%TO.N,Net-(D10-Pad1)*%
X281203000Y-144212000D03*
D20*
%TO.P,D10,2,A*%
%TO.N,/PR2*%
X288823000Y-144212000D03*
%TD*%
D16*
%TO.P,D11,1,K*%
%TO.N,Net-(D11-Pad1)*%
X281711000Y-157420000D03*
D17*
%TO.P,D11,2,A*%
%TO.N,Net-(C19-Pad2)*%
X294411000Y-157420000D03*
%TD*%
D11*
%TO.P,D12,1,K*%
%TO.N,HO*%
X185699000Y-139640000D03*
D20*
%TO.P,D12,2,A*%
%TO.N,Net-(D12-Pad2)*%
X185699000Y-132020000D03*
%TD*%
D11*
%TO.P,D13,1,K*%
%TO.N,LO*%
X179676800Y-183988400D03*
D20*
%TO.P,D13,2,A*%
%TO.N,Net-(D13-Pad2)*%
X187296800Y-183988400D03*
%TD*%
D18*
%TO.P,D14,1,K*%
%TO.N,Net-(C21-Pad1)*%
X307409730Y-181169000D03*
D19*
%TO.P,D14,2,A*%
%TO.N,Net-(D14-Pad2)*%
X307409730Y-171009000D03*
%TD*%
D18*
%TO.P,D15,1,K*%
%TO.N,Net-(C22-Pad1)*%
X310838730Y-181169000D03*
D19*
%TO.P,D15,2,A*%
%TO.N,Net-(D14-Pad2)*%
X310838730Y-171009000D03*
%TD*%
D23*
%TO.P,D16,1,A1*%
%TO.N,Net-(D16-Pad1)*%
X300276000Y-91456200D03*
D24*
%TO.P,D16,2,common*%
%TO.N,Net-(C24-Pad1)*%
X300276000Y-93996200D03*
%TO.P,D16,3,A2*%
%TO.N,Net-(D16-Pad3)*%
X300276000Y-96536200D03*
%TD*%
D23*
%TO.P,D17,1,A1*%
%TO.N,Net-(T3-Pad12)*%
X300326800Y-113427200D03*
D24*
%TO.P,D17,2,common*%
%TO.N,GND*%
X300326800Y-115967200D03*
%TO.P,D17,3,A2*%
%TO.N,Net-(T3-Pad10)*%
X300326800Y-118507200D03*
%TD*%
D18*
%TO.P,D18,1,K*%
%TO.N,Net-(C26-Pad1)*%
X248587000Y-146955200D03*
D19*
%TO.P,D18,2,A*%
%TO.N,Net-(D18-Pad2)*%
X238427000Y-146955200D03*
%TD*%
D18*
%TO.P,D19,1,K*%
%TO.N,Net-(C26-Pad1)*%
X251939800Y-146955200D03*
D19*
%TO.P,D19,2,A*%
%TO.N,Net-(D14-Pad2)*%
X262099800Y-146955200D03*
%TD*%
D18*
%TO.P,D20,1,K*%
%TO.N,Net-(D18-Pad2)*%
X238477800Y-142992800D03*
D19*
%TO.P,D20,2,A*%
%TO.N,Net-(C27-Pad2)*%
X248637800Y-142992800D03*
%TD*%
D18*
%TO.P,D21,1,K*%
%TO.N,Net-(D14-Pad2)*%
X262150600Y-142992800D03*
D19*
%TO.P,D21,2,A*%
%TO.N,Net-(C27-Pad2)*%
X251990600Y-142992800D03*
%TD*%
D11*
%TO.P,D22,1,K*%
%TO.N,Net-(C22-Pad1)*%
X313759730Y-170882000D03*
D20*
%TO.P,D22,2,A*%
%TO.N,Net-(C23-Pad1)*%
X321379730Y-170882000D03*
%TD*%
D16*
%TO.P,D23,1,K*%
%TO.N,Net-(C23-Pad1)*%
X328491730Y-171136000D03*
D17*
%TO.P,D23,2,A*%
%TO.N,Net-(D23-Pad2)*%
X328491730Y-183836000D03*
%TD*%
D11*
%TO.P,D24,1,K*%
%TO.N,FAULT*%
X311283230Y-204537000D03*
D20*
%TO.P,D24,2,A*%
%TO.N,TEMP*%
X311283230Y-196917000D03*
%TD*%
D18*
%TO.P,D25,1,K*%
%TO.N,+15V*%
X267214230Y-199457000D03*
D19*
%TO.P,D25,2,A*%
%TO.N,GND*%
X257054230Y-199457000D03*
%TD*%
D18*
%TO.P,D26,1,K*%
%TO.N,GND*%
X272802230Y-199457000D03*
D19*
%TO.P,D26,2,A*%
%TO.N,-15V*%
X282962230Y-199457000D03*
%TD*%
D25*
%TO.P,F1,1*%
%TO.N,Net-(C3-Pad1)*%
X66573000Y-86363500D03*
%TO.P,F1,2*%
%TO.N,/L*%
X44073000Y-86363500D03*
%TD*%
D26*
%TO.P,FL1,1,1*%
%TO.N,/N*%
X63906000Y-118812000D03*
D25*
%TO.P,FL1,2,2*%
%TO.N,Net-(C6-Pad1)*%
X79906000Y-118812000D03*
%TO.P,FL1,3,3*%
%TO.N,Net-(C3-Pad1)*%
X79906000Y-100812000D03*
%TO.P,FL1,4,4*%
%TO.N,Net-(C4-Pad1)*%
X63906000Y-100812000D03*
%TD*%
D26*
%TO.P,FL2,1,1*%
%TO.N,Net-(FL2-Pad1)*%
X87909000Y-162500000D03*
D25*
%TO.P,FL2,2,2*%
%TO.N,Net-(C8-Pad1)*%
X103909000Y-162500000D03*
%TO.P,FL2,3,3*%
%TO.N,Net-(C6-Pad1)*%
X103909000Y-144500000D03*
%TO.P,FL2,4,4*%
%TO.N,Net-(C8-Pad2)*%
X87909000Y-144500000D03*
%TD*%
D27*
%TO.P,HS3,1*%
%TO.N,N/C*%
X256927230Y-188382600D03*
%TO.P,HS3,2*%
X267087230Y-188382600D03*
%TD*%
%TO.P,HS5,1*%
%TO.N,N/C*%
X55778000Y-212004600D03*
%TO.P,HS5,2*%
X65938000Y-212004600D03*
%TD*%
D28*
%TO.P,J1,1,Pin_1*%
%TO.N,/L*%
X47396000Y-97984000D03*
D29*
%TO.P,J1,2,Pin_2*%
%TO.N,/N*%
X47396000Y-102984000D03*
%TO.P,J1,3,Pin_3*%
%TO.N,Earth_Protective*%
X47396000Y-107984000D03*
%TD*%
D30*
%TO.P,J2,1,Pin_1*%
%TO.N,VB*%
X155600000Y-196282000D03*
D31*
%TO.P,J2,2,Pin_2*%
%TO.N,unconnected-(J2-Pad2)*%
X153060000Y-196282000D03*
%TO.P,J2,3,Pin_3*%
%TO.N,HO*%
X150520000Y-196282000D03*
%TO.P,J2,4,Pin_4*%
%TO.N,VS*%
X147980000Y-196282000D03*
%TO.P,J2,5,Pin_5*%
%TO.N,unconnected-(J2-Pad5)*%
X145440000Y-196282000D03*
%TO.P,J2,6,Pin_6*%
%TO.N,LO*%
X142900000Y-196282000D03*
%TO.P,J2,7,Pin_7*%
%TO.N,+16V*%
X140360000Y-196282000D03*
%TO.P,J2,8,Pin_8*%
%TO.N,FBK+*%
X137820000Y-196282000D03*
%TO.P,J2,9,Pin_9*%
%TO.N,FBK-*%
X135280000Y-196282000D03*
%TO.P,J2,10,Pin_10*%
%TO.N,Shutdown*%
X132740000Y-196282000D03*
%TO.P,J2,11,Pin_11*%
%TO.N,CS+*%
X130200000Y-196282000D03*
%TO.P,J2,12,Pin_12*%
%TO.N,CS-*%
X127660000Y-196282000D03*
%TO.P,J2,13,Pin_13*%
%TO.N,~Shutdown*%
X125120000Y-196282000D03*
%TO.P,J2,14,Pin_14*%
%TO.N,GNDA*%
X122580000Y-196282000D03*
%TD*%
D32*
%TO.P,J3,1,Pin_1*%
%TO.N,GND*%
X328243800Y-156200800D03*
D33*
%TO.P,J3,2,Pin_2*%
%TO.N,Net-(C20-Pad1)*%
X328243800Y-158200800D03*
%TD*%
D32*
%TO.P,J4,1,Pin_1*%
%TO.N,GND*%
X328455800Y-147834800D03*
D33*
%TO.P,J4,2,Pin_2*%
%TO.N,Net-(C20-Pad1)*%
X328455800Y-149834800D03*
%TD*%
D34*
%TO.P,J5,1,Pin_1*%
%TO.N,Net-(C24-Pad1)*%
X252895800Y-84013200D03*
X257895800Y-84013200D03*
%TD*%
%TO.P,J6,1,Pin_1*%
%TO.N,GND*%
X326618200Y-141621200D03*
X331618200Y-141621200D03*
%TD*%
%TO.P,J7,1,Pin_1*%
%TO.N,Net-(C25-Pad2)*%
X295874200Y-82541600D03*
X300874200Y-82541600D03*
%TD*%
%TO.P,J8,1,Pin_1*%
%TO.N,Net-(C24-Pad1)*%
X268463800Y-83964000D03*
X263463800Y-83964000D03*
%TD*%
%TO.P,J9,1,Pin_1*%
%TO.N,GND*%
X299459000Y-104106000D03*
X294459000Y-104106000D03*
%TD*%
%TO.P,J10,1,Pin_1*%
%TO.N,Net-(C25-Pad2)*%
X352959000Y-112006000D03*
X352959000Y-117006000D03*
%TD*%
D35*
%TO.P,J11,1,Pin_1*%
%TO.N,Net-(J11-Pad1)*%
X341255230Y-210506000D03*
D36*
%TO.P,J11,2,Pin_2*%
%TO.N,+15V*%
X338755230Y-210506000D03*
%TO.P,J11,3,Pin_3*%
%TO.N,-15V*%
X336255230Y-210506000D03*
%TO.P,J11,4,Pin_4*%
%TO.N,SIG_A*%
X333755230Y-210506000D03*
%TO.P,J11,5,Pin_5*%
%TO.N,CLIP_A*%
X331255230Y-210506000D03*
%TO.P,J11,6,Pin_6*%
%TO.N,/PR1*%
X328755230Y-210506000D03*
%TO.P,J11,7,Pin_7*%
%TO.N,Net-(J11-Pad7)*%
X326255230Y-210506000D03*
%TO.P,J11,8,Pin_8*%
%TO.N,GND*%
X323755230Y-210506000D03*
%TD*%
D35*
%TO.P,J12,1,Pin_1*%
%TO.N,Net-(J11-Pad1)*%
X341255230Y-222190000D03*
D36*
%TO.P,J12,2,Pin_2*%
%TO.N,+15V*%
X338755230Y-222190000D03*
%TO.P,J12,3,Pin_3*%
%TO.N,-15V*%
X336255230Y-222190000D03*
%TO.P,J12,4,Pin_4*%
%TO.N,SIG_B*%
X333755230Y-222190000D03*
%TO.P,J12,5,Pin_5*%
%TO.N,CLIP_B*%
X331255230Y-222190000D03*
%TO.P,J12,6,Pin_6*%
%TO.N,Net-(J11-Pad7)*%
X328755230Y-222190000D03*
%TO.P,J12,7,Pin_7*%
%TO.N,/PR2*%
X326255230Y-222190000D03*
%TO.P,J12,8,Pin_8*%
%TO.N,GND*%
X323755230Y-222190000D03*
%TD*%
D35*
%TO.P,J13,1,Pin_1*%
%TO.N,PWR*%
X308523230Y-222578500D03*
D36*
%TO.P,J13,2,Pin_2*%
%TO.N,+24V*%
X306023230Y-222578500D03*
%TO.P,J13,3,Pin_3*%
%TO.N,FAULT*%
X303523230Y-222578500D03*
%TO.P,J13,4,Pin_4*%
%TO.N,CLIP_A*%
X301023230Y-222578500D03*
%TO.P,J13,5,Pin_5*%
%TO.N,CLIP_B*%
X298523230Y-222578500D03*
%TO.P,J13,6,Pin_6*%
%TO.N,TEMP*%
X296023230Y-222578500D03*
%TO.P,J13,7,Pin_7*%
%TO.N,+15V*%
X293523230Y-222578500D03*
%TO.P,J13,8,Pin_8*%
%TO.N,GND*%
X291023230Y-222578500D03*
%TO.P,J13,9,Pin_9*%
%TO.N,-15V*%
X288523230Y-222578500D03*
%TO.P,J13,10,Pin_10*%
%TO.N,SIG_A*%
X286023230Y-222578500D03*
%TO.P,J13,11,Pin_11*%
%TO.N,SIG_B*%
X283523230Y-222578500D03*
%TO.P,J13,12,Pin_12*%
%TO.N,MUTE*%
X281023230Y-222578500D03*
%TD*%
D35*
%TO.P,J14,1,Pin_1*%
%TO.N,+15V*%
X268856200Y-222342400D03*
D36*
%TO.P,J14,2,Pin_2*%
%TO.N,GND*%
X266356200Y-222342400D03*
%TO.P,J14,3,Pin_3*%
%TO.N,-15V*%
X263856200Y-222342400D03*
%TD*%
D37*
%TO.P,K1,11*%
%TO.N,Net-(C4-Pad1)*%
X86766000Y-101286000D03*
%TO.P,K1,12*%
%TO.N,unconnected-(K1-Pad12)*%
X100966000Y-95286000D03*
%TO.P,K1,14*%
%TO.N,Net-(FL2-Pad1)*%
X100966000Y-107286000D03*
%TO.P,K1,A1*%
%TO.N,GNDA*%
X88766000Y-107286000D03*
%TO.P,K1,A2*%
%TO.N,Net-(D6-Pad1)*%
X88766000Y-95286000D03*
%TD*%
D38*
%TO.P,L1,1,1*%
%TO.N,Net-(D8-Pad2)*%
X125031000Y-92055000D03*
%TO.P,L1,2,2*%
%TO.N,Net-(C8-Pad1)*%
X110731000Y-92055000D03*
%TO.P,L1,3*%
%TO.N,N/C*%
X117881000Y-109755000D03*
%TD*%
%TO.P,L2,1,1*%
%TO.N,Net-(D8-Pad3)*%
X104584000Y-115002000D03*
%TO.P,L2,2,2*%
%TO.N,Net-(C8-Pad2)*%
X90284000Y-115002000D03*
%TO.P,L2,3*%
%TO.N,N/C*%
X97434000Y-132702000D03*
%TD*%
D39*
%TO.P,L3,1,1*%
%TO.N,+24V*%
X256608600Y-167326000D03*
%TO.P,L3,2,2*%
%TO.N,Net-(C26-Pad1)*%
X268408600Y-167326000D03*
%TD*%
%TO.P,L4,1,1*%
%TO.N,-24V*%
X286849000Y-167376800D03*
%TO.P,L4,2,2*%
%TO.N,Net-(C27-Pad2)*%
X275049000Y-167376800D03*
%TD*%
D40*
%TO.P,Q1,1,C*%
%TO.N,Net-(Q1-Pad1)*%
X93954200Y-186325200D03*
D41*
%TO.P,Q1,2,B*%
%TO.N,Net-(D1-Pad2)*%
X91414200Y-183785200D03*
%TO.P,Q1,3,E*%
%TO.N,GNDA*%
X93954200Y-181245200D03*
%TD*%
D40*
%TO.P,Q2,1,E*%
%TO.N,+16V*%
X98526200Y-182769200D03*
D41*
%TO.P,Q2,2,B*%
%TO.N,Net-(Q2-Pad2)*%
X101066200Y-180229200D03*
%TO.P,Q2,3,C*%
%TO.N,Net-(Q2-Pad3)*%
X103606200Y-182769200D03*
%TD*%
D40*
%TO.P,Q3,1,E*%
%TO.N,Net-(Q3-Pad1)*%
X295943000Y-144466000D03*
D41*
%TO.P,Q3,2,B*%
%TO.N,Net-(C12-Pad2)*%
X293403000Y-141926000D03*
%TO.P,Q3,3,C*%
%TO.N,-24V*%
X295943000Y-139386000D03*
%TD*%
D40*
%TO.P,Q4,1,E*%
%TO.N,Net-(D11-Pad1)*%
X273837000Y-149546000D03*
D41*
%TO.P,Q4,2,B*%
%TO.N,Net-(D10-Pad1)*%
X276377000Y-152086000D03*
%TO.P,Q4,3,C*%
%TO.N,Net-(Q4-Pad3)*%
X273837000Y-154626000D03*
%TD*%
D40*
%TO.P,Q5,1,E*%
%TO.N,GND*%
X294927000Y-152848000D03*
D41*
%TO.P,Q5,2,B*%
%TO.N,Net-(C19-Pad1)*%
X292387000Y-150308000D03*
%TO.P,Q5,3,C*%
%TO.N,Net-(C19-Pad2)*%
X294927000Y-147768000D03*
%TD*%
D42*
%TO.P,Q6,1,G*%
%TO.N,Net-(D12-Pad2)*%
X194081000Y-131981900D03*
D43*
%TO.P,Q6,2,D*%
%TO.N,VB*%
X194081000Y-137431900D03*
%TO.P,Q6,3,S*%
%TO.N,VS*%
X194081000Y-142881900D03*
%TD*%
D42*
%TO.P,Q7,1,G*%
%TO.N,Net-(D13-Pad2)*%
X194081000Y-180534000D03*
D43*
%TO.P,Q7,2,D*%
%TO.N,VS*%
X194081000Y-185984000D03*
%TO.P,Q7,3,S*%
%TO.N,GNDA*%
X194081000Y-191434000D03*
%TD*%
D40*
%TO.P,Q8,1,E*%
%TO.N,Net-(Q8-Pad1)*%
X298475000Y-131512000D03*
D41*
%TO.P,Q8,2,B*%
%TO.N,Net-(Q8-Pad2)*%
X301015000Y-134052000D03*
%TO.P,Q8,3,C*%
%TO.N,-24V*%
X298475000Y-136592000D03*
%TD*%
D44*
%TO.P,Q9,1,E*%
%TO.N,Net-(C20-Pad1)*%
X301402000Y-140656000D03*
D45*
%TO.P,Q9,2,C*%
%TO.N,-24V*%
X301402000Y-143196000D03*
%TO.P,Q9,3,B*%
%TO.N,Net-(Q8-Pad1)*%
X301402000Y-145736000D03*
%TD*%
D40*
%TO.P,Q10,1,C*%
%TO.N,Net-(Q10-Pad1)*%
X292487230Y-204537000D03*
D41*
%TO.P,Q10,2,B*%
%TO.N,FAULT*%
X295027230Y-201997000D03*
%TO.P,Q10,3,E*%
%TO.N,GND*%
X297567230Y-204537000D03*
%TD*%
D40*
%TO.P,Q11,1,C*%
%TO.N,Net-(Q11-Pad1)*%
X302774230Y-204664000D03*
D41*
%TO.P,Q11,2,B*%
%TO.N,Net-(Q11-Pad2)*%
X305314230Y-202124000D03*
%TO.P,Q11,3,E*%
%TO.N,+15V*%
X307854230Y-204664000D03*
%TD*%
D40*
%TO.P,Q12,1,C*%
%TO.N,Net-(Q12-Pad1)*%
X323919730Y-184979000D03*
D41*
%TO.P,Q12,2,B*%
%TO.N,Net-(D23-Pad2)*%
X321379730Y-182439000D03*
%TO.P,Q12,3,E*%
%TO.N,GND*%
X323919730Y-179899000D03*
%TD*%
D46*
%TO.P,Q14,1,E*%
%TO.N,Net-(C21-Pad1)*%
X301567730Y-180280000D03*
D47*
%TO.P,Q14,2,B*%
%TO.N,Net-(Q14-Pad2)*%
X301567730Y-181550000D03*
%TO.P,Q14,3,C*%
%TO.N,MUTE*%
X301567730Y-182820000D03*
%TD*%
D40*
%TO.P,Q15,1,C*%
%TO.N,Net-(C23-Pad1)*%
X319982730Y-190440000D03*
D41*
%TO.P,Q15,2,B*%
%TO.N,TEMP*%
X322522730Y-187900000D03*
%TO.P,Q15,3,E*%
%TO.N,GND*%
X325062730Y-190440000D03*
%TD*%
D15*
%TO.P,R1,1*%
%TO.N,Net-(C2-Pad1)*%
X101320200Y-194707200D03*
D48*
%TO.P,R1,2*%
%TO.N,+16V*%
X101320200Y-187087200D03*
%TD*%
D15*
%TO.P,R2,1*%
%TO.N,Net-(Q1-Pad1)*%
X104114200Y-194707200D03*
D48*
%TO.P,R2,2*%
%TO.N,+16V*%
X104114200Y-187087200D03*
%TD*%
D10*
%TO.P,R3,1*%
%TO.N,Net-(R3-Pad1)*%
X78765000Y-86427000D03*
D17*
%TO.P,R3,2*%
%TO.N,Net-(C4-Pad1)*%
X71145000Y-86427000D03*
%TD*%
D15*
%TO.P,R4,1*%
%TO.N,Net-(Q2-Pad2)*%
X106908200Y-187087200D03*
D48*
%TO.P,R4,2*%
%TO.N,Net-(Q1-Pad1)*%
X106908200Y-194707200D03*
%TD*%
D10*
%TO.P,R5,1*%
%TO.N,Net-(FL2-Pad1)*%
X93243000Y-86363500D03*
D17*
%TO.P,R5,2*%
%TO.N,Net-(R3-Pad1)*%
X85623000Y-86363500D03*
%TD*%
D15*
%TO.P,R6,1*%
%TO.N,Net-(D6-Pad1)*%
X106908200Y-177181200D03*
D48*
%TO.P,R6,2*%
%TO.N,Net-(Q2-Pad3)*%
X106908200Y-184801200D03*
%TD*%
D10*
%TO.P,R7,1*%
%TO.N,VB*%
X134899000Y-106874000D03*
D17*
%TO.P,R7,2*%
%TO.N,Net-(R7-Pad2)*%
X134899000Y-94174000D03*
%TD*%
D10*
%TO.P,R8,1*%
%TO.N,Net-(R7-Pad2)*%
X146938600Y-94174000D03*
D17*
%TO.P,R8,2*%
%TO.N,Net-(C13-Pad2)*%
X146938600Y-106874000D03*
%TD*%
D10*
%TO.P,R9,1*%
%TO.N,Net-(C13-Pad2)*%
X148107000Y-178502000D03*
D17*
%TO.P,R9,2*%
%TO.N,Net-(R10-Pad1)*%
X160807000Y-178502000D03*
%TD*%
D10*
%TO.P,R10,1*%
%TO.N,Net-(R10-Pad1)*%
X160807000Y-173676000D03*
D17*
%TO.P,R10,2*%
%TO.N,GNDA*%
X148107000Y-173676000D03*
%TD*%
D15*
%TO.P,R11,1*%
%TO.N,-24V*%
X288823000Y-141672000D03*
D48*
%TO.P,R11,2*%
%TO.N,Net-(C12-Pad2)*%
X281203000Y-141672000D03*
%TD*%
D15*
%TO.P,R12,1*%
%TO.N,Net-(Q3-Pad1)*%
X288823000Y-147428000D03*
D48*
%TO.P,R12,2*%
%TO.N,/PR2*%
X281203000Y-147428000D03*
%TD*%
D15*
%TO.P,R13,1*%
%TO.N,/PR1*%
X281203000Y-152762000D03*
D48*
%TO.P,R13,2*%
%TO.N,GND*%
X288823000Y-152762000D03*
%TD*%
D15*
%TO.P,R14,1*%
%TO.N,Net-(C19-Pad1)*%
X288823000Y-149968000D03*
D48*
%TO.P,R14,2*%
%TO.N,/PR1*%
X281203000Y-149968000D03*
%TD*%
D15*
%TO.P,R15,1*%
%TO.N,Net-(Q4-Pad3)*%
X268246600Y-151019200D03*
D48*
%TO.P,R15,2*%
%TO.N,GND*%
X268246600Y-143399200D03*
%TD*%
D15*
%TO.P,R16,1*%
%TO.N,-24V*%
X298729000Y-149292000D03*
D48*
%TO.P,R16,2*%
%TO.N,Net-(C19-Pad2)*%
X298729000Y-156912000D03*
%TD*%
D15*
%TO.P,R17,1*%
%TO.N,Net-(D12-Pad2)*%
X183159000Y-132020000D03*
D48*
%TO.P,R17,2*%
%TO.N,HO*%
X183159000Y-139640000D03*
%TD*%
D15*
%TO.P,R18,1*%
%TO.N,Net-(D13-Pad2)*%
X187271400Y-181092800D03*
D48*
%TO.P,R18,2*%
%TO.N,LO*%
X179651400Y-181092800D03*
%TD*%
D15*
%TO.P,R19,1*%
%TO.N,-24V*%
X301269000Y-149292000D03*
D48*
%TO.P,R19,2*%
%TO.N,Net-(C19-Pad2)*%
X301269000Y-156912000D03*
%TD*%
D15*
%TO.P,R20,1*%
%TO.N,Net-(Q8-Pad2)*%
X294586400Y-129099000D03*
D48*
%TO.P,R20,2*%
%TO.N,Net-(C19-Pad2)*%
X294586400Y-136719000D03*
%TD*%
D15*
%TO.P,R21,1*%
%TO.N,Net-(D12-Pad2)*%
X188493000Y-132045400D03*
D48*
%TO.P,R21,2*%
%TO.N,VS*%
X188493000Y-139665400D03*
%TD*%
D15*
%TO.P,R22,1*%
%TO.N,Net-(D13-Pad2)*%
X180159400Y-187290400D03*
D48*
%TO.P,R22,2*%
%TO.N,GNDA*%
X187779400Y-187290400D03*
%TD*%
D15*
%TO.P,R23,1*%
%TO.N,Net-(R23-Pad1)*%
X148056200Y-217364000D03*
D48*
%TO.P,R23,2*%
%TO.N,+16V*%
X140436200Y-217364000D03*
%TD*%
D15*
%TO.P,R24,1*%
%TO.N,Net-(R24-Pad1)*%
X250450230Y-223333000D03*
D48*
%TO.P,R24,2*%
%TO.N,+15V*%
X258070230Y-223333000D03*
%TD*%
D15*
%TO.P,R25,1*%
%TO.N,Net-(C22-Pad1)*%
X313759730Y-181550000D03*
D48*
%TO.P,R25,2*%
%TO.N,GND*%
X313759730Y-173930000D03*
%TD*%
D15*
%TO.P,R26,1*%
%TO.N,Net-(C21-Pad1)*%
X311473730Y-183963000D03*
D48*
%TO.P,R26,2*%
%TO.N,Net-(C23-Pad1)*%
X319093730Y-183963000D03*
%TD*%
D15*
%TO.P,R27,1*%
%TO.N,FAULT*%
X291344230Y-199330000D03*
D48*
%TO.P,R27,2*%
%TO.N,Net-(Q11-Pad1)*%
X298964230Y-199330000D03*
%TD*%
D15*
%TO.P,R28,1*%
%TO.N,GND*%
X298964230Y-196917000D03*
D48*
%TO.P,R28,2*%
%TO.N,FAULT*%
X291344230Y-196917000D03*
%TD*%
D15*
%TO.P,R29,1*%
%TO.N,Net-(C21-Pad1)*%
X300297730Y-188662000D03*
D48*
%TO.P,R29,2*%
%TO.N,Net-(Q12-Pad1)*%
X307917730Y-188662000D03*
%TD*%
D15*
%TO.P,R30,1*%
%TO.N,Net-(C24-Pad1)*%
X268018000Y-87900200D03*
D48*
%TO.P,R30,2*%
%TO.N,Net-(R30-Pad2)*%
X260398000Y-87900200D03*
%TD*%
D15*
%TO.P,R31,1*%
%TO.N,Net-(R30-Pad2)*%
X257350000Y-87849400D03*
D48*
%TO.P,R31,2*%
%TO.N,GND*%
X249730000Y-87849400D03*
%TD*%
D15*
%TO.P,R32,1*%
%TO.N,GND*%
X340909000Y-107686800D03*
D48*
%TO.P,R32,2*%
%TO.N,Net-(R32-Pad2)*%
X348529000Y-107686800D03*
%TD*%
D15*
%TO.P,R33,1*%
%TO.N,Net-(R32-Pad2)*%
X351909000Y-98556000D03*
D48*
%TO.P,R33,2*%
%TO.N,Net-(C25-Pad2)*%
X351909000Y-106176000D03*
%TD*%
D15*
%TO.P,R34,1*%
%TO.N,Net-(Q12-Pad1)*%
X307917730Y-191202000D03*
D48*
%TO.P,R34,2*%
%TO.N,GND*%
X300297730Y-191202000D03*
%TD*%
D15*
%TO.P,R35,1*%
%TO.N,Net-(Q11-Pad2)*%
X300996230Y-199330000D03*
D48*
%TO.P,R35,2*%
%TO.N,+15V*%
X308616230Y-199330000D03*
%TD*%
D15*
%TO.P,R36,1*%
%TO.N,Net-(C21-Pad1)*%
X296487730Y-178502000D03*
D48*
%TO.P,R36,2*%
%TO.N,Net-(Q14-Pad2)*%
X296487730Y-186122000D03*
%TD*%
D15*
%TO.P,R37,1*%
%TO.N,Net-(Q14-Pad2)*%
X300297730Y-186122000D03*
D48*
%TO.P,R37,2*%
%TO.N,Net-(Q13-Pad1)*%
X307917730Y-186122000D03*
%TD*%
D15*
%TO.P,R38,1*%
%TO.N,PWR*%
X307981230Y-217872000D03*
D48*
%TO.P,R38,2*%
%TO.N,+15V*%
X307981230Y-210252000D03*
%TD*%
D15*
%TO.P,R39,1*%
%TO.N,Net-(J11-Pad1)*%
X308616230Y-196917000D03*
D48*
%TO.P,R39,2*%
%TO.N,Net-(Q11-Pad2)*%
X300996230Y-196917000D03*
%TD*%
D15*
%TO.P,R40,1*%
%TO.N,TEMP*%
X307917730Y-193615000D03*
D48*
%TO.P,R40,2*%
%TO.N,GND*%
X300297730Y-193615000D03*
%TD*%
D49*
%TO.P,T3,1,1*%
%TO.N,VS*%
X225831000Y-93920000D03*
%TO.P,T3,2,2*%
X225831000Y-99000000D03*
%TO.P,T3,3,3*%
%TO.N,Net-(L5-Pad7)*%
X225831000Y-104080000D03*
%TO.P,T3,4,4*%
X225831000Y-109160000D03*
%TO.P,T3,5*%
%TO.N,N/C*%
X225831000Y-114240000D03*
%TO.P,T3,6*%
X225831000Y-119320000D03*
%TO.P,T3,7,7*%
%TO.N,unconnected-(T3-Pad7)*%
X225831000Y-124400000D03*
%TO.P,T3,8,8*%
%TO.N,unconnected-(T3-Pad8)*%
X225831000Y-129480000D03*
%TO.P,T3,9,9*%
%TO.N,unconnected-(T3-Pad9)*%
X225831000Y-134560000D03*
%TO.P,T3,10,10*%
%TO.N,Net-(T3-Pad10)*%
X261391000Y-134560000D03*
%TO.P,T3,11,11*%
%TO.N,Net-(C25-Pad2)*%
X261391000Y-129480000D03*
%TO.P,T3,12,12*%
%TO.N,Net-(T3-Pad12)*%
X261391000Y-124400000D03*
%TO.P,T3,13,13*%
%TO.N,Net-(D16-Pad3)*%
X261391000Y-119320000D03*
%TO.P,T3,14,14*%
%TO.N,GND*%
X261391000Y-114240000D03*
%TO.P,T3,15,15*%
%TO.N,Net-(D16-Pad1)*%
X261391000Y-109160000D03*
%TO.P,T3,16,16*%
%TO.N,Net-(D14-Pad2)*%
X261391000Y-104080000D03*
%TO.P,T3,17,17*%
%TO.N,GND*%
X261391000Y-99000000D03*
%TO.P,T3,18,18*%
%TO.N,Net-(D18-Pad2)*%
X261391000Y-93920000D03*
%TD*%
D50*
%TO.P,U1,1,VI*%
%TO.N,Net-(C7-Pad1)*%
X58064000Y-218888000D03*
D51*
%TO.P,U1,2,GND*%
%TO.N,Net-(D7-Pad2)*%
X60604000Y-218888000D03*
%TO.P,U1,3,VO*%
%TO.N,+16V*%
X63144000Y-218888000D03*
%TD*%
D52*
%TO.P,U2,1*%
%TO.N,Net-(R24-Pad1)*%
X170524800Y-215215400D03*
D53*
%TO.P,U2,2*%
%TO.N,Net-(Q10-Pad1)*%
X170524800Y-212675400D03*
%TO.P,U2,3,NC*%
%TO.N,unconnected-(U2-Pad3)*%
X170524800Y-210135400D03*
%TO.P,U2,4*%
%TO.N,Shutdown*%
X162904800Y-210135400D03*
%TO.P,U2,5*%
%TO.N,Net-(R23-Pad1)*%
X162904800Y-212675400D03*
%TO.P,U2,6*%
%TO.N,unconnected-(U2-Pad6)*%
X162904800Y-215215400D03*
%TD*%
D50*
%TO.P,U3,1,VI*%
%TO.N,+24V*%
X259594230Y-195393000D03*
D51*
%TO.P,U3,2,GND*%
%TO.N,GND*%
X262134230Y-195393000D03*
%TO.P,U3,3,VO*%
%TO.N,+15V*%
X264674230Y-195393000D03*
%TD*%
D50*
%TO.P,U4,1,GND*%
%TO.N,GND*%
X276485230Y-195393000D03*
D51*
%TO.P,U4,2,VI*%
%TO.N,-24V*%
X279025230Y-195393000D03*
%TO.P,U4,3,VO*%
%TO.N,-15V*%
X281565230Y-195393000D03*
%TD*%
D22*
%TO.P,T1,1,AA*%
%TO.N,/L*%
X48612000Y-163335000D03*
%TO.P,T1,2,AB*%
%TO.N,/N*%
X48612000Y-188335000D03*
%TO.P,T1,3,SA*%
%TO.N,Net-(D3-Pad2)*%
X73612000Y-168335000D03*
%TO.P,T1,4,SB*%
%TO.N,Net-(D2-Pad2)*%
X73612000Y-183335000D03*
%TD*%
D54*
%TO.P,H1,1,1*%
%TO.N,Earth_Protective*%
X34052845Y-82699845D03*
D55*
X35909000Y-84556000D03*
D54*
X35909000Y-81931000D03*
X38534000Y-84556000D03*
X37765155Y-86412155D03*
X35909000Y-87181000D03*
X37765155Y-82699845D03*
X34052845Y-86412155D03*
X33284000Y-84556000D03*
%TD*%
%TO.P,H2,1*%
%TO.N,N/C*%
X36000000Y-221931000D03*
X37856155Y-222699845D03*
X36000000Y-227181000D03*
X37856155Y-226412155D03*
X34143845Y-222699845D03*
D55*
X36000000Y-224556000D03*
D54*
X33375000Y-224556000D03*
X34143845Y-226412155D03*
X38625000Y-224556000D03*
%TD*%
%TO.P,H3,1*%
%TO.N,N/C*%
X353765155Y-86412155D03*
X351909000Y-81931000D03*
X353765155Y-82699845D03*
X349284000Y-84556000D03*
X354534000Y-84556000D03*
X351909000Y-87181000D03*
X350052845Y-86412155D03*
D55*
X351909000Y-84556000D03*
D54*
X350052845Y-82699845D03*
%TD*%
%TO.P,H4,1*%
%TO.N,N/C*%
X242521000Y-221931000D03*
D55*
X242521000Y-224556000D03*
D54*
X244377155Y-222699845D03*
X242521000Y-227181000D03*
X240664845Y-222699845D03*
X240664845Y-226412155D03*
X239896000Y-224556000D03*
X245146000Y-224556000D03*
X244377155Y-226412155D03*
%TD*%
D10*
%TO.P,C5,1*%
%TO.N,GNDA*%
X122326000Y-84522000D03*
%TO.P,C5,2*%
%TO.N,Earth_Protective*%
X107326000Y-84522000D03*
%TD*%
D54*
%TO.P,H5,1,1*%
%TO.N,Net-(C9-Pad2)*%
X350052845Y-222699845D03*
X351909000Y-227181000D03*
X354534000Y-224556000D03*
X353765155Y-226412155D03*
X353765155Y-222699845D03*
X349284000Y-224556000D03*
X351909000Y-221931000D03*
X350052845Y-226412155D03*
D55*
X351909000Y-224556000D03*
%TD*%
D27*
%TO.P,HS7,1*%
%TO.N,N/C*%
X274072230Y-188382600D03*
%TO.P,HS7,2*%
X284232230Y-188382600D03*
%TD*%
D15*
%TO.P,R41,1*%
%TO.N,Net-(Q16-Pad3)*%
X163751000Y-182108800D03*
D48*
%TO.P,R41,2*%
%TO.N,Shutdown*%
X156131000Y-182108800D03*
%TD*%
D56*
%TO.P,TH1,1*%
%TO.N,+16V*%
X194713600Y-168672200D03*
%TO.P,TH1,2*%
%TO.N,Net-(Q16-Pad2)*%
X192213600Y-168672200D03*
%TD*%
D15*
%TO.P,R42,1*%
%TO.N,Net-(Q16-Pad2)*%
X180819800Y-178197200D03*
D48*
%TO.P,R42,2*%
%TO.N,GNDA*%
X188439800Y-178197200D03*
%TD*%
D40*
%TO.P,Q16,1,E*%
%TO.N,+16V*%
X182826400Y-172042400D03*
D41*
%TO.P,Q16,2,B*%
%TO.N,Net-(Q16-Pad2)*%
X180286400Y-174582400D03*
%TO.P,Q16,3,C*%
%TO.N,Net-(Q16-Pad3)*%
X177746400Y-172042400D03*
%TD*%
D40*
%TO.P,Q13,1,C*%
%TO.N,Net-(Q13-Pad1)*%
X313715000Y-186884000D03*
D41*
%TO.P,Q13,2,B*%
%TO.N,Net-(Q12-Pad1)*%
X316255000Y-189424000D03*
%TO.P,Q13,3,E*%
%TO.N,GND*%
X313715000Y-191964000D03*
%TD*%
D54*
%TO.P,H6,1*%
%TO.N,N/C*%
X242521000Y-87181000D03*
X242521000Y-81931000D03*
X244377155Y-82699845D03*
D55*
X242521000Y-84556000D03*
D54*
X239896000Y-84556000D03*
X240664845Y-82699845D03*
X245146000Y-84556000D03*
X240664845Y-86412155D03*
X244377155Y-86412155D03*
%TD*%
D57*
%TO.P,L5,1,SEC1*%
%TO.N,CS-*%
X178171000Y-166411000D03*
%TO.P,L5,2,2*%
%TO.N,unconnected-(L5-Pad2)*%
X180021000Y-166411000D03*
%TO.P,L5,3,SEC2*%
%TO.N,CS+*%
X181871000Y-166411000D03*
%TO.P,L5,4,4*%
%TO.N,unconnected-(L5-Pad4)*%
X181871000Y-159301000D03*
%TO.P,L5,5,5*%
%TO.N,unconnected-(L5-Pad5)*%
X180021000Y-159301000D03*
%TO.P,L5,6,6*%
%TO.N,unconnected-(L5-Pad6)*%
X178171000Y-159301000D03*
D58*
%TO.P,L5,7,PRI1*%
%TO.N,Net-(L5-Pad7)*%
X182636000Y-162856000D03*
%TO.P,L5,8,PRI2*%
%TO.N,Net-(C17-Pad1)*%
X177406000Y-162856000D03*
%TD*%
D30*
%TO.P,B1,1,+Vb*%
%TO.N,VB*%
X59892800Y-159635000D03*
D31*
%TO.P,B1,2,2*%
%TO.N,unconnected-(B1-Pad2)*%
X57352800Y-159635000D03*
%TO.P,B1,3,3*%
%TO.N,unconnected-(B1-Pad3)*%
X54812800Y-159635000D03*
%TO.P,B1,4,PWRGND*%
%TO.N,GNDA*%
X52272800Y-159635000D03*
D30*
%TO.P,B1,5,+16V*%
%TO.N,+16V*%
X59892800Y-207585000D03*
D31*
%TO.P,B1,6,6*%
%TO.N,unconnected-(B1-Pad6)*%
X57352800Y-207585000D03*
%TO.P,B1,7,7*%
%TO.N,unconnected-(B1-Pad7)*%
X54812800Y-207585000D03*
%TO.P,B1,8,GND*%
%TO.N,GNDA*%
X52272800Y-207585000D03*
%TD*%
D59*
%TO.N,VB*%
X155648400Y-187747600D03*
%TO.N,-15V*%
X273949615Y-222914615D03*
%TO.N,/PR1*%
X291871089Y-187906089D03*
%TO.N,CLIP_A*%
X301063400Y-219243600D03*
D60*
%TO.N,Net-(Q10-Pad1)*%
X262915000Y-203546400D03*
%TD*%
D61*
%TO.N,Earth_Protective*%
X106126001Y-83322001D02*
X39589999Y-83322001D01*
D62*
X47396000Y-107984000D02*
X42443000Y-112937000D01*
X46761000Y-129748000D02*
X46761000Y-134800000D01*
X55016000Y-129748000D02*
X55016000Y-134800000D01*
D61*
X107326000Y-84522000D02*
X106126001Y-83322001D01*
D62*
X42443000Y-112937000D02*
X42443000Y-125430000D01*
X42443000Y-125430000D02*
X46761000Y-129748000D01*
X36440000Y-97028000D02*
X47396000Y-107984000D01*
X46761000Y-129748000D02*
X55016000Y-129748000D01*
D61*
X39589999Y-83322001D02*
X36440000Y-86472000D01*
D62*
X36440000Y-86472000D02*
X36440000Y-97028000D01*
%TO.N,/N*%
X47396000Y-102984000D02*
X50231001Y-105819001D01*
D63*
X46761000Y-114748000D02*
X50825000Y-118812000D01*
X50825000Y-118812000D02*
X63906000Y-118812000D01*
D62*
X50231001Y-111277999D02*
X46761000Y-114748000D01*
X50231001Y-105819001D02*
X50231001Y-111277999D01*
%TO.N,GNDA*%
X52272800Y-159635000D02*
X54457811Y-161820011D01*
X101897719Y-171493127D02*
X111570836Y-161820011D01*
X81974884Y-171493127D02*
X101897719Y-171493127D01*
X111570836Y-161820011D02*
X121044011Y-161820011D01*
X121044011Y-161820011D02*
X128930000Y-169706000D01*
X72301767Y-161820011D02*
X81974884Y-171493127D01*
X54457811Y-161820011D02*
X72301767Y-161820011D01*
D64*
%TO.N,Net-(C2-Pad1)*%
X96748200Y-193691200D02*
X93954200Y-193691200D01*
X93954200Y-193691200D02*
X90906200Y-193691200D01*
X97764200Y-194707200D02*
X96748200Y-193691200D01*
X90906200Y-193691200D02*
X89636200Y-194961200D01*
X101320200Y-194707200D02*
X97764200Y-194707200D01*
X89636200Y-194961200D02*
X87096200Y-194961200D01*
D63*
%TO.N,Net-(C3-Pad1)*%
X55016000Y-97920500D02*
X66573000Y-86363500D01*
X55016000Y-114748000D02*
X55016000Y-97920500D01*
X79906000Y-99696500D02*
X79906000Y-100812000D01*
X66573000Y-86363500D02*
X79906000Y-99696500D01*
%TO.N,Net-(C4-Pad1)*%
X83950999Y-104101001D02*
X86766000Y-101286000D01*
X86766000Y-101286000D02*
X71907000Y-86427000D01*
X46761000Y-149800000D02*
X46761000Y-147478722D01*
X67195001Y-104101001D02*
X83950999Y-104101001D01*
X67195001Y-127044721D02*
X67195001Y-104101001D01*
X71907000Y-86427000D02*
X71145000Y-86427000D01*
X46761000Y-147478722D02*
X67195001Y-127044721D01*
X63906000Y-100812000D02*
X67195001Y-104101001D01*
%TO.N,Net-(C6-Pad1)*%
X79906000Y-118812000D02*
X55016000Y-143702000D01*
X55016000Y-143702000D02*
X55016000Y-149800000D01*
D62*
%TO.N,Net-(C7-Pad1)*%
X48666000Y-210328200D02*
X48666000Y-206823000D01*
X73050000Y-206442000D02*
X66420600Y-206442000D01*
X66420600Y-206442000D02*
X58064000Y-214798600D01*
X57225800Y-218888000D02*
X48666000Y-210328200D01*
X58064000Y-218888000D02*
X57225800Y-218888000D01*
D65*
X73050000Y-202632000D02*
X73050000Y-206442000D01*
D62*
X58064000Y-214798600D02*
X58064000Y-218888000D01*
D63*
%TO.N,Net-(C8-Pad2)*%
X90284000Y-142125000D02*
X87909000Y-144500000D01*
X90284000Y-115002000D02*
X90284000Y-142125000D01*
X69875000Y-134419000D02*
X76606000Y-134419000D01*
X76606000Y-134419000D02*
X77255000Y-135068000D01*
X86687000Y-144500000D02*
X77255000Y-135068000D01*
X87909000Y-144500000D02*
X86687000Y-144500000D01*
%TO.N,Net-(C8-Pad1)*%
X100736000Y-110629798D02*
X100736000Y-127912999D01*
X100619999Y-142921279D02*
X100619999Y-159210999D01*
X103705001Y-99548999D02*
X110731000Y-92523000D01*
X69875000Y-149957538D02*
X69875000Y-149419000D01*
X103909000Y-162500000D02*
X100619999Y-165789001D01*
X100619999Y-159210999D02*
X103909000Y-162500000D01*
X103705001Y-108600721D02*
X103705001Y-99548999D01*
X100619999Y-165789001D02*
X85706463Y-165789001D01*
X102280721Y-110025001D02*
X103705001Y-108600721D01*
X85706463Y-165789001D02*
X69875000Y-149957538D01*
X102280721Y-110025001D02*
X101340797Y-110025001D01*
X101340797Y-110025001D02*
X100736000Y-110629798D01*
X101223001Y-128400000D02*
X101223001Y-142318277D01*
X101223001Y-142318277D02*
X100619999Y-142921279D01*
X100736000Y-127912999D02*
X101223001Y-128400000D01*
D62*
%TO.N,+16V*%
X49682000Y-217745000D02*
X51460000Y-217745000D01*
D64*
X110362600Y-193335600D02*
X104114200Y-187087200D01*
X168060955Y-183980355D02*
X152661645Y-183980355D01*
D66*
X101320200Y-187087200D02*
X101320200Y-185563200D01*
D64*
X112572400Y-199711000D02*
X110362600Y-197501200D01*
D62*
X56159000Y-222444000D02*
X63779000Y-222444000D01*
D64*
X140360000Y-196282000D02*
X139103589Y-195025589D01*
D62*
X140436200Y-196358200D02*
X140360000Y-196282000D01*
X63779000Y-222444000D02*
X137540600Y-222444000D01*
X140436200Y-219548400D02*
X140436200Y-217364000D01*
D64*
X128657667Y-199711000D02*
X112572400Y-199711000D01*
X193092600Y-166868800D02*
X194921400Y-168697600D01*
X182826400Y-172042400D02*
X186212600Y-172042400D01*
X186212600Y-172042400D02*
X191386200Y-166868800D01*
X182826400Y-172042400D02*
X179998909Y-172042400D01*
X179998909Y-172042400D02*
X168060955Y-183980355D01*
X131483589Y-196885078D02*
X128657667Y-199711000D01*
X139103589Y-195025589D02*
X132136922Y-195025589D01*
D62*
X137540600Y-222444000D02*
X140436200Y-219548400D01*
D64*
X132136922Y-195025589D02*
X131483589Y-195678922D01*
D62*
X51460000Y-217745000D02*
X56159000Y-222444000D01*
D64*
X152661645Y-183980355D02*
X140360000Y-196282000D01*
D62*
X63144000Y-221809000D02*
X63779000Y-222444000D01*
X63144000Y-218888000D02*
X63144000Y-221809000D01*
D66*
X104114200Y-187087200D02*
X101320200Y-187087200D01*
D64*
X110362600Y-197501200D02*
X110362600Y-193335600D01*
D66*
X101320200Y-185563200D02*
X98526200Y-182769200D01*
D64*
X131483589Y-195678922D02*
X131483589Y-196885078D01*
X191386200Y-166868800D02*
X193092600Y-166868800D01*
D62*
%TO.N,VB*%
X101081710Y-169523107D02*
X125594989Y-145009828D01*
X125594989Y-145009828D02*
X125594989Y-126719011D01*
D67*
X194144500Y-137431900D02*
X193128589Y-136415989D01*
D62*
X82790893Y-169523107D02*
X101081710Y-169523107D01*
D67*
X199333000Y-98970000D02*
X194685000Y-98970000D01*
D61*
X140847000Y-106874000D02*
X140944200Y-106971200D01*
X155600000Y-187796000D02*
X155648400Y-187747600D01*
D62*
X125594989Y-126719011D02*
X128930000Y-123384000D01*
X72902786Y-159635000D02*
X82790893Y-169523107D01*
D61*
X134899000Y-106874000D02*
X140847000Y-106874000D01*
X155600000Y-196282000D02*
X155600000Y-187796000D01*
D62*
X59892800Y-159635000D02*
X72902786Y-159635000D01*
D66*
%TO.N,Net-(C12-Pad2)*%
X276478600Y-136947600D02*
X281203000Y-141672000D01*
X272313000Y-142648000D02*
X272313000Y-136947600D01*
X292487089Y-142841911D02*
X293403000Y-141926000D01*
X281203000Y-141672000D02*
X282372911Y-142841911D01*
X282372911Y-142841911D02*
X292487089Y-142841911D01*
X272313000Y-136947600D02*
X276478600Y-136947600D01*
X273115000Y-143450000D02*
X272313000Y-142648000D01*
D63*
%TO.N,Net-(C13-Pad2)*%
X168935000Y-106874000D02*
X171221000Y-104588000D01*
D67*
X154196000Y-163015000D02*
X154196000Y-167046600D01*
X138455000Y-159706000D02*
X141764000Y-163015000D01*
D63*
X146938600Y-106874000D02*
X168935000Y-106874000D01*
D67*
X154196000Y-159680600D02*
X154196000Y-163015000D01*
X141764000Y-163015000D02*
X154196000Y-163015000D01*
D61*
X148107000Y-178502000D02*
X154221400Y-172387600D01*
D67*
X128930000Y-159706000D02*
X138455000Y-159706000D01*
D61*
X154221400Y-172387600D02*
X154221400Y-167072000D01*
D67*
X128930000Y-133384000D02*
X128930000Y-159706000D01*
X154196000Y-167046600D02*
X154221400Y-167072000D01*
%TO.N,Net-(C17-Pad1)*%
X169595000Y-162856000D02*
X169196000Y-163255000D01*
X177406000Y-162856000D02*
X169595000Y-162856000D01*
X169196000Y-167046600D02*
X169221400Y-167072000D01*
X169196000Y-163255000D02*
X169196000Y-167046600D01*
X169196000Y-159680600D02*
X169196000Y-163255000D01*
D66*
%TO.N,Net-(C19-Pad2)*%
X294411000Y-140588160D02*
X294512600Y-140486560D01*
X294512600Y-140486560D02*
X294512600Y-136792800D01*
X298729000Y-156912000D02*
X301269000Y-156912000D01*
X294411000Y-157420000D02*
X298221000Y-157420000D01*
X293707089Y-156716089D02*
X294411000Y-157420000D01*
X294927000Y-147768000D02*
X297162911Y-145532089D01*
X293707089Y-148987911D02*
X293707089Y-156716089D01*
X294927000Y-147768000D02*
X293707089Y-148987911D01*
X298221000Y-157420000D02*
X298729000Y-156912000D01*
X293903000Y-134306000D02*
X291343000Y-134306000D01*
X294586400Y-136719000D02*
X294586400Y-134989400D01*
X294512600Y-136792800D02*
X294586400Y-136719000D01*
X297162911Y-143340071D02*
X294411000Y-140588160D01*
X294586400Y-134989400D02*
X293903000Y-134306000D01*
X297162911Y-145532089D02*
X297162911Y-143340071D01*
%TO.N,Net-(C19-Pad1)*%
X292387000Y-150308000D02*
X289163000Y-150308000D01*
X289163000Y-150308000D02*
X288823000Y-149968000D01*
D61*
%TO.N,Net-(C20-Pad1)*%
X322097000Y-145990000D02*
X322097000Y-149546000D01*
X328455800Y-149834800D02*
X322385800Y-149834800D01*
X301402000Y-140656000D02*
X316763000Y-140656000D01*
D66*
X322385800Y-149834800D02*
X322097000Y-149546000D01*
X299043888Y-125924000D02*
X302234911Y-129115023D01*
D61*
X322097000Y-149546000D02*
X322097000Y-153700000D01*
X316763000Y-140656000D02*
X322097000Y-145990000D01*
X326597800Y-158200800D02*
X328243800Y-158200800D01*
X322097000Y-153700000D02*
X326597800Y-158200800D01*
D66*
X302234911Y-129115023D02*
X302234911Y-139823089D01*
X302234911Y-139823089D02*
X301402000Y-140656000D01*
D64*
%TO.N,Net-(C21-Pad1)*%
X296487730Y-176216000D02*
X296995730Y-175708000D01*
X303853730Y-185106000D02*
X303853730Y-180280000D01*
X300424730Y-179137000D02*
X301567730Y-180280000D01*
X300424730Y-175708000D02*
X300424730Y-179137000D01*
X300297730Y-188662000D02*
X303853730Y-185106000D01*
X303853730Y-180280000D02*
X306520730Y-180280000D01*
X296487730Y-178502000D02*
X296487730Y-176216000D01*
X306520730Y-180280000D02*
X307409730Y-181169000D01*
X301567730Y-180280000D02*
X303853730Y-180280000D01*
X307409730Y-181169000D02*
X310203730Y-183963000D01*
X296995730Y-175708000D02*
X300424730Y-175708000D01*
X310203730Y-183963000D02*
X311473730Y-183963000D01*
%TO.N,Net-(C22-Pad1)*%
X317569730Y-181550000D02*
X317696730Y-181423000D01*
X313378730Y-181169000D02*
X313759730Y-181550000D01*
X310838730Y-173803000D02*
X310838730Y-181169000D01*
X310838730Y-181169000D02*
X313378730Y-181169000D01*
X313759730Y-170882000D02*
X310838730Y-173803000D01*
X313759730Y-181550000D02*
X317569730Y-181550000D01*
%TO.N,Net-(C23-Pad1)*%
X323030730Y-174565000D02*
X323030730Y-171009000D01*
X319093730Y-183963000D02*
X319093730Y-189551000D01*
X319093730Y-189551000D02*
X319982730Y-190440000D01*
X328237730Y-170882000D02*
X328491730Y-171136000D01*
X321379730Y-170882000D02*
X319093730Y-173168000D01*
X319093730Y-173168000D02*
X319093730Y-183963000D01*
X323030730Y-171009000D02*
X322903730Y-170882000D01*
X321379730Y-170882000D02*
X322903730Y-170882000D01*
X322903730Y-170882000D02*
X328237730Y-170882000D01*
D63*
%TO.N,Net-(C24-Pad1)*%
X300276000Y-93996200D02*
X297355000Y-93996200D01*
D68*
%TO.N,Net-(C25-Pad2)*%
X261391000Y-129854318D02*
X258063581Y-133181737D01*
X288719000Y-131816800D02*
X273613431Y-131816800D01*
X298929800Y-121606000D02*
X288719000Y-131816800D01*
D65*
X351053000Y-107032000D02*
X351053000Y-112249600D01*
D68*
X258063581Y-133181737D02*
X258063581Y-135938263D01*
X306346600Y-121606000D02*
X298929800Y-121606000D01*
X258063581Y-135938263D02*
X260012737Y-137887419D01*
X262582419Y-137887419D02*
X261391000Y-137887419D01*
X273613431Y-131816800D02*
X267542812Y-137887419D01*
D65*
X351909000Y-106176000D02*
X351053000Y-107032000D01*
X351053000Y-112249600D02*
X351103000Y-112299600D01*
D68*
X267542812Y-137887419D02*
X261391000Y-137887419D01*
X260012737Y-137887419D02*
X261391000Y-137887419D01*
X261391000Y-129480000D02*
X261391000Y-129854318D01*
D62*
%TO.N,Net-(C26-Pad1)*%
X255041000Y-154524400D02*
X267842600Y-167326000D01*
X248587000Y-146955200D02*
X251939800Y-146955200D01*
X251939800Y-146955200D02*
X251939800Y-151423200D01*
X251939800Y-151423200D02*
X255041000Y-154524400D01*
X267842600Y-167326000D02*
X268408600Y-167326000D01*
%TO.N,Net-(C27-Pad2)*%
X272005800Y-162347600D02*
X275049000Y-165390800D01*
X248688600Y-143043600D02*
X251939800Y-143043600D01*
X251939800Y-143043600D02*
X251990600Y-142992800D01*
X260631800Y-151786400D02*
X260631800Y-154575200D01*
X251838200Y-142992800D02*
X260631800Y-151786400D01*
X275049000Y-165390800D02*
X275049000Y-167376800D01*
X268404200Y-162347600D02*
X272005800Y-162347600D01*
X260631800Y-154575200D02*
X268404200Y-162347600D01*
%TO.N,+24V*%
X256608600Y-167326000D02*
X259594230Y-170311630D01*
D61*
X259594230Y-190694000D02*
X259594230Y-195393000D01*
D62*
X259594230Y-170311630D02*
X259594230Y-190694000D01*
X251637400Y-167326000D02*
X256608600Y-167326000D01*
D66*
%TO.N,-24V*%
X301269000Y-149292000D02*
X298729000Y-149292000D01*
X295943000Y-139124000D02*
X298475000Y-136592000D01*
D62*
X278917000Y-175308800D02*
X279025230Y-175417030D01*
D61*
X303146200Y-144940200D02*
X303146200Y-147414800D01*
D66*
X295471660Y-132528000D02*
X298475000Y-135531340D01*
X288823000Y-141672000D02*
X290012911Y-140482089D01*
D65*
X279239230Y-195179000D02*
X279025230Y-195393000D01*
D66*
X290012911Y-133904620D02*
X291389531Y-132528000D01*
D62*
X279025230Y-175417030D02*
X279025230Y-195393000D01*
D61*
X303146200Y-147414800D02*
X301269000Y-149292000D01*
D66*
X298475000Y-135531340D02*
X298475000Y-136592000D01*
D62*
X286849000Y-167376800D02*
X278917000Y-175308800D01*
D66*
X295943000Y-139386000D02*
X298729000Y-142172000D01*
D61*
X301402000Y-143196000D02*
X303146200Y-144940200D01*
D62*
X286849000Y-167376800D02*
X293522513Y-167376800D01*
D66*
X291389531Y-132528000D02*
X295471660Y-132528000D01*
X290012911Y-140482089D02*
X290012911Y-133904620D01*
D62*
X293522513Y-167376800D02*
X293573313Y-167427600D01*
D66*
X295943000Y-139386000D02*
X295943000Y-139124000D01*
X298729000Y-142172000D02*
X298729000Y-149292000D01*
D65*
%TO.N,+15V*%
X267214230Y-205553000D02*
X267214230Y-210252000D01*
X337131819Y-208922589D02*
X338715230Y-210506000D01*
X309310641Y-208922589D02*
X337131819Y-208922589D01*
X264674230Y-196917000D02*
X267214230Y-199457000D01*
X262480800Y-215967000D02*
X268856200Y-222342400D01*
X264674230Y-195393000D02*
X264674230Y-196917000D01*
X267214230Y-210252000D02*
X261499230Y-215967000D01*
X258070230Y-223333000D02*
X258070230Y-219396000D01*
X258197230Y-223460000D02*
X258070230Y-223333000D01*
X267214230Y-199457000D02*
X267214230Y-205553000D01*
X307981230Y-210252000D02*
X309310641Y-208922589D01*
X258070230Y-219396000D02*
X261499230Y-215967000D01*
X261499230Y-215967000D02*
X262480800Y-215967000D01*
%TO.N,-15V*%
X308399966Y-220996202D02*
X309247998Y-220148170D01*
X289785528Y-220996202D02*
X308399966Y-220996202D01*
X334744134Y-220148170D02*
X336175230Y-221579266D01*
X266599400Y-225085600D02*
X263856200Y-222342400D01*
X281565230Y-195393000D02*
X281565230Y-198060000D01*
X282962230Y-205005000D02*
X282795230Y-205172000D01*
X282795230Y-209022000D02*
X275850230Y-215967000D01*
X282962230Y-199457000D02*
X282962230Y-205005000D01*
X336175230Y-221579266D02*
X336175230Y-222190000D01*
X281565230Y-198060000D02*
X282962230Y-199457000D01*
X288203230Y-222578500D02*
X289785528Y-220996202D01*
X273949615Y-222914615D02*
X271778630Y-225085600D01*
X275850230Y-221014000D02*
X273949615Y-222914615D01*
X282795230Y-205172000D02*
X282795230Y-209022000D01*
X275850230Y-215967000D02*
X275850230Y-221014000D01*
X271778630Y-225085600D02*
X266599400Y-225085600D01*
X309247998Y-220148170D02*
X334744134Y-220148170D01*
D64*
%TO.N,Net-(D1-Pad2)*%
X89890200Y-182261200D02*
X91414200Y-183785200D01*
X87096200Y-182261200D02*
X89890200Y-182261200D01*
D61*
%TO.N,Net-(D2-Pad2)*%
X82727400Y-208194600D02*
X80670000Y-210252000D01*
X73612000Y-183335000D02*
X73612000Y-195574000D01*
X80670000Y-202632000D02*
X82727400Y-204689400D01*
X82727400Y-204689400D02*
X82727400Y-208194600D01*
X73612000Y-195574000D02*
X80670000Y-202632000D01*
%TO.N,Net-(D3-Pad2)*%
X68732000Y-173215000D02*
X73612000Y-168335000D01*
X68732000Y-194504000D02*
X68732000Y-173215000D01*
X80670000Y-206442000D02*
X78909599Y-208202401D01*
X78909599Y-208202401D02*
X78909599Y-212301599D01*
X78909599Y-212301599D02*
X80670000Y-214062000D01*
X80670000Y-206442000D02*
X68732000Y-194504000D01*
D66*
%TO.N,Net-(D6-Pad1)*%
X106654200Y-176927200D02*
X106908200Y-177181200D01*
X103098200Y-176927200D02*
X106654200Y-176927200D01*
D62*
%TO.N,Net-(D7-Pad2)*%
X72923000Y-217999000D02*
X72024590Y-217100590D01*
X62391410Y-217100590D02*
X60604000Y-218888000D01*
X72024590Y-217100590D02*
X62391410Y-217100590D01*
D69*
%TO.N,Net-(D8-Pad2)*%
X131607011Y-98631011D02*
X180758011Y-98631011D01*
X186177000Y-104050000D02*
X194685000Y-104050000D01*
X125031000Y-92055000D02*
X131607011Y-98631011D01*
X180758011Y-98631011D02*
X186177000Y-104050000D01*
%TO.N,Net-(D8-Pad3)*%
X180365000Y-115002000D02*
X186237000Y-109130000D01*
X104584000Y-115002000D02*
X180365000Y-115002000D01*
X186237000Y-109130000D02*
X194685000Y-109130000D01*
D63*
X104584000Y-115002000D02*
X104584000Y-114002000D01*
D66*
%TO.N,/PR2*%
X320157570Y-159556000D02*
X293885531Y-159556000D01*
X305521000Y-159556000D02*
X299521000Y-159556000D01*
D70*
X327573150Y-220872080D02*
X334249353Y-220872080D01*
D66*
X284419000Y-144212000D02*
X281203000Y-147428000D01*
X330161641Y-169560071D02*
X320157570Y-159556000D01*
X287653089Y-145381911D02*
X288823000Y-144212000D01*
D64*
X330161641Y-194915359D02*
X342511650Y-207265368D01*
D66*
X287653089Y-153323558D02*
X287653089Y-145381911D01*
D64*
X335314820Y-223571420D02*
X335000200Y-223256800D01*
D70*
X334249353Y-220872080D02*
X335000200Y-221622927D01*
X335000200Y-221622927D02*
X335000200Y-222850400D01*
D66*
X330161641Y-194915359D02*
X330161641Y-169560071D01*
X288823000Y-144212000D02*
X284419000Y-144212000D01*
D64*
X335000200Y-223256800D02*
X335000200Y-222850400D01*
X335000200Y-222850400D02*
X334998438Y-222848638D01*
X342511650Y-223186900D02*
X342127130Y-223571420D01*
X342127130Y-223571420D02*
X335314820Y-223571420D01*
D66*
X293885531Y-159556000D02*
X287653089Y-153323558D01*
D70*
X326255230Y-222190000D02*
X327573150Y-220872080D01*
D64*
X342511650Y-207265368D02*
X342511650Y-223186900D01*
D66*
%TO.N,Net-(D10-Pad1)*%
X276377000Y-149038000D02*
X281203000Y-144212000D01*
X276377000Y-152086000D02*
X276377000Y-149038000D01*
%TO.N,Net-(D11-Pad1)*%
X275056911Y-150765911D02*
X275056911Y-152571380D01*
X273837000Y-149546000D02*
X275056911Y-150765911D01*
X281457000Y-157674000D02*
X281711000Y-157420000D01*
X280159531Y-157674000D02*
X281457000Y-157674000D01*
X275056911Y-152571380D02*
X280159531Y-157674000D01*
D61*
%TO.N,Net-(D13-Pad2)*%
X183461400Y-183988400D02*
X180159400Y-187290400D01*
X193573000Y-181042000D02*
X194081000Y-180534000D01*
X187271400Y-181092800D02*
X187322200Y-181042000D01*
X187296800Y-183988400D02*
X183461400Y-183988400D01*
X187322200Y-181042000D02*
X193573000Y-181042000D01*
X187296800Y-183988400D02*
X187296800Y-181118200D01*
X187296800Y-181118200D02*
X187271400Y-181092800D01*
%TO.N,LO*%
X179676800Y-183988400D02*
X179676800Y-181118200D01*
X178305200Y-185360000D02*
X153822000Y-185360000D01*
X179676800Y-181118200D02*
X179651400Y-181092800D01*
X153822000Y-185360000D02*
X142900000Y-196282000D01*
X179676800Y-183988400D02*
X178305200Y-185360000D01*
D62*
%TO.N,Net-(D14-Pad2)*%
X253768600Y-138672400D02*
X262000600Y-146904400D01*
X253768600Y-111702400D02*
X253768600Y-138672400D01*
X262099800Y-149463769D02*
X274221631Y-161585600D01*
X274221631Y-161585600D02*
X297986330Y-161585600D01*
X297986330Y-161585600D02*
X307409730Y-171009000D01*
X261391000Y-104080000D02*
X253768600Y-111702400D01*
X262150600Y-146828200D02*
X262150600Y-142992800D01*
D64*
X310838730Y-171009000D02*
X307409730Y-171009000D01*
D62*
X262099800Y-149463769D02*
X262099800Y-146955200D01*
X262252200Y-146929800D02*
X262150600Y-146828200D01*
D61*
%TO.N,Net-(D18-Pad2)*%
X238477800Y-116833200D02*
X238477800Y-146754400D01*
X238477800Y-146754400D02*
X238327800Y-146904400D01*
X238477800Y-142992800D02*
X238528600Y-143043600D01*
X261391000Y-93920000D02*
X238477800Y-116833200D01*
D64*
%TO.N,Net-(D23-Pad2)*%
X321379730Y-182439000D02*
X327094730Y-182439000D01*
X327094730Y-182439000D02*
X328491730Y-183836000D01*
%TO.N,TEMP*%
X311302000Y-193615000D02*
X320998730Y-193615000D01*
X311283230Y-193633770D02*
X311302000Y-193615000D01*
X311283230Y-196917000D02*
X311283230Y-193633770D01*
X309060730Y-193615000D02*
X311302000Y-193615000D01*
X320998730Y-193615000D02*
X322522730Y-192091000D01*
X322522730Y-192091000D02*
X322522730Y-187900000D01*
X307917730Y-193615000D02*
X309060730Y-193615000D01*
%TO.N,FAULT*%
X295027230Y-201997000D02*
X296310631Y-203280401D01*
X304986355Y-205820401D02*
X307299157Y-203507599D01*
X292360230Y-199330000D02*
X295027230Y-201997000D01*
X291344230Y-196917000D02*
X291344230Y-199330000D01*
X291344230Y-199330000D02*
X292360230Y-199330000D01*
X307299157Y-203507599D02*
X310253829Y-203507599D01*
X310253829Y-203507599D02*
X311283230Y-204537000D01*
X296310631Y-203280401D02*
X299159109Y-203280401D01*
X299159109Y-203280401D02*
X301699109Y-205820401D01*
X303776829Y-205820401D02*
X304986355Y-205820401D01*
X301699109Y-205820401D02*
X303776829Y-205820401D01*
D63*
%TO.N,/L*%
X47396000Y-89686500D02*
X44073000Y-86363500D01*
X47396000Y-97984000D02*
X47396000Y-89686500D01*
%TO.N,Net-(FL2-Pad1)*%
X96660989Y-125254809D02*
X93644999Y-128270799D01*
X100966000Y-107286000D02*
X99622498Y-107286000D01*
X96660989Y-110247509D02*
X96660989Y-125254809D01*
D62*
X93243000Y-99563000D02*
X100966000Y-107286000D01*
X93243000Y-86363500D02*
X93243000Y-99563000D01*
D63*
X99622498Y-107286000D02*
X96660989Y-110247509D01*
X93644999Y-128270799D02*
X93644999Y-156764001D01*
X93644999Y-156764001D02*
X87909000Y-162500000D01*
D61*
%TO.N,CS-*%
X170126216Y-169256420D02*
X172971636Y-166411000D01*
X172971636Y-166411000D02*
X178171000Y-166411000D01*
X134901000Y-182056000D02*
X147820857Y-182056000D01*
X160620437Y-169256420D02*
X170126216Y-169256420D01*
X147820857Y-182056000D02*
X160620437Y-169256420D01*
X127660000Y-189297000D02*
X134901000Y-182056000D01*
X127660000Y-196282000D02*
X127660000Y-189297000D01*
%TO.N,CS+*%
X179633160Y-170424840D02*
X181871000Y-168187000D01*
X130200000Y-196282000D02*
X130200000Y-195079919D01*
X148134902Y-183594689D02*
X161304751Y-170424840D01*
X130200000Y-195079919D02*
X141685230Y-183594689D01*
X161304751Y-170424840D02*
X179633160Y-170424840D01*
X181871000Y-168187000D02*
X181871000Y-166411000D01*
X141685230Y-183594689D02*
X148134902Y-183594689D01*
D66*
%TO.N,Shutdown*%
X132740000Y-196282000D02*
X146593400Y-210135400D01*
X146593400Y-210135400D02*
X162904800Y-210135400D01*
D71*
%TO.N,VS*%
X209575000Y-113488686D02*
X209575000Y-128464000D01*
X209575000Y-128464000D02*
X195157100Y-142881900D01*
X224063686Y-99000000D02*
X209575000Y-113488686D01*
X225831000Y-99000000D02*
X224063686Y-99000000D01*
D61*
X149035930Y-198540011D02*
X182353132Y-198540011D01*
X182353132Y-198540011D02*
X190601011Y-190292132D01*
X190601011Y-189463989D02*
X194081000Y-185984000D01*
X147980000Y-196282000D02*
X147980000Y-197484081D01*
D71*
X195157100Y-142881900D02*
X194144500Y-142881900D01*
X225831000Y-93920000D02*
X225831000Y-99000000D01*
D61*
X190601011Y-190292132D02*
X190601011Y-189463989D01*
X147980000Y-197484081D02*
X149035930Y-198540011D01*
D70*
%TO.N,/PR1*%
X290301319Y-199830598D02*
X290301319Y-189475859D01*
X328755230Y-210506000D02*
X327437310Y-211823920D01*
X290301319Y-189475859D02*
X291871089Y-187906089D01*
X302294641Y-211823920D02*
X290301319Y-199830598D01*
X327437310Y-211823920D02*
X302294641Y-211823920D01*
D66*
X281203000Y-149968000D02*
X281203000Y-152762000D01*
D70*
%TO.N,CLIP_A*%
X324807141Y-216829089D02*
X303477911Y-216829089D01*
X331255230Y-210506000D02*
X331130230Y-210506000D01*
X331130230Y-210506000D02*
X324807141Y-216829089D01*
X303477911Y-216829089D02*
X301063400Y-219243600D01*
D64*
%TO.N,SIG_A*%
X288570729Y-220031001D02*
X286023230Y-222578500D01*
X301441353Y-220031001D02*
X288570729Y-220031001D01*
X302139843Y-219332511D02*
X301441353Y-220031001D01*
X333635230Y-210506000D02*
X324808719Y-219332511D01*
X324808719Y-219332511D02*
X302139843Y-219332511D01*
D61*
%TO.N,Net-(J11-Pad1)*%
X308616230Y-196917000D02*
X318395230Y-206696000D01*
X337445230Y-206696000D02*
X341255230Y-210506000D01*
X318395230Y-206696000D02*
X337445230Y-206696000D01*
D66*
%TO.N,CLIP_B*%
X331095230Y-222190000D02*
X328996319Y-224288911D01*
D65*
X331603230Y-221936000D02*
X330968230Y-222571000D01*
D66*
X328996319Y-224288911D02*
X300073641Y-224288911D01*
X300073641Y-224288911D02*
X298363230Y-222578500D01*
D61*
%TO.N,SIG_B*%
X333635230Y-222190000D02*
X333626639Y-222190000D01*
D64*
X330324639Y-225492000D02*
X286036730Y-225492000D01*
X283523230Y-222578500D02*
X283523230Y-222978500D01*
X283523230Y-222978500D02*
X286036730Y-225492000D01*
X333626639Y-222190000D02*
X330324639Y-225492000D01*
D70*
%TO.N,MUTE*%
X285035730Y-214854126D02*
X285035730Y-190124991D01*
X292340721Y-182820000D02*
X301567730Y-182820000D01*
X285035730Y-190124991D02*
X292340721Y-182820000D01*
X280583230Y-219306626D02*
X285035730Y-214854126D01*
X280583230Y-222578500D02*
X280583230Y-219306626D01*
D64*
%TO.N,Net-(Q1-Pad1)*%
X95212200Y-186325200D02*
X100038200Y-191151200D01*
X106908200Y-194707200D02*
X104114200Y-194707200D01*
X93954200Y-186325200D02*
X95212200Y-186325200D01*
X103098200Y-191151200D02*
X104114200Y-192167200D01*
X104114200Y-192167200D02*
X104114200Y-194707200D01*
X100038200Y-191151200D02*
X103098200Y-191151200D01*
D66*
%TO.N,Net-(Q2-Pad3)*%
X103606200Y-182769200D02*
X104876200Y-182769200D01*
X104876200Y-182769200D02*
X106908200Y-184801200D01*
D64*
%TO.N,Net-(Q2-Pad2)*%
X106212726Y-187087200D02*
X106908200Y-187087200D01*
X101066200Y-180229200D02*
X101066200Y-181940674D01*
X101066200Y-181940674D02*
X106212726Y-187087200D01*
D66*
%TO.N,Net-(Q3-Pad1)*%
X292981000Y-147428000D02*
X295943000Y-144466000D01*
X288823000Y-147428000D02*
X292981000Y-147428000D01*
%TO.N,Net-(Q4-Pad3)*%
X271853400Y-154626000D02*
X268246600Y-151019200D01*
X273837000Y-154626000D02*
X271853400Y-154626000D01*
%TO.N,Net-(Q8-Pad1)*%
X298475000Y-131512000D02*
X299694911Y-132731911D01*
X299694911Y-144028911D02*
X301402000Y-145736000D01*
X299694911Y-132731911D02*
X299694911Y-144028911D01*
%TO.N,Net-(Q8-Pad2)*%
X298407840Y-129099000D02*
X294586400Y-129099000D01*
X301015000Y-134052000D02*
X301015000Y-131706160D01*
X301015000Y-131706160D02*
X298407840Y-129099000D01*
%TO.N,Net-(Q10-Pad1)*%
X170524800Y-212675400D02*
X253786000Y-212675400D01*
X253786000Y-212675400D02*
X262915000Y-203546400D01*
D64*
%TO.N,Net-(Q11-Pad1)*%
X302774230Y-204664000D02*
X302774230Y-203140000D01*
X302774230Y-203140000D02*
X298964230Y-199330000D01*
%TO.N,Net-(Q11-Pad2)*%
X300996230Y-196917000D02*
X300996230Y-199330000D01*
X300996230Y-199330000D02*
X302520230Y-199330000D01*
X302520230Y-199330000D02*
X305314230Y-202124000D01*
%TO.N,Net-(Q12-Pad1)*%
X316255000Y-189424000D02*
X318427401Y-191596401D01*
X321139131Y-186501599D02*
X322661730Y-184979000D01*
X307917730Y-188662000D02*
X307917730Y-191202000D01*
X315493000Y-188662000D02*
X316255000Y-189424000D01*
X318427401Y-191596401D02*
X318907609Y-191596401D01*
X322661730Y-184979000D02*
X323919730Y-184979000D01*
X321139131Y-191515121D02*
X321139131Y-186501599D01*
X307917730Y-188662000D02*
X315493000Y-188662000D01*
X318427401Y-191596401D02*
X321057851Y-191596401D01*
X321057851Y-191596401D02*
X321139131Y-191515121D01*
D66*
%TO.N,Net-(Q13-Pad1)*%
X313715000Y-186884000D02*
X308679730Y-186884000D01*
X308679730Y-186884000D02*
X307917730Y-186122000D01*
D64*
%TO.N,Net-(Q14-Pad2)*%
X302724140Y-182434198D02*
X302724140Y-183695590D01*
X302724140Y-183695590D02*
X300297730Y-186122000D01*
X296487730Y-186122000D02*
X300297730Y-186122000D01*
X301839942Y-181550000D02*
X302724140Y-182434198D01*
X301567730Y-181550000D02*
X301839942Y-181550000D01*
D62*
%TO.N,Net-(R3-Pad1)*%
X78765000Y-86427000D02*
X85559500Y-86427000D01*
X85559500Y-86427000D02*
X85623000Y-86363500D01*
D63*
%TO.N,Net-(R7-Pad2)*%
X134899000Y-94174000D02*
X146938600Y-94174000D01*
D61*
%TO.N,Net-(R10-Pad1)*%
X160553000Y-178502000D02*
X160807000Y-178248000D01*
X160807000Y-178502000D02*
X160553000Y-178502000D01*
X160807000Y-178248000D02*
X160807000Y-173676000D01*
D66*
%TO.N,Net-(R23-Pad1)*%
X152744800Y-212675400D02*
X162904800Y-212675400D01*
X148056200Y-217364000D02*
X152744800Y-212675400D01*
D64*
%TO.N,Net-(R24-Pad1)*%
X250450230Y-222343051D02*
X243322579Y-215215400D01*
X250450230Y-223333000D02*
X250450230Y-222343051D01*
X243322579Y-215215400D02*
X170524800Y-215215400D01*
D62*
%TO.N,Net-(R30-Pad2)*%
X260347200Y-87849400D02*
X260398000Y-87900200D01*
X257350000Y-87849400D02*
X260347200Y-87849400D01*
D65*
%TO.N,Net-(R32-Pad2)*%
X348529000Y-101936000D02*
X351909000Y-98556000D01*
X348529000Y-107686800D02*
X348529000Y-101936000D01*
D63*
%TO.N,Net-(C9-Pad2)*%
X349909000Y-216319000D02*
X349909000Y-221639000D01*
D67*
%TO.N,Net-(L5-Pad7)*%
X225831000Y-109160000D02*
X225831000Y-104080000D01*
X189915000Y-162856000D02*
X220497000Y-132274000D01*
X182636000Y-162856000D02*
X189915000Y-162856000D01*
X220497000Y-114494000D02*
X225831000Y-109160000D01*
X220497000Y-132274000D02*
X220497000Y-114494000D01*
D70*
%TO.N,Net-(Q16-Pad2)*%
X180921400Y-178095600D02*
X180819800Y-178197200D01*
D64*
X180286400Y-174582400D02*
X180921400Y-175217400D01*
X180286400Y-174582400D02*
X190671869Y-174582400D01*
X192421400Y-172832869D02*
X192421400Y-168697600D01*
X180921400Y-175217400D02*
X180921400Y-178095600D01*
X190671869Y-174582400D02*
X192421400Y-172832869D01*
D71*
%TO.N,Net-(T3-Pad12)*%
X285052419Y-120378558D02*
X285052419Y-116483442D01*
X289073861Y-112462000D02*
X298983000Y-112462000D01*
X282745015Y-124400000D02*
X285909438Y-121235577D01*
X285052419Y-116483442D02*
X289073861Y-112462000D01*
D68*
X298983000Y-112462000D02*
X299529080Y-113008080D01*
D71*
X261391000Y-124400000D02*
X282745015Y-124400000D01*
X285909438Y-121235577D02*
X285052419Y-120378558D01*
%TO.N,Net-(T3-Pad10)*%
X261391000Y-134560000D02*
X267461611Y-128489389D01*
X267461611Y-128489389D02*
X287322011Y-128489389D01*
X287322011Y-128489389D02*
X296821600Y-118989800D01*
D69*
X299999000Y-118558000D02*
X297713000Y-118558000D01*
%TD*%
%TA.AperFunction,Conductor*%
%TO.N,VB*%
G36*
X207231121Y-96734002D02*
G01*
X207277614Y-96787658D01*
X207289000Y-96840000D01*
X207289000Y-108380014D01*
X207283968Y-108415266D01*
X204698200Y-117288000D01*
X204698200Y-129179612D01*
X204678198Y-129247733D01*
X204661295Y-129268707D01*
X196969331Y-136960671D01*
X196907019Y-136994697D01*
X196836204Y-136989632D01*
X196779368Y-136947085D01*
X196759270Y-136906834D01*
X196733664Y-136818983D01*
X196730392Y-136810230D01*
X196624912Y-136581427D01*
X196620392Y-136573272D01*
X196482248Y-136362567D01*
X196476565Y-136355162D01*
X196308800Y-136167196D01*
X196302084Y-136160711D01*
X196108374Y-135999604D01*
X196100782Y-135994189D01*
X195885386Y-135863483D01*
X195877069Y-135859245D01*
X195644723Y-135761814D01*
X195635873Y-135758853D01*
X195391681Y-135696837D01*
X195382484Y-135695215D01*
X195173944Y-135674216D01*
X195167652Y-135673900D01*
X194353115Y-135673900D01*
X194337876Y-135678375D01*
X194336671Y-135679765D01*
X194335000Y-135687448D01*
X194335000Y-139171785D01*
X194339475Y-139187024D01*
X194340865Y-139188229D01*
X194348548Y-139189900D01*
X194435912Y-139189900D01*
X194504033Y-139209902D01*
X194550526Y-139263558D01*
X194560630Y-139333832D01*
X194531136Y-139398412D01*
X194525007Y-139404995D01*
X193981161Y-139948841D01*
X193918849Y-139982867D01*
X193899320Y-139985537D01*
X193813594Y-139990480D01*
X193813588Y-139990481D01*
X193809975Y-139990689D01*
X193738696Y-140003129D01*
X193483458Y-140047675D01*
X193483451Y-140047677D01*
X193479885Y-140048299D01*
X193476410Y-140049328D01*
X193476403Y-140049330D01*
X193338696Y-140090121D01*
X193181739Y-140136614D01*
X193160818Y-140142811D01*
X193125032Y-140148000D01*
X190288093Y-140148000D01*
X190219972Y-140127998D01*
X190173479Y-140074342D01*
X190163214Y-140005227D01*
X190166218Y-139982867D01*
X190195672Y-139763575D01*
X190196918Y-139720340D01*
X190198405Y-139668695D01*
X190198500Y-139665400D01*
X190178876Y-139407425D01*
X190120457Y-139155386D01*
X190024586Y-138915084D01*
X189893470Y-138692048D01*
X189730126Y-138491411D01*
X189726581Y-138488202D01*
X189726576Y-138488197D01*
X189541860Y-138321001D01*
X189541856Y-138320998D01*
X189538313Y-138317791D01*
X189426829Y-138244141D01*
X189326437Y-138177818D01*
X189326435Y-138177817D01*
X189322445Y-138175181D01*
X189318104Y-138173180D01*
X189318099Y-138173177D01*
X189091842Y-138068872D01*
X189091839Y-138068871D01*
X189087490Y-138066866D01*
X189041274Y-138053570D01*
X188843447Y-137996656D01*
X188843442Y-137996655D01*
X188838854Y-137995335D01*
X188582259Y-137962237D01*
X188444906Y-137965474D01*
X188328390Y-137968220D01*
X188328386Y-137968220D01*
X188323610Y-137968333D01*
X188318904Y-137969167D01*
X188073563Y-138012647D01*
X188073559Y-138012648D01*
X188068859Y-138013481D01*
X187823869Y-138096644D01*
X187594277Y-138215908D01*
X187578217Y-138227641D01*
X187493071Y-138289844D01*
X187426265Y-138313877D01*
X187357072Y-138297978D01*
X187319107Y-138265230D01*
X187227779Y-138147244D01*
X187073410Y-138014722D01*
X186895525Y-137915988D01*
X186701406Y-137855083D01*
X186608842Y-137845670D01*
X186502179Y-137834823D01*
X186502174Y-137834823D01*
X186499000Y-137834500D01*
X184899000Y-137834500D01*
X184896616Y-137834682D01*
X184896604Y-137834682D01*
X184752317Y-137845670D01*
X184752315Y-137845670D01*
X184746739Y-137846095D01*
X184741330Y-137847496D01*
X184741327Y-137847496D01*
X184555968Y-137895489D01*
X184549785Y-137897090D01*
X184367127Y-137986688D01*
X184362073Y-137990600D01*
X184362070Y-137990602D01*
X184325536Y-138018882D01*
X184206244Y-138111221D01*
X184202087Y-138116063D01*
X184202082Y-138116068D01*
X184178665Y-138143346D01*
X184119116Y-138182005D01*
X184048121Y-138182333D01*
X184013610Y-138166405D01*
X183992441Y-138152421D01*
X183988445Y-138149781D01*
X183984104Y-138147780D01*
X183984099Y-138147777D01*
X183757842Y-138043472D01*
X183757839Y-138043471D01*
X183753490Y-138041466D01*
X183661559Y-138015018D01*
X183509447Y-137971256D01*
X183509442Y-137971255D01*
X183504854Y-137969935D01*
X183248259Y-137936837D01*
X183110906Y-137940074D01*
X182994390Y-137942820D01*
X182994386Y-137942820D01*
X182989610Y-137942933D01*
X182984904Y-137943767D01*
X182739563Y-137987247D01*
X182739559Y-137987248D01*
X182734859Y-137988081D01*
X182489869Y-138071244D01*
X182260277Y-138190508D01*
X182051366Y-138343128D01*
X182047974Y-138346502D01*
X182047972Y-138346504D01*
X181960491Y-138433528D01*
X181867945Y-138525591D01*
X181865101Y-138529442D01*
X181736844Y-138703089D01*
X181714234Y-138733700D01*
X181593769Y-138962664D01*
X181509325Y-139207216D01*
X181462843Y-139461727D01*
X181455393Y-139720340D01*
X181487148Y-139977105D01*
X181488449Y-139981717D01*
X181490164Y-139987799D01*
X181489404Y-140058791D01*
X181450383Y-140118103D01*
X181385490Y-140146902D01*
X181368895Y-140148000D01*
X180739403Y-140148000D01*
X180671282Y-140127998D01*
X180624789Y-140074342D01*
X180613533Y-140027721D01*
X180515914Y-137880096D01*
X180515913Y-137880094D01*
X180515091Y-137862000D01*
X175793000Y-137862000D01*
X175793000Y-146118000D01*
X175772998Y-146186121D01*
X175719342Y-146232614D01*
X175667000Y-146244000D01*
X149685986Y-146244000D01*
X149617865Y-146223998D01*
X149593606Y-146203685D01*
X149514130Y-146118000D01*
X146580841Y-142955548D01*
X161342000Y-142955548D01*
X161342000Y-144685743D01*
X161342161Y-144690250D01*
X161346740Y-144754269D01*
X161349126Y-144767491D01*
X161385819Y-144892458D01*
X161393233Y-144908692D01*
X161462426Y-145016360D01*
X161474112Y-145029847D01*
X161570840Y-145113662D01*
X161585848Y-145123307D01*
X161702275Y-145176477D01*
X161719388Y-145181502D01*
X161850554Y-145200361D01*
X161859495Y-145201000D01*
X163582885Y-145201000D01*
X163598124Y-145196525D01*
X163599329Y-145195135D01*
X163601000Y-145187452D01*
X163601000Y-142960115D01*
X163599659Y-142955548D01*
X164109000Y-142955548D01*
X164109000Y-145182885D01*
X164113475Y-145198124D01*
X164114865Y-145199329D01*
X164122548Y-145201000D01*
X165852743Y-145201000D01*
X165857250Y-145200839D01*
X165921269Y-145196260D01*
X165934491Y-145193874D01*
X166059458Y-145157181D01*
X166075692Y-145149767D01*
X166183360Y-145080574D01*
X166196847Y-145068888D01*
X166280662Y-144972160D01*
X166290307Y-144957152D01*
X166343477Y-144840725D01*
X166348502Y-144823612D01*
X166367361Y-144692446D01*
X166368000Y-144683503D01*
X166368000Y-142960115D01*
X166363525Y-142944876D01*
X166362135Y-142943671D01*
X166354452Y-142942000D01*
X164127115Y-142942000D01*
X164111876Y-142946475D01*
X164110671Y-142947865D01*
X164109000Y-142955548D01*
X163599659Y-142955548D01*
X163596525Y-142944876D01*
X163595135Y-142943671D01*
X163587452Y-142942000D01*
X161360115Y-142942000D01*
X161344876Y-142946475D01*
X161343671Y-142947865D01*
X161342000Y-142955548D01*
X146580841Y-142955548D01*
X144481778Y-140692495D01*
X161342000Y-140692495D01*
X161342000Y-142415885D01*
X161346475Y-142431124D01*
X161347865Y-142432329D01*
X161355548Y-142434000D01*
X163582885Y-142434000D01*
X163598124Y-142429525D01*
X163599329Y-142428135D01*
X163601000Y-142420452D01*
X163601000Y-140193115D01*
X163599659Y-140188548D01*
X164109000Y-140188548D01*
X164109000Y-142415885D01*
X164113475Y-142431124D01*
X164114865Y-142432329D01*
X164122548Y-142434000D01*
X166349885Y-142434000D01*
X166365124Y-142429525D01*
X166366329Y-142428135D01*
X166368000Y-142420452D01*
X166368000Y-140690257D01*
X166367839Y-140685750D01*
X166363260Y-140621731D01*
X166360874Y-140608509D01*
X166324181Y-140483542D01*
X166316767Y-140467308D01*
X166247574Y-140359640D01*
X166235888Y-140346153D01*
X166139160Y-140262338D01*
X166124152Y-140252693D01*
X166007725Y-140199523D01*
X165990612Y-140194498D01*
X165859446Y-140175639D01*
X165850505Y-140175000D01*
X164127115Y-140175000D01*
X164111876Y-140179475D01*
X164110671Y-140180865D01*
X164109000Y-140188548D01*
X163599659Y-140188548D01*
X163596525Y-140177876D01*
X163595135Y-140176671D01*
X163587452Y-140175000D01*
X161857257Y-140175000D01*
X161852750Y-140175161D01*
X161788731Y-140179740D01*
X161775509Y-140182126D01*
X161650542Y-140218819D01*
X161634308Y-140226233D01*
X161526640Y-140295426D01*
X161513153Y-140307112D01*
X161429338Y-140403840D01*
X161419693Y-140418848D01*
X161366523Y-140535275D01*
X161361498Y-140552388D01*
X161342639Y-140683554D01*
X161342000Y-140692495D01*
X144481778Y-140692495D01*
X141709479Y-137703610D01*
X191343619Y-137703610D01*
X191355896Y-137793817D01*
X191357834Y-137802936D01*
X191428336Y-138044817D01*
X191431608Y-138053570D01*
X191537088Y-138282373D01*
X191541608Y-138290528D01*
X191679752Y-138501233D01*
X191685435Y-138508638D01*
X191853200Y-138696604D01*
X191859916Y-138703089D01*
X192053626Y-138864196D01*
X192061218Y-138869611D01*
X192276614Y-139000317D01*
X192284931Y-139004555D01*
X192517277Y-139101986D01*
X192526127Y-139104947D01*
X192770319Y-139166963D01*
X192779516Y-139168585D01*
X192988056Y-139189584D01*
X192994348Y-139189900D01*
X193808885Y-139189900D01*
X193824124Y-139185425D01*
X193825329Y-139184035D01*
X193827000Y-139176352D01*
X193827000Y-137704015D01*
X193822525Y-137688776D01*
X193821135Y-137687571D01*
X193813452Y-137685900D01*
X191359324Y-137685900D01*
X191345640Y-137689918D01*
X191343619Y-137703610D01*
X141709479Y-137703610D01*
X141205281Y-137160022D01*
X191343963Y-137160022D01*
X191345659Y-137173615D01*
X191359766Y-137177900D01*
X193808885Y-137177900D01*
X193824124Y-137173425D01*
X193825329Y-137172035D01*
X193827000Y-137164352D01*
X193827000Y-135692015D01*
X193822525Y-135676776D01*
X193821135Y-135675571D01*
X193813452Y-135673900D01*
X193016061Y-135673900D01*
X193011386Y-135674073D01*
X192825064Y-135687919D01*
X192815858Y-135689295D01*
X192570106Y-135744904D01*
X192561195Y-135747628D01*
X192326362Y-135838949D01*
X192317953Y-135842960D01*
X192099201Y-135967988D01*
X192091474Y-135973199D01*
X191893602Y-136129189D01*
X191886734Y-136135482D01*
X191714091Y-136319007D01*
X191708233Y-136326241D01*
X191564609Y-136533274D01*
X191559881Y-136541301D01*
X191448440Y-136767281D01*
X191444952Y-136775914D01*
X191368137Y-137015885D01*
X191365961Y-137024946D01*
X191343963Y-137160022D01*
X141205281Y-137160022D01*
X136969755Y-132593595D01*
X160850983Y-132593595D01*
X160860041Y-132939494D01*
X160860551Y-132943079D01*
X160860552Y-132943088D01*
X160876371Y-133054233D01*
X160908795Y-133282059D01*
X160909714Y-133285562D01*
X160909715Y-133285567D01*
X160960902Y-133480680D01*
X160996600Y-133616751D01*
X161122291Y-133939132D01*
X161142902Y-133978059D01*
X161280120Y-134237218D01*
X161284203Y-134244930D01*
X161286255Y-134247915D01*
X161286260Y-134247924D01*
X161478132Y-134527100D01*
X161478138Y-134527107D01*
X161480189Y-134530092D01*
X161571821Y-134635132D01*
X161670204Y-134747910D01*
X161707652Y-134790838D01*
X161963578Y-135023712D01*
X162244573Y-135225628D01*
X162546913Y-135393908D01*
X162866591Y-135526323D01*
X162870085Y-135527318D01*
X162870087Y-135527319D01*
X163195869Y-135620121D01*
X163195874Y-135620122D01*
X163199370Y-135621118D01*
X163434248Y-135659581D01*
X163537260Y-135676450D01*
X163537264Y-135676450D01*
X163540840Y-135677036D01*
X163544466Y-135677207D01*
X163882846Y-135693164D01*
X163882847Y-135693164D01*
X163886473Y-135693335D01*
X163905836Y-135692015D01*
X164228058Y-135670049D01*
X164228066Y-135670048D01*
X164231689Y-135669801D01*
X164235265Y-135669138D01*
X164235267Y-135669138D01*
X164568347Y-135607405D01*
X164568351Y-135607404D01*
X164571912Y-135606744D01*
X164902633Y-135505001D01*
X165219468Y-135365920D01*
X165518218Y-135191345D01*
X165521127Y-135189161D01*
X165792016Y-134985772D01*
X165792020Y-134985769D01*
X165794923Y-134983589D01*
X166045915Y-134745406D01*
X166267868Y-134479954D01*
X166377700Y-134312751D01*
X166455852Y-134193776D01*
X166455857Y-134193767D01*
X166457839Y-134190750D01*
X166571585Y-133964592D01*
X166611685Y-133884864D01*
X166611688Y-133884856D01*
X166613312Y-133881628D01*
X166614557Y-133878226D01*
X166730976Y-133560097D01*
X166730979Y-133560087D01*
X166732224Y-133556685D01*
X166733069Y-133553163D01*
X166733072Y-133553155D01*
X166812153Y-133223757D01*
X166812154Y-133223753D01*
X166813000Y-133220228D01*
X166815272Y-133201452D01*
X166854233Y-132879496D01*
X166854233Y-132879489D01*
X166854569Y-132876717D01*
X166860500Y-132688000D01*
X166855779Y-132606119D01*
X166840791Y-132346176D01*
X166840790Y-132346171D01*
X166840582Y-132342556D01*
X166824875Y-132252558D01*
X166798309Y-132100340D01*
X181455393Y-132100340D01*
X181487148Y-132357105D01*
X181557375Y-132606112D01*
X181664459Y-132841631D01*
X181805936Y-133058243D01*
X181809128Y-133061807D01*
X181809129Y-133061808D01*
X181837854Y-133093879D01*
X181978550Y-133250962D01*
X182178329Y-133415354D01*
X182215911Y-133437713D01*
X182396558Y-133545187D01*
X182396562Y-133545189D01*
X182400675Y-133547636D01*
X182497492Y-133586851D01*
X182636032Y-133642966D01*
X182636037Y-133642967D01*
X182640472Y-133644764D01*
X182892201Y-133704502D01*
X182896972Y-133704890D01*
X182896978Y-133704891D01*
X183140110Y-133724667D01*
X183150070Y-133725477D01*
X183154844Y-133725139D01*
X183403362Y-133707543D01*
X183403366Y-133707542D01*
X183408145Y-133707204D01*
X183420086Y-133704502D01*
X183655825Y-133651160D01*
X183655829Y-133651159D01*
X183660486Y-133650105D01*
X183901287Y-133555494D01*
X184035284Y-133477662D01*
X184120873Y-133427948D01*
X184120876Y-133427946D01*
X184125006Y-133425547D01*
X184128727Y-133422550D01*
X184128737Y-133422543D01*
X184276900Y-133303203D01*
X184342499Y-133276049D01*
X184412364Y-133288671D01*
X184444645Y-133311846D01*
X184526422Y-133392913D01*
X184530188Y-133395675D01*
X184530190Y-133395676D01*
X184591185Y-133440399D01*
X184742231Y-133551151D01*
X184746374Y-133553331D01*
X184746376Y-133553332D01*
X184974909Y-133673569D01*
X184974914Y-133673571D01*
X184979059Y-133675752D01*
X184983482Y-133677297D01*
X184983483Y-133677297D01*
X185214670Y-133758031D01*
X185231702Y-133763979D01*
X185236295Y-133764851D01*
X185490023Y-133813023D01*
X185490026Y-133813023D01*
X185494612Y-133813894D01*
X185621714Y-133818888D01*
X185757343Y-133824217D01*
X185757348Y-133824217D01*
X185762011Y-133824400D01*
X185882943Y-133811156D01*
X186023373Y-133795777D01*
X186023379Y-133795776D01*
X186028026Y-133795267D01*
X186143554Y-133764851D01*
X186282290Y-133728325D01*
X186282292Y-133728324D01*
X186286813Y-133727134D01*
X186291110Y-133725288D01*
X186528393Y-133623343D01*
X186528395Y-133623342D01*
X186532687Y-133621498D01*
X186760246Y-133480680D01*
X186811001Y-133437713D01*
X186960925Y-133310794D01*
X186960927Y-133310792D01*
X186964492Y-133307774D01*
X187056867Y-133202440D01*
X187116820Y-133164412D01*
X187187816Y-133164834D01*
X187245453Y-133201450D01*
X187312550Y-133276362D01*
X187316242Y-133279400D01*
X187316244Y-133279402D01*
X187331141Y-133291660D01*
X187512329Y-133440754D01*
X187516444Y-133443202D01*
X187730558Y-133570587D01*
X187730562Y-133570589D01*
X187734675Y-133573036D01*
X187842602Y-133616751D01*
X187970032Y-133668366D01*
X187970037Y-133668367D01*
X187974472Y-133670164D01*
X188226201Y-133729902D01*
X188230972Y-133730290D01*
X188230978Y-133730291D01*
X188474110Y-133750067D01*
X188484070Y-133750877D01*
X188488844Y-133750539D01*
X188737362Y-133732943D01*
X188737366Y-133732942D01*
X188742145Y-133732604D01*
X188754086Y-133729902D01*
X188989825Y-133676560D01*
X188989829Y-133676559D01*
X188994486Y-133675505D01*
X189235287Y-133580894D01*
X189268469Y-133561620D01*
X189454873Y-133453348D01*
X189454876Y-133453346D01*
X189459006Y-133450947D01*
X189660495Y-133288656D01*
X189774145Y-133164412D01*
X189831884Y-133101291D01*
X189831887Y-133101287D01*
X189835118Y-133097755D01*
X189978855Y-132882636D01*
X190088400Y-132648251D01*
X190161231Y-132399993D01*
X190167631Y-132352350D01*
X190195235Y-132146831D01*
X190195236Y-132146825D01*
X190195672Y-132143575D01*
X190196918Y-132100340D01*
X190198405Y-132048695D01*
X190198500Y-132045400D01*
X190198250Y-132042110D01*
X190179239Y-131792192D01*
X190179238Y-131792187D01*
X190178876Y-131787425D01*
X190163760Y-131722207D01*
X190121538Y-131540050D01*
X190120457Y-131535386D01*
X190024586Y-131295084D01*
X189893470Y-131072048D01*
X189876406Y-131051087D01*
X189733148Y-130875123D01*
X189730126Y-130871411D01*
X189726581Y-130868202D01*
X189726576Y-130868197D01*
X189575997Y-130731900D01*
X190825500Y-130731900D01*
X190825500Y-133231900D01*
X190825682Y-133234284D01*
X190825682Y-133234296D01*
X190830930Y-133303203D01*
X190837095Y-133384161D01*
X190838496Y-133389570D01*
X190838496Y-133389573D01*
X190885998Y-133573036D01*
X190888090Y-133581115D01*
X190977688Y-133763773D01*
X190981600Y-133768827D01*
X190981602Y-133768830D01*
X191095697Y-133916228D01*
X191102221Y-133924656D01*
X191256590Y-134057178D01*
X191434475Y-134155912D01*
X191628594Y-134216817D01*
X191702213Y-134224303D01*
X191827821Y-134237077D01*
X191827826Y-134237077D01*
X191831000Y-134237400D01*
X196331000Y-134237400D01*
X196333384Y-134237218D01*
X196333396Y-134237218D01*
X196477683Y-134226230D01*
X196477685Y-134226230D01*
X196483261Y-134225805D01*
X196488670Y-134224404D01*
X196488673Y-134224404D01*
X196674032Y-134176411D01*
X196674033Y-134176411D01*
X196680215Y-134174810D01*
X196862873Y-134085212D01*
X196867927Y-134081300D01*
X196867930Y-134081298D01*
X197018701Y-133964592D01*
X197018702Y-133964591D01*
X197023756Y-133960679D01*
X197156278Y-133806310D01*
X197255012Y-133628425D01*
X197315917Y-133434306D01*
X197330727Y-133288671D01*
X197336177Y-133235079D01*
X197336177Y-133235074D01*
X197336500Y-133231900D01*
X197336500Y-130731900D01*
X197336090Y-130726504D01*
X197325330Y-130585217D01*
X197325330Y-130585215D01*
X197324905Y-130579639D01*
X197321971Y-130568305D01*
X197275511Y-130388868D01*
X197275511Y-130388867D01*
X197273910Y-130382685D01*
X197184312Y-130200027D01*
X197106405Y-130099379D01*
X197063692Y-130044199D01*
X197063691Y-130044198D01*
X197059779Y-130039144D01*
X196905410Y-129906622D01*
X196727525Y-129807888D01*
X196533406Y-129746983D01*
X196431510Y-129736621D01*
X196334179Y-129726723D01*
X196334174Y-129726723D01*
X196331000Y-129726400D01*
X191831000Y-129726400D01*
X191828616Y-129726582D01*
X191828604Y-129726582D01*
X191684317Y-129737570D01*
X191684315Y-129737570D01*
X191678739Y-129737995D01*
X191673330Y-129739396D01*
X191673327Y-129739396D01*
X191533334Y-129775643D01*
X191481785Y-129788990D01*
X191299127Y-129878588D01*
X191294073Y-129882500D01*
X191294070Y-129882502D01*
X191203589Y-129952540D01*
X191138244Y-130003121D01*
X191005722Y-130157490D01*
X190906988Y-130335375D01*
X190846083Y-130529494D01*
X190845437Y-130535848D01*
X190826049Y-130726504D01*
X190825500Y-130731900D01*
X189575997Y-130731900D01*
X189541860Y-130701001D01*
X189541856Y-130700998D01*
X189538313Y-130697791D01*
X189371519Y-130587601D01*
X189326437Y-130557818D01*
X189326435Y-130557817D01*
X189322445Y-130555181D01*
X189318104Y-130553180D01*
X189318099Y-130553177D01*
X189091842Y-130448872D01*
X189091839Y-130448871D01*
X189087490Y-130446866D01*
X189038299Y-130432714D01*
X188843447Y-130376656D01*
X188843442Y-130376655D01*
X188838854Y-130375335D01*
X188582259Y-130342237D01*
X188444906Y-130345474D01*
X188328390Y-130348220D01*
X188328386Y-130348220D01*
X188323610Y-130348333D01*
X188318904Y-130349167D01*
X188073563Y-130392647D01*
X188073559Y-130392648D01*
X188068859Y-130393481D01*
X187823869Y-130476644D01*
X187594277Y-130595908D01*
X187385366Y-130748528D01*
X187381974Y-130751902D01*
X187381972Y-130751904D01*
X187263701Y-130869558D01*
X187201300Y-130903420D01*
X187130498Y-130898170D01*
X187075889Y-130858236D01*
X187033046Y-130803890D01*
X187033043Y-130803887D01*
X187030154Y-130800222D01*
X186858068Y-130638339D01*
X186838639Y-130620062D01*
X186838636Y-130620060D01*
X186835238Y-130616863D01*
X186772481Y-130573327D01*
X186619197Y-130466990D01*
X186619196Y-130466989D01*
X186615361Y-130464329D01*
X186611170Y-130462262D01*
X186379540Y-130348035D01*
X186379537Y-130348034D01*
X186375352Y-130345970D01*
X186364044Y-130342350D01*
X186284341Y-130316837D01*
X186120486Y-130264386D01*
X186115879Y-130263636D01*
X186115876Y-130263635D01*
X185860971Y-130222121D01*
X185860972Y-130222121D01*
X185856360Y-130221370D01*
X185726714Y-130219673D01*
X185593454Y-130217929D01*
X185593451Y-130217929D01*
X185588777Y-130217868D01*
X185323615Y-130253955D01*
X185319129Y-130255263D01*
X185319127Y-130255263D01*
X185251891Y-130274861D01*
X185066701Y-130328838D01*
X185062448Y-130330798D01*
X185062447Y-130330799D01*
X185029539Y-130345970D01*
X184823676Y-130440874D01*
X184798802Y-130457182D01*
X184603794Y-130585035D01*
X184603789Y-130585039D01*
X184599881Y-130587601D01*
X184438033Y-130732056D01*
X184373893Y-130762492D01*
X184303478Y-130753420D01*
X184269578Y-130731466D01*
X184267411Y-130729504D01*
X184235287Y-130700427D01*
X184207860Y-130675601D01*
X184207856Y-130675598D01*
X184204313Y-130672391D01*
X184046759Y-130568305D01*
X183992437Y-130532418D01*
X183992435Y-130532417D01*
X183988445Y-130529781D01*
X183984104Y-130527780D01*
X183984099Y-130527777D01*
X183757842Y-130423472D01*
X183757839Y-130423471D01*
X183753490Y-130421466D01*
X183661559Y-130395018D01*
X183509447Y-130351256D01*
X183509442Y-130351255D01*
X183504854Y-130349935D01*
X183248259Y-130316837D01*
X183110906Y-130320074D01*
X182994390Y-130322820D01*
X182994386Y-130322820D01*
X182989610Y-130322933D01*
X182984904Y-130323767D01*
X182739563Y-130367247D01*
X182739559Y-130367248D01*
X182734859Y-130368081D01*
X182730332Y-130369618D01*
X182730331Y-130369618D01*
X182662490Y-130392647D01*
X182489869Y-130451244D01*
X182260277Y-130570508D01*
X182051366Y-130723128D01*
X182047974Y-130726502D01*
X182047972Y-130726504D01*
X182022439Y-130751904D01*
X181867945Y-130905591D01*
X181846864Y-130934133D01*
X181744999Y-131072048D01*
X181714234Y-131113700D01*
X181593769Y-131342664D01*
X181589515Y-131354983D01*
X181511264Y-131581602D01*
X181509325Y-131587216D01*
X181462843Y-131841727D01*
X181455393Y-132100340D01*
X166798309Y-132100340D01*
X166781715Y-132005264D01*
X166781713Y-132005257D01*
X166781091Y-132001691D01*
X166682817Y-131669923D01*
X166645613Y-131582698D01*
X166548484Y-131354983D01*
X166547062Y-131351649D01*
X166432316Y-131150478D01*
X166377427Y-131054247D01*
X166377422Y-131054240D01*
X166375624Y-131051087D01*
X166170778Y-130772222D01*
X165981286Y-130568305D01*
X165937708Y-130521410D01*
X165937707Y-130521409D01*
X165935236Y-130518750D01*
X165932482Y-130516398D01*
X165932478Y-130516394D01*
X165821332Y-130421466D01*
X165672123Y-130294029D01*
X165669120Y-130292011D01*
X165669112Y-130292005D01*
X165461719Y-130152644D01*
X165384924Y-130101040D01*
X165077447Y-129942339D01*
X164753767Y-129820031D01*
X164418175Y-129735736D01*
X164273242Y-129716655D01*
X164078721Y-129691045D01*
X164078713Y-129691044D01*
X164075117Y-129690571D01*
X163925079Y-129688214D01*
X163732784Y-129685193D01*
X163732781Y-129685193D01*
X163729143Y-129685136D01*
X163725528Y-129685497D01*
X163725524Y-129685497D01*
X163557658Y-129702253D01*
X163384836Y-129719503D01*
X163381299Y-129720274D01*
X163381294Y-129720275D01*
X163053232Y-129791804D01*
X163046761Y-129793215D01*
X163043334Y-129794388D01*
X163043328Y-129794390D01*
X162722831Y-129904121D01*
X162722826Y-129904123D01*
X162719400Y-129905296D01*
X162716132Y-129906855D01*
X162716124Y-129906858D01*
X162620350Y-129952540D01*
X162407089Y-130054260D01*
X162113970Y-130238133D01*
X161843928Y-130454478D01*
X161841375Y-130457058D01*
X161603150Y-130697791D01*
X161600541Y-130700427D01*
X161387036Y-130972720D01*
X161206242Y-131267749D01*
X161204717Y-131271034D01*
X161204715Y-131271038D01*
X161146512Y-131396427D01*
X161060557Y-131581602D01*
X161031348Y-131669923D01*
X160974529Y-131841727D01*
X160951910Y-131910119D01*
X160951174Y-131913674D01*
X160951173Y-131913677D01*
X160902889Y-132146831D01*
X160881742Y-132248947D01*
X160850983Y-132593595D01*
X136969755Y-132593595D01*
X133375000Y-128718000D01*
X125627000Y-128718000D01*
X125558879Y-128697998D01*
X125512386Y-128644342D01*
X125501000Y-128592000D01*
X125501000Y-123651548D01*
X126417000Y-123651548D01*
X126417000Y-125381743D01*
X126417161Y-125386250D01*
X126421740Y-125450269D01*
X126424126Y-125463491D01*
X126460819Y-125588458D01*
X126468233Y-125604692D01*
X126537426Y-125712360D01*
X126549112Y-125725847D01*
X126645840Y-125809662D01*
X126660848Y-125819307D01*
X126777275Y-125872477D01*
X126794388Y-125877502D01*
X126925554Y-125896361D01*
X126934495Y-125897000D01*
X128657885Y-125897000D01*
X128673124Y-125892525D01*
X128674329Y-125891135D01*
X128676000Y-125883452D01*
X128676000Y-123656115D01*
X128674659Y-123651548D01*
X129184000Y-123651548D01*
X129184000Y-125878885D01*
X129188475Y-125894124D01*
X129189865Y-125895329D01*
X129197548Y-125897000D01*
X130927743Y-125897000D01*
X130932250Y-125896839D01*
X130996269Y-125892260D01*
X131009491Y-125889874D01*
X131134458Y-125853181D01*
X131150692Y-125845767D01*
X131258360Y-125776574D01*
X131271847Y-125764888D01*
X131355662Y-125668160D01*
X131365307Y-125653152D01*
X131418477Y-125536725D01*
X131423502Y-125519612D01*
X131442361Y-125388446D01*
X131443000Y-125379503D01*
X131443000Y-123656115D01*
X131438525Y-123640876D01*
X131437135Y-123639671D01*
X131429452Y-123638000D01*
X129202115Y-123638000D01*
X129186876Y-123642475D01*
X129185671Y-123643865D01*
X129184000Y-123651548D01*
X128674659Y-123651548D01*
X128671525Y-123640876D01*
X128670135Y-123639671D01*
X128662452Y-123638000D01*
X126435115Y-123638000D01*
X126419876Y-123642475D01*
X126418671Y-123643865D01*
X126417000Y-123651548D01*
X125501000Y-123651548D01*
X125501000Y-121388495D01*
X126417000Y-121388495D01*
X126417000Y-123111885D01*
X126421475Y-123127124D01*
X126422865Y-123128329D01*
X126430548Y-123130000D01*
X128657885Y-123130000D01*
X128673124Y-123125525D01*
X128674329Y-123124135D01*
X128676000Y-123116452D01*
X128676000Y-120889115D01*
X128674659Y-120884548D01*
X129184000Y-120884548D01*
X129184000Y-123111885D01*
X129188475Y-123127124D01*
X129189865Y-123128329D01*
X129197548Y-123130000D01*
X131424885Y-123130000D01*
X131440124Y-123125525D01*
X131441329Y-123124135D01*
X131443000Y-123116452D01*
X131443000Y-121386257D01*
X131442839Y-121381750D01*
X131438260Y-121317731D01*
X131435874Y-121304509D01*
X131399181Y-121179542D01*
X131391767Y-121163308D01*
X131322574Y-121055640D01*
X131310888Y-121042153D01*
X131214160Y-120958338D01*
X131199152Y-120948693D01*
X131082725Y-120895523D01*
X131065612Y-120890498D01*
X130934446Y-120871639D01*
X130925505Y-120871000D01*
X129202115Y-120871000D01*
X129186876Y-120875475D01*
X129185671Y-120876865D01*
X129184000Y-120884548D01*
X128674659Y-120884548D01*
X128671525Y-120873876D01*
X128670135Y-120872671D01*
X128662452Y-120871000D01*
X126932257Y-120871000D01*
X126927750Y-120871161D01*
X126863731Y-120875740D01*
X126850509Y-120878126D01*
X126725542Y-120914819D01*
X126709308Y-120922233D01*
X126601640Y-120991426D01*
X126588153Y-121003112D01*
X126504338Y-121099840D01*
X126494693Y-121114848D01*
X126441523Y-121231275D01*
X126436498Y-121248388D01*
X126417639Y-121379554D01*
X126417000Y-121388495D01*
X125501000Y-121388495D01*
X125501000Y-117271500D01*
X125521002Y-117203379D01*
X125574658Y-117156886D01*
X125627000Y-117145500D01*
X180239872Y-117145500D01*
X180253699Y-117146261D01*
X180270772Y-117148146D01*
X180270773Y-117148146D01*
X180275030Y-117148616D01*
X180279309Y-117148504D01*
X180279311Y-117148504D01*
X180392376Y-117145543D01*
X180395674Y-117145500D01*
X180438344Y-117145500D01*
X180440483Y-117145354D01*
X180440488Y-117145354D01*
X180457544Y-117144191D01*
X180463354Y-117143795D01*
X180468620Y-117143546D01*
X180567192Y-117140965D01*
X180571429Y-117140271D01*
X180571431Y-117140271D01*
X180605785Y-117134646D01*
X180617573Y-117133282D01*
X180629901Y-117132441D01*
X180656585Y-117130622D01*
X180660780Y-117129753D01*
X180660782Y-117129753D01*
X180700702Y-117121486D01*
X180753137Y-117110627D01*
X180758308Y-117109669D01*
X180820213Y-117099531D01*
X180851386Y-117094426D01*
X180851387Y-117094426D01*
X180855611Y-117093734D01*
X180859710Y-117092473D01*
X180892981Y-117082238D01*
X180904477Y-117079286D01*
X180908852Y-117078380D01*
X180942774Y-117071355D01*
X181035719Y-117038442D01*
X181040728Y-117036785D01*
X181059706Y-117030946D01*
X181134953Y-117007797D01*
X181140924Y-117005025D01*
X181170415Y-116991337D01*
X181181403Y-116986853D01*
X181214222Y-116975231D01*
X181214232Y-116975227D01*
X181218272Y-116973796D01*
X181305886Y-116928575D01*
X181310626Y-116926253D01*
X181396159Y-116886550D01*
X181400048Y-116884745D01*
X181403652Y-116882431D01*
X181403656Y-116882429D01*
X181432958Y-116863617D01*
X181443240Y-116857681D01*
X181474168Y-116841718D01*
X181477981Y-116839750D01*
X181558641Y-116783062D01*
X181563011Y-116780125D01*
X181614090Y-116747333D01*
X181645990Y-116726853D01*
X181649252Y-116724067D01*
X181649256Y-116724064D01*
X181675729Y-116701454D01*
X181685094Y-116694188D01*
X181717095Y-116671698D01*
X181721959Y-116667178D01*
X181789302Y-116604599D01*
X181793242Y-116601088D01*
X181819031Y-116579062D01*
X181819034Y-116579059D01*
X181820910Y-116577457D01*
X181850794Y-116547573D01*
X181854118Y-116544368D01*
X181928046Y-116475670D01*
X181928048Y-116475667D01*
X181931189Y-116472749D01*
X181952343Y-116446904D01*
X181960752Y-116437615D01*
X183253134Y-115145233D01*
X183315446Y-115111207D01*
X183341354Y-115108331D01*
X186529133Y-115086194D01*
X192196297Y-115046838D01*
X192264554Y-115066367D01*
X192311418Y-115119698D01*
X192315942Y-115130771D01*
X192343025Y-115207250D01*
X192484971Y-115491950D01*
X192487092Y-115495154D01*
X192658431Y-115754021D01*
X192658437Y-115754028D01*
X192660555Y-115757229D01*
X192867160Y-115999132D01*
X193101706Y-116214054D01*
X193360695Y-116398789D01*
X193364082Y-116400628D01*
X193636884Y-116548748D01*
X193636889Y-116548750D01*
X193640268Y-116550585D01*
X193643843Y-116551993D01*
X193643849Y-116551996D01*
X193768477Y-116601088D01*
X193936256Y-116667178D01*
X193939977Y-116668140D01*
X193939979Y-116668141D01*
X193989129Y-116680852D01*
X194244247Y-116746830D01*
X194248065Y-116747333D01*
X194248067Y-116747333D01*
X194555834Y-116787851D01*
X194555840Y-116787851D01*
X194559650Y-116788353D01*
X194563493Y-116788387D01*
X194563500Y-116788387D01*
X194712264Y-116789685D01*
X194877761Y-116791129D01*
X194881576Y-116790694D01*
X194881582Y-116790694D01*
X195190008Y-116755554D01*
X195190015Y-116755553D01*
X195193840Y-116755117D01*
X195197581Y-116754219D01*
X195197586Y-116754218D01*
X195332772Y-116721762D01*
X195503174Y-116680852D01*
X195506770Y-116679508D01*
X195506775Y-116679506D01*
X195797553Y-116570789D01*
X195797559Y-116570787D01*
X195801152Y-116569443D01*
X196083332Y-116422549D01*
X196345506Y-116242362D01*
X196374986Y-116216281D01*
X196580896Y-116034107D01*
X196583767Y-116031567D01*
X196794562Y-115793306D01*
X196974749Y-115531132D01*
X197121643Y-115248952D01*
X197135948Y-115210693D01*
X197162630Y-115139327D01*
X197179843Y-115093288D01*
X197222435Y-115036486D01*
X197288975Y-115011728D01*
X197296989Y-115011417D01*
X198634885Y-115002126D01*
X198634886Y-115002126D01*
X198653000Y-115002000D01*
X198653000Y-107350144D01*
X198673002Y-107282023D01*
X198726658Y-107235530D01*
X198796932Y-107225426D01*
X198810548Y-107228157D01*
X198884396Y-107247255D01*
X199001847Y-107277630D01*
X199005665Y-107278133D01*
X199005667Y-107278133D01*
X199313434Y-107318651D01*
X199313440Y-107318651D01*
X199317250Y-107319153D01*
X199321093Y-107319187D01*
X199321100Y-107319187D01*
X199469864Y-107320485D01*
X199635361Y-107321929D01*
X199639176Y-107321494D01*
X199639182Y-107321494D01*
X199947608Y-107286354D01*
X199947615Y-107286353D01*
X199951440Y-107285917D01*
X199955181Y-107285019D01*
X199955186Y-107285018D01*
X200112478Y-107247255D01*
X200260774Y-107211652D01*
X200264370Y-107210308D01*
X200264375Y-107210306D01*
X200555153Y-107101589D01*
X200555159Y-107101587D01*
X200558752Y-107100243D01*
X200840932Y-106953349D01*
X201103106Y-106773162D01*
X201135103Y-106744854D01*
X201338496Y-106564907D01*
X201341367Y-106562367D01*
X201390194Y-106507178D01*
X201549616Y-106326984D01*
X201549618Y-106326982D01*
X201552162Y-106324106D01*
X201732349Y-106061932D01*
X201879243Y-105779752D01*
X201950141Y-105590128D01*
X201989306Y-105485375D01*
X201989308Y-105485370D01*
X201990652Y-105481774D01*
X202064917Y-105172440D01*
X202100929Y-104856361D01*
X202104500Y-104720000D01*
X202085079Y-104402469D01*
X202027106Y-104089673D01*
X201931444Y-103786272D01*
X201799520Y-103496792D01*
X201633301Y-103225547D01*
X201435264Y-102976580D01*
X201208362Y-102753604D01*
X201174543Y-102727654D01*
X200959021Y-102562278D01*
X200959013Y-102562273D01*
X200955977Y-102559943D01*
X200754354Y-102441178D01*
X200685188Y-102400436D01*
X200685185Y-102400434D01*
X200681872Y-102398483D01*
X200390133Y-102271631D01*
X200386439Y-102270537D01*
X200386434Y-102270535D01*
X200253601Y-102231188D01*
X200085110Y-102181279D01*
X199771349Y-102128773D01*
X199453528Y-102114897D01*
X199294956Y-102127377D01*
X199140219Y-102139555D01*
X199140216Y-102139555D01*
X199136384Y-102139857D01*
X198824647Y-102203280D01*
X198818977Y-102205177D01*
X198818393Y-102205199D01*
X198817280Y-102205497D01*
X198817212Y-102205243D01*
X198748030Y-102207822D01*
X198686916Y-102171690D01*
X198655037Y-102108252D01*
X198653000Y-102085687D01*
X198653000Y-101794000D01*
X197165905Y-100306905D01*
X197131879Y-100244593D01*
X197129000Y-100217810D01*
X197129000Y-96840000D01*
X197149002Y-96771879D01*
X197202658Y-96725386D01*
X197255000Y-96714000D01*
X207163000Y-96714000D01*
X207231121Y-96734002D01*
G37*
%TD.AperFunction*%
%TD*%
%TA.AperFunction,Conductor*%
%TO.N,Net-(C25-Pad2)*%
G36*
X294467281Y-80560788D02*
G01*
X294535390Y-80580829D01*
X294581852Y-80634511D01*
X294588051Y-80671549D01*
X294602221Y-80698278D01*
X295861390Y-81957448D01*
X295875331Y-81965060D01*
X295877166Y-81964929D01*
X295883780Y-81960678D01*
X297147330Y-80697127D01*
X297161765Y-80670692D01*
X297171052Y-80628003D01*
X297221254Y-80577801D01*
X297281710Y-80562389D01*
X297779330Y-80562672D01*
X299467007Y-80563633D01*
X299535116Y-80583674D01*
X299581578Y-80637356D01*
X299586955Y-80669480D01*
X299602221Y-80698278D01*
X300861390Y-81957448D01*
X300875331Y-81965060D01*
X300877166Y-81964929D01*
X300883780Y-81960678D01*
X302147330Y-80697127D01*
X302163132Y-80668190D01*
X302171254Y-80630850D01*
X302221455Y-80580647D01*
X302281914Y-80565234D01*
X345545788Y-80589847D01*
X345613897Y-80609888D01*
X345660359Y-80663570D01*
X345671713Y-80714987D01*
X345706002Y-85737136D01*
X345870085Y-109769232D01*
X345870285Y-109798596D01*
X351849873Y-109769365D01*
X351918089Y-109789033D01*
X351964843Y-109842461D01*
X351975291Y-109912685D01*
X351946114Y-109977409D01*
X351909252Y-110006820D01*
X351776925Y-110076589D01*
X351769808Y-110080967D01*
X351688413Y-110138812D01*
X351680018Y-110149467D01*
X351687021Y-110162678D01*
X352946190Y-111421848D01*
X352960131Y-111429460D01*
X352961966Y-111429329D01*
X352968580Y-111425078D01*
X354232130Y-110161527D01*
X354238890Y-110149147D01*
X354232536Y-110140658D01*
X354066536Y-110032856D01*
X354059245Y-110028782D01*
X353995334Y-109998434D01*
X353942378Y-109951146D01*
X353923394Y-109882734D01*
X353944410Y-109814919D01*
X353998754Y-109769232D01*
X354048762Y-109758616D01*
X355021343Y-109753862D01*
X355516867Y-109751440D01*
X355585085Y-109771108D01*
X355631839Y-109824536D01*
X355643483Y-109877605D01*
X355624257Y-124182931D01*
X355622769Y-125290295D01*
X355602675Y-125358389D01*
X355548957Y-125404810D01*
X355496895Y-125416126D01*
X308566521Y-125463127D01*
X305024603Y-125466674D01*
X304956462Y-125446740D01*
X304909916Y-125393131D01*
X304898477Y-125340997D01*
X304896579Y-124601311D01*
X304883888Y-119656800D01*
X329298130Y-119656800D01*
X329298130Y-123656800D01*
X329298312Y-123659184D01*
X329298312Y-123659196D01*
X329307550Y-123780505D01*
X329309725Y-123809061D01*
X329360720Y-124006015D01*
X329450318Y-124188673D01*
X329454230Y-124193727D01*
X329454232Y-124193730D01*
X329506336Y-124261042D01*
X329574851Y-124349556D01*
X329729220Y-124482078D01*
X329907105Y-124580812D01*
X330101224Y-124641717D01*
X330174843Y-124649203D01*
X330300451Y-124661977D01*
X330300456Y-124661977D01*
X330303630Y-124662300D01*
X334303630Y-124662300D01*
X334306014Y-124662118D01*
X334306026Y-124662118D01*
X334450313Y-124651130D01*
X334450315Y-124651130D01*
X334455891Y-124650705D01*
X334461300Y-124649304D01*
X334461303Y-124649304D01*
X334646662Y-124601311D01*
X334646663Y-124601311D01*
X334652845Y-124599710D01*
X334835503Y-124510112D01*
X334840557Y-124506200D01*
X334840560Y-124506198D01*
X334991331Y-124389492D01*
X334991332Y-124389491D01*
X334996386Y-124385579D01*
X335128908Y-124231210D01*
X335227642Y-124053325D01*
X335288547Y-123859206D01*
X335296981Y-123776265D01*
X335305542Y-123692083D01*
X340845187Y-123692083D01*
X340854015Y-123703702D01*
X340953889Y-123776265D01*
X340960569Y-123780505D01*
X341230185Y-123928727D01*
X341237320Y-123932084D01*
X341523387Y-124045347D01*
X341530912Y-124047792D01*
X341828902Y-124124302D01*
X341836673Y-124125785D01*
X342141906Y-124164344D01*
X342149796Y-124164841D01*
X342457464Y-124164841D01*
X342465354Y-124164344D01*
X342770587Y-124125785D01*
X342778358Y-124124302D01*
X343076348Y-124047792D01*
X343083873Y-124045347D01*
X343369940Y-123932084D01*
X343377075Y-123928727D01*
X343646691Y-123780505D01*
X343653371Y-123776265D01*
X343753616Y-123703433D01*
X343762040Y-123692508D01*
X343755137Y-123679649D01*
X342316442Y-122240954D01*
X342302498Y-122233340D01*
X342300665Y-122233471D01*
X342294050Y-122237722D01*
X340851800Y-123679972D01*
X340845187Y-123692083D01*
X335305542Y-123692083D01*
X335308807Y-123659979D01*
X335308807Y-123659974D01*
X335309130Y-123656800D01*
X335309130Y-121652842D01*
X339790879Y-121652842D01*
X339790879Y-121660758D01*
X339810197Y-121967799D01*
X339811190Y-121975662D01*
X339868837Y-122277857D01*
X339870808Y-122285534D01*
X339965876Y-122578124D01*
X339968791Y-122585487D01*
X340099784Y-122863861D01*
X340103595Y-122870794D01*
X340254889Y-123109194D01*
X340265495Y-123118491D01*
X340274768Y-123114320D01*
X341719476Y-121669612D01*
X341725854Y-121657932D01*
X342880170Y-121657932D01*
X342880301Y-121659765D01*
X342884552Y-121666380D01*
X344329851Y-123111679D01*
X344342231Y-123118439D01*
X344350371Y-123112346D01*
X344503665Y-122870794D01*
X344507476Y-122863861D01*
X344638469Y-122585487D01*
X344641384Y-122578124D01*
X344736452Y-122285534D01*
X344738423Y-122277857D01*
X344796070Y-121975662D01*
X344797063Y-121967799D01*
X344816381Y-121660758D01*
X344816381Y-121652842D01*
X344797063Y-121345801D01*
X344796070Y-121337938D01*
X344738423Y-121035743D01*
X344736452Y-121028066D01*
X344641384Y-120735476D01*
X344638469Y-120728113D01*
X344507476Y-120449739D01*
X344503665Y-120442806D01*
X344352371Y-120204406D01*
X344341765Y-120195109D01*
X344332492Y-120199280D01*
X342887784Y-121643988D01*
X342880170Y-121657932D01*
X341725854Y-121657932D01*
X341727090Y-121655668D01*
X341726959Y-121653835D01*
X341722708Y-121647220D01*
X340277409Y-120201921D01*
X340265029Y-120195161D01*
X340256889Y-120201254D01*
X340103595Y-120442806D01*
X340099784Y-120449739D01*
X339968791Y-120728113D01*
X339965876Y-120735476D01*
X339870808Y-121028066D01*
X339868837Y-121035743D01*
X339811190Y-121337938D01*
X339810197Y-121345801D01*
X339790879Y-121652842D01*
X335309130Y-121652842D01*
X335309130Y-119656800D01*
X335307366Y-119633628D01*
X335306411Y-119621092D01*
X340845220Y-119621092D01*
X340852123Y-119633951D01*
X342290818Y-121072646D01*
X342304762Y-121080260D01*
X342306595Y-121080129D01*
X342313210Y-121075878D01*
X343755460Y-119633628D01*
X343762073Y-119621517D01*
X343753245Y-119609898D01*
X343653371Y-119537335D01*
X343646691Y-119533095D01*
X343377075Y-119384873D01*
X343369940Y-119381516D01*
X343083873Y-119268253D01*
X343076348Y-119265808D01*
X342778358Y-119189298D01*
X342770587Y-119187815D01*
X342465354Y-119149256D01*
X342457464Y-119148759D01*
X342149796Y-119148759D01*
X342141906Y-119149256D01*
X341836673Y-119187815D01*
X341828902Y-119189298D01*
X341530912Y-119265808D01*
X341523387Y-119268253D01*
X341237320Y-119381516D01*
X341230185Y-119384873D01*
X340960569Y-119533095D01*
X340953889Y-119537335D01*
X340853644Y-119610167D01*
X340845220Y-119621092D01*
X335306411Y-119621092D01*
X335297960Y-119510117D01*
X335297960Y-119510115D01*
X335297535Y-119504539D01*
X335246540Y-119307585D01*
X335156942Y-119124927D01*
X335075034Y-119019110D01*
X335036322Y-118969099D01*
X335036321Y-118969098D01*
X335032409Y-118964044D01*
X334917730Y-118865595D01*
X351676569Y-118865595D01*
X351683315Y-118874837D01*
X351684083Y-118875363D01*
X351935063Y-119023792D01*
X351942510Y-119027554D01*
X352210933Y-119141493D01*
X352218801Y-119144233D01*
X352499928Y-119221668D01*
X352508107Y-119223347D01*
X352796998Y-119262919D01*
X352805323Y-119263502D01*
X353096909Y-119264519D01*
X353105242Y-119263995D01*
X353394416Y-119226439D01*
X353402581Y-119224822D01*
X353684258Y-119149347D01*
X353692137Y-119146665D01*
X353961351Y-119034602D01*
X353968823Y-119030893D01*
X354220840Y-118884216D01*
X354227761Y-118879547D01*
X354232279Y-118876043D01*
X354240748Y-118864316D01*
X354234172Y-118852515D01*
X352971810Y-117590152D01*
X352957869Y-117582540D01*
X352956034Y-117582671D01*
X352949420Y-117586922D01*
X351683572Y-118852771D01*
X351676569Y-118865595D01*
X334917730Y-118865595D01*
X334878040Y-118831522D01*
X334700155Y-118732788D01*
X334506036Y-118671883D01*
X334413472Y-118662470D01*
X334306809Y-118651623D01*
X334306804Y-118651623D01*
X334303630Y-118651300D01*
X330303630Y-118651300D01*
X330301246Y-118651482D01*
X330301234Y-118651482D01*
X330156947Y-118662470D01*
X330156945Y-118662470D01*
X330151369Y-118662895D01*
X330145960Y-118664296D01*
X330145957Y-118664296D01*
X329960598Y-118712289D01*
X329954415Y-118713890D01*
X329771757Y-118803488D01*
X329766703Y-118807400D01*
X329766700Y-118807402D01*
X329679582Y-118874837D01*
X329610874Y-118928021D01*
X329478352Y-119082390D01*
X329379618Y-119260275D01*
X329318713Y-119454394D01*
X329318067Y-119460748D01*
X329300454Y-119633951D01*
X329298130Y-119656800D01*
X304883888Y-119656800D01*
X304877317Y-117096576D01*
X350698087Y-117096576D01*
X350698437Y-117104928D01*
X350729928Y-117394809D01*
X350731377Y-117403026D01*
X350800931Y-117686197D01*
X350803458Y-117694162D01*
X350909849Y-117965642D01*
X350913405Y-117973199D01*
X351054770Y-118228228D01*
X351059292Y-118235245D01*
X351090732Y-118277578D01*
X351101925Y-118286024D01*
X351114432Y-118279225D01*
X352374848Y-117018810D01*
X352381225Y-117007131D01*
X353535540Y-117007131D01*
X353535671Y-117008966D01*
X353539922Y-117015580D01*
X354804067Y-118279724D01*
X354816507Y-118286517D01*
X354827719Y-118278152D01*
X354850086Y-118248470D01*
X354854647Y-118241499D01*
X354997797Y-117987449D01*
X355001399Y-117979929D01*
X355109690Y-117709182D01*
X355112265Y-117701259D01*
X355183796Y-117418569D01*
X355185303Y-117410361D01*
X355218970Y-117119381D01*
X355219368Y-117113691D01*
X355221930Y-117008855D01*
X355221811Y-117003155D01*
X355202398Y-116710875D01*
X355201295Y-116702606D01*
X355143659Y-116416769D01*
X355141469Y-116408708D01*
X355046536Y-116133002D01*
X355043305Y-116125315D01*
X354912740Y-115864585D01*
X354908519Y-115857390D01*
X354825814Y-115735693D01*
X354815696Y-115727372D01*
X354801781Y-115734562D01*
X353543152Y-116993190D01*
X353535540Y-117007131D01*
X352381225Y-117007131D01*
X352382460Y-117004869D01*
X352382329Y-117003034D01*
X352378078Y-116996420D01*
X351113149Y-115731492D01*
X351100769Y-115724732D01*
X351092961Y-115730577D01*
X350963090Y-115940038D01*
X350959177Y-115947398D01*
X350839647Y-116213364D01*
X350836737Y-116221187D01*
X350753429Y-116500637D01*
X350751584Y-116508758D01*
X350705968Y-116796770D01*
X350705212Y-116805081D01*
X350698087Y-117096576D01*
X304877317Y-117096576D01*
X304872319Y-115149467D01*
X351680018Y-115149467D01*
X351687021Y-115162678D01*
X352946190Y-116421848D01*
X352960131Y-116429460D01*
X352961966Y-116429329D01*
X352968580Y-116425078D01*
X354232130Y-115161527D01*
X354238890Y-115149147D01*
X354232536Y-115140658D01*
X354066536Y-115032856D01*
X354059246Y-115028782D01*
X353795848Y-114903712D01*
X353788080Y-114900636D01*
X353510449Y-114811499D01*
X353502360Y-114809482D01*
X353215360Y-114757842D01*
X353207082Y-114756914D01*
X352915777Y-114743685D01*
X352907455Y-114743859D01*
X352616954Y-114769275D01*
X352608716Y-114770550D01*
X352324140Y-114834160D01*
X352316136Y-114836516D01*
X352042475Y-114937205D01*
X352034859Y-114940595D01*
X351776924Y-115076589D01*
X351769808Y-115080967D01*
X351688413Y-115138812D01*
X351680018Y-115149467D01*
X304872319Y-115149467D01*
X304869024Y-113865595D01*
X351676569Y-113865595D01*
X351683315Y-113874837D01*
X351684083Y-113875363D01*
X351935063Y-114023792D01*
X351942510Y-114027554D01*
X352210933Y-114141493D01*
X352218801Y-114144233D01*
X352499928Y-114221668D01*
X352508107Y-114223347D01*
X352796998Y-114262919D01*
X352805323Y-114263502D01*
X353096909Y-114264519D01*
X353105242Y-114263995D01*
X353394416Y-114226439D01*
X353402581Y-114224822D01*
X353684258Y-114149347D01*
X353692137Y-114146665D01*
X353961351Y-114034602D01*
X353968823Y-114030893D01*
X354220840Y-113884216D01*
X354227761Y-113879547D01*
X354232279Y-113876043D01*
X354240748Y-113864316D01*
X354234172Y-113852515D01*
X352971810Y-112590152D01*
X352957869Y-112582540D01*
X352956034Y-112582671D01*
X352949420Y-112586922D01*
X351683572Y-113852771D01*
X351676569Y-113865595D01*
X304869024Y-113865595D01*
X304864483Y-112096576D01*
X350698087Y-112096576D01*
X350698437Y-112104928D01*
X350729928Y-112394809D01*
X350731377Y-112403026D01*
X350800931Y-112686197D01*
X350803458Y-112694162D01*
X350909849Y-112965642D01*
X350913405Y-112973199D01*
X351054770Y-113228228D01*
X351059292Y-113235245D01*
X351090732Y-113277578D01*
X351101925Y-113286024D01*
X351114432Y-113279225D01*
X352374848Y-112018810D01*
X352381225Y-112007131D01*
X353535540Y-112007131D01*
X353535671Y-112008966D01*
X353539922Y-112015580D01*
X354804067Y-113279724D01*
X354816507Y-113286517D01*
X354827719Y-113278152D01*
X354850086Y-113248470D01*
X354854647Y-113241499D01*
X354997797Y-112987449D01*
X355001399Y-112979929D01*
X355109690Y-112709182D01*
X355112265Y-112701259D01*
X355183796Y-112418569D01*
X355185303Y-112410361D01*
X355218970Y-112119381D01*
X355219368Y-112113691D01*
X355221930Y-112008855D01*
X355221811Y-112003155D01*
X355202398Y-111710875D01*
X355201295Y-111702606D01*
X355143659Y-111416769D01*
X355141469Y-111408708D01*
X355046536Y-111133002D01*
X355043305Y-111125315D01*
X354912740Y-110864585D01*
X354908519Y-110857390D01*
X354825814Y-110735693D01*
X354815696Y-110727372D01*
X354801781Y-110734562D01*
X353543152Y-111993190D01*
X353535540Y-112007131D01*
X352381225Y-112007131D01*
X352382460Y-112004869D01*
X352382329Y-112003034D01*
X352378078Y-111996420D01*
X351113149Y-110731492D01*
X351100769Y-110724732D01*
X351092961Y-110730577D01*
X350963090Y-110940038D01*
X350959177Y-110947398D01*
X350839647Y-111213364D01*
X350836737Y-111221187D01*
X350753429Y-111500637D01*
X350751584Y-111508758D01*
X350705968Y-111796770D01*
X350705212Y-111805081D01*
X350698087Y-112096576D01*
X304864483Y-112096576D01*
X304858873Y-109910938D01*
X324252119Y-109910938D01*
X324252343Y-109915604D01*
X324252343Y-109915610D01*
X324254050Y-109951146D01*
X324264958Y-110178235D01*
X324317165Y-110440699D01*
X324407594Y-110692563D01*
X324534257Y-110928294D01*
X324537053Y-110932038D01*
X324537054Y-110932040D01*
X324575527Y-110983562D01*
X324694372Y-111142715D01*
X324697679Y-111145993D01*
X324697684Y-111145999D01*
X324881106Y-111327826D01*
X324884422Y-111331113D01*
X324888188Y-111333875D01*
X324888190Y-111333876D01*
X325008169Y-111421848D01*
X325100231Y-111489351D01*
X325104374Y-111491531D01*
X325104376Y-111491532D01*
X325332909Y-111611769D01*
X325332914Y-111611771D01*
X325337059Y-111613952D01*
X325341482Y-111615497D01*
X325341483Y-111615497D01*
X325487605Y-111666525D01*
X325589702Y-111702179D01*
X325594295Y-111703051D01*
X325848023Y-111751223D01*
X325848026Y-111751223D01*
X325852612Y-111752094D01*
X325979714Y-111757088D01*
X326115343Y-111762417D01*
X326115348Y-111762417D01*
X326120011Y-111762600D01*
X326223895Y-111751223D01*
X326381373Y-111733977D01*
X326381379Y-111733976D01*
X326386026Y-111733467D01*
X326390550Y-111732276D01*
X326640290Y-111666525D01*
X326640292Y-111666524D01*
X326644813Y-111665334D01*
X326890687Y-111559698D01*
X327118246Y-111418880D01*
X327134277Y-111405309D01*
X327318925Y-111248994D01*
X327318927Y-111248992D01*
X327322492Y-111245974D01*
X327498936Y-111044777D01*
X327566307Y-110940038D01*
X327641176Y-110823640D01*
X327643704Y-110819710D01*
X327753615Y-110575717D01*
X327792986Y-110436119D01*
X327824984Y-110322663D01*
X327824985Y-110322660D01*
X327826254Y-110318159D01*
X327860026Y-110052693D01*
X327860546Y-110032856D01*
X327862417Y-109961360D01*
X327862500Y-109958200D01*
X327858642Y-109906284D01*
X327843014Y-109695982D01*
X327843013Y-109695978D01*
X327842668Y-109691330D01*
X327783608Y-109430323D01*
X327768813Y-109392277D01*
X327688311Y-109185265D01*
X327688310Y-109185262D01*
X327686618Y-109180912D01*
X327553827Y-108948577D01*
X327388154Y-108738422D01*
X327193238Y-108555063D01*
X326973361Y-108402529D01*
X326969170Y-108400462D01*
X326737540Y-108286235D01*
X326737537Y-108286234D01*
X326733352Y-108284170D01*
X326478486Y-108202586D01*
X326473879Y-108201836D01*
X326473876Y-108201835D01*
X326218971Y-108160321D01*
X326218972Y-108160321D01*
X326214360Y-108159570D01*
X326084714Y-108157873D01*
X325951454Y-108156129D01*
X325951451Y-108156129D01*
X325946777Y-108156068D01*
X325681615Y-108192155D01*
X325677129Y-108193463D01*
X325677127Y-108193463D01*
X325609891Y-108213061D01*
X325424701Y-108267038D01*
X325420448Y-108268998D01*
X325420447Y-108268999D01*
X325387539Y-108284170D01*
X325181676Y-108379074D01*
X325177767Y-108381637D01*
X324961794Y-108523235D01*
X324961789Y-108523239D01*
X324957881Y-108525801D01*
X324758232Y-108703994D01*
X324587114Y-108909741D01*
X324448288Y-109138520D01*
X324446479Y-109142834D01*
X324446478Y-109142836D01*
X324351139Y-109370195D01*
X324344802Y-109385306D01*
X324343651Y-109389838D01*
X324343650Y-109389841D01*
X324334475Y-109425969D01*
X324278930Y-109644678D01*
X324252119Y-109910938D01*
X304858873Y-109910938D01*
X304853371Y-107767140D01*
X339205393Y-107767140D01*
X339237148Y-108023905D01*
X339307375Y-108272912D01*
X339414459Y-108508431D01*
X339417078Y-108512440D01*
X339417078Y-108512441D01*
X339424128Y-108523235D01*
X339555936Y-108725043D01*
X339728550Y-108917762D01*
X339928329Y-109082154D01*
X339932444Y-109084602D01*
X340146558Y-109211987D01*
X340146562Y-109211989D01*
X340150675Y-109214436D01*
X340270573Y-109263000D01*
X340386032Y-109309766D01*
X340386037Y-109309767D01*
X340390472Y-109311564D01*
X340642201Y-109371302D01*
X340646972Y-109371690D01*
X340646978Y-109371691D01*
X340890110Y-109391467D01*
X340900070Y-109392277D01*
X340904844Y-109391939D01*
X341153362Y-109374343D01*
X341153366Y-109374342D01*
X341158145Y-109374004D01*
X341170086Y-109371302D01*
X341405825Y-109317960D01*
X341405829Y-109317959D01*
X341410486Y-109316905D01*
X341651287Y-109222294D01*
X341729514Y-109176856D01*
X341870873Y-109094748D01*
X341870876Y-109094746D01*
X341875006Y-109092347D01*
X342076495Y-108930056D01*
X342251118Y-108739155D01*
X342394855Y-108524036D01*
X342504400Y-108289651D01*
X342577231Y-108041393D01*
X342578961Y-108028517D01*
X342611235Y-107788231D01*
X342611236Y-107788225D01*
X342611672Y-107784975D01*
X342614500Y-107686800D01*
X342594876Y-107428825D01*
X342536457Y-107176786D01*
X342440586Y-106936484D01*
X342309470Y-106713448D01*
X342297380Y-106698597D01*
X342149148Y-106516523D01*
X342146126Y-106512811D01*
X342142581Y-106509602D01*
X342142576Y-106509597D01*
X341957860Y-106342401D01*
X341957856Y-106342398D01*
X341954313Y-106339191D01*
X341738445Y-106196581D01*
X341734104Y-106194580D01*
X341734099Y-106194577D01*
X341507842Y-106090272D01*
X341507839Y-106090271D01*
X341503490Y-106088266D01*
X341498888Y-106086942D01*
X341259447Y-106018056D01*
X341259442Y-106018055D01*
X341254854Y-106016735D01*
X340998259Y-105983637D01*
X340860906Y-105986874D01*
X340744390Y-105989620D01*
X340744386Y-105989620D01*
X340739610Y-105989733D01*
X340734904Y-105990567D01*
X340489563Y-106034047D01*
X340489559Y-106034048D01*
X340484859Y-106034881D01*
X340239869Y-106118044D01*
X340010277Y-106237308D01*
X339801366Y-106389928D01*
X339617945Y-106572391D01*
X339615101Y-106576242D01*
X339471025Y-106771306D01*
X339464234Y-106780500D01*
X339343769Y-107009464D01*
X339259325Y-107254016D01*
X339212843Y-107508527D01*
X339205393Y-107767140D01*
X304853371Y-107767140D01*
X304849153Y-106123719D01*
X325468443Y-106123719D01*
X325472185Y-106128718D01*
X325602943Y-106189691D01*
X325613239Y-106193439D01*
X325823690Y-106249830D01*
X325834477Y-106251732D01*
X326051525Y-106270721D01*
X326062475Y-106270721D01*
X326279523Y-106251732D01*
X326290310Y-106249830D01*
X326500761Y-106193439D01*
X326511057Y-106189691D01*
X326635191Y-106131807D01*
X326645775Y-106122488D01*
X326643968Y-106116510D01*
X326069812Y-105542354D01*
X326055868Y-105534740D01*
X326054035Y-105534871D01*
X326047420Y-105539122D01*
X325475203Y-106111339D01*
X325468443Y-106123719D01*
X304849153Y-106123719D01*
X304846147Y-104952725D01*
X324744479Y-104952725D01*
X324744479Y-104963675D01*
X324763468Y-105180723D01*
X324765370Y-105191510D01*
X324821761Y-105401961D01*
X324825509Y-105412257D01*
X324883393Y-105536391D01*
X324892712Y-105546975D01*
X324898690Y-105545168D01*
X325472846Y-104971012D01*
X325479224Y-104959332D01*
X326633540Y-104959332D01*
X326633671Y-104961165D01*
X326637922Y-104967780D01*
X327210139Y-105539997D01*
X327222519Y-105546757D01*
X327227518Y-105543015D01*
X327288491Y-105412257D01*
X327292239Y-105401961D01*
X327348630Y-105191510D01*
X327350532Y-105180723D01*
X327369521Y-104963675D01*
X327369521Y-104952725D01*
X327350532Y-104735677D01*
X327348630Y-104724890D01*
X327292239Y-104514439D01*
X327288491Y-104504143D01*
X327230607Y-104380009D01*
X327221288Y-104369425D01*
X327215310Y-104371232D01*
X326641154Y-104945388D01*
X326633540Y-104959332D01*
X325479224Y-104959332D01*
X325480460Y-104957068D01*
X325480329Y-104955235D01*
X325476078Y-104948620D01*
X324903861Y-104376403D01*
X324891481Y-104369643D01*
X324886482Y-104373385D01*
X324825509Y-104504143D01*
X324821761Y-104514439D01*
X324765370Y-104724890D01*
X324763468Y-104735677D01*
X324744479Y-104952725D01*
X304846147Y-104952725D01*
X304843173Y-103793912D01*
X325468225Y-103793912D01*
X325470032Y-103799890D01*
X326044188Y-104374046D01*
X326058132Y-104381660D01*
X326059965Y-104381529D01*
X326066580Y-104377278D01*
X326638797Y-103805061D01*
X326645557Y-103792681D01*
X326641815Y-103787682D01*
X326511057Y-103726709D01*
X326500761Y-103722961D01*
X326290310Y-103666570D01*
X326279523Y-103664668D01*
X326062475Y-103645679D01*
X326051525Y-103645679D01*
X325834477Y-103664668D01*
X325823690Y-103666570D01*
X325613239Y-103722961D01*
X325602943Y-103726709D01*
X325478809Y-103784593D01*
X325468225Y-103793912D01*
X304843173Y-103793912D01*
X304825000Y-96714000D01*
X304825000Y-91556000D01*
X329298130Y-91556000D01*
X329298130Y-95556000D01*
X329298312Y-95558384D01*
X329298312Y-95558396D01*
X329307550Y-95679705D01*
X329309725Y-95708261D01*
X329311126Y-95713670D01*
X329311126Y-95713673D01*
X329355667Y-95885700D01*
X329360720Y-95905215D01*
X329450318Y-96087873D01*
X329574851Y-96248756D01*
X329729220Y-96381278D01*
X329907105Y-96480012D01*
X330101224Y-96540917D01*
X330174843Y-96548403D01*
X330300451Y-96561177D01*
X330300456Y-96561177D01*
X330303630Y-96561500D01*
X334303630Y-96561500D01*
X334306014Y-96561318D01*
X334306026Y-96561318D01*
X334450313Y-96550330D01*
X334450315Y-96550330D01*
X334455891Y-96549905D01*
X334461300Y-96548504D01*
X334461303Y-96548504D01*
X334646662Y-96500511D01*
X334646663Y-96500511D01*
X334652845Y-96498910D01*
X334835503Y-96409312D01*
X334840557Y-96405400D01*
X334840560Y-96405398D01*
X334991331Y-96288692D01*
X334991332Y-96288691D01*
X334996386Y-96284779D01*
X335128908Y-96130410D01*
X335227642Y-95952525D01*
X335288547Y-95758406D01*
X335301923Y-95626876D01*
X335305542Y-95591283D01*
X340845187Y-95591283D01*
X340854015Y-95602902D01*
X340953889Y-95675465D01*
X340960569Y-95679705D01*
X341230185Y-95827927D01*
X341237320Y-95831284D01*
X341523387Y-95944547D01*
X341530912Y-95946992D01*
X341828902Y-96023502D01*
X341836673Y-96024985D01*
X342141906Y-96063544D01*
X342149796Y-96064041D01*
X342457464Y-96064041D01*
X342465354Y-96063544D01*
X342770587Y-96024985D01*
X342778358Y-96023502D01*
X343076348Y-95946992D01*
X343083873Y-95944547D01*
X343369940Y-95831284D01*
X343377075Y-95827927D01*
X343646691Y-95679705D01*
X343653371Y-95675465D01*
X343753616Y-95602633D01*
X343762040Y-95591708D01*
X343755137Y-95578849D01*
X342316442Y-94140154D01*
X342302498Y-94132540D01*
X342300665Y-94132671D01*
X342294050Y-94136922D01*
X340851800Y-95579172D01*
X340845187Y-95591283D01*
X335305542Y-95591283D01*
X335308807Y-95559179D01*
X335308807Y-95559174D01*
X335309130Y-95556000D01*
X335309130Y-93552042D01*
X339790879Y-93552042D01*
X339790879Y-93559958D01*
X339810197Y-93866999D01*
X339811190Y-93874862D01*
X339868837Y-94177057D01*
X339870808Y-94184734D01*
X339965876Y-94477324D01*
X339968791Y-94484687D01*
X340099784Y-94763061D01*
X340103595Y-94769994D01*
X340254889Y-95008394D01*
X340265495Y-95017691D01*
X340274768Y-95013520D01*
X341719476Y-93568812D01*
X341725854Y-93557132D01*
X342880170Y-93557132D01*
X342880301Y-93558965D01*
X342884552Y-93565580D01*
X344329851Y-95010879D01*
X344342231Y-95017639D01*
X344350371Y-95011546D01*
X344503665Y-94769994D01*
X344507476Y-94763061D01*
X344638469Y-94484687D01*
X344641384Y-94477324D01*
X344736452Y-94184734D01*
X344738423Y-94177057D01*
X344796070Y-93874862D01*
X344797063Y-93866999D01*
X344816381Y-93559958D01*
X344816381Y-93552042D01*
X344797063Y-93245001D01*
X344796070Y-93237138D01*
X344738423Y-92934943D01*
X344736452Y-92927266D01*
X344641384Y-92634676D01*
X344638469Y-92627313D01*
X344507476Y-92348939D01*
X344503665Y-92342006D01*
X344352371Y-92103606D01*
X344341765Y-92094309D01*
X344332492Y-92098480D01*
X342887784Y-93543188D01*
X342880170Y-93557132D01*
X341725854Y-93557132D01*
X341727090Y-93554868D01*
X341726959Y-93553035D01*
X341722708Y-93546420D01*
X340277409Y-92101121D01*
X340265029Y-92094361D01*
X340256889Y-92100454D01*
X340103595Y-92342006D01*
X340099784Y-92348939D01*
X339968791Y-92627313D01*
X339965876Y-92634676D01*
X339870808Y-92927266D01*
X339868837Y-92934943D01*
X339811190Y-93237138D01*
X339810197Y-93245001D01*
X339790879Y-93552042D01*
X335309130Y-93552042D01*
X335309130Y-91556000D01*
X335307366Y-91532828D01*
X335306411Y-91520292D01*
X340845220Y-91520292D01*
X340852123Y-91533151D01*
X342290818Y-92971846D01*
X342304762Y-92979460D01*
X342306595Y-92979329D01*
X342313210Y-92975078D01*
X343755460Y-91532828D01*
X343762073Y-91520717D01*
X343753245Y-91509098D01*
X343653371Y-91436535D01*
X343646691Y-91432295D01*
X343377075Y-91284073D01*
X343369940Y-91280716D01*
X343083873Y-91167453D01*
X343076348Y-91165008D01*
X342778358Y-91088498D01*
X342770587Y-91087015D01*
X342465354Y-91048456D01*
X342457464Y-91047959D01*
X342149796Y-91047959D01*
X342141906Y-91048456D01*
X341836673Y-91087015D01*
X341828902Y-91088498D01*
X341530912Y-91165008D01*
X341523387Y-91167453D01*
X341237320Y-91280716D01*
X341230185Y-91284073D01*
X340960569Y-91432295D01*
X340953889Y-91436535D01*
X340853644Y-91509367D01*
X340845220Y-91520292D01*
X335306411Y-91520292D01*
X335297960Y-91409317D01*
X335297960Y-91409315D01*
X335297535Y-91403739D01*
X335246540Y-91206785D01*
X335156942Y-91024127D01*
X335032409Y-90863244D01*
X334878040Y-90730722D01*
X334700155Y-90631988D01*
X334506036Y-90571083D01*
X334413472Y-90561670D01*
X334306809Y-90550823D01*
X334306804Y-90550823D01*
X334303630Y-90550500D01*
X330303630Y-90550500D01*
X330301246Y-90550682D01*
X330301234Y-90550682D01*
X330156947Y-90561670D01*
X330156945Y-90561670D01*
X330151369Y-90562095D01*
X330145960Y-90563496D01*
X330145957Y-90563496D01*
X329960598Y-90611489D01*
X329954415Y-90613090D01*
X329771757Y-90702688D01*
X329766703Y-90706600D01*
X329766700Y-90706602D01*
X329615929Y-90823308D01*
X329610874Y-90827221D01*
X329478352Y-90981590D01*
X329379618Y-91159475D01*
X329318713Y-91353594D01*
X329318067Y-91359948D01*
X329300454Y-91533151D01*
X329298130Y-91556000D01*
X304825000Y-91556000D01*
X304825000Y-90922800D01*
X304109865Y-90655351D01*
X302100594Y-89903916D01*
X302045092Y-89863024D01*
X302008692Y-89815999D01*
X302008691Y-89815998D01*
X302004779Y-89810944D01*
X301850410Y-89678422D01*
X301672525Y-89579688D01*
X301478406Y-89518783D01*
X301390021Y-89509795D01*
X301279179Y-89498523D01*
X301279174Y-89498523D01*
X301276000Y-89498200D01*
X301038533Y-89498200D01*
X300994398Y-89490217D01*
X297404439Y-88147631D01*
X303981487Y-88147631D01*
X303981855Y-88151450D01*
X303981855Y-88151457D01*
X304011609Y-88460462D01*
X304011978Y-88464290D01*
X304012811Y-88468047D01*
X304041754Y-88598598D01*
X304080833Y-88774873D01*
X304187025Y-89074750D01*
X304328971Y-89359450D01*
X304331092Y-89362654D01*
X304502431Y-89621521D01*
X304502437Y-89621528D01*
X304504555Y-89624729D01*
X304711160Y-89866632D01*
X304945706Y-90081554D01*
X305204695Y-90266289D01*
X305208082Y-90268128D01*
X305480884Y-90416248D01*
X305480889Y-90416250D01*
X305484268Y-90418085D01*
X305487843Y-90419493D01*
X305487849Y-90419496D01*
X305683716Y-90496650D01*
X305780256Y-90534678D01*
X305783977Y-90535640D01*
X305783979Y-90535641D01*
X305833129Y-90548352D01*
X306088247Y-90614330D01*
X306092065Y-90614833D01*
X306092067Y-90614833D01*
X306399834Y-90655351D01*
X306399840Y-90655351D01*
X306403650Y-90655853D01*
X306407493Y-90655887D01*
X306407500Y-90655887D01*
X306556264Y-90657185D01*
X306721761Y-90658629D01*
X306725576Y-90658194D01*
X306725582Y-90658194D01*
X307034008Y-90623054D01*
X307034015Y-90623053D01*
X307037840Y-90622617D01*
X307041581Y-90621719D01*
X307041586Y-90621718D01*
X307176772Y-90589262D01*
X307347174Y-90548352D01*
X307350770Y-90547008D01*
X307350775Y-90547006D01*
X307641553Y-90438289D01*
X307641559Y-90438287D01*
X307645152Y-90436943D01*
X307927332Y-90290049D01*
X308189506Y-90109862D01*
X308218986Y-90083781D01*
X308424896Y-89901607D01*
X308427767Y-89899067D01*
X308501259Y-89815999D01*
X308636016Y-89663684D01*
X308636018Y-89663682D01*
X308638562Y-89660806D01*
X308818749Y-89398632D01*
X308965643Y-89116452D01*
X308979947Y-89078196D01*
X309075706Y-88822075D01*
X309075708Y-88822070D01*
X309077052Y-88818474D01*
X309151317Y-88509140D01*
X309187329Y-88193061D01*
X309190900Y-88056700D01*
X309171479Y-87739169D01*
X309113506Y-87426373D01*
X309045961Y-87212147D01*
X309019002Y-87126644D01*
X309019001Y-87126641D01*
X309017844Y-87122972D01*
X308924473Y-86918087D01*
X308887519Y-86837000D01*
X308887517Y-86836996D01*
X308885920Y-86833492D01*
X308756384Y-86622108D01*
X308721710Y-86565525D01*
X308721708Y-86565522D01*
X308719701Y-86562247D01*
X308521664Y-86313280D01*
X308294762Y-86090304D01*
X308113543Y-85951250D01*
X308045421Y-85898978D01*
X308045413Y-85898973D01*
X308042377Y-85896643D01*
X307887547Y-85805441D01*
X307771588Y-85737136D01*
X307771585Y-85737134D01*
X307768272Y-85735183D01*
X307476533Y-85608331D01*
X307472839Y-85607237D01*
X307472834Y-85607235D01*
X307340001Y-85567888D01*
X307171510Y-85517979D01*
X306857749Y-85465473D01*
X306539928Y-85451597D01*
X306381356Y-85464077D01*
X306226619Y-85476255D01*
X306226616Y-85476255D01*
X306222784Y-85476557D01*
X305911047Y-85539980D01*
X305760205Y-85590451D01*
X305613008Y-85639702D01*
X305613002Y-85639704D01*
X305609363Y-85640922D01*
X305322229Y-85777878D01*
X305318992Y-85779940D01*
X305318987Y-85779943D01*
X305222551Y-85841380D01*
X305053926Y-85948806D01*
X304808453Y-86151158D01*
X304589471Y-86381917D01*
X304400244Y-86637643D01*
X304398345Y-86641000D01*
X304249881Y-86903409D01*
X304243592Y-86914524D01*
X304242117Y-86918085D01*
X304242116Y-86918087D01*
X304193904Y-87034481D01*
X304121851Y-87208432D01*
X304100262Y-87286281D01*
X304037866Y-87511270D01*
X304037864Y-87511278D01*
X304036836Y-87514986D01*
X303989815Y-87829616D01*
X303989715Y-87833449D01*
X303989714Y-87833456D01*
X303985394Y-87998437D01*
X303981487Y-88147631D01*
X297404439Y-88147631D01*
X295722989Y-87518796D01*
X292410854Y-86280111D01*
X292354055Y-86237514D01*
X292329303Y-86170972D01*
X292328995Y-86160959D01*
X292344849Y-84401195D01*
X294591769Y-84401195D01*
X294598515Y-84410437D01*
X294599283Y-84410963D01*
X294850263Y-84559392D01*
X294857710Y-84563154D01*
X295126133Y-84677093D01*
X295134001Y-84679833D01*
X295415128Y-84757268D01*
X295423307Y-84758947D01*
X295712198Y-84798519D01*
X295720523Y-84799102D01*
X296012109Y-84800119D01*
X296020442Y-84799595D01*
X296309616Y-84762039D01*
X296317781Y-84760422D01*
X296599458Y-84684947D01*
X296607337Y-84682265D01*
X296876551Y-84570202D01*
X296884023Y-84566493D01*
X297136040Y-84419816D01*
X297142961Y-84415147D01*
X297147479Y-84411643D01*
X297155024Y-84401195D01*
X299591769Y-84401195D01*
X299598515Y-84410437D01*
X299599283Y-84410963D01*
X299850263Y-84559392D01*
X299857710Y-84563154D01*
X300126133Y-84677093D01*
X300134001Y-84679833D01*
X300415128Y-84757268D01*
X300423307Y-84758947D01*
X300712198Y-84798519D01*
X300720523Y-84799102D01*
X301012109Y-84800119D01*
X301020442Y-84799595D01*
X301309616Y-84762039D01*
X301317781Y-84760422D01*
X301599458Y-84684947D01*
X301607337Y-84682265D01*
X301876551Y-84570202D01*
X301884023Y-84566493D01*
X302136040Y-84419816D01*
X302142961Y-84415147D01*
X302147479Y-84411643D01*
X302155948Y-84399916D01*
X302149372Y-84388115D01*
X300887010Y-83125752D01*
X300873069Y-83118140D01*
X300871234Y-83118271D01*
X300864620Y-83122522D01*
X299598772Y-84388371D01*
X299591769Y-84401195D01*
X297155024Y-84401195D01*
X297155948Y-84399916D01*
X297149372Y-84388115D01*
X295887010Y-83125752D01*
X295873069Y-83118140D01*
X295871234Y-83118271D01*
X295864620Y-83122522D01*
X294598772Y-84388371D01*
X294591769Y-84401195D01*
X292344849Y-84401195D01*
X292350471Y-83777099D01*
X292360786Y-82632176D01*
X293613287Y-82632176D01*
X293613637Y-82640528D01*
X293645128Y-82930409D01*
X293646577Y-82938626D01*
X293716131Y-83221797D01*
X293718658Y-83229762D01*
X293825049Y-83501242D01*
X293828605Y-83508799D01*
X293969970Y-83763828D01*
X293974492Y-83770845D01*
X294005932Y-83813178D01*
X294017125Y-83821624D01*
X294029632Y-83814825D01*
X295290048Y-82554410D01*
X295296425Y-82542731D01*
X296450740Y-82542731D01*
X296450871Y-82544566D01*
X296455122Y-82551180D01*
X297719267Y-83815324D01*
X297731707Y-83822117D01*
X297742919Y-83813752D01*
X297765286Y-83784070D01*
X297769847Y-83777099D01*
X297912997Y-83523049D01*
X297916599Y-83515529D01*
X298024890Y-83244782D01*
X298027465Y-83236859D01*
X298098996Y-82954169D01*
X298100503Y-82945961D01*
X298134170Y-82654981D01*
X298134568Y-82649291D01*
X298134986Y-82632176D01*
X298613287Y-82632176D01*
X298613637Y-82640528D01*
X298645128Y-82930409D01*
X298646577Y-82938626D01*
X298716131Y-83221797D01*
X298718658Y-83229762D01*
X298825049Y-83501242D01*
X298828605Y-83508799D01*
X298969970Y-83763828D01*
X298974492Y-83770845D01*
X299005932Y-83813178D01*
X299017125Y-83821624D01*
X299029632Y-83814825D01*
X300290048Y-82554410D01*
X300296425Y-82542731D01*
X301450740Y-82542731D01*
X301450871Y-82544566D01*
X301455122Y-82551180D01*
X302719267Y-83815324D01*
X302731707Y-83822117D01*
X302742919Y-83813752D01*
X302765286Y-83784070D01*
X302769847Y-83777099D01*
X302912997Y-83523049D01*
X302916599Y-83515529D01*
X303024890Y-83244782D01*
X303027465Y-83236859D01*
X303098996Y-82954169D01*
X303100503Y-82945961D01*
X303134170Y-82654981D01*
X303134568Y-82649291D01*
X303137130Y-82544455D01*
X303137011Y-82538755D01*
X303117598Y-82246475D01*
X303116495Y-82238206D01*
X303058859Y-81952369D01*
X303056669Y-81944308D01*
X302961736Y-81668602D01*
X302958505Y-81660915D01*
X302827940Y-81400185D01*
X302823719Y-81392990D01*
X302741014Y-81271293D01*
X302730896Y-81262972D01*
X302716981Y-81270162D01*
X301458352Y-82528790D01*
X301450740Y-82542731D01*
X300296425Y-82542731D01*
X300297660Y-82540469D01*
X300297529Y-82538634D01*
X300293278Y-82532020D01*
X299028349Y-81267092D01*
X299015969Y-81260332D01*
X299008161Y-81266177D01*
X298878290Y-81475638D01*
X298874377Y-81482998D01*
X298754847Y-81748964D01*
X298751937Y-81756787D01*
X298668629Y-82036237D01*
X298666784Y-82044358D01*
X298621168Y-82332370D01*
X298620412Y-82340681D01*
X298613287Y-82632176D01*
X298134986Y-82632176D01*
X298137130Y-82544455D01*
X298137011Y-82538755D01*
X298117598Y-82246475D01*
X298116495Y-82238206D01*
X298058859Y-81952369D01*
X298056669Y-81944308D01*
X297961736Y-81668602D01*
X297958505Y-81660915D01*
X297827940Y-81400185D01*
X297823719Y-81392990D01*
X297741014Y-81271293D01*
X297730896Y-81262972D01*
X297716981Y-81270162D01*
X296458352Y-82528790D01*
X296450740Y-82542731D01*
X295296425Y-82542731D01*
X295297660Y-82540469D01*
X295297529Y-82538634D01*
X295293278Y-82532020D01*
X294028349Y-81267092D01*
X294015969Y-81260332D01*
X294008161Y-81266177D01*
X293878290Y-81475638D01*
X293874377Y-81482998D01*
X293754847Y-81748964D01*
X293751937Y-81756787D01*
X293668629Y-82036237D01*
X293666784Y-82044358D01*
X293621168Y-82332370D01*
X293620412Y-82340681D01*
X293613287Y-82632176D01*
X292360786Y-82632176D01*
X292378332Y-80684536D01*
X292398947Y-80616598D01*
X292453019Y-80570590D01*
X292504397Y-80559671D01*
X294467281Y-80560788D01*
G37*
%TD.AperFunction*%
%TD*%
%TA.AperFunction,Conductor*%
%TO.N,Net-(C24-Pad1)*%
G36*
X254426976Y-81483309D02*
G01*
X262997837Y-81499351D01*
X263065920Y-81519481D01*
X263112312Y-81573223D01*
X263122285Y-81643516D01*
X263092671Y-81708042D01*
X263032873Y-81746313D01*
X263025087Y-81748317D01*
X262828939Y-81792160D01*
X262820936Y-81794516D01*
X262547275Y-81895205D01*
X262539659Y-81898595D01*
X262281724Y-82034589D01*
X262274608Y-82038967D01*
X262210906Y-82084238D01*
X262202510Y-82094893D01*
X262209514Y-82108107D01*
X263450990Y-83349584D01*
X263464931Y-83357196D01*
X263466766Y-83357065D01*
X263473380Y-83352814D01*
X264718582Y-82107611D01*
X264725342Y-82095231D01*
X264718988Y-82086742D01*
X264571325Y-81990849D01*
X264564055Y-81986787D01*
X264300648Y-81861712D01*
X264292880Y-81858636D01*
X264015249Y-81769499D01*
X264007157Y-81767481D01*
X263916231Y-81751121D01*
X263852728Y-81719372D01*
X263816472Y-81658331D01*
X263818972Y-81587378D01*
X263859435Y-81529041D01*
X263925014Y-81501840D01*
X263938779Y-81501112D01*
X267956319Y-81508631D01*
X268024402Y-81528761D01*
X268070794Y-81582503D01*
X268080767Y-81652796D01*
X268051153Y-81717322D01*
X267991355Y-81755593D01*
X267983569Y-81757597D01*
X267828939Y-81792160D01*
X267820936Y-81794516D01*
X267547275Y-81895205D01*
X267539659Y-81898595D01*
X267281724Y-82034589D01*
X267274608Y-82038967D01*
X267210906Y-82084238D01*
X267202510Y-82094893D01*
X267209514Y-82108107D01*
X268450990Y-83349584D01*
X268464931Y-83357196D01*
X268466766Y-83357065D01*
X268473380Y-83352814D01*
X269718582Y-82107611D01*
X269725342Y-82095231D01*
X269718988Y-82086742D01*
X269571325Y-81990849D01*
X269564055Y-81986787D01*
X269300648Y-81861712D01*
X269292880Y-81858636D01*
X269015249Y-81769499D01*
X269007160Y-81767482D01*
X268968786Y-81760577D01*
X268905284Y-81728827D01*
X268869028Y-81667786D01*
X268871528Y-81596834D01*
X268911991Y-81538497D01*
X268977571Y-81511296D01*
X268991335Y-81510568D01*
X290044803Y-81549972D01*
X290112886Y-81570102D01*
X290159278Y-81623844D01*
X290170509Y-81672141D01*
X290369449Y-88212293D01*
X290370000Y-88230400D01*
X290382493Y-88233993D01*
X298179324Y-90476219D01*
X298239263Y-90514269D01*
X298269116Y-90578684D01*
X298270500Y-90597311D01*
X298270500Y-92408700D01*
X298282095Y-92560961D01*
X298333090Y-92757915D01*
X298422688Y-92940573D01*
X298547221Y-93101456D01*
X298552073Y-93105621D01*
X298695143Y-93228443D01*
X298701590Y-93233978D01*
X298815125Y-93296995D01*
X298864978Y-93347542D01*
X298879590Y-93417018D01*
X298872749Y-93449222D01*
X298835743Y-93553724D01*
X298834971Y-93567805D01*
X298840681Y-93570800D01*
X301702953Y-93570800D01*
X301716484Y-93566827D01*
X301717487Y-93559846D01*
X301680091Y-93445433D01*
X301677940Y-93374469D01*
X301714496Y-93313607D01*
X301744366Y-93293164D01*
X301802131Y-93264829D01*
X301802134Y-93264827D01*
X301807873Y-93262012D01*
X301835854Y-93240353D01*
X301901965Y-93214472D01*
X301971574Y-93228443D01*
X302022579Y-93277829D01*
X302038978Y-93339245D01*
X302039438Y-93417018D01*
X302049975Y-95199811D01*
X302049983Y-95201194D01*
X302030384Y-95269432D01*
X301977004Y-95316241D01*
X301906791Y-95326760D01*
X301842037Y-95297649D01*
X301832427Y-95287874D01*
X301832165Y-95288124D01*
X301644334Y-95091225D01*
X301644331Y-95091222D01*
X301641259Y-95088002D01*
X301603594Y-95058309D01*
X301543770Y-95011148D01*
X301502656Y-94953268D01*
X301499362Y-94882347D01*
X301522893Y-94834106D01*
X301540945Y-94811249D01*
X301546641Y-94802676D01*
X301657715Y-94601466D01*
X301661938Y-94592069D01*
X301716257Y-94438676D01*
X301717029Y-94424595D01*
X301711319Y-94421600D01*
X298849047Y-94421600D01*
X298835516Y-94425573D01*
X298834512Y-94432554D01*
X298875904Y-94559191D01*
X298879899Y-94568693D01*
X298986015Y-94772541D01*
X298991505Y-94781259D01*
X299031408Y-94834404D01*
X299056314Y-94900889D01*
X299041322Y-94970285D01*
X299005509Y-95011408D01*
X298956881Y-95047325D01*
X298953702Y-95050454D01*
X298953699Y-95050457D01*
X298915560Y-95088002D01*
X298759783Y-95241351D01*
X298757082Y-95244891D01*
X298757076Y-95244897D01*
X298594691Y-95457672D01*
X298591989Y-95461213D01*
X298456849Y-95702524D01*
X298455241Y-95706682D01*
X298455238Y-95706687D01*
X298435161Y-95758584D01*
X298357057Y-95960469D01*
X298294606Y-96229901D01*
X298270742Y-96505445D01*
X298285939Y-96781602D01*
X298339897Y-97052863D01*
X298360640Y-97111931D01*
X298430058Y-97309609D01*
X298430061Y-97309617D01*
X298431536Y-97313816D01*
X298559031Y-97559252D01*
X298561614Y-97562867D01*
X298561618Y-97562873D01*
X298596144Y-97611187D01*
X298719835Y-97784276D01*
X298722913Y-97787503D01*
X298722915Y-97787505D01*
X298841913Y-97912247D01*
X298910741Y-97984398D01*
X299127941Y-98155624D01*
X299189718Y-98191507D01*
X299363252Y-98292304D01*
X299363258Y-98292307D01*
X299367099Y-98294538D01*
X299371222Y-98296208D01*
X299619314Y-98396696D01*
X299619317Y-98396697D01*
X299623445Y-98398369D01*
X299891863Y-98465044D01*
X300127626Y-98489200D01*
X300394117Y-98489200D01*
X300599385Y-98474666D01*
X300603740Y-98473728D01*
X300603743Y-98473728D01*
X300865418Y-98417391D01*
X300865420Y-98417391D01*
X300869765Y-98416455D01*
X301129245Y-98320728D01*
X301177784Y-98294538D01*
X301368733Y-98191507D01*
X301372649Y-98189394D01*
X301595119Y-98025075D01*
X301633641Y-97987154D01*
X301712655Y-97909371D01*
X301792217Y-97831049D01*
X301839447Y-97769163D01*
X301896674Y-97727147D01*
X301967534Y-97722739D01*
X302029527Y-97757341D01*
X302062973Y-97819967D01*
X302065607Y-97844860D01*
X302093822Y-102618836D01*
X302094279Y-102696219D01*
X302074680Y-102764457D01*
X302021300Y-102811266D01*
X301951087Y-102821785D01*
X301886333Y-102792674D01*
X301860335Y-102761953D01*
X301731838Y-102548521D01*
X301729880Y-102545268D01*
X301727553Y-102542284D01*
X301727548Y-102542277D01*
X301528267Y-102286750D01*
X301528265Y-102286747D01*
X301525931Y-102283755D01*
X301292042Y-102048638D01*
X301031601Y-101843323D01*
X300748381Y-101670784D01*
X300627968Y-101616036D01*
X300449935Y-101535088D01*
X300449927Y-101535085D01*
X300446483Y-101533519D01*
X300130281Y-101433518D01*
X299907947Y-101391708D01*
X299808079Y-101372928D01*
X299808077Y-101372928D01*
X299804356Y-101372228D01*
X299473428Y-101350538D01*
X299469648Y-101350746D01*
X299469647Y-101350746D01*
X299376600Y-101355867D01*
X299142291Y-101368761D01*
X299138562Y-101369422D01*
X299138561Y-101369422D01*
X299118779Y-101372928D01*
X298815741Y-101426635D01*
X298812116Y-101427740D01*
X298812111Y-101427741D01*
X298502134Y-101522214D01*
X298502127Y-101522217D01*
X298498510Y-101523319D01*
X298195191Y-101657415D01*
X298084727Y-101723134D01*
X297913439Y-101825039D01*
X297913433Y-101825043D01*
X297910179Y-101826979D01*
X297647603Y-102029556D01*
X297411264Y-102262211D01*
X297204588Y-102521573D01*
X297066443Y-102745687D01*
X297065748Y-102746814D01*
X297012976Y-102794307D01*
X296942904Y-102805731D01*
X296877781Y-102777457D01*
X296850542Y-102745687D01*
X296731838Y-102548521D01*
X296729880Y-102545268D01*
X296727553Y-102542284D01*
X296727548Y-102542277D01*
X296528267Y-102286750D01*
X296528265Y-102286747D01*
X296525931Y-102283755D01*
X296292042Y-102048638D01*
X296031601Y-101843323D01*
X295748381Y-101670784D01*
X295627968Y-101616036D01*
X295449935Y-101535088D01*
X295449927Y-101535085D01*
X295446483Y-101533519D01*
X295130281Y-101433518D01*
X294907947Y-101391708D01*
X294808079Y-101372928D01*
X294808077Y-101372928D01*
X294804356Y-101372228D01*
X294473428Y-101350538D01*
X294469648Y-101350746D01*
X294469647Y-101350746D01*
X294376600Y-101355867D01*
X294142291Y-101368761D01*
X294138562Y-101369422D01*
X294138561Y-101369422D01*
X294118779Y-101372928D01*
X293815741Y-101426635D01*
X293812116Y-101427740D01*
X293812111Y-101427741D01*
X293502134Y-101522214D01*
X293502127Y-101522217D01*
X293498510Y-101523319D01*
X293195191Y-101657415D01*
X293084727Y-101723134D01*
X292913439Y-101825039D01*
X292913433Y-101825043D01*
X292910179Y-101826979D01*
X292647603Y-102029556D01*
X292411264Y-102262211D01*
X292204588Y-102521573D01*
X292030568Y-102803886D01*
X291891725Y-103105061D01*
X291890566Y-103108661D01*
X291890563Y-103108668D01*
X291799448Y-103391610D01*
X291790069Y-103420735D01*
X291789350Y-103424451D01*
X291789348Y-103424459D01*
X291727793Y-103742616D01*
X291727792Y-103742625D01*
X291727074Y-103746335D01*
X291726807Y-103750111D01*
X291726806Y-103750116D01*
X291703919Y-104073356D01*
X291703651Y-104077145D01*
X291707983Y-104164159D01*
X291719733Y-104400173D01*
X291720141Y-104408373D01*
X291720782Y-104412104D01*
X291720783Y-104412112D01*
X291774546Y-104724994D01*
X291776303Y-104735221D01*
X291777391Y-104738860D01*
X291777392Y-104738863D01*
X291824052Y-104894880D01*
X291871326Y-105052954D01*
X292003832Y-105356971D01*
X292005755Y-105360243D01*
X292005757Y-105360246D01*
X292067159Y-105464694D01*
X292171901Y-105642867D01*
X292174202Y-105645882D01*
X292370800Y-105903487D01*
X292370805Y-105903492D01*
X292373100Y-105906500D01*
X292375744Y-105909214D01*
X292561591Y-106099991D01*
X292604514Y-106144053D01*
X292692428Y-106214864D01*
X292859838Y-106349707D01*
X292859844Y-106349711D01*
X292862791Y-106352085D01*
X293144189Y-106527581D01*
X293444633Y-106667999D01*
X293448243Y-106669182D01*
X293448247Y-106669184D01*
X293756166Y-106770125D01*
X293756173Y-106770127D01*
X293759770Y-106771306D01*
X294085036Y-106836006D01*
X294250377Y-106848583D01*
X294411941Y-106860873D01*
X294411946Y-106860873D01*
X294415718Y-106861160D01*
X294747028Y-106846405D01*
X294750766Y-106845783D01*
X294750774Y-106845782D01*
X294910189Y-106819247D01*
X295074166Y-106791954D01*
X295392392Y-106698597D01*
X295697099Y-106567685D01*
X295700376Y-106565781D01*
X295700383Y-106565778D01*
X295866749Y-106469144D01*
X295983870Y-106401114D01*
X296248554Y-106201299D01*
X296487316Y-105971132D01*
X296504823Y-105949629D01*
X296694305Y-105716885D01*
X296694306Y-105716884D01*
X296696696Y-105713948D01*
X296739643Y-105645882D01*
X296836964Y-105491636D01*
X296853964Y-105464693D01*
X296907230Y-105417755D01*
X296977417Y-105407066D01*
X297042241Y-105436020D01*
X297069146Y-105468073D01*
X297171901Y-105642867D01*
X297174202Y-105645882D01*
X297370800Y-105903487D01*
X297370805Y-105903492D01*
X297373100Y-105906500D01*
X297375744Y-105909214D01*
X297561591Y-106099991D01*
X297604514Y-106144053D01*
X297692428Y-106214864D01*
X297859838Y-106349707D01*
X297859844Y-106349711D01*
X297862791Y-106352085D01*
X298144189Y-106527581D01*
X298444633Y-106667999D01*
X298448243Y-106669182D01*
X298448247Y-106669184D01*
X298756166Y-106770125D01*
X298756173Y-106770127D01*
X298759770Y-106771306D01*
X299085036Y-106836006D01*
X299250377Y-106848583D01*
X299411941Y-106860873D01*
X299411946Y-106860873D01*
X299415718Y-106861160D01*
X299747028Y-106846405D01*
X299750766Y-106845783D01*
X299750774Y-106845782D01*
X299910189Y-106819247D01*
X300074166Y-106791954D01*
X300392392Y-106698597D01*
X300697099Y-106567685D01*
X300700376Y-106565781D01*
X300700383Y-106565778D01*
X300866749Y-106469144D01*
X300983870Y-106401114D01*
X301248554Y-106201299D01*
X301487316Y-105971132D01*
X301504823Y-105949629D01*
X301694305Y-105716885D01*
X301694306Y-105716884D01*
X301696696Y-105713948D01*
X301739643Y-105645882D01*
X301853963Y-105464694D01*
X301873663Y-105433472D01*
X301874622Y-105431449D01*
X301924730Y-105381623D01*
X301994147Y-105366728D01*
X302060596Y-105391727D01*
X302102982Y-105448683D01*
X302110800Y-105491636D01*
X302135407Y-109655136D01*
X302146814Y-111585295D01*
X302127215Y-111653533D01*
X302073835Y-111700342D01*
X302003622Y-111710861D01*
X301938745Y-111681645D01*
X301901210Y-111649422D01*
X301789052Y-111587169D01*
X301739198Y-111536621D01*
X301730993Y-111517815D01*
X301678921Y-111365725D01*
X301678919Y-111365721D01*
X301677746Y-111362294D01*
X301676187Y-111359026D01*
X301676184Y-111359018D01*
X301587430Y-111172942D01*
X301533491Y-111059856D01*
X301355429Y-110776002D01*
X301353157Y-110773166D01*
X301353152Y-110773159D01*
X301148195Y-110517331D01*
X301145923Y-110514495D01*
X301143353Y-110511952D01*
X301143346Y-110511944D01*
X300910329Y-110281356D01*
X300910328Y-110281355D01*
X300907748Y-110278802D01*
X300644062Y-110072045D01*
X300358359Y-109896966D01*
X300355074Y-109895441D01*
X300355070Y-109895439D01*
X300057710Y-109757410D01*
X300054427Y-109755886D01*
X299809467Y-109674873D01*
X299739738Y-109651812D01*
X299739733Y-109651811D01*
X299736293Y-109650673D01*
X299732738Y-109649937D01*
X299732735Y-109649936D01*
X299411725Y-109583458D01*
X299411722Y-109583458D01*
X299408175Y-109582723D01*
X299259468Y-109569451D01*
X299117148Y-109556749D01*
X299117142Y-109556749D01*
X299114355Y-109556500D01*
X289242285Y-109556500D01*
X289233423Y-109556012D01*
X289233420Y-109556076D01*
X289229787Y-109555886D01*
X289226185Y-109555488D01*
X289033349Y-109556498D01*
X289032689Y-109556500D01*
X288987147Y-109556500D01*
X288985326Y-109556605D01*
X288983522Y-109556657D01*
X288983522Y-109556648D01*
X288979264Y-109556781D01*
X288897710Y-109557208D01*
X288891109Y-109557243D01*
X288887507Y-109557679D01*
X288887505Y-109557679D01*
X288866486Y-109560223D01*
X288819351Y-109565927D01*
X288811483Y-109566629D01*
X288778890Y-109568508D01*
X288742956Y-109570580D01*
X288742951Y-109570581D01*
X288739336Y-109570789D01*
X288652497Y-109585945D01*
X288645979Y-109586906D01*
X288558456Y-109597498D01*
X288509117Y-109609343D01*
X288488173Y-109614371D01*
X288480424Y-109615976D01*
X288409246Y-109628399D01*
X288324716Y-109653438D01*
X288318374Y-109655136D01*
X288236165Y-109674873D01*
X288236161Y-109674874D01*
X288232634Y-109675721D01*
X288183408Y-109693735D01*
X288164752Y-109700562D01*
X288157240Y-109703046D01*
X288087964Y-109723567D01*
X288084633Y-109724988D01*
X288084624Y-109724991D01*
X288006880Y-109758152D01*
X288000754Y-109760578D01*
X287917963Y-109790875D01*
X287914729Y-109792501D01*
X287914714Y-109792508D01*
X287853400Y-109823346D01*
X287846221Y-109826678D01*
X287783098Y-109853602D01*
X287783084Y-109853609D01*
X287779750Y-109855031D01*
X287703152Y-109898722D01*
X287697372Y-109901820D01*
X287618611Y-109941433D01*
X287558190Y-109981122D01*
X287551492Y-109985227D01*
X287488689Y-110021049D01*
X287421847Y-110070150D01*
X287417636Y-110073243D01*
X287412220Y-110077006D01*
X287338549Y-110125399D01*
X287283115Y-110171749D01*
X287276888Y-110176631D01*
X287221559Y-110217275D01*
X287218638Y-110219421D01*
X287154737Y-110278802D01*
X287154072Y-110279420D01*
X287149123Y-110283783D01*
X287114401Y-110312815D01*
X287114395Y-110312820D01*
X287112244Y-110314619D01*
X287062012Y-110364851D01*
X287058688Y-110368056D01*
X286973178Y-110447517D01*
X286940278Y-110486037D01*
X286933573Y-110493290D01*
X283117014Y-114309849D01*
X283110400Y-114315774D01*
X283110443Y-114315821D01*
X283107738Y-114318256D01*
X283104914Y-114320519D01*
X283102370Y-114323090D01*
X282969215Y-114457647D01*
X282968749Y-114458114D01*
X282936604Y-114490259D01*
X282935381Y-114491632D01*
X282934149Y-114492937D01*
X282934142Y-114492931D01*
X282931232Y-114496030D01*
X282869221Y-114558694D01*
X282850864Y-114582106D01*
X282824630Y-114615564D01*
X282819552Y-114621636D01*
X282796862Y-114647103D01*
X282771479Y-114675592D01*
X282769393Y-114678559D01*
X282769393Y-114678560D01*
X282720790Y-114747715D01*
X282716857Y-114753010D01*
X282662464Y-114822380D01*
X282624696Y-114884012D01*
X282620358Y-114890616D01*
X282578807Y-114949737D01*
X282577074Y-114952928D01*
X282577067Y-114952940D01*
X282536754Y-115027189D01*
X282533455Y-115032903D01*
X282489289Y-115104974D01*
X282489281Y-115104990D01*
X282487385Y-115108083D01*
X282485858Y-115111373D01*
X282485853Y-115111382D01*
X282456956Y-115173636D01*
X282453400Y-115180706D01*
X282420655Y-115241015D01*
X282420650Y-115241026D01*
X282418920Y-115244212D01*
X282417565Y-115247583D01*
X282386050Y-115325979D01*
X282383431Y-115332033D01*
X282346305Y-115412015D01*
X282323604Y-115480656D01*
X282320900Y-115488042D01*
X282293939Y-115555111D01*
X282292981Y-115558614D01*
X282292979Y-115558619D01*
X282270680Y-115640132D01*
X282268773Y-115646449D01*
X282242234Y-115726693D01*
X282242230Y-115726708D01*
X282241092Y-115730149D01*
X282240356Y-115733704D01*
X282240355Y-115733707D01*
X282226439Y-115800905D01*
X282224591Y-115808602D01*
X282206479Y-115874808D01*
X282205520Y-115878315D01*
X282204971Y-115881903D01*
X282192184Y-115965464D01*
X282191016Y-115971955D01*
X282173142Y-116058267D01*
X282169348Y-116100779D01*
X282166719Y-116130236D01*
X282165768Y-116138091D01*
X282154835Y-116209540D01*
X282154702Y-116213172D01*
X282151605Y-116297638D01*
X282151191Y-116304222D01*
X282150969Y-116306717D01*
X282146919Y-116352087D01*
X282146919Y-116423132D01*
X282146834Y-116427749D01*
X282143627Y-116515222D01*
X282142557Y-116544395D01*
X282142842Y-116548016D01*
X282142842Y-116548018D01*
X282146531Y-116594890D01*
X282146919Y-116604776D01*
X282146919Y-120210134D01*
X282146431Y-120218996D01*
X282146495Y-120218999D01*
X282146305Y-120222633D01*
X282145907Y-120226234D01*
X282145926Y-120229859D01*
X282146917Y-120418960D01*
X282146919Y-120419620D01*
X282146919Y-120465272D01*
X282147024Y-120467084D01*
X282147076Y-120468905D01*
X282147068Y-120468905D01*
X282147201Y-120473177D01*
X282147397Y-120510491D01*
X282147663Y-120561310D01*
X282156346Y-120633060D01*
X282157047Y-120640918D01*
X282161208Y-120713083D01*
X282173987Y-120786302D01*
X282165995Y-120856846D01*
X282138958Y-120897059D01*
X281578422Y-121457595D01*
X281516110Y-121491621D01*
X281489327Y-121494500D01*
X271754671Y-121494500D01*
X271686550Y-121474498D01*
X271640057Y-121420842D01*
X271632977Y-121401157D01*
X271510127Y-120943361D01*
X270953721Y-118869948D01*
X276596830Y-118869948D01*
X276596830Y-120428743D01*
X276596991Y-120433250D01*
X276601570Y-120497269D01*
X276603956Y-120510491D01*
X276640649Y-120635458D01*
X276648063Y-120651692D01*
X276717256Y-120759360D01*
X276728942Y-120772847D01*
X276825670Y-120856662D01*
X276840678Y-120866307D01*
X276957105Y-120919477D01*
X276974218Y-120924502D01*
X277105384Y-120943361D01*
X277114325Y-120944000D01*
X278666315Y-120944000D01*
X278681554Y-120939525D01*
X278682759Y-120938135D01*
X278684430Y-120930452D01*
X278684430Y-118874515D01*
X278683089Y-118869948D01*
X279535230Y-118869948D01*
X279535230Y-120925885D01*
X279539705Y-120941124D01*
X279541095Y-120942329D01*
X279548778Y-120944000D01*
X281107573Y-120944000D01*
X281112080Y-120943839D01*
X281176099Y-120939260D01*
X281189321Y-120936874D01*
X281314288Y-120900181D01*
X281330522Y-120892767D01*
X281438190Y-120823574D01*
X281451677Y-120811888D01*
X281535492Y-120715160D01*
X281545137Y-120700152D01*
X281598307Y-120583725D01*
X281603332Y-120566612D01*
X281622191Y-120435446D01*
X281622830Y-120426503D01*
X281622830Y-118874515D01*
X281618355Y-118859276D01*
X281616965Y-118858071D01*
X281609282Y-118856400D01*
X279553345Y-118856400D01*
X279538106Y-118860875D01*
X279536901Y-118862265D01*
X279535230Y-118869948D01*
X278683089Y-118869948D01*
X278679955Y-118859276D01*
X278678565Y-118858071D01*
X278670882Y-118856400D01*
X276614945Y-118856400D01*
X276599706Y-118860875D01*
X276598501Y-118862265D01*
X276596830Y-118869948D01*
X270953721Y-118869948D01*
X270300429Y-116435495D01*
X276596830Y-116435495D01*
X276596830Y-117987485D01*
X276601305Y-118002724D01*
X276602695Y-118003929D01*
X276610378Y-118005600D01*
X278666315Y-118005600D01*
X278681554Y-118001125D01*
X278682759Y-117999735D01*
X278684430Y-117992052D01*
X278684430Y-115936115D01*
X278683089Y-115931548D01*
X279535230Y-115931548D01*
X279535230Y-117987485D01*
X279539705Y-118002724D01*
X279541095Y-118003929D01*
X279548778Y-118005600D01*
X281604715Y-118005600D01*
X281619954Y-118001125D01*
X281621159Y-117999735D01*
X281622830Y-117992052D01*
X281622830Y-116433257D01*
X281622669Y-116428750D01*
X281618090Y-116364731D01*
X281615704Y-116351509D01*
X281579011Y-116226542D01*
X281571597Y-116210308D01*
X281502404Y-116102640D01*
X281490718Y-116089153D01*
X281393990Y-116005338D01*
X281378982Y-115995693D01*
X281262555Y-115942523D01*
X281245442Y-115937498D01*
X281114276Y-115918639D01*
X281105335Y-115918000D01*
X279553345Y-115918000D01*
X279538106Y-115922475D01*
X279536901Y-115923865D01*
X279535230Y-115931548D01*
X278683089Y-115931548D01*
X278679955Y-115920876D01*
X278678565Y-115919671D01*
X278670882Y-115918000D01*
X277112087Y-115918000D01*
X277107580Y-115918161D01*
X277043561Y-115922740D01*
X277030339Y-115925126D01*
X276905372Y-115961819D01*
X276889138Y-115969233D01*
X276781470Y-116038426D01*
X276767983Y-116050112D01*
X276684168Y-116146840D01*
X276674523Y-116161848D01*
X276621353Y-116278275D01*
X276616328Y-116295388D01*
X276597469Y-116426554D01*
X276596830Y-116435495D01*
X270300429Y-116435495D01*
X268761306Y-110700046D01*
X268757000Y-110667389D01*
X268757000Y-109609343D01*
X271412483Y-109609343D01*
X271416225Y-109614342D01*
X271526343Y-109665692D01*
X271536639Y-109669439D01*
X271747090Y-109725830D01*
X271757877Y-109727732D01*
X271974925Y-109746721D01*
X271985875Y-109746721D01*
X272202923Y-109727732D01*
X272213710Y-109725830D01*
X272424161Y-109669439D01*
X272434457Y-109665692D01*
X272537951Y-109617431D01*
X272548534Y-109608112D01*
X272546727Y-109602133D01*
X271993212Y-109048618D01*
X271979268Y-109041004D01*
X271977435Y-109041135D01*
X271970820Y-109045386D01*
X271419243Y-109596963D01*
X271412483Y-109609343D01*
X268757000Y-109609343D01*
X268757000Y-108428725D01*
X270667879Y-108428725D01*
X270667879Y-108439675D01*
X270686868Y-108656723D01*
X270688770Y-108667510D01*
X270745161Y-108877961D01*
X270748908Y-108888257D01*
X270797169Y-108991751D01*
X270806488Y-109002334D01*
X270812467Y-109000527D01*
X271365982Y-108447012D01*
X271372360Y-108435332D01*
X272587204Y-108435332D01*
X272587335Y-108437165D01*
X272591586Y-108443780D01*
X273143163Y-108995357D01*
X273155543Y-109002117D01*
X273160542Y-108998375D01*
X273211892Y-108888257D01*
X273215639Y-108877961D01*
X273272030Y-108667510D01*
X273273932Y-108656723D01*
X273292921Y-108439675D01*
X273292921Y-108428725D01*
X273273932Y-108211677D01*
X273272030Y-108200890D01*
X273215639Y-107990439D01*
X273211892Y-107980143D01*
X273163631Y-107876649D01*
X273154312Y-107866066D01*
X273148333Y-107867873D01*
X272594818Y-108421388D01*
X272587204Y-108435332D01*
X271372360Y-108435332D01*
X271373596Y-108433068D01*
X271373465Y-108431235D01*
X271369214Y-108424620D01*
X270817637Y-107873043D01*
X270805257Y-107866283D01*
X270800258Y-107870025D01*
X270748908Y-107980143D01*
X270745161Y-107990439D01*
X270688770Y-108200890D01*
X270686868Y-108211677D01*
X270667879Y-108428725D01*
X268757000Y-108428725D01*
X268757000Y-107260288D01*
X271412266Y-107260288D01*
X271414073Y-107266267D01*
X271967588Y-107819782D01*
X271981532Y-107827396D01*
X271983365Y-107827265D01*
X271989980Y-107823014D01*
X272541557Y-107271437D01*
X272548317Y-107259057D01*
X272544575Y-107254058D01*
X272434457Y-107202708D01*
X272424161Y-107198961D01*
X272213710Y-107142570D01*
X272202923Y-107140668D01*
X271985875Y-107121679D01*
X271974925Y-107121679D01*
X271757877Y-107140668D01*
X271747090Y-107142570D01*
X271536639Y-107198961D01*
X271526343Y-107202708D01*
X271422849Y-107250969D01*
X271412266Y-107260288D01*
X268757000Y-107260288D01*
X268757000Y-103386938D01*
X270175519Y-103386938D01*
X270175743Y-103391604D01*
X270175743Y-103391610D01*
X270180408Y-103488716D01*
X270188358Y-103654235D01*
X270240565Y-103916699D01*
X270330994Y-104168563D01*
X270457657Y-104404294D01*
X270617772Y-104618715D01*
X270621079Y-104621993D01*
X270621084Y-104621999D01*
X270777333Y-104776889D01*
X270807822Y-104807113D01*
X271023631Y-104965351D01*
X271027774Y-104967531D01*
X271027776Y-104967532D01*
X271256309Y-105087769D01*
X271256314Y-105087771D01*
X271260459Y-105089952D01*
X271264882Y-105091497D01*
X271264883Y-105091497D01*
X271411005Y-105142525D01*
X271513102Y-105178179D01*
X271517695Y-105179051D01*
X271771423Y-105227223D01*
X271771426Y-105227223D01*
X271776012Y-105228094D01*
X271903114Y-105233088D01*
X272038743Y-105238417D01*
X272038748Y-105238417D01*
X272043411Y-105238600D01*
X272147295Y-105227223D01*
X272304773Y-105209977D01*
X272304779Y-105209976D01*
X272309426Y-105209467D01*
X272424954Y-105179051D01*
X272563690Y-105142525D01*
X272563692Y-105142524D01*
X272568213Y-105141334D01*
X272572510Y-105139488D01*
X272809793Y-105037543D01*
X272809795Y-105037542D01*
X272814087Y-105035698D01*
X273041646Y-104894880D01*
X273131072Y-104819176D01*
X273242325Y-104724994D01*
X273242327Y-104724992D01*
X273245892Y-104721974D01*
X273422336Y-104520777D01*
X273497261Y-104404294D01*
X273564576Y-104299640D01*
X273567104Y-104295710D01*
X273677015Y-104051717D01*
X273749654Y-103794159D01*
X273783426Y-103528693D01*
X273785900Y-103434200D01*
X273782042Y-103382284D01*
X273766414Y-103171982D01*
X273766413Y-103171978D01*
X273766068Y-103167330D01*
X273707008Y-102906323D01*
X273656895Y-102777457D01*
X273611711Y-102661265D01*
X273611710Y-102661262D01*
X273610018Y-102656912D01*
X273477227Y-102424577D01*
X273311554Y-102214422D01*
X273116638Y-102031063D01*
X272896761Y-101878529D01*
X272892570Y-101876462D01*
X272660940Y-101762235D01*
X272660937Y-101762234D01*
X272656752Y-101760170D01*
X272401886Y-101678586D01*
X272397279Y-101677836D01*
X272397276Y-101677835D01*
X272142371Y-101636321D01*
X272142372Y-101636321D01*
X272137760Y-101635570D01*
X272008114Y-101633873D01*
X271874854Y-101632129D01*
X271874851Y-101632129D01*
X271870177Y-101632068D01*
X271605015Y-101668155D01*
X271600529Y-101669463D01*
X271600527Y-101669463D01*
X271533291Y-101689061D01*
X271348101Y-101743038D01*
X271343848Y-101744998D01*
X271343847Y-101744999D01*
X271310939Y-101760170D01*
X271105076Y-101855074D01*
X271101167Y-101857637D01*
X270885194Y-101999235D01*
X270885189Y-101999239D01*
X270881281Y-102001801D01*
X270825795Y-102051324D01*
X270704928Y-102159202D01*
X270681632Y-102179994D01*
X270510514Y-102385741D01*
X270371688Y-102614520D01*
X270369879Y-102618834D01*
X270369878Y-102618836D01*
X270284775Y-102821785D01*
X270268202Y-102861306D01*
X270202330Y-103120678D01*
X270175519Y-103386938D01*
X268757000Y-103386938D01*
X268757000Y-97922919D01*
X280643400Y-97922919D01*
X280643400Y-99481714D01*
X280643561Y-99486221D01*
X280648140Y-99550240D01*
X280650526Y-99563462D01*
X280687219Y-99688429D01*
X280694633Y-99704663D01*
X280763826Y-99812331D01*
X280775512Y-99825818D01*
X280872240Y-99909633D01*
X280887248Y-99919278D01*
X281003675Y-99972448D01*
X281020788Y-99977473D01*
X281151954Y-99996332D01*
X281160895Y-99996971D01*
X282712885Y-99996971D01*
X282728124Y-99992496D01*
X282729329Y-99991106D01*
X282731000Y-99983423D01*
X282731000Y-97927486D01*
X282729659Y-97922919D01*
X283581800Y-97922919D01*
X283581800Y-99978856D01*
X283586275Y-99994095D01*
X283587665Y-99995300D01*
X283595348Y-99996971D01*
X285154143Y-99996971D01*
X285158650Y-99996810D01*
X285222669Y-99992231D01*
X285235891Y-99989845D01*
X285360858Y-99953152D01*
X285377092Y-99945738D01*
X285484760Y-99876545D01*
X285498247Y-99864859D01*
X285582062Y-99768131D01*
X285591707Y-99753123D01*
X285644877Y-99636696D01*
X285649902Y-99619583D01*
X285668761Y-99488417D01*
X285669400Y-99479474D01*
X285669400Y-97927486D01*
X285664925Y-97912247D01*
X285663535Y-97911042D01*
X285655852Y-97909371D01*
X283599915Y-97909371D01*
X283584676Y-97913846D01*
X283583471Y-97915236D01*
X283581800Y-97922919D01*
X282729659Y-97922919D01*
X282726525Y-97912247D01*
X282725135Y-97911042D01*
X282717452Y-97909371D01*
X280661515Y-97909371D01*
X280646276Y-97913846D01*
X280645071Y-97915236D01*
X280643400Y-97922919D01*
X268757000Y-97922919D01*
X268757000Y-95488466D01*
X280643400Y-95488466D01*
X280643400Y-97040456D01*
X280647875Y-97055695D01*
X280649265Y-97056900D01*
X280656948Y-97058571D01*
X282712885Y-97058571D01*
X282728124Y-97054096D01*
X282729329Y-97052706D01*
X282731000Y-97045023D01*
X282731000Y-94989086D01*
X282729659Y-94984519D01*
X283581800Y-94984519D01*
X283581800Y-97040456D01*
X283586275Y-97055695D01*
X283587665Y-97056900D01*
X283595348Y-97058571D01*
X285651285Y-97058571D01*
X285666524Y-97054096D01*
X285667729Y-97052706D01*
X285669400Y-97045023D01*
X285669400Y-95486228D01*
X285669239Y-95481721D01*
X285664660Y-95417702D01*
X285662274Y-95404480D01*
X285625581Y-95279513D01*
X285618167Y-95263279D01*
X285548974Y-95155611D01*
X285537288Y-95142124D01*
X285440560Y-95058309D01*
X285425552Y-95048664D01*
X285309125Y-94995494D01*
X285292012Y-94990469D01*
X285160846Y-94971610D01*
X285151905Y-94970971D01*
X283599915Y-94970971D01*
X283584676Y-94975446D01*
X283583471Y-94976836D01*
X283581800Y-94984519D01*
X282729659Y-94984519D01*
X282726525Y-94973847D01*
X282725135Y-94972642D01*
X282717452Y-94970971D01*
X281158657Y-94970971D01*
X281154150Y-94971132D01*
X281090131Y-94975711D01*
X281076909Y-94978097D01*
X280951942Y-95014790D01*
X280935708Y-95022204D01*
X280828040Y-95091397D01*
X280814553Y-95103083D01*
X280730738Y-95199811D01*
X280721093Y-95214819D01*
X280667923Y-95331246D01*
X280662898Y-95348359D01*
X280644039Y-95479525D01*
X280643400Y-95488466D01*
X268757000Y-95488466D01*
X268757000Y-92142000D01*
X268745557Y-92138838D01*
X260450306Y-89846729D01*
X260389973Y-89809306D01*
X260359450Y-89745206D01*
X260368427Y-89674779D01*
X260414055Y-89620386D01*
X260474964Y-89599595D01*
X260537899Y-89595139D01*
X260642362Y-89587743D01*
X260642366Y-89587742D01*
X260647145Y-89587404D01*
X260681245Y-89579688D01*
X260894825Y-89531360D01*
X260894829Y-89531359D01*
X260899486Y-89530305D01*
X261140287Y-89435694D01*
X261334181Y-89323071D01*
X261359873Y-89308148D01*
X261359876Y-89308146D01*
X261364006Y-89305747D01*
X261565495Y-89143456D01*
X261694139Y-89002821D01*
X267522605Y-89002821D01*
X267525334Y-89006466D01*
X267698788Y-89069942D01*
X267709573Y-89072832D01*
X267910975Y-89107982D01*
X267922109Y-89108917D01*
X268126538Y-89107846D01*
X268137673Y-89106794D01*
X268338680Y-89069539D01*
X268349451Y-89066532D01*
X268501804Y-89008962D01*
X268513058Y-89000462D01*
X268512031Y-88995837D01*
X268030812Y-88514618D01*
X268016868Y-88507004D01*
X268015035Y-88507135D01*
X268008420Y-88511386D01*
X267529365Y-88990441D01*
X267522605Y-89002821D01*
X261694139Y-89002821D01*
X261705463Y-88990441D01*
X261736884Y-88956091D01*
X261736887Y-88956087D01*
X261740118Y-88952555D01*
X261883855Y-88737436D01*
X261993400Y-88503051D01*
X262066231Y-88254793D01*
X262069508Y-88230400D01*
X262100235Y-88001631D01*
X262100236Y-88001625D01*
X262100672Y-87998375D01*
X262101147Y-87981911D01*
X262101468Y-87970759D01*
X266807541Y-87970759D01*
X266808243Y-87981911D01*
X266839165Y-88183995D01*
X266841831Y-88194848D01*
X266908052Y-88388264D01*
X266908195Y-88388587D01*
X266915814Y-88396083D01*
X266923416Y-88393178D01*
X267403582Y-87913012D01*
X267409960Y-87901332D01*
X268624804Y-87901332D01*
X268624935Y-87903165D01*
X268629186Y-87909780D01*
X269107906Y-88388500D01*
X269120286Y-88395260D01*
X269126550Y-88390571D01*
X269128555Y-88386877D01*
X269132999Y-88376610D01*
X269197191Y-88182512D01*
X269199741Y-88171639D01*
X269228827Y-87967275D01*
X269229433Y-87960059D01*
X269230905Y-87903828D01*
X269230677Y-87896579D01*
X269212328Y-87690991D01*
X269210346Y-87679977D01*
X269156404Y-87482796D01*
X269152506Y-87472315D01*
X269126392Y-87417566D01*
X269116980Y-87407063D01*
X269110823Y-87408983D01*
X268632418Y-87887388D01*
X268624804Y-87901332D01*
X267409960Y-87901332D01*
X267411196Y-87899068D01*
X267411065Y-87897235D01*
X267406814Y-87890620D01*
X266929518Y-87413324D01*
X266917138Y-87406564D01*
X266913040Y-87409632D01*
X266858864Y-87544398D01*
X266855633Y-87555098D01*
X266814177Y-87755284D01*
X266812892Y-87766391D01*
X266807541Y-87970759D01*
X262101468Y-87970759D01*
X262103405Y-87903495D01*
X262103500Y-87900200D01*
X262103225Y-87896579D01*
X262084239Y-87646992D01*
X262084238Y-87646987D01*
X262083876Y-87642225D01*
X262025457Y-87390186D01*
X262025210Y-87389566D01*
X280152383Y-87389566D01*
X280152478Y-87393196D01*
X280152478Y-87393197D01*
X280154550Y-87472315D01*
X280161441Y-87735465D01*
X280161951Y-87739050D01*
X280161952Y-87739059D01*
X280165842Y-87766391D01*
X280210195Y-88078030D01*
X280211114Y-88081533D01*
X280211115Y-88081538D01*
X280251111Y-88233993D01*
X280298000Y-88412722D01*
X280423691Y-88735103D01*
X280425395Y-88738321D01*
X280567371Y-89006466D01*
X280585603Y-89040901D01*
X280587655Y-89043886D01*
X280587660Y-89043895D01*
X280779532Y-89323071D01*
X280779538Y-89323078D01*
X280781589Y-89326063D01*
X280875130Y-89433291D01*
X280971604Y-89543881D01*
X281009052Y-89586809D01*
X281264978Y-89819683D01*
X281545973Y-90021599D01*
X281848313Y-90189879D01*
X282167991Y-90322294D01*
X282171485Y-90323289D01*
X282171487Y-90323290D01*
X282497269Y-90416092D01*
X282497274Y-90416093D01*
X282500770Y-90417089D01*
X282735648Y-90455552D01*
X282838660Y-90472421D01*
X282838664Y-90472421D01*
X282842240Y-90473007D01*
X282845866Y-90473178D01*
X283184246Y-90489135D01*
X283184247Y-90489135D01*
X283187873Y-90489306D01*
X283200987Y-90488412D01*
X283529458Y-90466020D01*
X283529466Y-90466019D01*
X283533089Y-90465772D01*
X283536665Y-90465109D01*
X283536667Y-90465109D01*
X283869747Y-90403376D01*
X283869751Y-90403375D01*
X283873312Y-90402715D01*
X284204033Y-90300972D01*
X284520868Y-90161891D01*
X284819618Y-89987316D01*
X284822527Y-89985132D01*
X285093416Y-89781743D01*
X285093420Y-89781740D01*
X285096323Y-89779560D01*
X285347315Y-89541377D01*
X285569268Y-89275925D01*
X285583048Y-89254947D01*
X285757252Y-88989747D01*
X285757257Y-88989738D01*
X285759239Y-88986721D01*
X285884617Y-88737436D01*
X285913085Y-88680835D01*
X285913088Y-88680827D01*
X285914712Y-88677599D01*
X285917116Y-88671031D01*
X286032376Y-88356068D01*
X286032379Y-88356058D01*
X286033624Y-88352656D01*
X286034469Y-88349134D01*
X286034472Y-88349126D01*
X286113553Y-88019728D01*
X286113554Y-88019724D01*
X286114400Y-88016199D01*
X286116557Y-87998375D01*
X286155633Y-87675467D01*
X286155633Y-87675460D01*
X286155969Y-87672688D01*
X286156927Y-87642225D01*
X286161812Y-87486768D01*
X286161900Y-87483971D01*
X286158071Y-87417566D01*
X286142191Y-87142147D01*
X286142190Y-87142142D01*
X286141982Y-87138527D01*
X286126275Y-87048529D01*
X286083115Y-86801235D01*
X286083113Y-86801228D01*
X286082491Y-86797662D01*
X286080314Y-86790310D01*
X286010879Y-86555904D01*
X285984217Y-86465894D01*
X285959514Y-86407977D01*
X285849884Y-86150954D01*
X285848462Y-86147620D01*
X285821011Y-86099493D01*
X285678827Y-85850218D01*
X285678822Y-85850211D01*
X285677024Y-85847058D01*
X285472178Y-85568193D01*
X285236636Y-85314721D01*
X285233882Y-85312369D01*
X285233878Y-85312365D01*
X285123641Y-85218214D01*
X284973523Y-85090000D01*
X284970520Y-85087982D01*
X284970512Y-85087976D01*
X284784796Y-84963181D01*
X284686324Y-84897011D01*
X284378847Y-84738310D01*
X284055167Y-84616002D01*
X283719575Y-84531707D01*
X283574642Y-84512626D01*
X283380121Y-84487016D01*
X283380113Y-84487015D01*
X283376517Y-84486542D01*
X283226479Y-84484185D01*
X283034184Y-84481164D01*
X283034181Y-84481164D01*
X283030543Y-84481107D01*
X283026928Y-84481468D01*
X283026924Y-84481468D01*
X282859058Y-84498224D01*
X282686236Y-84515474D01*
X282682699Y-84516245D01*
X282682694Y-84516246D01*
X282391883Y-84579653D01*
X282348161Y-84589186D01*
X282344734Y-84590359D01*
X282344728Y-84590361D01*
X282024231Y-84700092D01*
X282024226Y-84700094D01*
X282020800Y-84701267D01*
X282017532Y-84702826D01*
X282017524Y-84702829D01*
X281858144Y-84778850D01*
X281708489Y-84850231D01*
X281415370Y-85034104D01*
X281145328Y-85250449D01*
X280901941Y-85496398D01*
X280688436Y-85768691D01*
X280507642Y-86063720D01*
X280506117Y-86067005D01*
X280506115Y-86067009D01*
X280433930Y-86222519D01*
X280361957Y-86377573D01*
X280353638Y-86402727D01*
X280262229Y-86679123D01*
X280253310Y-86706090D01*
X280252574Y-86709645D01*
X280252573Y-86709648D01*
X280203350Y-86947335D01*
X280183142Y-87044918D01*
X280171795Y-87172064D01*
X280152725Y-87385738D01*
X280152383Y-87389566D01*
X262025210Y-87389566D01*
X261929586Y-87149884D01*
X261798470Y-86926848D01*
X261757113Y-86876048D01*
X261695237Y-86800045D01*
X267523920Y-86800045D01*
X267526291Y-86806885D01*
X268005188Y-87285782D01*
X268019132Y-87293396D01*
X268020965Y-87293265D01*
X268027580Y-87289014D01*
X268504068Y-86812526D01*
X268510828Y-86800146D01*
X268507384Y-86795546D01*
X268410040Y-86752814D01*
X268399441Y-86749247D01*
X268200656Y-86701523D01*
X268189594Y-86699890D01*
X267985506Y-86688122D01*
X267974322Y-86688474D01*
X267771375Y-86713033D01*
X267760441Y-86715357D01*
X267565046Y-86775468D01*
X267554690Y-86779694D01*
X267534121Y-86790310D01*
X267523920Y-86800045D01*
X261695237Y-86800045D01*
X261638148Y-86729923D01*
X261635126Y-86726211D01*
X261631581Y-86723002D01*
X261631576Y-86722997D01*
X261446860Y-86555801D01*
X261446856Y-86555798D01*
X261443313Y-86552591D01*
X261227445Y-86409981D01*
X261223104Y-86407980D01*
X261223099Y-86407977D01*
X260996842Y-86303672D01*
X260996839Y-86303671D01*
X260992490Y-86301666D01*
X260927077Y-86282847D01*
X260748447Y-86231456D01*
X260748442Y-86231455D01*
X260743854Y-86230135D01*
X260487259Y-86197037D01*
X260345490Y-86200378D01*
X260233391Y-86203020D01*
X260233387Y-86203020D01*
X260228610Y-86203133D01*
X260223907Y-86203967D01*
X260223902Y-86203967D01*
X260178763Y-86211967D01*
X260156776Y-86213900D01*
X259070533Y-86213900D01*
X259002412Y-86193898D01*
X258955919Y-86140242D01*
X258945815Y-86069968D01*
X258975309Y-86005388D01*
X259007152Y-85979001D01*
X259154263Y-85893380D01*
X259160505Y-85884737D01*
X259153929Y-85872936D01*
X259116585Y-85835592D01*
X262199435Y-85835592D01*
X262204822Y-85842789D01*
X262439863Y-85981792D01*
X262447310Y-85985554D01*
X262715733Y-86099493D01*
X262723601Y-86102233D01*
X263004728Y-86179668D01*
X263012907Y-86181347D01*
X263301798Y-86220919D01*
X263310123Y-86221502D01*
X263601709Y-86222519D01*
X263610042Y-86221995D01*
X263899216Y-86184439D01*
X263907381Y-86182822D01*
X264189058Y-86107347D01*
X264196937Y-86104665D01*
X264466151Y-85992602D01*
X264473623Y-85988893D01*
X264722263Y-85844181D01*
X264728465Y-85835592D01*
X267199435Y-85835592D01*
X267204822Y-85842789D01*
X267439863Y-85981792D01*
X267447310Y-85985554D01*
X267715733Y-86099493D01*
X267723601Y-86102233D01*
X268004728Y-86179668D01*
X268012907Y-86181347D01*
X268301798Y-86220919D01*
X268310123Y-86221502D01*
X268601709Y-86222519D01*
X268610042Y-86221995D01*
X268899216Y-86184439D01*
X268907381Y-86182822D01*
X269189058Y-86107347D01*
X269196937Y-86104665D01*
X269466151Y-85992602D01*
X269473623Y-85988893D01*
X269722263Y-85844181D01*
X269728505Y-85835537D01*
X269721929Y-85823736D01*
X268476610Y-84578416D01*
X268462669Y-84570804D01*
X268460834Y-84570935D01*
X268454220Y-84575186D01*
X267206195Y-85823212D01*
X267199435Y-85835592D01*
X264728465Y-85835592D01*
X264728505Y-85835537D01*
X264721929Y-85823736D01*
X263476610Y-84578416D01*
X263462669Y-84570804D01*
X263460834Y-84570935D01*
X263454220Y-84575186D01*
X262206195Y-85823212D01*
X262199435Y-85835592D01*
X259116585Y-85835592D01*
X257908610Y-84627616D01*
X257894669Y-84620004D01*
X257892834Y-84620135D01*
X257886220Y-84624386D01*
X256638195Y-85872412D01*
X256631435Y-85884792D01*
X256636822Y-85891989D01*
X256834345Y-86008804D01*
X256882798Y-86060696D01*
X256895503Y-86130547D01*
X256868428Y-86196178D01*
X256810707Y-86236570D01*
X256680869Y-86280644D01*
X256451277Y-86399908D01*
X256242366Y-86552528D01*
X256058945Y-86734991D01*
X256025927Y-86779694D01*
X255914187Y-86930979D01*
X255905234Y-86943100D01*
X255903006Y-86947335D01*
X255796439Y-87149884D01*
X255784769Y-87172064D01*
X255700325Y-87416616D01*
X255653843Y-87671127D01*
X255653705Y-87675909D01*
X255653705Y-87675911D01*
X255651886Y-87739059D01*
X255646393Y-87929740D01*
X255678148Y-88186505D01*
X255721939Y-88341777D01*
X255721179Y-88412767D01*
X255682158Y-88472079D01*
X255617265Y-88500878D01*
X255567112Y-88497425D01*
X251889252Y-87481175D01*
X251415439Y-87350253D01*
X251355106Y-87312830D01*
X251331967Y-87275495D01*
X251261586Y-87099084D01*
X251130470Y-86876048D01*
X251060669Y-86790310D01*
X250970148Y-86679123D01*
X250967126Y-86675411D01*
X250963581Y-86672202D01*
X250963576Y-86672197D01*
X250778860Y-86505001D01*
X250778856Y-86504998D01*
X250775313Y-86501791D01*
X250587285Y-86377573D01*
X250563437Y-86361818D01*
X250563435Y-86361817D01*
X250559445Y-86359181D01*
X250555104Y-86357180D01*
X250555099Y-86357177D01*
X250328842Y-86252872D01*
X250328839Y-86252871D01*
X250324490Y-86250866D01*
X250319888Y-86249542D01*
X250080447Y-86180656D01*
X250080442Y-86180655D01*
X250075854Y-86179335D01*
X249819259Y-86146237D01*
X249581968Y-86151830D01*
X249513396Y-86133439D01*
X249465652Y-86080893D01*
X249453000Y-86025865D01*
X249453000Y-85884792D01*
X251631435Y-85884792D01*
X251636822Y-85891989D01*
X251871863Y-86030992D01*
X251879310Y-86034754D01*
X252147733Y-86148693D01*
X252155601Y-86151433D01*
X252436728Y-86228868D01*
X252444907Y-86230547D01*
X252733798Y-86270119D01*
X252742123Y-86270702D01*
X253033709Y-86271719D01*
X253042042Y-86271195D01*
X253331216Y-86233639D01*
X253339381Y-86232022D01*
X253621058Y-86156547D01*
X253628937Y-86153865D01*
X253898151Y-86041802D01*
X253905623Y-86038093D01*
X254154263Y-85893381D01*
X254160505Y-85884737D01*
X254153929Y-85872936D01*
X252908610Y-84627616D01*
X252894669Y-84620004D01*
X252892834Y-84620135D01*
X252886220Y-84624386D01*
X251638195Y-85872412D01*
X251631435Y-85884792D01*
X249453000Y-85884792D01*
X249453000Y-84103776D01*
X250634887Y-84103776D01*
X250635237Y-84112128D01*
X250666728Y-84402009D01*
X250668177Y-84410226D01*
X250737731Y-84693397D01*
X250740258Y-84701362D01*
X250846649Y-84972842D01*
X250850205Y-84980399D01*
X250991575Y-85235436D01*
X250996084Y-85242434D01*
X251014636Y-85267414D01*
X251025828Y-85275858D01*
X251038334Y-85269060D01*
X252281382Y-84026012D01*
X252287760Y-84014331D01*
X253502604Y-84014331D01*
X253502735Y-84016166D01*
X253506986Y-84022780D01*
X254753873Y-85269666D01*
X254766312Y-85276459D01*
X254777526Y-85268091D01*
X254786881Y-85255676D01*
X254791450Y-85248695D01*
X254934597Y-84994649D01*
X254938199Y-84987129D01*
X255046490Y-84716382D01*
X255049065Y-84708459D01*
X255120596Y-84425769D01*
X255122103Y-84417561D01*
X255155770Y-84126581D01*
X255156168Y-84120891D01*
X255156586Y-84103776D01*
X255634887Y-84103776D01*
X255635237Y-84112128D01*
X255666728Y-84402009D01*
X255668177Y-84410226D01*
X255737731Y-84693397D01*
X255740258Y-84701362D01*
X255846649Y-84972842D01*
X255850205Y-84980399D01*
X255991575Y-85235436D01*
X255996084Y-85242434D01*
X256014636Y-85267414D01*
X256025828Y-85275858D01*
X256038334Y-85269060D01*
X257281382Y-84026012D01*
X257287760Y-84014331D01*
X258502604Y-84014331D01*
X258502735Y-84016166D01*
X258506986Y-84022780D01*
X259753873Y-85269666D01*
X259766312Y-85276459D01*
X259777526Y-85268091D01*
X259786881Y-85255676D01*
X259791450Y-85248695D01*
X259934597Y-84994649D01*
X259938199Y-84987129D01*
X260046490Y-84716382D01*
X260049065Y-84708459D01*
X260120596Y-84425769D01*
X260122103Y-84417561D01*
X260155770Y-84126581D01*
X260156168Y-84120891D01*
X260157789Y-84054576D01*
X261202887Y-84054576D01*
X261203237Y-84062928D01*
X261234728Y-84352809D01*
X261236177Y-84361026D01*
X261305731Y-84644197D01*
X261308258Y-84652162D01*
X261414649Y-84923642D01*
X261418205Y-84931199D01*
X261559575Y-85186236D01*
X261564084Y-85193234D01*
X261582636Y-85218214D01*
X261593828Y-85226658D01*
X261606334Y-85219860D01*
X262849382Y-83976812D01*
X262855760Y-83965131D01*
X264070604Y-83965131D01*
X264070735Y-83966966D01*
X264074986Y-83973580D01*
X265321873Y-85220466D01*
X265334312Y-85227259D01*
X265345526Y-85218891D01*
X265354881Y-85206476D01*
X265359450Y-85199495D01*
X265502597Y-84945449D01*
X265506199Y-84937929D01*
X265614490Y-84667182D01*
X265617065Y-84659259D01*
X265688596Y-84376569D01*
X265690103Y-84368361D01*
X265723770Y-84077381D01*
X265724168Y-84071691D01*
X265724586Y-84054576D01*
X266202887Y-84054576D01*
X266203237Y-84062928D01*
X266234728Y-84352809D01*
X266236177Y-84361026D01*
X266305731Y-84644197D01*
X266308258Y-84652162D01*
X266414649Y-84923642D01*
X266418205Y-84931199D01*
X266559575Y-85186236D01*
X266564084Y-85193234D01*
X266582636Y-85218214D01*
X266593828Y-85226658D01*
X266606334Y-85219860D01*
X267849382Y-83976812D01*
X267855760Y-83965131D01*
X269070604Y-83965131D01*
X269070735Y-83966966D01*
X269074986Y-83973580D01*
X270321873Y-85220466D01*
X270334312Y-85227259D01*
X270345526Y-85218891D01*
X270354881Y-85206476D01*
X270359450Y-85199495D01*
X270502597Y-84945449D01*
X270506199Y-84937929D01*
X270614490Y-84667182D01*
X270617065Y-84659259D01*
X270688596Y-84376569D01*
X270690103Y-84368361D01*
X270723770Y-84077381D01*
X270724168Y-84071691D01*
X270726730Y-83966855D01*
X270726611Y-83961155D01*
X270707198Y-83668875D01*
X270706095Y-83660606D01*
X270648459Y-83374769D01*
X270646269Y-83366708D01*
X270551336Y-83091002D01*
X270548105Y-83083315D01*
X270417543Y-82822590D01*
X270413313Y-82815381D01*
X270342862Y-82711714D01*
X270332741Y-82703390D01*
X270318827Y-82710580D01*
X269078216Y-83951190D01*
X269070604Y-83965131D01*
X267855760Y-83965131D01*
X267856996Y-83962868D01*
X267856865Y-83961035D01*
X267852614Y-83954420D01*
X266606366Y-82708173D01*
X266593986Y-82701413D01*
X266586178Y-82707258D01*
X266467890Y-82898037D01*
X266463977Y-82905398D01*
X266344447Y-83171364D01*
X266341537Y-83179187D01*
X266258229Y-83458637D01*
X266256384Y-83466758D01*
X266210768Y-83754770D01*
X266210012Y-83763081D01*
X266202887Y-84054576D01*
X265724586Y-84054576D01*
X265726730Y-83966855D01*
X265726611Y-83961155D01*
X265707198Y-83668875D01*
X265706095Y-83660606D01*
X265648459Y-83374769D01*
X265646269Y-83366708D01*
X265551336Y-83091002D01*
X265548105Y-83083315D01*
X265417543Y-82822590D01*
X265413313Y-82815381D01*
X265342862Y-82711714D01*
X265332741Y-82703390D01*
X265318827Y-82710580D01*
X264078216Y-83951190D01*
X264070604Y-83965131D01*
X262855760Y-83965131D01*
X262856996Y-83962868D01*
X262856865Y-83961035D01*
X262852614Y-83954420D01*
X261606366Y-82708173D01*
X261593986Y-82701413D01*
X261586178Y-82707258D01*
X261467890Y-82898037D01*
X261463977Y-82905398D01*
X261344447Y-83171364D01*
X261341537Y-83179187D01*
X261258229Y-83458637D01*
X261256384Y-83466758D01*
X261210768Y-83754770D01*
X261210012Y-83763081D01*
X261202887Y-84054576D01*
X260157789Y-84054576D01*
X260158730Y-84016055D01*
X260158611Y-84010355D01*
X260139198Y-83718075D01*
X260138095Y-83709806D01*
X260080459Y-83423969D01*
X260078269Y-83415908D01*
X259983336Y-83140202D01*
X259980105Y-83132515D01*
X259849543Y-82871790D01*
X259845313Y-82864581D01*
X259774862Y-82760914D01*
X259764741Y-82752590D01*
X259750827Y-82759780D01*
X258510216Y-84000390D01*
X258502604Y-84014331D01*
X257287760Y-84014331D01*
X257288996Y-84012068D01*
X257288865Y-84010235D01*
X257284614Y-84003620D01*
X256038366Y-82757373D01*
X256025986Y-82750613D01*
X256018178Y-82756458D01*
X255899890Y-82947237D01*
X255895977Y-82954598D01*
X255776447Y-83220564D01*
X255773537Y-83228387D01*
X255690229Y-83507837D01*
X255688384Y-83515958D01*
X255642768Y-83803970D01*
X255642012Y-83812281D01*
X255634887Y-84103776D01*
X255156586Y-84103776D01*
X255158730Y-84016055D01*
X255158611Y-84010355D01*
X255139198Y-83718075D01*
X255138095Y-83709806D01*
X255080459Y-83423969D01*
X255078269Y-83415908D01*
X254983336Y-83140202D01*
X254980105Y-83132515D01*
X254849543Y-82871790D01*
X254845313Y-82864581D01*
X254774862Y-82760914D01*
X254764741Y-82752590D01*
X254750827Y-82759780D01*
X253510216Y-84000390D01*
X253502604Y-84014331D01*
X252287760Y-84014331D01*
X252288996Y-84012068D01*
X252288865Y-84010235D01*
X252284614Y-84003620D01*
X251038366Y-82757373D01*
X251025986Y-82750613D01*
X251018178Y-82756458D01*
X250899890Y-82947237D01*
X250895977Y-82954598D01*
X250776447Y-83220564D01*
X250773537Y-83228387D01*
X250690229Y-83507837D01*
X250688384Y-83515958D01*
X250642768Y-83803970D01*
X250642012Y-83812281D01*
X250634887Y-84103776D01*
X249453000Y-84103776D01*
X249453000Y-82144093D01*
X251634510Y-82144093D01*
X251641514Y-82157307D01*
X252882990Y-83398784D01*
X252896931Y-83406396D01*
X252898766Y-83406265D01*
X252905380Y-83402014D01*
X254150582Y-82156811D01*
X254157342Y-82144431D01*
X254157089Y-82144093D01*
X256634510Y-82144093D01*
X256641514Y-82157307D01*
X257882990Y-83398784D01*
X257896931Y-83406396D01*
X257898766Y-83406265D01*
X257905380Y-83402014D01*
X259150582Y-82156811D01*
X259157342Y-82144431D01*
X259150988Y-82135942D01*
X259003325Y-82040049D01*
X258996055Y-82035987D01*
X258732648Y-81910912D01*
X258724880Y-81907836D01*
X258447249Y-81818699D01*
X258439160Y-81816682D01*
X258152160Y-81765042D01*
X258143882Y-81764114D01*
X257852577Y-81750885D01*
X257844255Y-81751059D01*
X257553754Y-81776475D01*
X257545516Y-81777750D01*
X257260940Y-81841360D01*
X257252936Y-81843716D01*
X256979275Y-81944405D01*
X256971659Y-81947795D01*
X256713724Y-82083789D01*
X256706608Y-82088167D01*
X256642906Y-82133438D01*
X256634510Y-82144093D01*
X254157089Y-82144093D01*
X254150988Y-82135942D01*
X254003325Y-82040049D01*
X253996055Y-82035987D01*
X253732648Y-81910912D01*
X253724880Y-81907836D01*
X253447249Y-81818699D01*
X253439160Y-81816682D01*
X253152160Y-81765042D01*
X253143882Y-81764114D01*
X252852577Y-81750885D01*
X252844255Y-81751059D01*
X252553754Y-81776475D01*
X252545516Y-81777750D01*
X252260940Y-81841360D01*
X252252936Y-81843716D01*
X251979275Y-81944405D01*
X251971659Y-81947795D01*
X251713724Y-82083789D01*
X251706608Y-82088167D01*
X251642906Y-82133438D01*
X251634510Y-82144093D01*
X249453000Y-82144093D01*
X249453000Y-81600236D01*
X249473002Y-81532115D01*
X249526658Y-81485622D01*
X249579235Y-81474236D01*
X254426976Y-81483309D01*
G37*
%TD.AperFunction*%
%TD*%
M02*
